<svg xmlns="http://www.w3.org/2000/svg" viewBox="0 0 128.51 186.26"><defs><style>.cls-1{fill:#ff0c0c;}.cls-2{fill:#a00000;}.cls-3{fill:#fff;}</style></defs><g id="Layer_2" data-name="Layer 2"><g id="Anker"><g id="red"><path class="cls-1" d="M125.54,113.79c-4.05,3.94-7.63,9.95-11.9,13.79s-7.1,7.21-13.1,9.21c1.79.51,4,2,5.46,2.12s4.74,1.54,6.54,1.88c-3.09,3.09-6.28,6-9.49,9.09-2.74,2.63-6.44,4.32-9.93,5.6-6.69,2.46-16-.23-16.55-7.92,0-.51-.08-1-.17-1.52-1-5.85-1.68-10.85-2.81-16.84-1.64-8.73-1.2-17.95-1.82-26.78-.41-6-.4-12.16-.6-18.09-.3-9-.63-17.61-.63-26.54,3,0,5.78-.52,8.72-.67a115.15,115.15,0,0,0,12.53-1.29c3-.48,5.81-.69,8.8-1,2.28-.22,5-.07,8-1.07,1-3,1-7.81,1-11a150.12,150.12,0,0,0-20.13-.3c-7.08.24-13.78-.7-20.87-.7v-4c3-1,2-1,3.87-2.12,2-1.24,3.44-3.77,4.51-5.92,3.25-6.5,2.81-11.79,0-18.36-1.24-2.88-2.35-3.6-5.26-6a15.07,15.07,0,0,0-9.36-2.86c-5.54.33-12.11,3.12-15.2,7.81S44.55,20.79,46,26c1.59,5.6,6.54,9.36,11.5,11.78v4c-13.17,0-27.91,2-41,2v12c6.13,0,12,0,18.16.61,4.56.44,9.15.64,13.73,1.13,2.79.3,4.48.88,7.11,1.26,0,14.43.59,29.05.59,43.48,0,8.13-.59,16.52-.94,24.06-.29,6.49-.54,13.85-.63,20.34a28.66,28.66,0,0,1-.32,3.81c-.33,2.2-.35,2.88-3.09,5.28-2.25,2-5.47,2-8.29,1.89-3.62-.15-6.23-1.26-9.4-2.93A35.43,35.43,0,0,1,25.07,149c-2.15-2-4.21-4.42-6.53-6.25a19.2,19.2,0,0,1,10-3c-2-2-5-4-7.4-6-2.15-1.8-4.49-3.38-6.68-5.19s-4.06-3.82-6.13-5.75-3-5-4.79-7.06c-2.51,10.17-.12,20.91,2,31a80.11,80.11,0,0,0,6.09,18.13,19.64,19.64,0,0,1,.92-5.7c.77-2.59,1.92-3.9,3-6.38,1,2.6,3,4,4.8,6.27a46.22,46.22,0,0,0,5.84,6,53.66,53.66,0,0,0,7.1,5.43,37.76,37.76,0,0,0,9.84,3.92c3.8,1,7.42.35,11.55-.32,2.38-.39,5.45,1.89,7.2,3.6,1.49,1.46,2.39,3.87,3.67,6.07,1-4,4.15-7.81,7.26-9,4.13-1.59,8.69-2.11,13.2-2.5,3.39-.29,6.78-2,9.94-3.25,4.61-1.81,7.86-5.86,11.08-9.49,1.86-2.09,4-3.85,5.78-6a23.19,23.19,0,0,0,2.74-4.73,42.09,42.09,0,0,1,2,14c2-2,3-2.83,3.9-4.82a48,48,0,0,0,2.72-7.62,55.56,55.56,0,0,0,1.81-15.8C126,127.53,125.44,120.73,125.54,113.79ZM66.37,23.59c-.12-.8-.54-.68-1.28-.68-.58,0-1.16,0-1.73.07-1,0-2,0-3.07,0-.54,0-1.1,0-1.63,0-.77.05-.86.14-.9.87-.07,1.33-.22,2.6-.22,3.95a12.65,12.65,0,0,1-3.74-4.14A9.42,9.42,0,0,1,53.12,19c.14-1.52.27-3.12,1.33-4.16,2.09-2.06,1.09-3.06,7.09-4.06,1.44.11,4,0,5.48,1.57a18.52,18.52,0,0,1,3.52,4.43c1.58,3.1.58,5.06-.37,7.83A15.29,15.29,0,0,1,69,26.86c-.48.93-2.48.93-2.48.93A28.58,28.58,0,0,0,66.37,23.59Z"/><path class="cls-2" d="M63.09,154.18c-.07,5,5.78,7.33,9.68,8.71a31.36,31.36,0,0,0,17.89,1,25.42,25.42,0,0,0,7.61-3,60.9,60.9,0,0,0,7.48-5.91,43.82,43.82,0,0,0,6.6-6.74,48.8,48.8,0,0,0,5-8.56c1.73-3.72,3-7.61,4.35-11.47,1.25-3.52,3.15-6.79,4.06-10.42a8.5,8.5,0,0,1-1.45.37c-.17,0-1.41.24-1.45.4a62.91,62.91,0,0,1-3.26,8.36c-1.32,3.22-2.28,6.57-3.56,9.81-2.29,5.8-5.3,11.58-9.78,16-2,2-4.21,3.78-6.36,5.57a31,31,0,0,1-7.58,5c-.33.14-.67.25-1,.38-1.53.58,3.18-.66.72-.23-.82.14-1.65.24-2.48.32a34.08,34.08,0,0,1-4.74.13,30.24,30.24,0,0,1-8.63-1.64c-4-1.39-10.26-3.73-10.19-8.88,0,.25-2.89.48-2.89.77Z"/><path class="cls-2" d="M2,121.25a57.9,57.9,0,0,0,6.07,16.54c3.15,5.35,7.65,10,12.07,14.33a49.21,49.21,0,0,0,15.1,10.16c4.93,2.07,11,3.7,16.37,2.57,4.53-.95,9.18-2.53,12.16-6.28A10.8,10.8,0,0,0,66,151.2c0-3.66-.13-7.33-.21-11-.18-7.3-.32-14.61-.09-21.91.06-1.69.22-3.38.15-5.07,0-1.32-.23-2.63-.35-4a64.35,64.35,0,0,1-.26-7.6c.34-14.67-.42-29.35-.42-44,0,.24-2.9.5-2.9.78,0,7.3.11,14.6.24,21.9.12,6.42.44,12.88.28,19.3a100.12,100.12,0,0,0,.38,12.49,87.5,87.5,0,0,1-.08,9.85c0,3.48,0,7,0,10.45.07,7.08.5,14.18.38,21.26-.09,4.81-4.34,8.5-8.47,10.22-.38.16-.77.3-1.16.44-.71.25-1-.08,1.26-.32-.59.06-1.17.23-1.76.3a22,22,0,0,1-4.29-.09,35.75,35.75,0,0,1-8.25-1.86,46.91,46.91,0,0,1-15.14-9,87.73,87.73,0,0,1-7-7,62.49,62.49,0,0,1-6.42-8c-3.48-5.28-5.56-11.76-6.92-17.89,0,0-2.92.71-2.9.77Z"/><g id="outline"><path class="cls-3" d="M123.77,112c-4.2,4.14-7.18,9.35-11.47,13.39-3.77,3.55-7.43,7.25-12.43,9a2.53,2.53,0,0,0,0,4.83,33.26,33.26,0,0,1,3.14,1.34,12.25,12.25,0,0,0,1.74.67c.36.09.74.11,1.1.17s-.6-.15.2,0c2,.49,3.83,1.36,5.82,1.78l-1.1-4.18c-1.72,1.71-3.47,3.38-5.23,5.05s-3.35,3.36-5.17,4.85a24.19,24.19,0,0,1-10,4.74,12.15,12.15,0,0,1-7.54-1A6.61,6.61,0,0,1,79,147c-.21-2.3-.71-4.59-1.07-6.87s-.71-4.45-1.08-6.67a132.81,132.81,0,0,1-1.9-14c-.28-4.72-.31-9.45-.53-14.17s-.5-9.5-.61-14.26c-.24-11-.79-22.1-.79-33.17l-2.5,2.5c2.3,0,4.59-.32,6.88-.53s4.77-.3,7.15-.52c4.66-.43,9.26-1.27,13.92-1.69,2-.18,4-.26,6-.45,2.32-.22,5.72-.35,6.54-3,1.13-3.58,1-7.64,1-11.36a2.58,2.58,0,0,0-2.5-2.5A145.64,145.64,0,0,0,89.83,40c-7.11.24-14.18-.65-21.29-.68l2.5,2.5v-4L69.2,40.21a11.33,11.33,0,0,0,3.72-1.87c.06-.05.43-.34.18-.16s.45-.27.57-.35A11.38,11.38,0,0,0,76,35.88a24.63,24.63,0,0,0,5.3-11,22.6,22.6,0,0,0-1.19-12.2,20.14,20.14,0,0,0-2.34-4.91,18.33,18.33,0,0,0-3.38-3.38,18.44,18.44,0,0,0-4.74-3A19.3,19.3,0,0,0,64.13.07a21.92,21.92,0,0,0-10.45,2,19.94,19.94,0,0,0-8.47,6.55A17.13,17.13,0,0,0,42.39,20c.33,4.24,1.37,8.67,4,12.12A27.25,27.25,0,0,0,56.27,40L55,37.79v4l2.5-2.5c-13.7,0-27.31,2-41,2a2.54,2.54,0,0,0-2.5,2.5v12a2.53,2.53,0,0,0,2.5,2.5c6.73,0,13.4.23,20.11.79,3.27.27,6.55.45,9.82.76,2.85.26,5.58.93,8.4,1.37L53,58.79c0,18.9,1.12,37.8.2,56.69-.42,8.76-.88,17.52-1.09,26.3,0,2.18,0,4.38-.17,6.56a21.91,21.91,0,0,1-.3,2.42c0,.27-.1.53-.17.8a2.83,2.83,0,0,1-.14.41c.11-.24.07-.16,0,0A7.45,7.45,0,0,1,48,154.72a13.4,13.4,0,0,1-5.16.43c-4.3-.21-8.26-2.46-11.84-4.68-4.11-2.56-7-6.44-10.72-9.44L19.8,145a17,17,0,0,1,8.74-2.66A2.52,2.52,0,0,0,30.3,138c-2.07-2-4.47-3.65-6.72-5.46-2.48-2-5.09-3.84-7.53-5.89-1.19-1-2.31-2.07-3.42-3.15a44,44,0,0,1-3.15-3.11c-1.63-2-2.57-4.4-4.18-6.39-1.19-1.48-3.77-.6-4.17,1.1-2.07,8.65-1,17.52.73,26.13s3.8,16.94,7.61,24.87c1.12,2.33,4.61,1.07,4.66-1.26a17.08,17.08,0,0,1,1.18-6c.64-1.66,1.66-3.15,2.38-4.77H13.38A17.34,17.34,0,0,0,16.94,159c1.47,1.58,2.76,3.29,4.26,4.85a59.8,59.8,0,0,0,9.57,8,37.15,37.15,0,0,0,11.9,5,20.27,20.27,0,0,0,6.54.48c1.19-.09,2.38-.26,3.56-.44a13.52,13.52,0,0,1,2.53-.39c1.76.11,3.62,1.74,4.8,2.93,1.5,1.52,2.24,3.75,3.28,5.58a2.53,2.53,0,0,0,4.57-.6c.89-3.36,3.19-6.5,6.55-7.63,4.28-1.44,8.64-1.53,13-2.24a29.17,29.17,0,0,0,6.54-2.1,36.68,36.68,0,0,0,5.93-2.75c3.39-2.2,6-5.28,8.64-8.28,1.6-1.8,3.43-3.38,5-5.17a23.72,23.72,0,0,0,4-6.23l-4.56-.6A42.38,42.38,0,0,1,115,162.79a2.52,2.52,0,0,0,4.26,1.77,22.55,22.55,0,0,0,3.79-4.37,29.75,29.75,0,0,0,2.42-5.73,53.77,53.77,0,0,0,2.72-13c.76-9.18-.3-18.43-.19-27.63,0-3.21-5-3.22-5,0-.11,8.76.82,17.54.29,26.29a49.32,49.32,0,0,1-2.22,11.78,30.05,30.05,0,0,1-2.17,5.51,17.24,17.24,0,0,1-3.17,3.66l4.27,1.76A46.94,46.94,0,0,0,118,148.13c-.62-1.85-3.61-2.69-4.57-.6a20.33,20.33,0,0,1-3.21,5.23c-1.48,1.63-3.14,3.07-4.62,4.69-2.63,2.87-5,6.11-8.39,8.18a35.47,35.47,0,0,1-5.69,2.56,22.47,22.47,0,0,1-6.37,1.68c-4.47.41-9.08.93-13.27,2.63-4.36,1.78-7.51,6.17-8.7,10.63l4.56-.6a49.4,49.4,0,0,0-3-5.27,16.1,16.1,0,0,0-4.47-4,9.07,9.07,0,0,0-5.59-1.65c-2.2.22-4.34.74-6.56.83-4,.15-8.36-1.33-11.94-3.17a44.6,44.6,0,0,1-9.54-7.14,64.13,64.13,0,0,1-5.06-5.5c-1.43-1.66-3-3-3.88-5.11-.7-1.66-3.6-1.61-4.31,0-.9,2-2.11,3.89-2.9,6a22,22,0,0,0-1.35,7.37l4.65-1.27c-3.53-7.37-5.42-15.23-7-23.21s-2.71-16-.82-23.93l-4.18,1.1c1.56,1.94,2.44,4.34,4.06,6.26a41,41,0,0,0,3.1,3.08c1.16,1.14,2.33,2.27,3.58,3.32,2.39,2,5,3.79,7.36,5.75s4.78,3.52,6.9,5.59l1.77-4.27a22,22,0,0,0-11.27,3.35c-1.27.73-1.78,2.9-.5,3.92,3.64,2.92,6.48,6.64,10.34,9.31a37.27,37.27,0,0,0,11.55,5.69c3.89,1,8.87,1.16,12.5-.78a12.72,12.72,0,0,0,4.35-4.06,10,10,0,0,0,1.25-4.38c.63-4.63.4-9.41.55-14.07s.34-9.34.58-14c.51-9.8.8-19.56.67-29.37-.16-11.37-.51-22.73-.52-34.11a2.54,2.54,0,0,0-1.84-2.41c-2.93-.44-5.79-1.16-8.75-1.45-3.43-.34-6.87-.54-10.31-.81-6.88-.56-13.7-.82-20.6-.83l2.5,2.5v-12l-2.5,2.5c13.69,0,27.3-2,41-2a2.53,2.53,0,0,0,2.5-2.5v-4a2.47,2.47,0,0,0-1.24-2.15,25.06,25.06,0,0,1-7.43-5.25,15.46,15.46,0,0,1-3.61-7.82,15.73,15.73,0,0,1,.41-9,12.41,12.41,0,0,1,5.7-6c4.62-2.61,10.67-3.67,15.42-.78A13.59,13.59,0,0,1,74.44,12a20.81,20.81,0,0,1,2.24,9.4,19.68,19.68,0,0,1-3.59,10.07,13.52,13.52,0,0,1-3.28,3,3.57,3.57,0,0,0-.38.3c-.22.25.54-.24,0,0a11.2,11.2,0,0,1-1.52.6A2.58,2.58,0,0,0,66,37.79v4a2.53,2.53,0,0,0,2.5,2.5c7.11,0,14.18.92,21.29.68a145.64,145.64,0,0,1,19.71.32l-2.5-2.5c0,3.43.13,7-.91,10.34l1.74-1.75c-2.75.87-5.6.82-8.45,1.08-3.27.3-6.5.71-9.75,1.18s-6.28.74-9.44.92-6.45.71-9.69.73a2.54,2.54,0,0,0-2.5,2.5c0,10.43.52,20.84.75,31.26.12,5.09.32,10.16.6,15.24s.28,9.91.56,14.87c.57,9.73,3.07,19.2,4.17,28.86.83,7.35,8,11.28,14.95,10.81a27.23,27.23,0,0,0,12.69-4.75,48.61,48.61,0,0,0,6.08-5.3c2.17-2.05,4.35-4.11,6.46-6.22a2.52,2.52,0,0,0-1.1-4.18c-2-.41-3.84-1.34-5.82-1.77A10.42,10.42,0,0,1,105,136a37.61,37.61,0,0,0-3.81-1.63v4.83a27.31,27.31,0,0,0,8-4.32c2.14-1.67,4.06-3.58,6.06-5.41,4.57-4.15,7.66-9.6,12-13.92C129.6,113.3,126.06,109.76,123.77,112Z"/><path class="cls-3" d="M68.78,22.93c-.41-2-2.17-2.56-4-2.52s-3.33.08-5,.06-3.78.17-4.38,2.2a12.16,12.16,0,0,0-.25,2.49c-.06.88-.13,1.75-.13,2.63l3.76-2.15c.36.27-.06-.05-.15-.12l-.48-.42q-.41-.36-.78-.75c-.16-.17-.32-.33-.47-.51s-.41-.48-.2-.22a5.82,5.82,0,0,1-.66-1,8.18,8.18,0,0,1-.33-4.66c0,.33.11-.5.15-.64,0,.07.24-.73.14-.42s.28-.41,0-.06c.28-.38.66-.7,1-1.07s.64-.8.92-1.22c-.09.14-.37.41,0,.07.12-.12.26-.24.37-.36.27-.3-.46.26-.19.15a1.75,1.75,0,0,0,.25-.16L58.8,14c-.69.35.18,0,.37-.1.35-.11.7-.2,1.06-.28s.89-.2,1.34-.28c.13,0,.53,0,.14,0l.37,0c.35,0,.69,0,1,.06l.45,0c-.54-.06.21.05.26.06l.46.11s.69.25.38.11.37.22.34.2.33.29.07.05A27.26,27.26,0,0,1,67,16a10.07,10.07,0,0,1,1.21,1.76,7.2,7.2,0,0,1,.39.85c.08.23.13.46.19.69s0,.18,0,0a2.34,2.34,0,0,1,0,.38c0,.21,0,.42,0,.63,0,.51.09-.23,0,.31s-.2.82-.33,1.23a17.26,17.26,0,0,1-.87,2.39,10.89,10.89,0,0,0-.75,1.33c0-.06.49-.47.45-.44-.38.27.44-.07,0,0a2.46,2.46,0,0,0-.34.09c-.52.16.5,0,0,0l-.44,0,2.5,2.5a35.9,35.9,0,0,0-.26-4.86c-.18-1.34-1.9-2.07-3.08-1.75A2.58,2.58,0,0,0,64,24.26c-.07-.56,0,.11,0,.31s0,.62,0,.93c0,.77,0,1.53,0,2.29a2.52,2.52,0,0,0,2.5,2.5,5.26,5.26,0,0,0,4.59-2.1A19.71,19.71,0,0,0,73.6,22.1a9.71,9.71,0,0,0-1.34-7.34,17.84,17.84,0,0,0-2.06-2.68,13.41,13.41,0,0,0-2.67-2.49,11.45,11.45,0,0,0-5.82-1.28,12.68,12.68,0,0,0-3.27.57,11.75,11.75,0,0,0-2.42.9,7.48,7.48,0,0,0-2.57,2.43l-.2.27c-.19.26.08-.24.18-.23-.07,0-.47.55-.54.62A7.42,7.42,0,0,0,51.06,16a13.53,13.53,0,0,0,.21,8.09,14.09,14.09,0,0,0,5,5.9c1.59,1.18,3.75-.43,3.77-2.16,0-.82.06-1.65.12-2.47,0-.38.06-.77.08-1.15,0-.18,0-.36,0-.53-.36.84-.42,1.1-.19.77l-.89.9a1.66,1.66,0,0,1-.75.18,4.58,4.58,0,0,1,.53,0c.33,0,.66,0,1,0l2.38,0c.72,0,1.45-.06,2.17-.08h1.16Q63.6,22.88,64,24.26A2.53,2.53,0,0,0,67,26,2.56,2.56,0,0,0,68.78,22.93Z"/></g></g></g></g></svg>