<svg xmlns="http://www.w3.org/2000/svg" viewBox="0 0 186.74 371.05"><defs><style>.cls-1{fill:#a00000;}.cls-2{fill:#ff0c0c;}.cls-3{fill:#fff;}</style></defs><g id="Layer_2" data-name="Layer 2"><g id="Ijsberg"><g id="red"><g id="bottom-fill"><path class="cls-1" d="M185.05,102.38a2.42,2.42,0,0,0-2.24-2.42,78.44,78.44,0,0,0-12.82,0c-8.57.76-17.17-.45-25.74-.43-10.82,0-21.59-.22-32.44-.22-15,0-30,.87-45,.87-12.53,0-24.58-1.31-37,.54-3,.45-6.3-.34-9.36-.59-2.47-.21-4.91.27-7.42.26-2.06,0-4.19.3-6.29.23-1.47,0-2.41-.23-3.58-.33a1.37,1.37,0,0,0-1.49,1.28,11.78,11.78,0,0,0,.18,4.13c.63,3,.06,5.27,1.35,8.26,1.76,4.14,5.15,7.57,6.51,12.23,2.64,9.11,2.63,18.67,4.81,27.84,2,8.3,2,16.6,3.06,25.05.74,5.89,2.37,7.92,7.21,11.13,5.31,3.52,6.31,7.67,7.64,13.85,4.58,21.16,6.4,43.16,9.15,64.65.6,4.76,2,9,3.2,13.58.55,2.18.62,4.62,1.37,6.73,1.49,4.19.91,2.58,5,3.65,10.1,2.63,13.11,17.8,20.11,25,3.35,3.44,2.16,2.85,7,.62,3.55-1.65,4.54-2.68,7.43.24,3.87,3.92,6.59,12.67,8.61,17.66,2.35,5.76,3,12.15,6,17.58a97,97,0,0,1,7.54,15.87c7.25-11.64,6-24.6,11.19-36.68,1.5,1.42,1.19,5.05,3.14,6.43s7.06.26,9.49.76c3.14-7.16,8.5-18.74,16.48-21.29.32,2,.21,4,1.24,5.72,16.55-8.22,4.83-39.34,13.66-53.34,2.81-4.47,7.23-5.78,8.7-11.29,1.65-6.19.29-13.08.11-19.36-.26-9.63-.54-19,0-28.69.59-10.54.86-21.25,1.44-31.85a26.75,26.75,0,0,0,6.22,10.29c3.16-2.14,1.91-8.83,1.93-12.37.06-10.29.73-21,1.71-31.28C184.52,132,185,117.08,185.05,102.38Z"/></g><g id="lines"><path class="cls-2" d="M140.34,101.84a17.77,17.77,0,0,0-1.13,4.61c-.4,2.56-.64,5.14-.84,7.72-.52,6.59-.76,13.19-.93,19.79-.33,12.2-.19,24.39-.29,36.59a98.76,98.76,0,0,1-1.41,17.08c-1,5.63-1.87,11.3-2.43,17a166.3,166.3,0,0,0-.6,17.29c0,5.94-1.12,11.67-2.2,17.48-2.15,11.46-4.16,23-5.31,34.59a60,60,0,0,0-.29,8.15,52.1,52.1,0,0,1-.06,8,8.55,8.55,0,0,1-2.88,5.58,12.8,12.8,0,0,0-3.49,5.23c-1.49,4.48-1,9.31-1.55,13.93-.59,5-2.65,9.54-5.06,13.92a25.09,25.09,0,0,0-2.59,6.49,59.72,59.72,0,0,0-1,7.18c-.5,4.95-1.22,9.87-1.38,14.86-.08,2.57-.07,5.14.07,7.71,0-.19,2.91-.55,2.89-.78a92.5,92.5,0,0,1,.51-15.52c.56-4.78.8-9.73,1.91-14.43s4.11-8.61,5.83-13.11c1.79-4.67,1.9-9.38,2.21-14.3a26.12,26.12,0,0,1,1.17-6.91,13.36,13.36,0,0,1,3.68-5.28,8.49,8.49,0,0,0,2.65-5.57,54.91,54.91,0,0,0,0-8,99.38,99.38,0,0,1,1.36-16.87q1.18-8.67,2.71-17.29c1-5.74,2.17-11.45,3.12-17.19s.35-11.51.59-17.31a166.89,166.89,0,0,1,1.67-17.13c.83-5.76,2.09-11.44,2.51-17.26.53-7.58.25-15.19.27-22.78q0-8.58.19-17.16c.13-6.77.33-13.54.74-20.3.29-4.94.49-10.08,1.67-14.91a11,11,0,0,1,.61-1.87,5.91,5.91,0,0,1-1.45.37c-.22.06-1.35.2-1.45.41Z"/><path class="cls-2" d="M122,334.05c2-4.3,5.17-7.88,7.92-11.73,2.62-3.68,3.94-8.22,7.27-11.38,5.51-5.22,14-6.9,17.58-14.14,2.21-4.51,2-9.52,2-14.41,0-5.44-.21-10.88-.06-16.31s.8-10.63.91-16-.21-10.75,0-16.14c.47-10.62,1.6-21.19,2-31.81s.42-21.35.16-32c-.12-4.76.15-9.77-1.48-14.31-.81-2.24-2.22-4.15-2.77-6.48A83.49,83.49,0,0,1,154,135.07c-.65-10.84-.79-21.71-.8-32.57v-1.76c0,.24-2.9.49-2.9.77,0,9.92.11,19.84.56,29.75a149.43,149.43,0,0,0,1.35,16.23,17.91,17.91,0,0,0,1.1,4.58c.69,1.54,1.6,3,2.17,4.55a22.67,22.67,0,0,1,1.24,6.57c.5,10.63.52,21.3.31,31.94s-1,21.25-1.75,31.88c-.39,5.25-.69,10.51-.63,15.78.07,5.43.11,10.78-.3,16.2s-.58,10.82-.52,16.26c.06,5.21.45,10.56-.1,15.75a17.25,17.25,0,0,1-5.48,11.31c-2.82,2.5-6.28,4.12-9.47,6.09a21.13,21.13,0,0,0-8.29,8.73,45.25,45.25,0,0,1-3.57,6.14c-1.37,1.91-2.85,3.75-4.22,5.65a39.47,39.47,0,0,0-3.58,5.9,5.91,5.91,0,0,1,1.45-.37c.23-.06,1.35-.19,1.45-.4Z"/><path class="cls-2" d="M161.24,101.86c.83,9.68,2.07,19.27,1.87,29q-.18,9.09-.31,18.17c-.07,4.62.12,9.33,2.81,13.28.85,1.25,2,2.23,2.9,3.4a12.18,12.18,0,0,1,1.89,3.42c.93,2.59,1.25,5.34,2.41,7.86.08.17,2.84-.91,2.9-.77a53.89,53.89,0,0,1-2.14-7,13.27,13.27,0,0,0-1.27-2.95,22.55,22.55,0,0,0-2.61-3.17c-3.2-3.69-4-8.22-4-13,0-11.09.84-22.19-.06-33.26-.42-5.26-1-10.5-1.48-15.76,0,.16-2.92.58-2.9.78Z"/><path class="cls-2" d="M173.77,101.79c0,10.64.5,21.29.18,31.94-.17,5.37-.77,10.65-1.28,16-.46,4.77,1.26,9.37,1.66,14.08.23,2.75.17,5.57.19,8.32a34.48,34.48,0,0,1-.75,8.42,8.59,8.59,0,0,1,1.46-.38c.16,0,1.4-.24,1.44-.4,1.15-4.8.7-9.82.64-14.71s-1.76-9.38-1.82-14.16a76.44,76.44,0,0,1,.75-7.84c.25-2.64.42-5.28.53-7.93.22-5.32.21-10.66.14-16-.08-6-.23-12.08-.24-18.12,0,.24-2.9.5-2.9.78Z"/><path class="cls-2" d="M97.6,100.66c-.56,12-1.52,23.92-2.14,35.89-.26,4.89.12,9.76.3,14.65a63.8,63.8,0,0,1-1.59,16.7C93,173.16,91.55,178.59,92.33,184c.35,2.43.79,4.79,0,7.19a17.36,17.36,0,0,1-3.16,5.5c-1.38,1.77-2.92,3.42-4.27,5.22s-2.65,3.83-4.16,5.61a34.55,34.55,0,0,1-5.21,5.05,40.48,40.48,0,0,1-6.8,4,15.51,15.51,0,0,0-3.06,1.94A26.11,26.11,0,0,1,63,220.69a17.92,17.92,0,0,1-2.22,1.15l-1.27.55a8,8,0,0,0-2,.7c.65-.6,1.86-.38.48-.18a5.14,5.14,0,0,1-.55.06,4.59,4.59,0,0,1-1.17-.05,6.89,6.89,0,0,1-2.38-.94A18.08,18.08,0,0,1,49.6,218a106.87,106.87,0,0,1-7.34-10.68c-1.4-2.13-2.43-4.41-3.63-6.64s-2.41-4.22-3.58-6.34a39.31,39.31,0,0,1-3.17-6.92,21.42,21.42,0,0,1-.77-7.6,16.09,16.09,0,0,0-.95-7.31c-1-2.35-2.44-4.47-3.56-6.76a112.35,112.35,0,0,1-5.92-15.31,47.39,47.39,0,0,0-3.18-7,29.09,29.09,0,0,1-2.55-7.6c-1-5.29-.6-10.72-1.44-16-.69-4.35-3.47-8-4.36-12.33a9.59,9.59,0,0,1,.7-6.2,5.91,5.91,0,0,1-1.45.37c-.22.06-1.35.19-1.45.4-2.09,4.39,0,8.72,1.75,12.82a23,23,0,0,1,2,6.3c.35,2.84.43,5.71.6,8.57.33,5.47,1.22,10.75,3.9,15.59s3.72,10.26,6,15.29c1.1,2.5,2.06,5.08,3.37,7.49s2.78,4.6,3.44,7.18.18,5.23.2,7.82a19,19,0,0,0,1.71,7.44c2,4.68,5,8.87,7.13,13.46a53.26,53.26,0,0,0,4.1,6.69c1.19,1.74,2.25,3.57,3.45,5.29,2.05,2.94,5,7,8.74,7.69,1.62.32,3.32-.28,4.88-.7a36.24,36.24,0,0,0,5.51-1.9,23.05,23.05,0,0,0,5.1-3.49c2.08-1.71,4.69-2.56,7-3.92a35.12,35.12,0,0,0,10.58-10.34c1.3-1.86,2.65-3.62,4.11-5.35a30.64,30.64,0,0,0,4-5.58,11.28,11.28,0,0,0,1.13-6.76,37,37,0,0,1-.45-8.28c.52-5.54,2.34-10.85,3.13-16.35.81-5.72.31-11.5.08-17.25-.28-6.81.33-13.63.74-20.43s.86-13.63,1.25-20.45c0-1,.11-2,.15-3,0,.28-2.88.45-2.89.78Z"/><path class="cls-2" d="M42.31,214.29c.26,3-.64,5.87-.6,8.82a8.13,8.13,0,0,0,3.42,6.59c2,1.58,4.28,2.9,5.62,5.11,1.7,2.81,2.11,6.22,2.42,9.42a34.59,34.59,0,0,0,1.74,9.3,23.29,23.29,0,0,0,4.35,7.08,26.62,26.62,0,0,0,6.37,5.16c2.07,1.23,4.64,2.83,7.13,2.65a15.5,15.5,0,0,0,2.87-.65,10.64,10.64,0,0,0,2.74-1,16.49,16.49,0,0,0,4.55-4.68c1.3-1.79,2.51-3.63,3.87-5.37,1.79-2.26,2.84-4.94,4.25-7.43A16.55,16.55,0,0,1,93.37,246c1.09-1.13,2.43-2,3.55-3.07a25.59,25.59,0,0,0,4.4-6.22c1.44-2.62,3.16-5.11,4.5-7.77,1.57-3.13,1.52-6.22,1.67-9.63.18-4.13,1.63-8,2.86-12,1-3,1.07-6.43,3.1-9,3.06-3.88,9.31-5.11,11.15-9.95a6.39,6.39,0,0,1-1.45.37c-.2.06-1.37.21-1.45.41-1.54,4.05-6.39,5.62-9.48,8.25a11.34,11.34,0,0,0-3.7,6.4c-.35,1.43-.62,2.89-1.06,4.3-.55,1.72-1.15,3.42-1.63,5.16a34.62,34.62,0,0,0-1.09,4.9c-.22,1.79-.16,3.6-.25,5.4a17.71,17.71,0,0,1-3,8.59c-2.81,4.59-4.94,9.63-9.26,13a18.39,18.39,0,0,0-5,6.39,41.63,41.63,0,0,1-4.13,6.75c-2.63,3.42-4.56,7.26-8.39,9.49-.81.47,1.55-.36,1.62-.35a6.06,6.06,0,0,0-1,.12,5.77,5.77,0,0,1-1.38-.14,16.82,16.82,0,0,1-3.89-1.64,28.61,28.61,0,0,1-6.49-4.52,23.79,23.79,0,0,1-7.27-14.91c-.4-3.46-.48-7-1.74-10.33-1.1-2.91-3.13-4.57-5.55-6.39s-4.21-3.58-4.44-6.63c-.24-3.22.85-6.38.57-9.59,0,.15-2.92.58-2.9.78Z"/><path class="cls-2" d="M114.31,101c.54,5.14,1.16,10.27,1.78,15.39.77,6.3,2.07,12.61,1.91,19-.07,2.68-.24,5.35-.2,8s.24,5.48.46,8.21c.43,5.51,1,11,1.37,16.54.69,10.59.65,21.25,2.41,31.75a84.29,84.29,0,0,0,2,8.88c.82,2.87,1.92,5.64,2.87,8.47a76.1,76.1,0,0,1,3.81,17.26c0-.15,2.92-.59,2.9-.78a75.17,75.17,0,0,0-3.16-15.28c-1.6-5.09-3.58-10-4.71-15.21-2.25-10.37-2.46-21-3-31.57-.52-10.92-2.37-21.86-2-32.81a68.93,68.93,0,0,0-.51-13.77c-.39-2.31-.66-4.65-.95-7-.74-6-1.46-11.91-2.08-17.88,0,.14-2.92.6-2.9.78Z"/><path class="cls-2" d="M83.79,256.89A106.3,106.3,0,0,0,83.27,269c.21,4.08,1.56,7.88,2.45,11.83,1.87,8.24,2,16.65,2.18,25.07q.18,7.33.18,14.67c0-.23,2.9-.49,2.9-.77q0-12.84-.55-25.68A77.75,77.75,0,0,0,89,281.65c-.82-4-2.27-7.83-2.68-11.86-.48-4.56.12-9.13.4-13.67,0,.29-2.87.43-2.9.77Z"/><path class="cls-2" d="M27.71,102.17c-.07,4-.6,8-.1,12,.52,4.14,2.79,7.61,3.79,11.6a23.88,23.88,0,0,1-.47,12.1c-1.14,4.38-2.45,8.72-3.71,13.07-.71,2.47-1.48,4.94-1.94,7.46a44,44,0,0,0-.65,7.59c0-.25,2.9-.49,2.9-.78.07-9.08,3.45-17.57,5.8-26.24,1.11-4.11,2-8.07,1.31-12.34-.7-4.08-3-7.54-3.85-11.55-.95-4.52-.26-9.16-.18-13.72,0,.25-2.89.48-2.9.77Z"/><path class="cls-2" d="M50.79,102.17a56.32,56.32,0,0,0-2.85,11.72,32.87,32.87,0,0,0,1,11.68,130.27,130.27,0,0,1,3.51,24.14c.2,4.12,0,8.19-.13,12.31a20.46,20.46,0,0,0,2.94,10.76c1.76,3.06,4.41,5.53,6,8.69,1.71,3.37,2.05,7.21,2.33,10.92.33,4.54.77,9.07.9,13.63s.12,9.41.12,14.12c0-.24,2.9-.5,2.9-.78,0-8.3,0-16.57-.8-24.84-.34-3.74-.38-7.55-1.5-11.16s-3.35-6-5.44-8.85a23.24,23.24,0,0,1-4.43-10.13c-.56-3.94.15-8.09.1-12.06a124.23,124.23,0,0,0-2.93-24.6c-.93-4.33-2.18-8.49-1.86-13a52.91,52.91,0,0,1,3-13.36,6.91,6.91,0,0,1-1.46.37c-.18,0-1.38.22-1.44.4Z"/></g><g id="bottom-outline"><path class="cls-3" d="M186.55,102.38c-.35-4.77-5.94-4.14-9.44-4.2-4.66-.07-9.29.51-13.94.48-4.83,0-9.64-.42-14.46-.6S139,98,134.15,97.94c-9.68-.09-19.36-.27-29-.13s-19.65.55-29.47.73c-9.66.18-19.29-.27-29-.35a115.49,115.49,0,0,0-14.28.64,32.17,32.17,0,0,1-6.79.36c-2.22-.21-4.43-.68-6.67-.67-4.56,0-9.19.9-13.75.45C3.52,98.8,1.7,98.38.62,100c-.81,1.25-.66,3.28-.47,4.7.53,4,.59,8,2.55,11.64S7.25,123.06,8.37,127C10.89,136,11,145.35,13,154.38a99.48,99.48,0,0,1,2,13.86,118,118,0,0,0,1.42,13.27,13,13,0,0,0,3.91,7.19c2.41,2.2,5.5,3.55,7.38,6.31s2.47,5.9,3.14,9c1,4.63,1.88,9.29,2.66,14,1.57,9.42,2.74,18.9,3.86,28.39.56,4.76,1.1,9.53,1.67,14.29a116.77,116.77,0,0,0,2.07,13.83c.55,2.25,1.2,4.46,1.79,6.7.55,2.06.82,4.13,1.23,6.22s1.1,5.47,3.38,6.1c1,.28,2,.27,3,.52a11.51,11.51,0,0,1,3.73,1.72,21.63,21.63,0,0,1,5.56,6.4c3.21,5.12,5.49,10.89,9.44,15.53,1.31,1.54,3.29,4.35,5.65,3.76a20.06,20.06,0,0,0,3.63-1.72c1.09-.52,2.72-1.71,4-1.59s2.38,1.67,3.06,2.57a26.23,26.23,0,0,1,2.6,4.43c1.54,3.16,2.72,6.48,4,9.76,1.44,3.77,2.52,7.57,3.63,11.45a46.87,46.87,0,0,0,2,5.84c.87,2,2,3.87,3,5.79a81.18,81.18,0,0,1,5.46,12,1.52,1.52,0,0,0,2.74.36c7-11.34,6.29-25,11.35-37l-2.51.66c.93,1,1,2.78,1.49,4a5,5,0,0,0,2.88,3.11c2.88,1.1,6-.07,8.92.45a1.53,1.53,0,0,0,1.7-.69,83,83,0,0,1,6.11-11.9c2.3-3.55,5.31-7.3,9.47-8.69l-1.84-1.05c.31,2.12.34,4.15,1.38,6.08a1.52,1.52,0,0,0,2,.53c6.83-3.46,9.18-10.81,10-17.94.93-8.14.18-16.37,1-24.52a28.26,28.26,0,0,1,2.5-10.08c2-4,6.27-6.16,8.43-10.08,2.84-5.13,2.11-11.76,1.67-17.37-.51-6.61-.59-13.26-.63-19.89-.05-7.62.4-15.21.73-22.82s.6-15.42,1-23.12l-3,.39a25.91,25.91,0,0,0,6.61,11,1.51,1.51,0,0,0,1.82.23c3.39-2.49,3-7.28,2.78-11a157.47,157.47,0,0,1,.34-17.24c.7-12.93,2.2-25.8,2.73-38.74.3-7.39.43-14.78.45-22.17a1.5,1.5,0,0,0-3,0c0,12.49-.39,25-1.34,37.45s-2.16,24.64-2.28,37c0,2.24.21,4.47.22,6.71,0,1.63.08,4.3-1.41,5.39l1.81.24a23,23,0,0,1-5.84-9.63,1.5,1.5,0,0,0-2.94.4c-.37,6.73-.61,13.46-.89,20.2s-.74,13.27-.84,19.91.08,13.27.27,19.9c.18,6.12,1.5,12.49.18,18.56a11.59,11.59,0,0,1-3.32,5.95,49,49,0,0,0-4.57,4.66,22.65,22.65,0,0,0-4,9.95c-1.38,7.84-.77,15.87-1.13,23.78-.34,7.51-1.43,16.53-8.89,20.32l2,.54c-.87-1.62-.82-3.57-1.08-5.36a1.52,1.52,0,0,0-1.85-1.05c-4.6,1.55-8,5.24-10.64,9.14a78.47,78.47,0,0,0-6.73,12.84l1.69-.69c-2.74-.49-5.73.51-8.4-.27-1.25-.37-1.51-1.68-1.83-2.8a8.44,8.44,0,0,0-1.74-3.73,1.52,1.52,0,0,0-2.5.66c-5,11.77-4.26,25.25-11,36.32l2.75.36A83.36,83.36,0,0,0,104,357.31c-1-1.87-2.1-3.69-3-5.6a36.8,36.8,0,0,1-2.14-6c-1.1-3.84-2.13-7.62-3.57-11.35-1.21-3.14-2.35-6.3-3.73-9.37s-2.92-6.06-5.39-8.24a5.49,5.49,0,0,0-3.77-1.67,10.73,10.73,0,0,0-4.06,1.43c-1.26.61-2.51,1.34-3.8,1.89-.47.2-.17.05-.15.09a9.52,9.52,0,0,0-1.06-1,35.18,35.18,0,0,1-5.2-6.93c-3-5.11-5.36-10.81-9.53-15.12a15.27,15.27,0,0,0-7-4.27,24.78,24.78,0,0,0-3.1-.54c-.4,0-.06,0,0,.08-.12-.42-.4-.88-.56-1.3a31.73,31.73,0,0,1-1.31-5.79c-.37-2.16-1-4.26-1.6-6.37A91.4,91.4,0,0,1,42.47,264c-1.15-9.36-2.16-18.72-3.34-28.07-1.17-9.2-2.5-18.39-4.28-27.5-1.29-6.53-2.19-14-7.74-18.42-2.24-1.79-5-3.1-6.49-5.66-1.76-3-1.78-6.9-2.09-10.24-.42-4.56-.72-9.14-1.35-13.68s-1.78-8.84-2.47-13.31-1.12-9-1.86-13.5c-.68-4.16-1.49-8.4-3.53-12.13-1.84-3.38-4.77-6.55-5.43-10.45-.32-1.92-.27-3.88-.63-5.81a10.54,10.54,0,0,1-.2-2.45c0-.19-.06-.87,0-1s.44,0,.78,0a72.38,72.38,0,0,0,13.08-.2c4.44-.32,8.78,1.1,13.21.5,9.28-1.27,18.6-.92,27.93-.64,19.06.56,38.11-.8,57.17-.72,9.48,0,19,.23,28.44.22,4.73,0,9.46.32,14.19.53a139.1,139.1,0,0,0,14-.23c2.06-.12,4.13-.13,6.2-.08,1.08,0,2.16.08,3.23.15.84.05,2.13-.09,2.21,1C183.69,104.3,186.69,104.31,186.55,102.38Z"/></g><g id="top-fill"><path class="cls-2" d="M185.16,99.15a.58.58,0,0,1-.54.89A90.64,90.64,0,0,0,170,99.91c-8.57.76-17.17-.45-25.74-.43-10.82,0-21.59-.22-32.44-.22-15,0-30,.87-45,.87-12.53,0-24.58-1.31-37,.54a41.83,41.83,0,0,1-9.36.18c-2.47-.21-4.91-.5-7.42-.51-2.06,0-4.19.3-6.29.23-1.56,0-3-.25-4.47-.35a.45.45,0,0,1-.24-.8c2.89-2.25,5-5.83,8.42-7.38,1.83-.83,2.24-.2,3.11-2.39.68-1.7-.32-3.73.67-5.25.66-1,3.36-1.86,4.41-2.87a23.61,23.61,0,0,0,3.65-4.65c2-3.2,4.7-6.21,6.67-9.32,2.67-4.23-1.69-5.56.67-10.33a9.41,9.41,0,0,1,6.1-4.79C47,49.4,41.19,38.3,48,32.4c1.85-1.61,3.55-2.14,4.91-4.27,1-1.55,1.45-5.21,3.28-6.1C59.23,20.55,60,27.17,62,29.16c1.18-2.72,2.41-5.68,3.72-8.34,1.47-3,4-2.41,5.55-4.52C73.86,12.87,73.85,5.59,75,1.49c1.92,1,3.65,2.92,5.68,4,1.8,1,4.06,1.49,5.6,2.88,3.7,3.33,4.09,7.84,4.64,12.3,2-1.5,3.46-4,5.46-5.45,1.32-1,.22-1.07,2-.94.87.06,2.24,1.29,3,1.69,2.73,1.51,4.13,2.06,5.72,4.55,1.18,1.86,1.85,3.91,2.92,5.82,2.12,3.77,7,5.81,10.86,7.53,4.46,2,9.06,3.63,13.29,6.37,2.77,1.8,3,1.8,3.87,5,.56,2.14,1.12,4.35,1.71,6.48.48,1.74,1.33,5.84,3,6.19s4.95-2.61,6.95-2.82,4.15.55,6.06.9c2.94.53,3.5,1.2,4.66,4.39,2,5.46,3.2,10.41,6.24,15.46,2.25,3.74,5,8.42,8.21,11.26A60.63,60.63,0,0,1,185.16,99.15Z"/></g><g id="lines-2" data-name="lines"><path class="cls-1" d="M21.83,81.42,23.19,81l.75-.22c-.54.15-.52.15.06,0,.9-.17,1.79-.38,2.69-.53,1.84-.3,3.71-.49,5.57-.69,3.59-.38,7.17-.75,10.72-1.36,3.12-.54,6.23-1.12,9.29-1.91a57.59,57.59,0,0,0,8.21-2.81c1.32-.56,2.71-1,4-1.51.46-.18.93-.33,1.39-.5-2.34.88-1.63.35-.81.43a6.46,6.46,0,0,1,2.05.85,26,26,0,0,0,4.48,1.43,35.29,35.29,0,0,1,5,1.84A94.08,94.08,0,0,0,86,80a44.44,44.44,0,0,1,9.47,4.24,23.8,23.8,0,0,1,6.65,5.91c2.1,2.76,3.61,6,6.13,8.42.1.11,1.28-.32,1.45-.37s1.34-.5,1.44-.4c-2.43-2.34-3.92-5.46-5.91-8.15a22.92,22.92,0,0,0-5.84-5.53,42,42,0,0,0-9.63-4.61,105.52,105.52,0,0,1-9.82-4.12,36.23,36.23,0,0,0-5-1.9,28,28,0,0,1-5.22-1.72,4.26,4.26,0,0,0-3.25-.5,38.33,38.33,0,0,0-3.77,1c-1.3.44-2.59,1-3.89,1.42-1.84.65-3.55,1.67-5.43,2.18A83.2,83.2,0,0,1,42.2,78c-4.2.56-8.44.8-12.62,1.5A69.6,69.6,0,0,0,19,82.16c.67-.22,1.93-.45,2.79-.74Z"/><path class="cls-1" d="M84.56,77.22C87,75.36,88.88,73,91.11,71a44,44,0,0,1,8.15-5.54c2.71-1.54,5.56-2.82,8.22-4.45a30.07,30.07,0,0,0,3.61-2.54c1.07-.88,2.09-2.14,3.47-2.53l-2.7.71a4.81,4.81,0,0,1,4.42,1.63,18.73,18.73,0,0,0,4.23,3.1,11.08,11.08,0,0,0,5.92,1.55c1.79-.09,3.54-.33,5.08.79a16,16,0,0,1,3.49,4c1.16,1.7,2.28,3.42,3.45,5.12,1.31,1.89,2.65,3.76,3.91,5.69,1,1.47,1.77,3.17,3.38,4,.22.12,1.22-.31,1.46-.37s1.23-.52,1.44-.41A7.49,7.49,0,0,1,146,78.91c-.85-1.34-1.73-2.65-2.63-4q-2.67-3.87-5.29-7.76c-1.27-1.9-2.9-4.52-5.29-5.07a16.71,16.71,0,0,0-4.06,0,9.66,9.66,0,0,1-4.33-1.07,18.44,18.44,0,0,1-3.81-2.29c-.91-.72-1.63-1.66-2.59-2.3-1.93-1.3-4.26-.48-6.28.18a6.93,6.93,0,0,0-2.43,1.61,33,33,0,0,1-3.71,2.86c-2.5,1.64-5.21,2.87-7.83,4.3a50.43,50.43,0,0,0-9,5.77C86.32,73.35,84.28,76,81.67,78c.72-.56,2.16-.21,2.89-.77Z"/><path class="cls-1" d="M145.15,97.64a87.73,87.73,0,0,1,1.29-10.07A56.9,56.9,0,0,1,149.52,78a37,37,0,0,0,1.75-7.5c.16-1,.32-2,.58-3,.17-.63.38-1.67,1-2l-1.06.3.15,0-1.83.48a5.69,5.69,0,0,1,3,1c1.06.56,2,1.22,3.09,1.8a17.62,17.62,0,0,1,3.94,2.8,49.8,49.8,0,0,0,4.07,3.75c.15.11,1.27-.33,1.46-.38s1.3-.51,1.44-.4c-1.69-1.32-3.12-2.9-4.69-4.35a24.16,24.16,0,0,0-4.15-2.69,22.28,22.28,0,0,0-3.83-2c-1.3-.46-2.31,0-3.61.32s-1.49.77-1.85,2a34,34,0,0,0-.78,4,46.17,46.17,0,0,1-1.08,5.07c-.59,2.09-1.63,4-2.3,6.09a66.55,66.55,0,0,0-2.61,15.22c0-.31,2.87-.42,2.9-.78Z"/><path class="cls-1" d="M140.33,59.48a31.9,31.9,0,0,0-2.83,3.1,16.7,16.7,0,0,0-2.06,3.54,2.53,2.53,0,0,1,.43-.1l1-.27,1-.28c.07,0,.4-.07.42-.13a17,17,0,0,1,2.06-3.54,31.79,31.79,0,0,1,2.83-3.09,2.16,2.16,0,0,1-.43.1l-1,.27-1,.28c-.1,0-.35,0-.42.12Z"/><path class="cls-1" d="M60,30.15c-.12,2.08,1.12,3.44,2.27,5a21.36,21.36,0,0,1,2.85,6.07c.71,2.2,1.14,4.47,2,6.64s1.93,4.25,2.79,6.42c.78,1.93,1.34,3.6,3.48,4.32.89.3,1.84.44,2.72.79A18.85,18.85,0,0,1,79,61.07,77.47,77.47,0,0,1,89.87,70c.12.11,1.29-.33,1.46-.37s1.33-.51,1.44-.41a77,77,0,0,0-10.84-8.89A17.21,17.21,0,0,0,79,58.64c-.88-.35-1.82-.5-2.72-.8-2.13-.72-2.7-2.38-3.47-4.32-.87-2.17-2-4.24-2.79-6.42s-1.27-4.44-2-6.64a20.89,20.89,0,0,0-2.85-6.06c-1.14-1.58-2.38-2.95-2.27-5,0,.29-2.88.45-2.89.78Z"/><path class="cls-1" d="M90.22,21.6a17,17,0,0,0,1.43,6.68,12.18,12.18,0,0,0,2.67,4.34,15.79,15.79,0,0,1,3.22,4c.81,1.68,1.22,3.52,2.06,5.19,2.86,5.66,3.49,11.93,5.43,17.9,0,.07,2.89-.81,2.89-.78C106,53,105.36,46.7,102.5,41c-.84-1.66-1.25-3.51-2.06-5.19a15.79,15.79,0,0,0-3.22-4,12.09,12.09,0,0,1-2.67-4.34,17,17,0,0,1-1.43-6.68c0,.27-2.89.46-2.9.78Z"/><path class="cls-1" d="M54.71,75.47a17.23,17.23,0,0,1,1.5-5.2c.5-1.28.7-2.86,1.62-3.93C59,64.93,61,64.64,62.59,64c1.47-.54,2.64-1.59,4.1-2.13l-.42.12.36-.1-2.47.65c2.27-.41,3.75.9,5.41,2.23a6.15,6.15,0,0,0,3,1.54A13.19,13.19,0,0,0,75.74,66c4.5-.51,6.33,5.06,9.24,7.44.14.11,1.27-.32,1.46-.37s1.31-.51,1.44-.4c-2.35-1.92-3.55-5-6.09-6.69a5.36,5.36,0,0,0-4.3-.57,5.33,5.33,0,0,1-4.49-1,15.43,15.43,0,0,0-3.58-2.49c-1.43-.52-2.81,0-4.2.33A14.48,14.48,0,0,0,61.37,64c-1.62,1-3.56,1.17-5.19,2.13s-1.92,2.15-2.44,3.75c-.69,2.13-1.8,4.1-1.93,6.38,0-.3,2.88-.45,2.9-.78Z"/><path class="cls-1" d="M66.4,35.17a17,17,0,0,0,3.76-2.53A19.85,19.85,0,0,1,72,31.31c.31-.19.63-.33.93-.5s1.19-.37-.64.13-.84.2-.36.22c3.29.13,5,4.53,6.26,6.94C81.71,44.61,88.84,47.55,93.54,53c2.2,2.55,4.9,6,5,9.51,0-.21,2.9-.51,2.9-.77-.07-3.44-2.64-6.77-4.76-9.28-2.52-3-5.69-5.18-8.72-7.58a31.94,31.94,0,0,1-4.6-4.25,24.83,24.83,0,0,1-3-4.76A13.7,13.7,0,0,0,77,31.29a4.14,4.14,0,0,0-4-.6,13.51,13.51,0,0,0-4.84,2A24.51,24.51,0,0,1,63.5,36c.91-.38,2-.39,2.9-.78Z"/></g><g id="top-outline"><path class="cls-3" d="M183.71,99.55c-.43-1.17,1.22-1-.12-1.09l-1.06-.08c-.58,0-1.16-.07-1.74-.09q-2.22-.11-4.44-.12c-2.62,0-5.21.19-7.81.35-6,.39-12-.11-18-.38s-12.07-.16-18.1-.22-12.12-.14-18.18-.16c-12.21,0-24.4.48-36.6.74-6.09.13-12.18.18-18.27,0s-12-.43-17.95-.29c-3.33.09-6.66.3-10,.72a52.2,52.2,0,0,1-9.68.5c-3.25-.18-6.5-.69-9.76-.58-1.62,0-3.23.23-4.85.22-.78,0-1.54-.06-2.31-.13a9.48,9.48,0,0,1-2.51-.28l.9.69c.76,1.17-.35,1,.35.66a3.71,3.71,0,0,0,.69-.63c.36-.34.71-.7,1.06-1.06.79-.83,1.55-1.68,2.36-2.48a12,12,0,0,1,4.68-2.92,4.53,4.53,0,0,0,2.76-3.63c.2-1.11,0-2.2.06-3.3s.83-1.23,1.63-1.66a14,14,0,0,0,4.78-4c1.53-2,2.8-4.13,4.29-6.13C28.36,71,32.2,67.39,31.06,63c-.35-1.35-.93-2.57-.54-4a7.45,7.45,0,0,1,4.21-4.64c1.73-.78,3.59-1.06,5.22-2.12a10.21,10.21,0,0,0,3.24-3.33c3.05-5.07,1.36-12.1,6.51-16,1.84-1.38,3.81-2.51,4.83-4.68.43-.93.72-1.92,1.08-2.87.23-.62.56-1.67,1.21-2,.26-.13.32,0,.63.36a9.24,9.24,0,0,1,1,2,14.48,14.48,0,0,0,2.43,4.45,1.52,1.52,0,0,0,2.36-.3c.69-1.61,1.38-3.23,2.09-4.83a18.69,18.69,0,0,1,2.2-4.43A8.65,8.65,0,0,1,70.32,19a6.86,6.86,0,0,0,2.55-2.38c2.75-4.3,2.29-9.93,3.58-14.72l-2.2.9c1.93,1.05,3.43,2.71,5.32,3.83s4.17,1.5,5.8,3c3.12,2.83,3.57,7.16,4,11.1A1.53,1.53,0,0,0,92,21.76c1.92-1.53,3.26-3.65,5.15-5.21a4.6,4.6,0,0,0,1.12-1.08,1,1,0,0,0,.16-.23l-.88.53a1.93,1.93,0,0,1,.34,0,6.48,6.48,0,0,1,1,.36c.44.28.86.61,1.29.9,1.68,1.09,3.6,1.74,4.92,3.31,1.69,2,2.36,4.68,3.69,6.93,2.35,3.95,6.84,5.91,10.85,7.71,5.06,2.27,10.21,4.22,14.86,7.3,1.36.9,1.65,1.83,2.07,3.4.68,2.55,1.34,5.1,2,7.65.46,1.74,1,3.79,2.24,5.14s3.22,1.05,4.84.26,3.25-2.25,5.31-2.11a32,32,0,0,1,4,.78,7,7,0,0,1,2.49.69c1.36.9,1.8,3.45,2.28,4.86.89,2.6,1.72,5.21,2.75,7.76a56.4,56.4,0,0,0,4.2,8.09,55.64,55.64,0,0,0,5,7.2c1.9,2.23,4.23,4,6.21,6.19a65.46,65.46,0,0,1,6,7.7c1.06,1.6,3.66.1,2.59-1.51a73.25,73.25,0,0,0-5.29-7c-1.89-2.18-4-4.05-6.07-6.08a35.44,35.44,0,0,1-4.78-6.3A70.75,70.75,0,0,1,166.25,72a72.81,72.81,0,0,1-3.07-8.12c-.75-2.22-1.34-4.82-2.66-6.79a6.07,6.07,0,0,0-4.2-2.42c-2.42-.48-5.27-1.55-7.73-.76a14.87,14.87,0,0,0-2.77,1.37c-.63.36-1.81,1.31-2.59,1.25-1-.07-1.54-3.15-1.75-3.94-.69-2.61-1.37-5.22-2.06-7.83a7.55,7.55,0,0,0-2.28-4.21c-4.29-3.47-9.73-5.33-14.71-7.53-4.07-1.8-9.12-3.59-11.34-7.74-1.38-2.57-2.25-5.46-4.39-7.56-1.65-1.61-3.87-2.46-5.76-3.75a5.41,5.41,0,0,0-3.2-1.15,2.31,2.31,0,0,0-2,1c-.85.91-1.94,1.69-2.8,2.66a25.87,25.87,0,0,1-3.11,3.17l2.56,1.06c-.55-4.52-1.1-9.17-4.36-12.65C86.35,6.21,84.15,5.55,82,4.49S78,1.4,75.76.19a1.52,1.52,0,0,0-2.2.9,72.34,72.34,0,0,0-1.27,7.3c-.38,2.28-.74,5-2.17,6.93a6.15,6.15,0,0,1-2.44,1.62A7.29,7.29,0,0,0,65,19.1a23,23,0,0,0-2.13,4.27c-.74,1.67-1.46,3.35-2.19,5l2.36-.3c-2-2.11-1.87-6.51-5-7.6-4.23-1.45-5,4.36-6.37,6.77-1.19,2-3.63,2.92-5.24,4.54A12.22,12.22,0,0,0,43.75,36c-1.17,3-1.26,6.2-2.2,9.23a8.51,8.51,0,0,1-2.16,3.67c-1.42,1.34-3.19,1.71-5,2.36-4,1.46-7.68,5.42-6.94,10,.23,1.36,1.07,2.75.79,4.15a8.6,8.6,0,0,1-1.63,2.9c-.87,1.25-1.81,2.47-2.73,3.69-1.7,2.25-3.11,4.74-4.9,6.92a8.56,8.56,0,0,1-2.34,2.15c-.87.5-1.81.9-2.64,1.49a4,4,0,0,0-1.63,2.32c-.31,1.23,0,2.44-.13,3.66a2.53,2.53,0,0,1-.74,1.54c-.81.4-1.72.57-2.54,1a23.47,23.47,0,0,0-5.34,4.71C2.5,97-1.11,99.27.92,101.18c.85.8,2.44.63,3.52.73a30.78,30.78,0,0,0,4.7.11,62.18,62.18,0,0,1,8.74.1,62.52,62.52,0,0,0,8.65.36c3-.14,6.06-.73,9.11-1,12.24-1,24.58.24,36.84.08,12.46-.16,24.9-.77,37.35-.83,6.15,0,12.31,0,18.46.12s12.26,0,18.38.12,12.3.75,18.47.65c2.79,0,5.57-.35,8.36-.44s5.59,0,8.38.13c1.08.07,2.56.46,3.58,0a2.08,2.08,0,0,0,1.15-2.63C185.94,97,183,97.73,183.71,99.55Z"/></g></g></g></g></svg>