<svg xmlns="http://www.w3.org/2000/svg" viewBox="0 0 228.84 262.96"><defs><style>.cls-1{fill:#09edf6;}.cls-2{fill:#043c7a;}.cls-3{fill:#fff;}</style></defs><g id="Layer_2" data-name="Layer 2"><g id="Tegenligger"><g id="blue"><g id="fill"><path class="cls-1" d="M42.84,166.58c-2.11-.54-2.35-1.56-3.13-3.15s-1.63-1.82-3-3c-2.91-2.6-4.55-4.78-8.51-5.94s-8-1.91-11.59-4c-2.84-1.63-6.39-3.79-9.68-4.34-1.68-.38-2.22-2.3-3.89-2.62-1-.19-1.15-.37-1.52.69A2.76,2.76,0,0,0,2,146.44C3.15,148,4.32,147.57,4.12,150a7.93,7.93,0,0,0,.31,4.2c.9,2.29,1.81,1.84,3.78,1.17a4.36,4.36,0,0,1,4.1.71c3.4,2.67,7.17,4.87,10.75,7.31,4,2.71,8.4,5.35,11.88,8.66A16.88,16.88,0,0,1,37,174.16c.66,1,.54,1.73.56,3,0,1.75.17,3.79,1.41,5.19.55.62,1.5.82,1.83,1.53s0,2.71,0,3.7c0,3.56.39,7.14.42,10.73.05,5.41,1.69,10.8,3.21,16,.35,1.18.63,2.5,1.05,3.63.86,2.29,3,4.38,4.32,6.5,1.58,2.51,2.86,5.2,4.52,7.66,1.77,2.62,3.73,5,5.26,7.77a61.57,61.57,0,0,0,4.24,6.55c-1.47,0-2.27,1-3.53,1.21a18.27,18.27,0,0,1-5.06-.28,55.82,55.82,0,0,0-10.42-.21c-2.59.21-6.64,2.36-2.49,4.17A17.75,17.75,0,0,0,50,252.49c2.19,0,4.17-.71,6.37-.38,1.77.26,3.5.66,5.29.81,3.48.29,7.16-.08,10.42,1.27a31.56,31.56,0,0,0,12.1,2.69c3.62.05,7.35-1.52,11-1.27,2.35.17,4.76,1.24,7.06,1.76a70.9,70.9,0,0,0,9.7,1.63c4.64.41,9,1.27,13.72.56,2.88-.43,4.87-1.14,7.63-.53a14.41,14.41,0,0,0,2,.32c2.92.17,5.6,1.09,8.45,1.8,3.77.93,7.86-.42,11.33-1.84,7.15-2.94,14.89-3.11,22.42-2.27,2.35.26,4.51,1.16,6.89,1.18,2.83,0,4.39-1,6.64-2.27,1.87-1,4.4-.77,6.47-.77,5,0,9.72.19,14.66.6a36.39,36.39,0,0,0,6.62-.18c1.51-.13,3.31.39,4.64-.56,1.62-1.16,1.26-3.14-.14-4.34-1.17-1-3.33-1-4.84-.74s-3.19.69-4.84.84c-1.8.17-3.33.83-5.08.42-3.23-.75-10.45-1.47-10.5-6.12.15-2.57,1.89-3.49,3.47-5.11s3.32-3.23,4.72-4.92a31.85,31.85,0,0,0,4.56-6.7c.72-1.57,1.18-3.18,2.05-4.69s.69-2.93,2.44-3.54a7.48,7.48,0,0,1,2.5-.27c1.34,0,1.36.08,1.69-1.23a33.72,33.72,0,0,1,2.6-6.52,25,25,0,0,0,1.44-6.37c.75-4.73,1.37-9.66,2.36-14.36a50.07,50.07,0,0,0,1.27-14.34c-.16-1.74-1-3.24-3-3.08,2.66-.58,3.59-2.83,2-5-1.22-1.66-3.91-1.19-5.86-1.18-4.42,5.14-9.28,10.26-16.47,10.64-3,.17-6-.86-8.86-.6-1.61.15-4,.81-4.16,2.41-.19,1.77,1,2.55-1.08,3-1.52.34-4.3-.59-5.81-.61a11.05,11.05,0,0,0-4.48,1c-1.67.86-1.6,2.13-2.75,3.37-1.35,1.45-3.94,1.48-6,1.66-4.09.34-17.26,2.35-13.54,8.83,1,1.79,2.62,5.27,1.31,7.33s-6.82,4-8.88,4.51a31.43,31.43,0,0,1-5.74.64c-7.26.47-14.52.08-21.79.39-5,.21-9.2-1.32-14-2-2.26-.3-4.72,0-7-.44s-4.49-2.4-6.89-3.22-4.57-.66-5.18-3.19a27.58,27.58,0,0,1-.42-5.45c0-1.21,0-3.16-.73-4.22-1.64-2.48-3.8-1.74-2.48-5.25,1-2.77,1.08-1.48,3.38-2.19,1.3-.41,1.72-1.32,1.22-3-.65-2.18-1.33-1.11-3.16-1.86-2-.82-4.81,8.78-6.86,7.91-4.17-1.78-7.78-4.21-11.8-6.16-3.46-1.68-6.36,1.39-10,.06-5-1.8-3-15.4-4.09-12.38-.7,1.94-1.19,2.36-3.26,1.48,2-2.48,1.37-3.86-1.72-4.93a4.77,4.77,0,0,0-3.71-.1C44,166.07,43.88,165.45,42.84,166.58Z"/></g><g id="sea-fill"><path class="cls-2" d="M198,245.1c-.9.51-2.13,2-3.12,2.37-4.28,1.5-9.63,2.39-12.15-2.38-1.12-2.11-2.22-2.23-4.51-2.23a11.08,11.08,0,0,0-7,2c-2.46,1.89-5.12,3.69-7.7,5.46s-6.48,1.2-9.6,1.65c-1.84.26-3.83.64-5.15-.8-.85-.94-1.73-1.95-2.5-3-2.09-2.74-4.12-.64-6.53.66-3.42,1.84-7.08,4.41-11,2.7a32.74,32.74,0,0,1-7-4.61,16.31,16.31,0,0,0-3.61-2.13c-1-.46-1.69-1.25-2.71-1.62-1.86-.67-4.2-.06-6.11.14-5.46.58-10,4-15.29,5.42-4.08,1.07-7.55.27-11.24-1.55-1.53-.75-3.08-1.83-4.83-1.85-1.94,0-3.53,1.31-5.11,2.35s-3.11,1.53-4.83.48c-.89-.55-2.35-1.76-3.45-1.91-1.47,0-2.89,1-4.15,1.21a18.27,18.27,0,0,1-5.06-.28,55.82,55.82,0,0,0-10.42-.21c-2.59.21-6.64,2.36-2.49,4.17A17.75,17.75,0,0,0,50,252.49c2.19,0,4.17-.71,6.37-.38,1.77.26,3.5.66,5.29.81,3.48.29,7.16-.08,10.42,1.27a31.56,31.56,0,0,0,12.1,2.69c3.62.05,7.35-1.52,11-1.27,2.35.17,4.76,1.24,7.06,1.76a70.9,70.9,0,0,0,9.7,1.63c4.64.41,9,1.27,13.72.56,2.88-.43,4.87-1.14,7.63-.53a14.41,14.41,0,0,0,2,.32c2.92.17,5.6,1.09,8.45,1.8,3.77.93,7.86-.42,11.33-1.84,7.15-2.94,14.89-3.11,22.42-2.27,2.35.26,4.51,1.16,6.89,1.18,2.83,0,4.39-1,6.64-2.27,1.87-1,4.4-.77,6.47-.77,5,0,9.72.19,14.66.6a36.39,36.39,0,0,0,6.62-.18c1.51-.13,3.31.39,4.64-.56,1.62-1.16,1.26-3.14-.14-4.34-1.17-1-3.33-1-4.84-.74s-3.19.69-4.84.84c-1.8.17-3.33.83-5.08.42C205.3,250.47,198.08,249.75,198,245.1Z"/></g><g id="sea-outline"><path class="cls-3" d="M197.27,243.8c-1.07.69-1.88,1.84-3.05,2.33a15,15,0,0,1-3.91,1c-2.43.29-4.75-.23-6.08-2.44a6.36,6.36,0,0,0-2.42-2.71,8,8,0,0,0-3.76-.58,15.32,15.32,0,0,0-4.46.64,16.61,16.61,0,0,0-4.64,2.74c-1.52,1.12-3.08,2.2-4.64,3.27a10.42,10.42,0,0,1-4.31,2.08c-1.52.25-3.08.19-4.61.29s-3.28.72-4.72.3c-1.25-.37-2.3-2.16-3.09-3.14-1-1.25-2.18-2.23-3.88-2.1a8.89,8.89,0,0,0-3.76,1.62c-1.38.83-2.79,1.62-4.22,2.34a9.3,9.3,0,0,1-4.6,1.28c-1.88-.1-3.63-1.29-5.14-2.31s-2.6-2-3.91-2.93-3.12-1.7-4.6-2.7c-2.86-1.92-6.27-1.2-9.47-.68-3.44.57-6.58,2.17-9.73,3.57s-6.43,2.59-9.9,2A17.82,17.82,0,0,1,83.46,246a18.34,18.34,0,0,0-4.4-1.93,6.7,6.7,0,0,0-4.47.76c-1.41.73-2.79,2.3-4.41,2.5-1.31.17-2.4-1-3.45-1.65a4.93,4.93,0,0,0-4.61-.32,13.2,13.2,0,0,1-2.19.76,8.34,8.34,0,0,1-2.34,0c-1.72-.19-3.42-.44-5.14-.55-3.26-.2-7.17-.58-10.27.66-2,.81-4.35,3-2.35,5.16,2.15,2.31,6.33,2.59,9.28,2.65,1.84,0,3.6-.35,5.43-.45,2.07-.11,4.12.53,6.16.78,3.52.42,7.19-.07,10.58,1.16a43.09,43.09,0,0,0,9.84,2.69,22,22,0,0,0,5.25.07c1.92-.23,3.78-.7,5.69-1a12.55,12.55,0,0,1,4.92.18c1.94.47,3.81,1.15,5.76,1.58a101.26,101.26,0,0,0,11.09,1.67c3.91.42,7.8.92,11.73.39,1.58-.22,3.15-.64,4.75-.76a32.51,32.51,0,0,1,5.46.56c3.58.35,6.94,2.05,10.54,2.08s7.05-1.47,10.47-2.71a37.12,37.12,0,0,1,10.74-2.08,46.27,46.27,0,0,1,10.9.52c3.45.66,6.66,1.64,10.08.25,1.26-.52,2.37-1.34,3.62-1.86,1.56-.63,3.39-.42,5-.4,3.87,0,7.74.1,11.6.35,1.94.12,3.88.36,5.83.34s3.78-.33,5.67-.27a6.57,6.57,0,0,0,3.95-.76,3.92,3.92,0,0,0,1.75-3.85c-.44-3.05-3.42-4.26-6.17-4.16a33.88,33.88,0,0,0-4.79.77c-.88.16-1.77.23-2.65.37a12.22,12.22,0,0,1-2.94.38,28.45,28.45,0,0,1-6.12-1.4c-1.6-.52-3.66-1.41-3.74-3.35s-3.08-1.93-3,0c.2,5,5.63,6.35,9.62,7.16.93.19,1.87.44,2.81.54a21.48,21.48,0,0,0,5.1-.55c1.61-.2,3.18-.63,4.79-.84,1.19-.15,3-.32,3.82.79s-.15,1.86-1.31,1.92c-1.63.1-3.27.07-4.91.17-3.86.24-7.74-.31-11.59-.46-3.47-.15-7-.32-10.46-.16a10,10,0,0,0-4.47,1.18,14.19,14.19,0,0,1-3.92,1.74,11.35,11.35,0,0,1-4.67-.31,41.25,41.25,0,0,0-5.41-.9,55.94,55.94,0,0,0-10.67,0,38.74,38.74,0,0,0-10.57,2.52c-3,1.21-6.36,2.49-9.69,2-1.7-.24-3.37-.86-5-1.27-1.82-.44-3.64-.55-5.48-.85a16.74,16.74,0,0,0-4.58-.39c-1.75.17-3.47.63-5.22.83-3.79.41-7.57-.16-11.33-.55a83.36,83.36,0,0,1-10.74-1.72c-1.78-.42-3.49-1.09-5.28-1.48a15.31,15.31,0,0,0-5.23-.19c-1.62.21-3.2.57-4.81.85a21.21,21.21,0,0,1-5.74.12,39.88,39.88,0,0,1-9.47-2.63c-3.34-1.22-6.94-.87-10.41-1.17-1.78-.15-3.52-.6-5.29-.81a28.48,28.48,0,0,0-5.45.35,20.45,20.45,0,0,1-5.24-.26,13.34,13.34,0,0,1-2.08-.58c-.42-.15-.83-.44-1.24-.56a1.86,1.86,0,0,1-.32-.23.55.55,0,0,1,0,.4c.08,0,.64-.49.77-.56a6.11,6.11,0,0,1,1.61-.54,25.57,25.57,0,0,1,5.18-.22c1.89,0,3.79.14,5.68.36a21.8,21.8,0,0,0,4.7.34c1.42-.15,2.71-1.15,4.11-1.24,1.23-.07,2.43,1.35,3.49,1.89a5.25,5.25,0,0,0,4.5.08c1.46-.62,2.62-1.73,4-2.44a4.2,4.2,0,0,1,4.06.23,39.27,39.27,0,0,0,5,2.28,16.13,16.13,0,0,0,9.6.25c3.23-.92,6.17-2.57,9.28-3.8a24.93,24.93,0,0,1,9.33-1.91c1.75,0,2.85,1.17,4.34,1.91a25.24,25.24,0,0,1,4.29,2.79c2.53,2,5.45,4.2,8.74,4.5s6.29-1.51,9.05-3a34,34,0,0,1,3.51-2c1.51-.61,2.31,1.24,3.14,2.22,1,1.15,1.93,2.33,3.45,2.74a11.24,11.24,0,0,0,4.4-.1c3-.36,6.19.07,9-1.26a28.84,28.84,0,0,0,4.09-2.69c1.55-1.07,3.06-2.21,4.59-3.32a9.17,9.17,0,0,1,4.11-1.7,9.39,9.39,0,0,1,4.12,0c1,.35,1.27,1.45,1.81,2.23a7.79,7.79,0,0,0,2.86,2.52,11.32,11.32,0,0,0,7.4.52,16.2,16.2,0,0,0,3.4-1c1.22-.56,2-1.67,3.11-2.38C200.41,245.36,198.9,242.76,197.27,243.8Z"/></g><g id="window"><g id="window-2" data-name="window"><g id="fill-2" data-name="fill"><path class="cls-3" d="M163.4,230.26c2.32.17,4.9.56,7.29.56h5.6c1.86,0,5,.21,6.17-1.54s1.06-4.65,1.23-6.62c.24-2.81.8-5.65.37-8.46a20.88,20.88,0,0,0-2.58-7.7c-1.18-2-3.71-2.76-5.82-3.38a8.6,8.6,0,0,0-10.36,4.22C161.84,214.12,162.1,223,163.4,230.26Z"/></g><g id="outline"><path class="cls-2" d="M163.4,231.76c3.7.29,7.31.56,11,.56,2.47,0,5.46.39,7.73-.83,2.43-1.31,2.71-4.38,2.89-6.84.24-3.3.93-6.69.57-10s-1.27-6.88-3.24-9.47c-1.61-2.12-4.51-3.15-7-3.69a10.53,10.53,0,0,0-7.8,1.22c-2.49,1.56-3.82,4.06-4.79,6.76-2.42,6.73-2,14.25-.8,21.18.33,1.9,3.23,1.09,2.89-.8a43.22,43.22,0,0,1-.25-15.71c.9-4.58,2.88-10,8.4-9.92a11.41,11.41,0,0,1,6.31,2.06c2,1.55,2.68,4.9,3.12,7.23.58,3.07,0,6.08-.24,9.14-.09,1.08-.12,2.16-.25,3.22-.11.91-.26,2.28-1.05,2.88s-2.21.56-3.17.56c-1.33,0-2.66,0-4,0-3.48,0-6.86-.29-10.33-.56C161.48,228.61,161.49,231.61,163.4,231.76Z"/></g><path class="cls-2" d="M172.29,203.35c-.35,2.33,0,4.64-.47,7a28.35,28.35,0,0,0-.22,6.38c.18,4.72-.22,9.42-.23,14.14,0-.24,2.89-.49,2.89-.78,0-4.71.42-9.42.23-14.13a29,29,0,0,1,.23-6.39c.43-2.33.11-4.64.47-7-.06.38-2.83.36-2.9.77Z"/><path class="cls-2" d="M162.4,212.11c1.94,0,3.89-.07,5.84,0s3.63.4,5.46.38,3.5-.15,5.27,0c1,.07,2.44-.08,3.34.44.2.11,1.22-.32,1.45-.38s1.24-.52,1.45-.4c-.89-.52-2.34-.36-3.34-.44-1.77-.12-3.51,0-5.28,0s-3.63-.33-5.45-.38-3.9,0-5.85,0c-1,0-1.93.77-2.89.77Z"/></g><g id="window-3" data-name="window"><g id="fill-3" data-name="fill"><path class="cls-3" d="M188.14,230.26c1.52,1.67,5.43.75,7.49.83,1.83.08,3.65.14,5.49.14.81,0,2.6.35,3.34,0,1.21-.61,1.11-6.35,1.5-7.89,1.18-4.73.1-13.45-1.13-17.78-.85-2.95-.13-3.72-2.47-5.56-2.1-1.65-4.27-2-7.22-2.07-6.41-.13-5.64,9.57-6.48,14a58,58,0,0,0-.65,8.93C187.88,223.77,187.44,227.4,188.14,230.26Z"/></g><g id="outline-2" data-name="outline"><path class="cls-2" d="M187.07,231.32c2.44,2.36,6.45,1.2,9.47,1.31,2.1.08,4.19.11,6.28.23,1.46.08,2.76-.19,3.44-1.59,1.1-2.3.66-5.14,1.14-7.56a35.56,35.56,0,0,0,.28-10.75c-.36-3.37-1.27-6.56-1.85-9.88a6.14,6.14,0,0,0-1.64-3.5,10.49,10.49,0,0,0-4.72-2.69c-2.88-.74-6.6-1-8.84,1.3-1.87,1.94-2.41,4.79-2.75,7.36-.2,1.5-.31,3-.47,4.51-.22,2-.62,3.92-.73,5.91-.14,2.42-.17,4.84-.31,7.26a26.43,26.43,0,0,0,.32,7.43c.42,1.88,3.31,1.09,2.89-.8-.79-3.56-.11-7.41,0-11,.09-3.17.59-6.23.9-9.37.32-3.29.2-10.13,4.88-10.05,2.39,0,6.35.56,7.33,3.22.42,1.14.49,2.5.81,3.68s.61,2.65.83,4a44,44,0,0,1,.59,9.79c-.07,1.15-.32,2.25-.5,3.38s-.23,2.38-.34,3.56c-.06.64-.12,1.29-.24,1.92-.05.26-.15.53-.19.79,0,.07-.17.44,0,.25s.38-.11.16-.13-.4,0-.59,0c-.4,0-.8-.05-1.2-.08-1-.08-1.93-.06-2.9-.08-1.87,0-3.71-.15-5.57,0-1.22.08-3.32.46-4.29-.49C187.81,227.85,185.69,230,187.07,231.32Z"/></g><path class="cls-2" d="M195.65,199.08c0,5.51-.27,11-.11,16.53.07,2.57.36,5.18.23,7.76s-1,5.22-1.12,7.9c0-.27,2.89-.47,2.9-.78.09-2.6.94-5.08,1.11-7.67s-.15-5.34-.23-8c-.15-5.5.11-11,.11-16.52,0,.23-2.89.49-2.89.77Z"/><path class="cls-2" d="M188,208.41c2.67,0,5.34,0,8,.16s5.16.51,7.73.41c1,0,1.93-.74,2.9-.78-2.57.1-5.16-.3-7.73-.41s-5.34-.15-8-.16a6.28,6.28,0,0,0-1.46.38,6.71,6.71,0,0,1-1.44.4Z"/></g></g><g id="rand"><path class="cls-2" d="M227.13,177.05c-.16-1.74-1-3.24-3-3.08,2.66-.58,3.59-2.83,2-5-1.22-1.66-3.91-1.19-5.86-1.18-4.42,5.14-9.28,10.26-16.47,10.64-3,.17-6-.86-8.86-.6-1.61.15-4,.81-4.16,2.41-.19,1.77,1,2.55-1.08,3-1.52.34-4.3-.59-5.81-.61a11.05,11.05,0,0,0-4.48,1c-1.67.86-1.6,2.13-2.75,3.37-1.35,1.45-3.94,1.48-6,1.66-4.09.34-17.16,2.29-13.45,8.77,0,2.62.44,5.83-2.14,7.26A48.11,48.11,0,0,1,145.3,209a23.34,23.34,0,0,1-5.84,1.38c-1.77.07-3.56.11-5.32.11-3.88,0-7.68-.18-11.57-.34-6.81-.28-13.52-.61-20.27-1.55a34.56,34.56,0,0,1-7.81-1.7c-1.56-.57-4.15-.85-5.14-2.35-.7-1.07-.43-2.55-.7-3.74a32.67,32.67,0,0,1-.06-5.77,5.21,5.21,0,0,0-.74-3.08c-1.64-2.47-3.8-1.74-2.48-5.25,1-2.77,1.08-1.48,3.38-2.19,1.3-.41,1.72-1.32,1.22-3-.65-2.18-2.57-2.35-4.39-3.09-2-.83-3.58-2.35-5.63-3.23-4.17-1.77-7.78-4.2-11.8-6.15-3.46-1.68-6.36-4.79-10-6.13-5-1.8-3,3.15-4.09,6.17-.7,1.94-1.19,2.36-3.26,1.48,2-2.48,1.37-3.86-1.72-4.93a4.77,4.77,0,0,0-3.71-.1c-1.4.57-1.48-.05-2.52,1.08-2.11-.54-2.35-1.56-3.13-3.15s-1.63-1.82-3-3c-2.91-2.6-4.55-4.78-8.51-5.94s-8-1.91-11.59-4c-2.84-1.63-6.39-3.79-9.68-4.34-1.68-.38-2.22-2.3-3.89-2.62-1-.19-1.15-.37-1.52.69A2.76,2.76,0,0,0,2,146.44C3.15,148,4.32,147.57,4.12,150a7.93,7.93,0,0,0,.31,4.2c.9,2.29,1.81,1.84,3.78,1.17a4.36,4.36,0,0,1,4.1.71c3.4,2.67,7.17,4.87,10.75,7.31,4,2.71,8.4,5.35,11.88,8.66A16.88,16.88,0,0,1,37,174.16c.66,1,.54,1.73.56,3A7.27,7.27,0,0,0,39.13,182c1.24-.62,2.47-3.35,3.16-4.33.51-.74.74-1.92,1.36-2.56,1.34-1.37,3.19,0,4.41.81,4.13,2.88,9,4.34,13.39,6.7,2.84,1.52,5.82,2.66,8.71,4a87.44,87.44,0,0,0,8.79,4c1,.36,2.43.87,3,1.91s.16,2.48,0,3.67c-.42,4.45.52,12.59,5.09,14.63a51.28,51.28,0,0,0,5.49,2.23c2,.61,4.05.73,6.07,1.15a109.77,109.77,0,0,0,11.79,1.5,97.77,97.77,0,0,0,12.81.43c3.4-.1,6.89.14,10.17-.87a69.91,69.91,0,0,1,8.5-2.34c2.44-.41,4.74-1.36,7.21-1.75a16.7,16.7,0,0,0,4.5-.88c1.49-.66,3-1.26,4.41-1.93,2-1,1.66-2.73,1.66-4.69a23.5,23.5,0,0,0,9.29-2.29c2.6-1.36,5.61-1.71,8.4-2.69s6.06-1.25,9-2.06c4.61-1.25,9.22-2.06,13.45-4.34,3.38-1.83,6.67-3.76,10-5.63,1.63-.91,3.7-2.63,5.47-3.17,3.93-1.2,1.56,8.83,1.3,10-1.19,5.48-2.13,11.07-3.78,16.44-.8,2.57-3,6.1-2.86,8.89,2.16.1,4.63.7,6.77.26s2.84-3.6,3.66-5.46a46.5,46.5,0,0,0,1.69-4.76c1.28-4,2.3-7.82,3.22-11.9a18.45,18.45,0,0,0,.51-5.08A53.87,53.87,0,0,0,227.13,177.05ZM65,176.38c-.62,1.53-1,2.43-2.46,1.89-2-.72-6.09-3.72-6.34-5.69a7.58,7.58,0,0,1,.89-3.87c1.2-1.39,1-.5,2.42-.28,1.76.29,6.27,2.21,6.47,4A9,9,0,0,1,65,176.38Zm18.2,7.4c-.69.85-1.52,1.52-2.23,2.31-.33.35-.32.64-.8.69s-1.4-.51-1.86-.7c-1.81-.73-3.29-1.91-5.17-2.49a3.85,3.85,0,0,1-2-1.34,8.63,8.63,0,0,0-1.06-1.12c-.21-.16-.78-.38-.9-.6-.33-.59.24-1.87.53-2.48.55-1.18,1.59-2.3,2.21-3.43,1.15.15,2.49,1.17,3.52,1.71.86.45,1.63.66,2.52,1a18.24,18.24,0,0,1,3,1.93,15.56,15.56,0,0,1,2.82,2.51C84.44,182.59,83.79,183.09,83.23,183.78Z"/><path class="cls-3" d="M228.63,177.05c-.31-2.56-1.69-4.67-4.51-4.58l.4,2.95a4.71,4.71,0,0,0,3.87-4,4.8,4.8,0,0,0-3.07-4.75,8.38,8.38,0,0,0-2.86-.39c-1,0-2.44-.17-3.24.51a25.9,25.9,0,0,0-2.12,2.41c-.81.87-1.64,1.73-2.51,2.55-3.27,3.05-7.29,5.39-11.9,5.25-2.63-.08-5.23-.87-7.87-.59-1.78.18-3.94.7-5,2.31a3.8,3.8,0,0,0-.53,2.43c0,.24,0,.89.16,1.08,0,0-.1.59.16-.17s.09-.16-.3-.19c-1.89-.13-3.83-.7-5.73-.66s-4.65.6-6.13,2.11a20.64,20.64,0,0,0-1.62,2.44,3.84,3.84,0,0,1-2.66,1.26c-2.91.45-5.82.52-8.71,1.19-2.72.63-5.87,1.55-7.87,3.62a5.1,5.1,0,0,0-1.53,3.38,5.18,5.18,0,0,0,.3,1.86,5.77,5.77,0,0,0,.39.88c-.07-.38,0,.29,0,.37,0,.33,0,.66,0,1a9,9,0,0,1-.25,2.65c-.35,1.14-1.19,1.55-2.19,2.08a46.27,46.27,0,0,1-7.52,3.25,27.79,27.79,0,0,1-7.78,1.65c-2.9.09-5.8.08-8.69,0-5.8-.19-11.61-.42-17.39-.83-5.49-.4-11.36-.68-16.6-2.48-1.31-.44-4-.67-4.77-2-.46-.84-.32-2.28-.46-3.22a18.07,18.07,0,0,1-.07-3.45c.09-2.19.19-4.35-1.2-6.19A10.06,10.06,0,0,0,87,189c-.42-.34-.53-.32-.52-.83a4.81,4.81,0,0,1,.52-1.55c0-.13.26-.39.26-.52,0,0-.14,0-.14.1s-.5.06,0,0a6.65,6.65,0,0,0,1.18-.12c1.89-.34,3.42-1.55,3.35-3.61a5.2,5.2,0,0,0-3.24-4.68c-.87-.37-1.8-.6-2.65-1a32.11,32.11,0,0,1-3.27-2c-2.26-1.41-4.82-2.36-7.16-3.65s-4.78-2.55-7.15-3.85c-2.09-1.14-3.92-2.69-5.91-4-1.71-1.12-3.85-2.37-6-2.36-3.58,0-3.13,4-3.45,6.46-.08.64-.53,1.3-.58,1.9,0,.33-.34.12.1.11a3.49,3.49,0,0,1-1.21-.38l.66,2.5c.9-1.15,1.83-2.49,1.54-4a4.19,4.19,0,0,0-2.52-2.83,7.73,7.73,0,0,0-5.46-.82c-1.36.39-2.6.57-3.63,1.62l1.46-.39c-1.65-.47-1.73-1.78-2.59-3.08s-2.37-2.24-3.55-3.34c-2.73-2.53-5.22-4.73-8.87-5.79-2.05-.6-4.12-1.08-6.15-1.72a29.9,29.9,0,0,1-5.9-2.69,45.89,45.89,0,0,0-5.6-2.83,18.19,18.19,0,0,0-2.8-.88,3.59,3.59,0,0,1-1.9-1.23A4.91,4.91,0,0,0,2,142c-1.66.25-2.17,2.26-1.89,3.68a4.47,4.47,0,0,0,1.18,2.25c.35.37,1,.65,1.28,1.07s0,1.63,0,2.21a8.15,8.15,0,0,0,.26,2.78c.4,1.42,1.18,3,2.74,3.36s2.78-.78,4.25-.7a4.72,4.72,0,0,1,2.52,1.3c1,.74,2,1.45,3,2.15,1.86,1.25,3.76,2.45,5.64,3.69,4,2.65,8.19,5.18,11.81,8.33.85.74,1.72,1.51,2.5,2.33a2.8,2.8,0,0,1,.82,2.33,9.64,9.64,0,0,0,2,6.37,1.51,1.51,0,0,0,1.82.23c1.66-1,2.48-2.9,3.44-4.48a26.61,26.61,0,0,1,1.25-2.44c.67-.85,1.94.31,2.59.75,4.36,3,9.45,4.71,14.13,7.12,2.44,1.25,5,2.26,7.48,3.39s5,2.49,7.61,3.57c1,.44,2.15.74,3.17,1.22,1.38.66,1.22,1.56,1,2.94a22.83,22.83,0,0,0-.07,5.29c.33,3.54,1.22,7.65,4,10.17,1.62,1.49,4,2.26,6,3a45.25,45.25,0,0,0,7.79,1.76,120.06,120.06,0,0,0,16.91,1.91c2.93.14,5.85.11,8.79.06a48.92,48.92,0,0,0,8.29-.52c3.12-.61,6.06-1.93,9.18-2.56s5.94-1.66,9-2a23.86,23.86,0,0,0,8.4-2.86c2.37-1.29,2.42-3.57,2.4-6l-1.5,1.5a25,25,0,0,0,9.4-2.18,30.55,30.55,0,0,1,5.06-1.82c1.82-.47,3.58-1.09,5.4-1.56s3.79-.74,5.68-1.15,3.72-.94,5.58-1.41a44.33,44.33,0,0,0,10.64-3.93c3.37-1.84,6.84-3.64,10.08-5.71a27.35,27.35,0,0,1,4.21-2.48c.1,0,.22,0,.25,0-.14.19-.2-.31-.11,0,0,0-.21-.31-.09,0a1,1,0,0,1,.12.3,11.74,11.74,0,0,1-.14,5.07c-.3,1.83-.73,3.64-1.11,5.45-.88,4.28-1.7,8.59-2.92,12.8-1,3.45-3.27,6.73-3.24,10.41a1.52,1.52,0,0,0,1.5,1.5c3,.18,7.13,1.45,9.38-1.21a12.83,12.83,0,0,0,2-3.74c.63-1.59,1.28-3.16,1.81-4.79,1.27-3.9,2.39-7.83,3.32-11.82.73-3.13.86-6.27,1.39-9.43a49.07,49.07,0,0,0,.78-12.33c-.17-1.91-3.17-1.93-3,0a48.08,48.08,0,0,1-.92,12.94,16.54,16.54,0,0,0-.37,2.79,16.48,16.48,0,0,1-.15,2.33c-.32,2.06-.89,4.11-1.41,6.13a108,108,0,0,1-4.12,12.81c-.43,1.09-.89,3-2,3.57-.86.43-2.32.17-3.24.09-1.13-.11-2.25-.27-3.39-.34l1.5,1.5c0-3.25,2.17-6.33,3.07-9.39,1.17-4,2-8,2.8-12.11s2.26-8.36,1.57-12.41c-.32-1.85-1.63-3.38-3.66-3a11.78,11.78,0,0,0-4,2c-1.59,1.05-3.24,2-4.9,2.92-3.55,2-7.07,4.32-10.94,5.69a87.09,87.09,0,0,1-11.71,3.13A111.92,111.92,0,0,0,171,199c-1.93.63-3.66,1.67-5.6,2.25a23.72,23.72,0,0,1-5.73,1,1.53,1.53,0,0,0-1.5,1.5,6.16,6.16,0,0,1-.16,2.74c-.47.89-2.06,1.25-2.93,1.62a17.53,17.53,0,0,1-3.69,1.34c-1.27.23-2.56.3-3.83.58s-2.54.68-3.81,1-2.71.56-4.06.87c-2.72.64-5.32,1.75-8.05,2.32a46.4,46.4,0,0,1-8.42.47c-2.7.07-5.39.06-8.09-.07a136.24,136.24,0,0,1-17-2,35.37,35.37,0,0,1-7.59-1.86c-1.76-.73-3.68-1.34-4.83-3-2-2.82-2.43-6.82-2.34-10.18,0-2,.89-4.27-.35-6.11s-4-2.33-5.93-3.18c-2.46-1-4.81-2.33-7.25-3.42s-4.9-2.09-7.27-3.32c-2.62-1.35-5.32-2.5-8-3.73a42.45,42.45,0,0,1-3.92-2c-1.15-.67-2.19-1.53-3.37-2.14-2.47-1.27-4.66-.41-5.75,2.08a25.2,25.2,0,0,1-1.35,2.44,6.71,6.71,0,0,1-1.84,2.51l1.81.24c-1.27-1.56-1-3.43-1.12-5.28a6.31,6.31,0,0,0-2.39-4.11,69.78,69.78,0,0,0-9.28-7.14c-3.52-2.34-7.07-4.63-10.57-7-1.61-1.09-3.17-2.64-5-3.39s-3.3-.38-5,.14c-.14,0-.61.17-.6.18-.48-.2-.69-1.7-.72-2.15-.12-1.61.54-3.31-.37-4.8a4.94,4.94,0,0,0-1.19-1.18,3,3,0,0,1-.67-.62c-.23-.33-.12-.68-.26-1s.83-.52-.4,0c-.93.42-.45.12-.22.27s.6.12.86.29a14.73,14.73,0,0,1,1.47,1.38c1.38,1.16,3.23,1.23,4.87,1.88a40.85,40.85,0,0,1,5.26,2.71,45.07,45.07,0,0,0,11.08,4.18,16.5,16.5,0,0,1,5.54,2.31,50.49,50.49,0,0,1,4.08,3.66c.67.59,1.42,1.08,2.06,1.7a6.7,6.7,0,0,1,1.21,2,5.38,5.38,0,0,0,3.62,3,1.51,1.51,0,0,0,1.46-.39c.48-.49.81-.36,1.51-.56a4.53,4.53,0,0,1,3.26,0c.41.15,1.71.53,1.8,1.06s-.52,1.09-.74,1.37a1.53,1.53,0,0,0,.66,2.51c1.53.61,3.2.76,4.26-.73A8.45,8.45,0,0,0,55.92,167c.06-.79-.07-2.49.31-3,.07-.08.15,0,0,0a1.83,1.83,0,0,1,.72.09,10.21,10.21,0,0,1,3,1.32c2,1.18,3.78,2.68,5.74,3.91s4.42,2.35,6.59,3.57,4.42,2.45,6.74,3.48c2.06.91,3.77,2.42,5.84,3.31,1.35.58,3.9.88,3.85,2.85,0,1-1.8.63-2.59.88-1.48.48-2.13,2.46-2.45,3.81a3.57,3.57,0,0,0,1.2,3.87,8.85,8.85,0,0,1,1.55,1.38,4.23,4.23,0,0,1,.71,2.86,47.51,47.51,0,0,0,.17,6.2c.25,2.1.3,3.93,2.27,5.17,1.49.94,3.35,1.22,5,1.79,4.89,1.67,10.36,2,15.47,2.43,5.31.44,10.63.63,16,.85,2.73.11,5.46.21,8.19.2a37.1,37.1,0,0,0,7.88-.46,47.15,47.15,0,0,0,13.82-5.46,6,6,0,0,0,2.8-4.64,17.75,17.75,0,0,0,.1-2.63c0-.42,0-.87,0-1.29a4.58,4.58,0,0,0-.46-1.25c-.79-2,1.35-3.23,3.11-4a29.67,29.67,0,0,1,7.6-1.87c3.26-.43,7.21,0,9.35-3a10.27,10.27,0,0,1,1.39-2.09,6.16,6.16,0,0,1,2.86-1c1.92-.3,3.75.37,5.65.55,1.49.13,3.65-.16,4.14-1.86a4.62,4.62,0,0,0-.06-1.85c-.07-.81.15-1,.9-1.34,1.94-.8,4.18-.42,6.18-.15a20.69,20.69,0,0,0,7.15,0c4.09-.84,7.62-3.3,10.59-6.16,1.49-1.44,2.87-3,4.23-4.57l-1.06.44c1.27,0,3.45-.49,4.51.42,1.4,1.2.24,2.45-1.07,2.79a1.5,1.5,0,0,0,.39,2.94c1,0,1.39.58,1.51,1.58C225.85,178.94,228.86,179,228.63,177.05Z"/><path class="cls-3" d="M63.59,176c-.06.14-.11.27-.17.4l-.06.13a6.55,6.55,0,0,1-.32.58c.19-.32.09-.09,0,0,.45-.32-.25.05.29-.16-.12.05-.36.05,0,0q-.24,0,.09,0l-.24-.06-.33-.11c-.29-.09.33.17,0,0s-.36-.18-.53-.27c-.45-.24-.89-.5-1.31-.78-.21-.14-.43-.29-.63-.44l-.32-.23c.27.19-.08-.07-.11-.09a16.36,16.36,0,0,1-1.24-1.11l-.49-.53c0-.05-.28-.36,0-.05l-.18-.26c-.11-.16-.2-.34-.3-.51s.07.32,0,0c0,0-.08-.31-.08-.31s0,.43,0,.08c0-.09,0-.19,0-.28s0-.22,0-.33.06-.45,0-.07a9.77,9.77,0,0,1,.37-1.6c0-.1.07-.21.11-.32-.15.41,0,0,0,0s.15-.41-.06,0a1.78,1.78,0,0,1,.32-.35c.14-.14.32-.16,0,0,.26-.1-.46.08-.44.08.25,0-.42-.09-.18,0-.48-.14-.18-.07,0,0a20.61,20.61,0,0,0,2.6.8c.21.08.43.15.64.24l.33.13c-.34-.14,0,0,.09,0a15.12,15.12,0,0,1,1.45.73c.24.14.48.29.71.45l.28.2c-.32-.24,0,0,.11.1l.22.21.13.14q.16.18-.06-.09c.06,0,.1.15.14.21.23.32-.06-.21,0,0s0,.26,0-.05c0,.2,0,.39,0,.59,0-.3,0,.2,0,.21a6.23,6.23,0,0,1-.15.62,20.3,20.3,0,0,1-.74,2,1.51,1.51,0,0,0,1,1.85,1.55,1.55,0,0,0,1.85-1.05c.61-1.49,1.32-3.2,1-4.85a5,5,0,0,0-2.3-2.74,15.88,15.88,0,0,0-3.46-1.7,12.7,12.7,0,0,0-1.45-.44c-.23-.05-.46-.08-.68-.15l-.16-.05c-.19,0,.25.13.1,0l-.28-.14c-3.18-1.48-4.51,3.21-4.51,5.5a5.11,5.11,0,0,0,1.5,3.27,15.78,15.78,0,0,0,3,2.61A9.06,9.06,0,0,0,63,179.89a2.59,2.59,0,0,0,2.3-.83,7.46,7.46,0,0,0,1.21-2.28,1.49,1.49,0,0,0-1-1.84A1.53,1.53,0,0,0,63.59,176Z"/><path class="cls-3" d="M82.17,182.72c-.69.82-1.53,1.5-2.23,2.31a3.57,3.57,0,0,0-.46.59.44.44,0,0,1,.43-.19c.42-.06.48-.12.19-.16a6.4,6.4,0,0,0-.87-.43,54.08,54.08,0,0,0-5.76-2.73,3.71,3.71,0,0,1-1.63-1.31,5.57,5.57,0,0,0-1.13-1c-.08,0-.35-.26-.45-.25a1.54,1.54,0,0,1,.3.6V180a6.94,6.94,0,0,0,.29-.88,8.93,8.93,0,0,1,.59-1.1c.56-.89,1.23-1.69,1.76-2.61l-1.7.69a10.41,10.41,0,0,1,3,1.47c1.08.59,2.3.86,3.37,1.46a22.76,22.76,0,0,1,2.94,2,14.92,14.92,0,0,1,1.44,1.31l.31.34c.18.23.21.05.07-.53a6.47,6.47,0,0,0-.45.56,1.54,1.54,0,0,0,0,2.12,1.51,1.51,0,0,0,2.12,0,3.91,3.91,0,0,0,1.25-2.27,3.11,3.11,0,0,0-1.1-2.25,25.1,25.1,0,0,0-3.77-3.06A11.36,11.36,0,0,0,78.52,176c-.69-.3-1.43-.51-2.11-.84-1.37-.66-2.58-1.71-4.11-2a1.55,1.55,0,0,0-1.69.69c-1.13,2-3.06,3.82-3,6.25a2.2,2.2,0,0,0,.73,1.67c.35.3.76.46,1.09.77a9.15,9.15,0,0,0,2.64,2.2c.51.22,1.06.37,1.57.59a19.52,19.52,0,0,1,1.76.91c1,.55,2,1,3,1.53s2.44.81,3.37-.23c.77-.86,1.73-1.76,2.53-2.71a1.54,1.54,0,0,0,0-2.12A1.51,1.51,0,0,0,82.17,182.72Z"/></g><g id="extra"><path class="cls-2" d="M40,191.08c2.89,1.59,5.15,4.1,8.09,5.62,1.57.81,3.31,1.27,4.93,2s3.32,1.57,5.05,2.19c3.68,1.31,7.7,1.3,11.49,2.16s7.63,2,11.67,1.95c1.93-.05,1.94-3.05,0-3-3.94.09-7.52-1.13-11.32-1.94s-7.51-.8-11.05-2.06c-1.61-.58-3.15-1.37-4.71-2.06s-3.35-1.17-4.89-2c-2.78-1.53-5-3.91-7.75-5.44-1.69-.93-3.2,1.66-1.51,2.59Z"/><path class="cls-2" d="M157.36,208.14c.09,1.13.23,2.27-.89,2.68a6.19,6.19,0,0,0-3,2.07,12.65,12.65,0,0,0-2.19,6c-.54,3.63-1.1,7.53-.58,11.19.25,1.75,1,3.09,2.89,3.28,1,.1,2.07-.11,3.1,0a40.86,40.86,0,0,1,4.65.85,57.66,57.66,0,0,0,9.88,1.16c3.5,0,7,.42,10.45.68,7.91.6,15.94,0,23.87,0a1.5,1.5,0,0,0,0-3c-6.77,0-13.56.37-20.33.2-3.23-.08-6.45-.47-9.68-.7s-6.54-.11-9.79-.6c-3-.45-6-1.4-9-1.58-.88,0-1.76.12-2.63.07,0,0-.58-.08-.62-.07s.36.13.36.24-.15-.39-.21-.69a20.8,20.8,0,0,1,0-5.17c.11-1.61.27-3.23.51-4.84.28-1.92.63-4.63,2.38-5.8,1-.69,2.16-.63,3-1.74a6.07,6.07,0,0,0,.86-4.15c-.15-1.91-3.15-1.92-3,0Z"/><path class="cls-2" d="M49.86,226c3.59.48,6.46,2.74,9.59,4.36a16.52,16.52,0,0,0,4.92,1.75c2.14.35,4.34.24,6.43.88,1.76.54,3.4,1.39,5.13,2a30.83,30.83,0,0,0,6.1,1.15c4.47.64,8.88,1.61,13.32,2.39a156.78,156.78,0,0,0,26.15,1.9c8.69.06,17.38.57,26.07.38a113.12,113.12,0,0,0,14.36-1.13,22.54,22.54,0,0,0,6.1-1.86c1.94-.88,3.92-1.94,6.09-2,1.93-.09,1.94-3.09,0-3-3.83.19-6.85,2.57-10.45,3.54-4,1.09-8.45,1.2-12.57,1.39-8.63.39-17.28-.06-25.91-.22s-17.5,0-26.17-1.37c-4.39-.67-8.72-1.62-13.09-2.37-2.12-.37-4.25-.61-6.38-.92A22.08,22.08,0,0,1,74.13,231a21,21,0,0,0-6.61-1.61,16.27,16.27,0,0,1-6-1.41c-3.57-1.74-6.78-4.38-10.82-4.92a1.56,1.56,0,0,0-1.85,1,1.52,1.52,0,0,0,1,1.85Z"/><path class="cls-2" d="M41.44,203.37c3.05,5.4,8.85,8.37,14.38,10.64a129.87,129.87,0,0,0,21.7,7.11,92.47,92.47,0,0,0,11.6,1.5c4,.36,7.86,1.27,11.85,1.45s8.1.88,12.18.81,8.09-.37,12.14-.43a268.42,268.42,0,0,0,27.16-2.2c1.89-.21,1.92-3.22,0-3-7.77.89-15.54,1.79-23.36,2.1-4,.16-7.92.13-11.88.36a72.24,72.24,0,0,1-11.58-.26c-4-.4-8-.6-11.95-1.23-3.71-.57-7.47-.65-11.19-1.22-7.64-1.15-15-3.71-22.19-6.44-5.95-2.27-13-4.85-16.27-10.7a1.5,1.5,0,0,0-2.59,1.51Z"/></g><g id="rand-2" data-name="rand"><path class="cls-3" d="M228.63,177.05c-.31-2.56-1.69-4.67-4.51-4.58l.4,2.95a4.71,4.71,0,0,0,3.87-4,4.8,4.8,0,0,0-3.07-4.75,8.38,8.38,0,0,0-2.86-.39c-1,0-2.44-.17-3.24.51a25.9,25.9,0,0,0-2.12,2.41c-.81.87-1.64,1.73-2.51,2.55-3.27,3.05-7.29,5.39-11.9,5.25-2.63-.08-5.23-.87-7.87-.59-1.78.18-3.94.7-5,2.31a3.8,3.8,0,0,0-.53,2.43c0,.24,0,.89.16,1.08,0,0-.1.59.16-.17s.09-.16-.3-.19c-1.89-.13-3.83-.7-5.73-.66s-4.65.6-6.13,2.11a20.64,20.64,0,0,0-1.62,2.44,3.84,3.84,0,0,1-2.66,1.26c-2.91.45-5.82.52-8.71,1.19-2.72.63-5.87,1.55-7.87,3.62a5.1,5.1,0,0,0-1.53,3.38,5.18,5.18,0,0,0,.3,1.86,5.77,5.77,0,0,0,.39.88c-.07-.38,0,.29,0,.37,0,.33,0,.66,0,1a9,9,0,0,1-.25,2.65c-.35,1.14-1.19,1.55-2.19,2.08a46.27,46.27,0,0,1-7.52,3.25,27.79,27.79,0,0,1-7.78,1.65c-2.9.09-5.8.08-8.69,0-5.8-.19-11.61-.42-17.39-.83-5.49-.4-11.36-.68-16.6-2.48-1.31-.44-4-.67-4.77-2-.46-.84-.32-2.28-.46-3.22a18.07,18.07,0,0,1-.07-3.45c.09-2.19.19-4.35-1.2-6.19A10.06,10.06,0,0,0,87,189c-.42-.34-.53-.32-.52-.83a4.81,4.81,0,0,1,.52-1.55c0-.13.26-.39.26-.52,0,0-.14,0-.14.1s-.5.06,0,0a6.65,6.65,0,0,0,1.18-.12c1.89-.34,3.42-1.55,3.35-3.61a5.2,5.2,0,0,0-3.24-4.68c-.87-.37-1.8-.6-2.65-1a32.11,32.11,0,0,1-3.27-2c-2.26-1.41-4.82-2.36-7.16-3.65s-4.78-2.55-7.15-3.85c-2.09-1.14-3.92-2.69-5.91-4-1.71-1.12-3.85-2.37-6-2.36-3.58,0-3.13,4-3.45,6.46-.08.64-.53,1.3-.58,1.9,0,.33-.34.12.1.11a3.49,3.49,0,0,1-1.21-.38l.66,2.5c.9-1.15,1.83-2.49,1.54-4a4.19,4.19,0,0,0-2.52-2.83,7.73,7.73,0,0,0-5.46-.82c-1.36.39-2.6.57-3.63,1.62l1.46-.39c-1.65-.47-1.73-1.78-2.59-3.08s-2.37-2.24-3.55-3.34c-2.73-2.53-5.22-4.73-8.87-5.79-2.05-.6-4.12-1.08-6.15-1.72a29.9,29.9,0,0,1-5.9-2.69,45.89,45.89,0,0,0-5.6-2.83,18.19,18.19,0,0,0-2.8-.88,3.59,3.59,0,0,1-1.9-1.23A4.91,4.91,0,0,0,2,142c-1.66.25-2.17,2.26-1.89,3.68a4.47,4.47,0,0,0,1.18,2.25c.35.37,1,.65,1.28,1.07s0,1.63,0,2.21a8.15,8.15,0,0,0,.26,2.78c.4,1.42,1.18,3,2.74,3.36s2.78-.78,4.25-.7a4.72,4.72,0,0,1,2.52,1.3c1,.74,2,1.45,3,2.15,1.86,1.25,3.76,2.45,5.64,3.69,4,2.65,8.19,5.18,11.81,8.33.85.74,1.72,1.51,2.5,2.33a2.8,2.8,0,0,1,.82,2.33,9.64,9.64,0,0,0,2,6.37,1.51,1.51,0,0,0,1.82.23c1.66-1,2.48-2.9,3.44-4.48a26.61,26.61,0,0,1,1.25-2.44c.67-.85,1.94.31,2.59.75,4.36,3,9.45,4.71,14.13,7.12,2.44,1.25,5,2.26,7.48,3.39s5,2.49,7.61,3.57c1,.44,2.15.74,3.17,1.22,1.38.66,1.22,1.56,1,2.94a22.83,22.83,0,0,0-.07,5.29c.33,3.54,1.22,7.65,4,10.17,1.62,1.49,4,2.26,6,3a45.25,45.25,0,0,0,7.79,1.76,120.06,120.06,0,0,0,16.91,1.91c2.93.14,5.85.11,8.79.06a48.92,48.92,0,0,0,8.29-.52c3.12-.61,6.06-1.93,9.18-2.56s5.94-1.66,9-2a23.86,23.86,0,0,0,8.4-2.86c2.37-1.29,2.42-3.57,2.4-6l-1.5,1.5a25,25,0,0,0,9.4-2.18,30.55,30.55,0,0,1,5.06-1.82c1.82-.47,3.58-1.09,5.4-1.56s3.79-.74,5.68-1.15,3.72-.94,5.58-1.41a44.33,44.33,0,0,0,10.64-3.93c3.37-1.84,6.84-3.64,10.08-5.71a27.35,27.35,0,0,1,4.21-2.48c.1,0,.22,0,.25,0-.14.19-.2-.31-.11,0,0,0-.21-.31-.09,0a1,1,0,0,1,.12.3,11.74,11.74,0,0,1-.14,5.07c-.3,1.83-.73,3.64-1.11,5.45-.88,4.28-1.7,8.59-2.92,12.8-1,3.45-3.27,6.73-3.24,10.41a1.52,1.52,0,0,0,1.5,1.5c3,.18,7.13,1.45,9.38-1.21a12.83,12.83,0,0,0,2-3.74c.63-1.59,1.28-3.16,1.81-4.79,1.27-3.9,2.39-7.83,3.32-11.82.73-3.13.86-6.27,1.39-9.43a49.07,49.07,0,0,0,.78-12.33c-.17-1.91-3.17-1.93-3,0a48.08,48.08,0,0,1-.92,12.94,16.54,16.54,0,0,0-.37,2.79,16.48,16.48,0,0,1-.15,2.33c-.32,2.06-.89,4.11-1.41,6.13a108,108,0,0,1-4.12,12.81c-.43,1.09-.89,3-2,3.57-.86.43-2.32.17-3.24.09-1.13-.11-2.25-.27-3.39-.34l1.5,1.5c0-3.25,2.17-6.33,3.07-9.39,1.17-4,2-8,2.8-12.11s2.26-8.36,1.57-12.41c-.32-1.85-1.63-3.38-3.66-3a11.78,11.78,0,0,0-4,2c-1.59,1.05-3.24,2-4.9,2.92-3.55,2-7.07,4.32-10.94,5.69a87.09,87.09,0,0,1-11.71,3.13A111.92,111.92,0,0,0,171,199c-1.93.63-3.66,1.67-5.6,2.25a23.72,23.72,0,0,1-5.73,1,1.53,1.53,0,0,0-1.5,1.5,6.16,6.16,0,0,1-.16,2.74c-.47.89-2.06,1.25-2.93,1.62a17.53,17.53,0,0,1-3.69,1.34c-1.27.23-2.56.3-3.83.58s-2.54.68-3.81,1-2.71.56-4.06.87c-2.72.64-5.32,1.75-8.05,2.32a46.4,46.4,0,0,1-8.42.47c-2.7.07-5.39.06-8.09-.07a136.24,136.24,0,0,1-17-2,35.37,35.37,0,0,1-7.59-1.86c-1.76-.73-3.68-1.34-4.83-3-2-2.82-2.43-6.82-2.34-10.18,0-2,.89-4.27-.35-6.11s-4-2.33-5.93-3.18c-2.46-1-4.81-2.33-7.25-3.42s-4.9-2.09-7.27-3.32c-2.62-1.35-5.32-2.5-8-3.73a42.45,42.45,0,0,1-3.92-2c-1.15-.67-2.19-1.53-3.37-2.14-2.47-1.27-4.66-.41-5.75,2.08a25.2,25.2,0,0,1-1.35,2.44,6.71,6.71,0,0,1-1.84,2.51l1.81.24c-1.27-1.56-1-3.43-1.12-5.28a6.31,6.31,0,0,0-2.39-4.11,69.78,69.78,0,0,0-9.28-7.14c-3.52-2.34-7.07-4.63-10.57-7-1.61-1.09-3.17-2.64-5-3.39s-3.3-.38-5,.14c-.14,0-.61.17-.6.18-.48-.2-.69-1.7-.72-2.15-.12-1.61.54-3.31-.37-4.8a4.94,4.94,0,0,0-1.19-1.18,3,3,0,0,1-.67-.62c-.23-.33-.12-.68-.26-1s.83-.52-.4,0c-.93.42-.45.12-.22.27s.6.12.86.29a14.73,14.73,0,0,1,1.47,1.38c1.38,1.16,3.23,1.23,4.87,1.88a40.85,40.85,0,0,1,5.26,2.71,45.07,45.07,0,0,0,11.08,4.18,16.5,16.5,0,0,1,5.54,2.31,50.49,50.49,0,0,1,4.08,3.66c.67.59,1.42,1.08,2.06,1.7a6.7,6.7,0,0,1,1.21,2,5.38,5.38,0,0,0,3.62,3,1.51,1.51,0,0,0,1.46-.39c.48-.49.81-.36,1.51-.56a4.53,4.53,0,0,1,3.26,0c.41.15,1.71.53,1.8,1.06s-.52,1.09-.74,1.37a1.53,1.53,0,0,0,.66,2.51c1.53.61,3.2.76,4.26-.73A8.45,8.45,0,0,0,55.92,167c.06-.79-.07-2.49.31-3,.07-.08.15,0,0,0a1.83,1.83,0,0,1,.72.09,10.21,10.21,0,0,1,3,1.32c2,1.18,3.78,2.68,5.74,3.91s4.42,2.35,6.59,3.57,4.42,2.45,6.74,3.48c2.06.91,3.77,2.42,5.84,3.31,1.35.58,3.9.88,3.85,2.85,0,1-1.8.63-2.59.88-1.48.48-2.13,2.46-2.45,3.81a3.57,3.57,0,0,0,1.2,3.87,8.85,8.85,0,0,1,1.55,1.38,4.23,4.23,0,0,1,.71,2.86,47.51,47.51,0,0,0,.17,6.2c.25,2.1.3,3.93,2.27,5.17,1.49.94,3.35,1.22,5,1.79,4.89,1.67,10.36,2,15.47,2.43,5.31.44,10.63.63,16,.85,2.73.11,5.46.21,8.19.2a37.1,37.1,0,0,0,7.88-.46,47.15,47.15,0,0,0,13.82-5.46,6,6,0,0,0,2.8-4.64,17.75,17.75,0,0,0,.1-2.63c0-.42,0-.87,0-1.29a4.58,4.58,0,0,0-.46-1.25c-.79-2,1.35-3.23,3.11-4a29.67,29.67,0,0,1,7.6-1.87c3.26-.43,7.21,0,9.35-3a10.27,10.27,0,0,1,1.39-2.09,6.16,6.16,0,0,1,2.86-1c1.92-.3,3.75.37,5.65.55,1.49.13,3.65-.16,4.14-1.86a4.62,4.62,0,0,0-.06-1.85c-.07-.81.15-1,.9-1.34,1.94-.8,4.18-.42,6.18-.15a20.69,20.69,0,0,0,7.15,0c4.09-.84,7.62-3.3,10.59-6.16,1.49-1.44,2.87-3,4.23-4.57l-1.06.44c1.27,0,3.45-.49,4.51.42,1.4,1.2.24,2.45-1.07,2.79a1.5,1.5,0,0,0,.39,2.94c1,0,1.39.58,1.51,1.58C225.85,178.94,228.86,179,228.63,177.05Z"/><path class="cls-3" d="M63.59,176c-.06.14-.11.27-.17.4l-.06.13a6.55,6.55,0,0,1-.32.58c.19-.32.09-.09,0,0,.45-.32-.25.05.29-.16-.12.05-.36.05,0,0q-.24,0,.09,0l-.24-.06-.33-.11c-.29-.09.33.17,0,0s-.36-.18-.53-.27c-.45-.24-.89-.5-1.31-.78-.21-.14-.43-.29-.63-.44l-.32-.23c.27.19-.08-.07-.11-.09a16.36,16.36,0,0,1-1.24-1.11l-.49-.53c0-.05-.28-.36,0-.05l-.18-.26c-.11-.16-.2-.34-.3-.51s.07.32,0,0c0,0-.08-.31-.08-.31s0,.43,0,.08c0-.09,0-.19,0-.28s0-.22,0-.33.06-.45,0-.07a9.77,9.77,0,0,1,.37-1.6c0-.1.07-.21.11-.32-.15.41,0,0,0,0s.15-.41-.06,0a1.78,1.78,0,0,1,.32-.35c.14-.14.32-.16,0,0,.26-.1-.46.08-.44.08.25,0-.42-.09-.18,0-.48-.14-.18-.07,0,0a20.61,20.61,0,0,0,2.6.8c.21.08.43.15.64.24l.33.13c-.34-.14,0,0,.09,0a15.12,15.12,0,0,1,1.45.73c.24.14.48.29.71.45l.28.2c-.32-.24,0,0,.11.1l.22.21.13.14q.16.18-.06-.09c.06,0,.1.15.14.21.23.32-.06-.21,0,0s0,.26,0-.05c0,.2,0,.39,0,.59,0-.3,0,.2,0,.21a6.23,6.23,0,0,1-.15.62,20.3,20.3,0,0,1-.74,2,1.51,1.51,0,0,0,1,1.85,1.55,1.55,0,0,0,1.85-1.05c.61-1.49,1.32-3.2,1-4.85a5,5,0,0,0-2.3-2.74,15.88,15.88,0,0,0-3.46-1.7,12.7,12.7,0,0,0-1.45-.44c-.23-.05-.46-.08-.68-.15l-.16-.05c-.19,0,.25.13.1,0l-.28-.14c-3.18-1.48-4.51,3.21-4.51,5.5a5.11,5.11,0,0,0,1.5,3.27,15.78,15.78,0,0,0,3,2.61A9.06,9.06,0,0,0,63,179.89a2.59,2.59,0,0,0,2.3-.83,7.46,7.46,0,0,0,1.21-2.28,1.49,1.49,0,0,0-1-1.84A1.53,1.53,0,0,0,63.59,176Z"/><path class="cls-3" d="M82.17,182.72c-.69.82-1.53,1.5-2.23,2.31a3.57,3.57,0,0,0-.46.59.44.44,0,0,1,.43-.19c.42-.06.48-.12.19-.16a6.4,6.4,0,0,0-.87-.43,54.08,54.08,0,0,0-5.76-2.73,3.71,3.71,0,0,1-1.63-1.31,5.57,5.57,0,0,0-1.13-1c-.08,0-.35-.26-.45-.25a1.54,1.54,0,0,1,.3.6V180a6.94,6.94,0,0,0,.29-.88,8.93,8.93,0,0,1,.59-1.1c.56-.89,1.23-1.69,1.76-2.61l-1.7.69a10.41,10.41,0,0,1,3,1.47c1.08.59,2.3.86,3.37,1.46a22.76,22.76,0,0,1,2.94,2,14.92,14.92,0,0,1,1.44,1.31l.31.34c.18.23.21.05.07-.53a6.47,6.47,0,0,0-.45.56,1.54,1.54,0,0,0,0,2.12,1.51,1.51,0,0,0,2.12,0,3.91,3.91,0,0,0,1.25-2.27,3.11,3.11,0,0,0-1.1-2.25,25.1,25.1,0,0,0-3.77-3.06A11.36,11.36,0,0,0,78.52,176c-.69-.3-1.43-.51-2.11-.84-1.37-.66-2.58-1.71-4.11-2a1.55,1.55,0,0,0-1.69.69c-1.13,2-3.06,3.82-3,6.25a2.2,2.2,0,0,0,.73,1.67c.35.3.76.46,1.09.77a9.15,9.15,0,0,0,2.64,2.2c.51.22,1.06.37,1.57.59a19.52,19.52,0,0,1,1.76.91c1,.55,2,1,3,1.53s2.44.81,3.37-.23c.77-.86,1.73-1.76,2.53-2.71a1.54,1.54,0,0,0,0-2.12A1.51,1.51,0,0,0,82.17,182.72Z"/></g><g id="outline-3" data-name="outline"><path class="cls-3" d="M43.24,165.13a2.78,2.78,0,0,1-2-1.89,8,8,0,0,0-2.35-3c-2.15-1.7-4-3.81-6.22-5.35-2.49-1.69-5.47-2.26-8.32-3a40.53,40.53,0,0,1-4.57-1.47A43.11,43.11,0,0,1,15.26,148,40.52,40.52,0,0,0,11,145.85a20.3,20.3,0,0,0-2-.74,8.29,8.29,0,0,1-2.16-.64c-.87-.58-1.42-1.52-2.38-2s-2.54-.87-3.46-.06a3.47,3.47,0,0,0-.89,3.23c.29,1.49,1.2,2.12,2.2,3.11.67.66.28,1.71.23,2.6a8,8,0,0,0,.91,4.21,3.23,3.23,0,0,0,2.19,1.76c1.23.24,2.22-.42,3.38-.65,1.67-.32,2.8.89,4,1.79,1.44,1.05,2.93,2,4.42,3C23,165.08,29,168.54,33.88,173.07c.89.83,2.12,1.65,2.21,3a32.11,32.11,0,0,0,.26,4,6.53,6.53,0,0,0,1.81,3.52c.33.31,1.07.55,1.31.89s0,1.44,0,1.86c-.31,3.48.17,7,.29,10.47A52.05,52.05,0,0,0,41,207.21c.47,2,1.05,4,1.64,6,.51,1.71.87,3.51,1.52,5.17a18.38,18.38,0,0,0,2.71,4.34A41.54,41.54,0,0,1,50,227.53c1.89,3.36,4,6.47,6.19,9.63s4,6.75,6.4,9.93l1.29-2.25a10.65,10.65,0,0,0-3.34,1.09,8,8,0,0,1-3.93,0,55.57,55.57,0,0,0-9.39-.51c-2.27.07-4.69.19-6.6,1.58-1.69,1.23-2.06,3.31-.34,4.71,2.12,1.73,5.34,2.13,8,2.24a24.6,24.6,0,0,0,4.46-.21,15.64,15.64,0,0,1,5,.09,87.74,87.74,0,0,0,9.3.82c3,.2,5.55,1.44,8.4,2.32a31.74,31.74,0,0,0,8.38,1.39c3,.08,5.85-.82,8.8-1.17,3.24-.39,6,.81,9.06,1.56a71.09,71.09,0,0,0,9.38,1.65c3.13.34,6.28.76,9.42.89a50.48,50.48,0,0,0,9.1-.89,12.49,12.49,0,0,1,4.18.23c1.46.26,2.93.3,4.38.6,3,.63,5.83,1.83,8.9,1.7a25.81,25.81,0,0,0,8.53-2.19,36.27,36.27,0,0,1,8.86-2.31,50.1,50.1,0,0,1,9.08-.24,43.39,43.39,0,0,1,4.56.41c1.43.24,2.82.67,4.26.9a11.9,11.9,0,0,0,7.72-1.26,11.67,11.67,0,0,1,3.26-1.47,23.53,23.53,0,0,1,4.28-.1c3.26,0,6.52.08,9.77.26a75.75,75.75,0,0,0,9.64.32c1.37-.1,2.7-.14,4.07-.13a5.43,5.43,0,0,0,3.5-1,4.09,4.09,0,0,0,.34-6c-1.65-1.9-4.32-2-6.63-1.62-1.37.2-2.72.55-4.1.75a22.18,22.18,0,0,1-4.71.6,30.19,30.19,0,0,1-5.06-1.08c-1.45-.39-3.28-.92-4.26-2.15-1.38-1.73.21-3.45,1.49-4.62a62.71,62.71,0,0,0,6.14-6.38,30.83,30.83,0,0,0,4.9-7.71c.55-1.35,1.15-2.63,1.76-3.94.46-1,.53-2.21,1.73-2.5,1-.25,2.16.08,3.19-.23a2.45,2.45,0,0,0,1.55-1.9,33.67,33.67,0,0,1,1.3-3.82c.54-1.24,1.21-2.44,1.68-3.72,1-2.71,1.17-5.81,1.6-8.65.47-3.18.93-6.37,1.53-9.53,1.07-5.58,2.54-11.58,1.6-17.3a4.26,4.26,0,0,0-4.42-3.85l.4,2.95a4.71,4.71,0,0,0,3.87-4,4.79,4.79,0,0,0-3.22-4.8,8.49,8.49,0,0,0-2.88-.33c-1.07,0-2.39-.17-3.19.64-1.59,1.61-3,3.4-4.65,4.94-3.44,3.19-7.63,5.43-12.43,5.1-2.59-.18-5.13-.86-7.73-.5-1.75.25-3.78.9-4.65,2.57a4.21,4.21,0,0,0-.28,2.55c0,.06.1.79.1.79l.16-.32q.34-.43,0-.27c.09.06-.81.11-.78.1-2,.06-3.92-.84-6-.63s-4.54.82-5.9,2.6c-.57.75-.87,1.8-1.62,2.4a5.54,5.54,0,0,1-2.9.84,61.29,61.29,0,0,0-8.44,1.22c-2.7.67-5.85,1.64-7.74,3.81a5,5,0,0,0-1.32,3.53c.08,1.61,1.22,2.74.87,4.38-.38,1.81-1.34,4.46-3.21,5.16a23.78,23.78,0,0,1-2.89.68,13.46,13.46,0,0,0-3.1,1.32,13.31,13.31,0,0,1-2.57,1.26,17.94,17.94,0,0,1-4.21.37c-3,.13-5.94.1-8.91.06s-6,0-8.93.06a34.89,34.89,0,0,1-8-.86,49.18,49.18,0,0,0-7.9-1.24c-1.4,0-2.81,0-4.2-.17a9.3,9.3,0,0,1-3.41-1.29,26,26,0,0,0-6.2-2.63,2.5,2.5,0,0,1-1.75-1c-.57-1.05-.46-2.6-.5-3.76-.06-2.09.18-4.63-.83-6.54a7,7,0,0,0-1.79-2.05c-.32-.25-1-.6-1-.93s.24-1.05.36-1.37a8.65,8.65,0,0,0,.44-1c.06.12-.47,0-.35.17s.87-.07,1-.08c1.85-.24,3.62-1.17,3.75-3.23A5.17,5.17,0,0,0,88.84,178c-.82-.41-1.71-.63-2.56-1a21,21,0,0,1-3.43-2c-2.23-1.44-4.77-2.38-7.1-3.65s-4.78-2.62-7.2-3.88a72.39,72.39,0,0,1-6.09-4.06c-1.73-1.15-3.88-2.43-6-2.47-3.68-.07-3.23,4-3.56,6.46-.09.64-.53,1.3-.58,1.9,0,.33-.34.12.1.11a3.49,3.49,0,0,1-1.21-.38l.66,2.5c.9-1.15,1.83-2.49,1.54-4a4.19,4.19,0,0,0-2.52-2.83,7.73,7.73,0,0,0-5.46-.82c-1.36.39-2.6.57-3.63,1.62-1.35,1.38.77,3.51,2.12,2.12.48-.49.81-.36,1.51-.56a4.53,4.53,0,0,1,3.26,0c.41.15,1.71.53,1.8,1.06s-.52,1.09-.74,1.37a1.53,1.53,0,0,0,.66,2.51c1.52.61,3.2.76,4.26-.73A8.45,8.45,0,0,0,55.92,167c0-.63,0-1.25.1-1.88a4.48,4.48,0,0,1,.09-.64c0-.18.15-.48.1-.43.24-.24.07,0,0,0a2.14,2.14,0,0,1,.87.12,12.45,12.45,0,0,1,3.17,1.5c2,1.22,3.75,2.72,5.73,3.91,2.15,1.3,4.46,2.36,6.65,3.58s4.58,2.4,6.93,3.52c2.06,1,3.76,2.51,5.91,3.32a10.78,10.78,0,0,1,2.23.88c.5.33,1.35,1.5.92,2.13s-2.37.27-3,.66c-1.29.75-1.93,2.89-2.1,4.26-.21,1.72.64,2.65,1.89,3.65,1.54,1.24,1.6,2.61,1.67,4.48.08,2.29-.18,5,.9,7.11.82,1.61,2.41,2.19,4,2.62A28.51,28.51,0,0,1,98,208.43a15.22,15.22,0,0,0,7,1.36,40.44,40.44,0,0,1,7.43,1,49.06,49.06,0,0,0,7.32,1.13c2.73.15,5.5-.08,8.23-.07s5.62.08,8.43.06a41.86,41.86,0,0,0,8.07-.46c1.88-.39,3.41-1.72,5.17-2.41s3.84-.62,5.49-1.79,2.59-3.33,3.25-5.19a6.78,6.78,0,0,0-.09-5.46,2,2,0,0,1,.07-2.3,6.62,6.62,0,0,1,2.59-1.82,28.09,28.09,0,0,1,7.82-2c3-.42,6.88,0,9.08-2.45.64-.72.94-1.65,1.54-2.38a4.57,4.57,0,0,1,2.62-1.2c2-.44,3.72.11,5.66.36,1.55.2,3.85.16,4.58-1.54.5-1.15-.62-2.68.7-3.34,1.88-.92,4.22-.54,6.2-.28a21.86,21.86,0,0,0,7,.08c4.19-.75,7.81-3.21,10.83-6.1,1.55-1.48,3-3.08,4.37-4.7l-1.06.44c1.27,0,3.45-.49,4.51.42,1.4,1.2.24,2.45-1.07,2.79a1.5,1.5,0,0,0,.39,2.94c1,0,1.33.49,1.49,1.46a22.35,22.35,0,0,1,.13,4,52.89,52.89,0,0,1-1,8.4c-1.09,5.72-2,11.44-2.88,17.2a25.5,25.5,0,0,1-.77,3.89,33.78,33.78,0,0,1-1.64,3.75,27.69,27.69,0,0,0-1.28,3.43c0,.16-.39,1-.3,1.17l.67-.43h-.21a5.54,5.54,0,0,0-1.22,0,6.2,6.2,0,0,0-3.37.87A5.19,5.19,0,0,0,212,221.9c-.44,1.12-1,2.16-1.5,3.27a30.79,30.79,0,0,1-1.93,4.21,37.6,37.6,0,0,1-5.38,6.81c-1.68,1.73-3.68,3.31-5.2,5.18-2.74,3.37-1.13,7.43,2.49,9.17a21.41,21.41,0,0,0,5.06,1.59,15.42,15.42,0,0,0,5.72.57c1.37-.2,2.74-.41,4.1-.63s2.7-.62,4.08-.72a4.44,4.44,0,0,1,2.87.46c.76.56,1,1.64.07,2.13s-2.23.11-3.21.14c-1.53,0-3.05.27-4.58.29-3.07,0-6.16-.39-9.23-.52s-6-.14-9-.19a20.18,20.18,0,0,0-3.56.17,10.7,10.7,0,0,0-3.56,1.39,9.64,9.64,0,0,1-7.07,1.24,61.1,61.1,0,0,0-8.3-1.24,45.44,45.44,0,0,0-17,1.84c-2.65.88-5.16,2.12-7.92,2.65-3,.57-5.48-.22-8.31-.94a31.22,31.22,0,0,0-3.94-.79c-1.44-.18-2.86-.44-4.3-.61-2.77-.32-5.45.62-8.18.86a44.67,44.67,0,0,1-9-.38c-3-.33-6-.59-9-1.15s-5.66-1.46-8.51-2.16a19,19,0,0,0-8.28.14,26.24,26.24,0,0,1-8.38.49,31.65,31.65,0,0,1-7.81-2.09,23.41,23.41,0,0,0-8.12-1.5c-1.33-.05-2.68-.06-4-.21-1.61-.17-3.19-.56-4.8-.76a15.66,15.66,0,0,0-4,.19,23.73,23.73,0,0,1-4.54.14,14.71,14.71,0,0,1-3.77-.67,10,10,0,0,1-1.08-.41c-.15-.08-.68-.48-.8-.45s-.24-.1-.07.11-.26.15.15,0a13.63,13.63,0,0,1,2.18-.89,22,22,0,0,1,4.22-.22,67.87,67.87,0,0,1,8.55.61,10.58,10.58,0,0,0,3.55,0c1.09-.25,2-1.09,3.13-1.16s2-1.27,1.3-2.26c-2-2.71-3.57-5.65-5.4-8.46s-3.91-5.36-5.58-8.24a81.16,81.16,0,0,0-5.25-8.3,12.93,12.93,0,0,1-2.1-3.51c-.56-1.57-.91-3.24-1.38-4.84a68.58,68.58,0,0,1-2.4-10.07c-.49-3.53-.43-7.17-.61-10.73a37.33,37.33,0,0,1,0-4.61c.09-1.21.35-2.61-.26-3.74s-1.68-1.23-2.28-2.12c-.8-1.2-.75-2.86-.76-4.23a5.89,5.89,0,0,0-.77-3.32,16.27,16.27,0,0,0-3-3,63.05,63.05,0,0,0-7.61-5.69c-2.73-1.82-5.46-3.65-8.21-5.44-1.37-.89-2.73-1.78-4.06-2.71s-2.59-2.2-4.17-2.68a6.2,6.2,0,0,0-3.81.13c-.89.29-1.18.71-1.56-.09-1.11-2.29.62-5.12-1.33-7.09-.34-.35-.79-.58-1.13-.94s-.28-.78-.48-1.22l.08-.18-.95.43s.8.16.86.19a4.63,4.63,0,0,1,1.18,1,6,6,0,0,0,3.2,1.66,20.24,20.24,0,0,1,4.44,1.76c3.09,1.58,5.92,3.41,9.25,4.48s6.94,1.43,9.84,3.3c2.31,1.5,4.27,3.67,6.37,5.45,1,.83,1.26,1.92,1.91,3A5.3,5.3,0,0,0,42.44,168,1.51,1.51,0,0,0,43.24,165.13Z"/></g><g id="top"><g id="white"><path class="cls-3" d="M131,100.14a.87.87,0,0,0-.37.7c0,2.34-.14,4.6-.25,6.93,0,.93.05,1.88,0,2.81s-.29,1,.46,1.38a9.84,9.84,0,0,0,2,.21c1,.1,1.88.27,2.87.44.34.06,1,.38,1.36.19.5-.3.21-2,.21-2.6,0-1.76.07-3.53,0-5.28-.06-1.26.52-3.76-.46-4.7a4.84,4.84,0,0,0-3.09-.94A6,6,0,0,0,131,100.14Z"/><path class="cls-3" d="M129.94,99.08a2.87,2.87,0,0,0-.81,2.43c0,.93,0,1.87-.08,2.8-.08,1.84-.16,3.66-.16,5.51a9.38,9.38,0,0,0,0,2.05,2.27,2.27,0,0,0,1.58,1.53,6,6,0,0,0,1.79.23,15,15,0,0,1,1.89.22c1.41.23,3.42,1.14,4.38-.42.63-1,.29-2.37.29-3.49,0-1.79,0-3.58,0-5.36a15.18,15.18,0,0,0,0-3.81c-.85-3.59-6-3.48-8.48-1.93-1.64,1-.13,3.61,1.52,2.59a3.81,3.81,0,0,1,3.54-.39s.68.34.38.14l.07.12c0-.12,0-.13,0,0s.11.4.1.33a10.35,10.35,0,0,1,0,1.92c-.12,1.69,0,3.39,0,5.09,0,.73,0,1.46,0,2.19,0,.32,0,.64,0,1v.15c0,.19,0,.2,0,0l0,.12c.29-.38.35-.49.17-.33l.66-.39c.12,0,.28.09.13,0a2.58,2.58,0,0,0-.42-.12,8.4,8.4,0,0,0-1-.19c-.84-.15-1.69-.3-2.54-.37l-.7,0-.43,0s-.4,0-.15,0c0,0-.35,0-.19,0s.08,0,0,0c-.28-.17-.15,0,.38.57.1.13,0,.33.06,0a2.45,2.45,0,0,0,0-.38c.08-.82,0-1.66,0-2.49s.07-1.68.11-2.51.08-1.77.11-2.66c0-.44,0-.89,0-1.33a3,3,0,0,0,0-.67v-.27c-.28.47-.31.59-.07.36a1.51,1.51,0,0,0,0-2.12A1.53,1.53,0,0,0,129.94,99.08Z"/><path class="cls-3" d="M141.15,7.68a6.18,6.18,0,0,1,.22-1.2c.12-.54.59-.64.95-1.12.66-.88.22-1.85-.29-2.66a3.28,3.28,0,0,0-5-.05,2.61,2.61,0,0,0,0,3.43,1.89,1.89,0,0,1,.48,1.38,47,47,0,0,1,0,5.44c-.31,4.9-.35,9.81-.71,14.71-.25,3.31-.36,6.65-.36,10,0,.76-.54,4,.05,4.45.41.34,2.13.09,2.66.09a7.16,7.16,0,0,1,2.16-.08,7.79,7.79,0,0,0,.31-3.08c-.06-.66-.1-1.94-.17-2.59a40.61,40.61,0,0,1-.4-6.74c.1-2.52.08-5,.26-7.54.12-1.57.14-3.13.14-4.71C141.45,14.19,141,10.86,141.15,7.68Z"/><path class="cls-3" d="M142.65,7.68a2.91,2.91,0,0,1,.16-.8c-.18.36,0,.09.11,0a4.47,4.47,0,0,0,.89-1.09,3.41,3.41,0,0,0-.06-3,4.66,4.66,0,0,0-8.36-.31A4.14,4.14,0,0,0,135,5.34c.26,1,1,1.57,1,2.61.13,2.73-.07,5.42-.19,8.14s-.2,5.39-.33,8.09-.35,5.13-.46,7.7c-.09,2.21,0,4.45-.19,6.65-.13,1.36-.56,3.49.57,4.56,1.49,1.42,3.78,0,5.48.4a1.55,1.55,0,0,0,1.84-1.05c.82-2.1.34-4.81.09-7a63.81,63.81,0,0,1-.22-8.41c.07-3.22.34-6.43.33-9.66s-.42-6.46-.31-9.7c.06-1.93-2.94-1.92-3,0-.11,3.09.26,6.16.3,9.25s-.24,6.42-.31,9.64a64.88,64.88,0,0,0,.14,8.25c.22,2.06.86,4.82.09,6.82l1.84-1c-1.34-.29-2.71.09-4.07.1a1.55,1.55,0,0,0-.43,0c-.41.3.74.31.54.55a4.89,4.89,0,0,0,0-.64c0-.61.06-1.22.12-1.83.34-3.54.18-7.14.42-10.69.3-4.24.41-8.49.62-12.74.1-2.22.25-4.43.18-6.65a9.14,9.14,0,0,0-.22-2.4c-.21-.7-1-1.28-.95-2a1.68,1.68,0,0,1,2.73-.94c.7.64.48,1,0,1.58a4.36,4.36,0,0,0-.94,2.75C139.46,9.6,142.46,9.59,142.65,7.68Z"/><path class="cls-3" d="M180.34,108a.83.83,0,0,1-1.1-.78c0-2.24,0-4.26,0-6.6,0-2.09-.24-4-.28-6.08a28.46,28.46,0,0,1,.93-9c.39-1.58,4.24-1.62,5.3-.43,1.42,1.59,1.18,3.78,1.17,5.75,0,3.65.43,7.32.43,11,0,2,.06,3.45-1.84,4.52A28.58,28.58,0,0,1,180.34,108Z"/><path class="cls-3" d="M180.24,107.63c-.19,0-.6-.9-.62-1a4.47,4.47,0,0,1,0-.82v-1.21c0-1,0-2,0-3.08,0-2-.14-3.89-.24-5.84a29.49,29.49,0,0,1,.82-9.82c.38-1.27,2.11-1.32,3.22-1.14,1.76.28,2.42,1.81,2.56,3.45s0,3.55.08,5.32c.08,2,.23,4,.31,5.94.06,1.59.46,4-.33,5.43-1,1.88-4,2.18-5.78,2.81-.45.16-.26.89.2.73,1.91-.67,4.4-1,5.81-2.57,1.06-1.19.92-2.92.9-4.41,0-2.72-.27-5.43-.37-8.15-.08-2.11.27-4.45-.3-6.5A3.49,3.49,0,0,0,183.84,84a4.72,4.72,0,0,0-3.68.5,2.33,2.33,0,0,0-.8,1.55,31.71,31.71,0,0,0-.61,3.23,36.17,36.17,0,0,0-.17,5.7c.11,3,.27,6,.28,9,0,1.3-.69,4.83,1.58,4.41C180.92,108.27,180.72,107.55,180.24,107.63Z"/><path class="cls-3" d="M6.72,146.87c2.41-1,4.23-3,6.35-4.41,2.4-1.65,4.5-3.64,6.82-5.39a1.55,1.55,0,0,0,.54-2,1.51,1.51,0,0,0-2.05-.54c-2.32,1.75-4.43,3.74-6.82,5.39-2.13,1.46-3.95,3.37-6.35,4.41a1.51,1.51,0,0,0-.54,2.05,1.54,1.54,0,0,0,2.05.54Z"/><path class="cls-3" d="M62.26,148.14c.13,1.65.59,3.28.65,4.93s-.11,3.44,0,5.16.35,3.28.53,4.91a36.51,36.51,0,0,0,.8,5c.48,1.86,3.38,1.07,2.9-.8a32.68,32.68,0,0,1-.76-4.72c-.16-1.57-.42-3.15-.49-4.74s.08-3.2,0-4.8-.52-3.28-.65-4.93c-.15-1.91-3.15-1.93-3,0Z"/><path class="cls-3" d="M154.22,179.07c-5.07,2.34-6.27,7.79-8.09,12.53a57.26,57.26,0,0,0-2.84,9.52c-.63,3.15-2,6.25-2.14,9.47-.07,1.93,2.93,1.93,3,0a17,17,0,0,1,1-4.34,40.2,40.2,0,0,0,1.06-4.33,52.19,52.19,0,0,1,2.6-8.93c1.65-4.14,2.49-9.27,6.95-11.33,1.75-.81.23-3.39-1.51-2.59Z"/><path class="cls-3" d="M148.66,202.12a25.09,25.09,0,0,0,2.91,2.32l-.31-.23a8.7,8.7,0,0,1,1.58,1.51l-.23-.3c.08.11.17.22.25.34a1.56,1.56,0,0,0,.89.69,1.5,1.5,0,0,0,1.7-2.2,8.56,8.56,0,0,0-1.8-1.95c-.68-.55-1.4-1.05-2.09-1.58l.3.23a8.85,8.85,0,0,1-1.08-.95,1.5,1.5,0,0,0-2.12,2.12Z"/><path class="cls-3" d="M217.43,164.83a28.75,28.75,0,0,1,.77,2.86l0-.4a5.67,5.67,0,0,1,0,.92,1.51,1.51,0,0,0,1.5,1.5,1.53,1.53,0,0,0,1.5-1.5,7.72,7.72,0,0,0-.31-2.29c-.17-.63-.4-1.25-.56-1.89a1.5,1.5,0,0,0-2.89.8Z"/><path class="cls-3" d="M99,77.41c4.85-2.59,8.08-7.22,12.21-10.71,4.37-3.68,9-7.14,12.35-11.85,1.12-1.58-1.48-3.08-2.59-1.52-3.17,4.47-7.74,7.76-11.88,11.25-3.93,3.32-7,7.78-11.61,10.24-1.7.91-.19,3.5,1.52,2.59Z"/><path class="cls-3" d="M181.32,175.19a.74.74,0,0,0-.63.67c-.13,1.26-.62,2.24-.71,3.59s-.16,2.32-.19,3.77c.86-.9,1.53-.67,2.86-.69.79,0,1.37-.36,2.09-.13.31.1,1.18.44,1.51.3.79-.37,0-2.51,0-3.19-.14-1.47,0-2.94,0-4.39a4.54,4.54,0,0,1,.06-1.33c-.43-.09-1.08.44-1.53.61a6.57,6.57,0,0,1-1.7.39C182.23,174.88,181.9,175.1,181.32,175.19Z"/><path class="cls-3" d="M180.92,173.74a2.31,2.31,0,0,0-1.4,1,2.42,2.42,0,0,0-.27.64,3.62,3.62,0,0,0-.06.46c0-.13,0-.1,0,.08-.14.77-.39,1.51-.54,2.27a32.29,32.29,0,0,0-.35,5,1.51,1.51,0,0,0,2.56,1.06l.2-.19c-.15.11-.15.11,0,0l.19-.1c-.2.08-.23.09-.07,0,.43-.07-.18,0,.1,0h.45c.38,0,.75,0,1.12,0a8.66,8.66,0,0,0,.87-.12c.05,0,.63-.1.32-.07h.28c-.15,0-.14,0,.05,0l.32.11a5,5,0,0,0,1.16.26,2,2,0,0,0,2.07-1.24,4,4,0,0,0,.1-2.2c-.05-.29-.11-.57-.18-.85a3,3,0,0,0-.14-.69c0,.34.05.37,0,.09,0-.12,0-.24,0-.36s0-.49,0-.74c0-.48,0-1,0-1.46s0-1,0-1.46c0-.23,0-.46,0-.68s0-.23,0-.34c0,.12,0,.09,0-.09a1.52,1.52,0,0,0-1.44-1.9,2.88,2.88,0,0,0-1.63.48c-.17.09-.34.19-.51.27s-.07,0,.06,0l-.16,0-.37.1c-.23.06-.46.09-.7.13l-.4,0-.4.07c-.4.09-.8.25-1.21.32a1.52,1.52,0,0,0-1,1.85,1.55,1.55,0,0,0,1.85,1c.37-.07.71-.2,1.08-.29s.88-.13,1.47-.25a6,6,0,0,0,1.45-.52c.18-.09.35-.19.52-.29s.1,0,0,0c.39,0-.32,0,0,0l-1.45-1.9a15,15,0,0,0-.12,3c0,.92,0,1.84,0,2.75a11.8,11.8,0,0,0,.29,1.78c0,.14.06.28.08.43s0,.58,0,.14c0,.13,0,.27,0,.4a1.28,1.28,0,0,1,0,.19c0-.25,0-.31,0-.2a1.15,1.15,0,0,1,.44-.51,1.07,1.07,0,0,1,.46-.14c-.16,0-.12,0,.1,0-.11.07-.7-.21-.83-.25a5.73,5.73,0,0,0-2.54,0c.23,0-.33,0-.38,0h-.53a7,7,0,0,0-.79,0,3.66,3.66,0,0,0-2.31,1.11l2.56,1.06c0-1.31.09-2.63.21-3.94a4.51,4.51,0,0,1,.14-.74c.07-.3.15-.6.23-.89s.15-.61.2-.91c0-.11,0-.21.05-.32,0-.42.07-.53,0-.34-.11,0-.2.5-.44.56a1.5,1.5,0,0,0-.8-2.9Z"/><path class="cls-3" d="M126.1,193.17a.46.46,0,0,0-.47.39,64.24,64.24,0,0,0-.32,8.32,83.67,83.67,0,0,0,0,8.53c1.25.16,2.65.06,3.91.12a7.89,7.89,0,0,0,2.17,0c1.14-.34.39-1.73.3-2.82a51.67,51.67,0,0,1,0-7.77,35.42,35.42,0,0,1,.35-4.64C129.87,194.46,128.48,193.29,126.1,193.17Z"/><path class="cls-3" d="M125.7,191.73c-1.81.38-1.69,2.59-1.78,4-.11,1.62-.11,3.24-.11,4.86,0,3.25-.29,6.53,0,9.78a1.55,1.55,0,0,0,1.5,1.5c1,.11,2,.09,3,.1s1.83.17,2.74.09a2.51,2.51,0,0,0,2.23-1.41,4,4,0,0,0,0-2.51,25.44,25.44,0,0,1-.22-6c0-1.11.13-2.22.17-3.33a21.06,21.06,0,0,1,.25-3.17,1.56,1.56,0,0,0-1.05-1.84c-2.16-.86-4-2-6.37-2.19-1.93-.13-1.92,2.87,0,3s3.75,1.36,5.57,2.08l-1-1.84a43.05,43.05,0,0,0-.44,5.68,52.08,52.08,0,0,0-.05,5.86,16.44,16.44,0,0,0,.27,2.42s.15.74.14.73.44-.54.46-.5l-.4,0c-.8,0-1.59-.11-2.39-.11a27.43,27.43,0,0,1-2.87-.1l1.5,1.5a83.68,83.68,0,0,1,0-8.53c0-1.39,0-2.77,0-4.16q0-1,.09-1.95a7.06,7.06,0,0,1,.24-2l-.38.66.16-.14-.66.39.21,0C128.38,194.23,127.58,191.34,125.7,191.73Z"/></g><g id="sides"><g id="side"><path class="cls-1" d="M99.87,76.72a.76.76,0,0,0-1.1-.84c-6,3.26-11.4,8-16.88,12-9.75,7.2-18.94,15.27-28.6,22.68-8.75,6.71-17.2,14.81-27.59,19-1.92.76-8.38,3.34-6.93,6.42,1.18,2.51,9.18,1.11,11.29,1.2a72.74,72.74,0,0,1,13.69,2c4,1,8.06,1.1,11.76,3a20.35,20.35,0,0,1,5.7,3.73c1.54,1.6,1.39,2.53,3.63,1.57,3.86-1.66,4-6.75,5.52-10.26,1.69-4,3.1-8.83,5.47-12.49,3.16-4.87,7.1-9.55,9.82-14.69C88.93,103.82,91,97.16,94,90.84c1.51-3.19,3.36-6.34,4.75-9.56A26.75,26.75,0,0,0,99.87,76.72Z"/><path class="cls-3" d="M101.37,76.72c0-2.19-2.06-2.82-3.74-1.93a51.23,51.23,0,0,0-5.4,3.42c-3.56,2.51-6.91,5.29-10.4,7.9C74.26,91.78,67,97.79,59.59,103.73c-3.51,2.83-7.11,5.56-10.63,8.38-3.25,2.6-6.44,5.27-9.78,7.76a71.47,71.47,0,0,1-10.43,6.66c-2.64,1.33-5.53,2.2-8.06,3.76-2.11,1.31-4.67,3.72-3.22,6.44C18.66,139,21.89,139,24.06,139c2.66,0,5.24-.39,7.9-.19,4.8.36,9.36,1.55,14.08,2.41a57.76,57.76,0,0,1,6.35,1.33,23,23,0,0,1,5.91,2.9,11.32,11.32,0,0,1,2.22,1.93,8.08,8.08,0,0,0,1.41,1.51c1.32.89,3,.33,4.23-.39,2.82-1.62,3.8-4.87,4.64-7.8a94.8,94.8,0,0,1,3.88-10.44c1.68-4,4.22-7.4,6.72-10.9a72.11,72.11,0,0,0,7-11.49c2-4.21,3.57-8.58,5.4-12.85s4.12-8.17,6-12.34a25.68,25.68,0,0,0,1.52-5.54c.39-1.88-2.5-2.69-2.89-.8a23.9,23.9,0,0,1-1.51,5.46c-.89,1.89-1.88,3.74-2.84,5.6-1.94,3.78-3.55,7.69-5.14,11.62a93.41,93.41,0,0,1-5.34,11.64c-2,3.55-4.55,6.81-6.91,10.15A47.18,47.18,0,0,0,71.16,131c-1.23,3.14-2.49,6.25-3.43,9.49a14.65,14.65,0,0,1-1.52,3.84,4.66,4.66,0,0,1-1.3,1.39,5.16,5.16,0,0,1-.84.44c-.37.14-.82,0-.47.22-.36-.2-.68-.83-1-1.16a13.28,13.28,0,0,0-2.13-1.9,26.2,26.2,0,0,0-5.25-2.93c-3.8-1.63-8-1.94-12-2.87a73.38,73.38,0,0,0-12.69-1.83c-2.24-.12-4.5.28-6.75.28a8.67,8.67,0,0,1-3.24-.39c-.5-.21-.64-.51-.24-1.11,1.16-1.72,3.72-2.65,5.58-3.4A57.94,57.94,0,0,0,35.7,126c6.42-4.17,12.13-9.28,18.17-13.94,7-5.36,13.68-11,20.54-16.47,3.4-2.7,6.89-5.28,10.33-7.92,3.23-2.47,6.38-5,9.73-7.34.79-.55,1.58-1.07,2.4-1.58L98,78a5,5,0,0,0,.76-.44l.19-.11c.48-.19.28-.44-.58-.77C98.34,78.65,101.34,78.65,101.37,76.72Z"/></g><g id="side-2" data-name="side"><path class="cls-2" d="M92.3,196.26c-.1,1.18.4,4.18,1.54,4.85,2,1.16,3.49-3.05,4.72-4.28,2.69-2.7,6.74-5.3,10.65-5.59a43.54,43.54,0,0,1,15.15,1.67c4.41,1.28,8.87,1.64,13.1,3.72,1.66.82,3.14,1.82,4.85,2.53,1.51.63,5.25,2.27,6.95,1.6,2.52-1,1.05-5.34.85-7.31-.7-7.16-1.83-14.22-2.09-21.46-.16-4.35,0-8.67.2-13s1.63-8.44,2.27-12.77a72.42,72.42,0,0,1,6-19.9,58.82,58.82,0,0,1,3.53-6.78c.79-1.21,2-3.48,1-4.92-2.66-3.73-11.94-1.93-15.11-1.71a74.81,74.81,0,0,1-12-.56c-6-.57-11.93-.86-17.91-1.25a42.8,42.8,0,0,0-9,.5c-.8.11-2.41.16-2.56,1.25s1.83,1.5,2.68,1.79a14.64,14.64,0,0,1,3,1.6c-.35,1.9-1.69,3.92-2.3,5.76a48.32,48.32,0,0,1-2.46,6.59c-2.27,4.54-3.35,9.45-5,14.2-2.25,6.31-3.26,13.33-4.7,19.89-1,4.3-1.2,8.85-1.74,13.21-.68,5.5-.3,11.06-1,16.52C92.58,194.85,92.3,193.76,92.3,196.26Z"/><path class="cls-3" d="M90.8,196.26c-.13,2.3.72,6.47,3.66,6.55s3.76-3.56,5.43-5.19a16.29,16.29,0,0,1,10.71-5,43.44,43.44,0,0,1,13.36,1.7c4.23,1.18,8.76,1.62,12.75,3.57,3.18,1.55,6.2,3.51,9.72,4.26a5,5,0,0,0,4.33-.61,4.47,4.47,0,0,0,1.45-3.42,20.92,20.92,0,0,0-.52-4.24c-.32-1.92-.43-3.89-.66-5.83-.56-4.78-1.17-9.56-1.43-14.37s-.09-9.36.09-14,1.59-8.85,2.28-13.32a71.83,71.83,0,0,1,3.1-12.5A75.74,75.74,0,0,1,160.33,122c1.52-2.73,4.2-6.27,1.24-9.06-2-1.86-5-2.16-7.6-2.18s-5.09.36-7.63.59a70,70,0,0,1-12.7-.55c-4.67-.45-9.35-.72-14-1-2.27-.14-4.55-.35-6.82-.28-2.06.06-4.1.33-6.14.59-1.43.19-3.08.48-3.6,2.06s.66,2.78,2,3.34c.6.25,1.23.39,1.82.62a16.42,16.42,0,0,1,2.46,1.37l-.69-1.69c-.54,2.5-2,4.8-2.78,7.24-.86,2.63-2.07,5.06-3.11,7.62s-1.81,5.17-2.62,7.78-1.82,5.29-2.56,8c-1.47,5.35-2.4,10.84-3.53,16.27-.57,2.78-.89,5.6-1.18,8.42S92.18,177,92,180c-.17,3.33-.15,6.66-.4,10-.16,2.12-.81,4.16-.83,6.29a1.5,1.5,0,0,0,3,0c0-1.61.52-3.15.7-4.84.31-3,.34-6,.43-9a125.32,125.32,0,0,1,1.72-17.29,185.4,185.4,0,0,1,8.36-32c1-2.82,2.46-5.44,3.42-8.28a39,39,0,0,1,1.55-4.24,18.58,18.58,0,0,0,1.57-4,1.55,1.55,0,0,0-.69-1.7,17.78,17.78,0,0,0-4-2,3.25,3.25,0,0,0-.81-.28s-.2-.13-.23-.12,0,.76,0,.74a9.57,9.57,0,0,0,1.85-.32,61.27,61.27,0,0,1,12-.18c4.27.26,8.55.51,12.82.89a102.47,102.47,0,0,0,12.13.76c2.35-.07,4.67-.47,7-.62s5-.32,7.13.74a1.74,1.74,0,0,1,1,2.51,41.33,41.33,0,0,1-2.47,4.39,87.86,87.86,0,0,0-4.73,10.75,72.81,72.81,0,0,0-3,11.23c-.37,2-.65,4-1.08,6s-.92,3.89-1.24,5.87a83.31,83.31,0,0,0-.65,12.34,116,116,0,0,0,.7,12.91c.45,4.3,1,8.6,1.45,12.89.14,1.16,1.47,5.19.12,5.9-.88.47-2.74-.37-3.57-.66a28.13,28.13,0,0,1-3.94-1.72,43.87,43.87,0,0,0-5.28-2.61,39.71,39.71,0,0,0-5.67-1.58c-4-.88-7.84-2.1-11.85-2.67-3.77-.54-8-1-11.76.06a20.72,20.72,0,0,0-9,5.46,18.35,18.35,0,0,0-2,2.89c-.24.36-.63,1.06-1,1.26-.18.09,0,0,.11.05a.83.83,0,0,1-.25-.35,7.56,7.56,0,0,1-.6-3.22C93.92,194.33,90.92,194.33,90.8,196.26Z"/></g><g id="side-3" data-name="side"><path class="cls-1" d="M162.84,113.61a1.17,1.17,0,0,0-.88,1.47c.89,3.29-2.31,5.44-2.52,9-.33,5.5.13,11-.37,16.53-.47,5.15-1.8,10.22-2.3,15.39-.49,5-1.9,9.76-2.44,14.7-.28,2.54-1.13,6.22-.47,8.81.34,1.36.52,1.33,1.77,1.31,1.42,0,2.16-1.18,3.3-1.81a13.4,13.4,0,0,1,4.29-1.2c6.93-1.08,14-2.25,20.83-3.68,8.55-1.77,16.64-6,25.27-7.29,2.91-.44,6.59-.84,9.33-1.9a2.9,2.9,0,0,0,1.94-2.51A2.08,2.08,0,0,0,219.4,160c-1.76-1-2.16-.31-3.42-2.29-3.25-5.12-3.87-10.54-4.59-16.35-.48-3.89-1.26-7.64-1.25-11.57,0-5.3-.15-10.54-.38-15.84-.21-4.73.61-9.19,1.49-13.85.58-3.1.95-8.36,3.24-10.87,1.19-1.3,4.41-1.18,2.33-3.72s-5.63,3.21-7.38,4.28c-3.85,2.34-7.79,4.37-11.61,6.83s-7.78,4.52-11.49,7.2c-3.45,2.48-7.08,4.64-10.39,7.38a25.78,25.78,0,0,1-4.77,3.19c-3.55,1.83-3.6.63-6.34-.66A3.41,3.41,0,0,0,162.84,113.61Z"/><path class="cls-3" d="M162.44,112.17a2.69,2.69,0,0,0-2,2.18c-.15,1,.28,1.86,0,2.85-.55,1.9-1.88,3.47-2.33,5.42-.58,2.56-.34,5.42-.33,8,0,2.84.05,5.68-.13,8.52-.37,5.82-1.81,11.52-2.46,17.32-.32,2.81-.93,5.59-1.47,8.37-.48,2.53-.79,5.08-1.16,7.63-.43,3-1.81,10.11,3,9.84a4.82,4.82,0,0,0,2.65-1,8.5,8.5,0,0,1,3.15-1.65c2.57-.64,5.26-.9,7.88-1.33,5.64-.93,11.35-1.81,16.9-3.17,5.17-1.27,10.1-3.28,15.17-4.87a57.93,57.93,0,0,1,7.89-2c2.5-.4,5-.65,7.47-1.26,2.08-.51,4.3-1.2,5.09-3.42a3.92,3.92,0,0,0-1.67-4.94c-.65-.37-1.46-.48-2.08-.85a6.18,6.18,0,0,1-1.71-2.45,26.93,26.93,0,0,1-2.46-7.24c-.52-2.48-.78-5-1.11-7.51-.37-2.76-.86-5.51-1.06-8.3s-.1-5.68-.15-8.51-.16-5.94-.29-8.91a47.74,47.74,0,0,1,.36-8.45c.36-2.55.9-5.06,1.3-7.6A38.48,38.48,0,0,1,214.17,93a8.18,8.18,0,0,1,1.19-2.47,4.36,4.36,0,0,1,1.62-1c1.43-.71,2.41-1.91,1.82-3.56a3.56,3.56,0,0,0-3.74-2.5c-3.09.5-4.75,4.1-7.21,5.57s-5,2.86-7.48,4.32-4.72,2.93-7.1,4.35c-4.7,2.8-9.19,5.87-13.69,9-2.23,1.54-4.27,3.35-6.51,4.88a21.44,21.44,0,0,1-3.07,1.8,2.76,2.76,0,0,1-2.11.4,19,19,0,0,1-2-1.11,5.45,5.45,0,0,0-3.49-.45c-1.9.27-1.09,3.16.8,2.89,1.59-.23,2.92,1.45,4.48,1.72,1.95.34,4-.86,5.57-1.82,2.12-1.28,4-2.95,6-4.41s4.12-2.83,6.18-4.24c4.3-3,8.76-5.58,13.17-8.38,2.16-1.38,4.39-2.66,6.62-3.93a33.15,33.15,0,0,0,5.85-3.57c1.07-1,1.94-2.09,3-3.06a3.43,3.43,0,0,1,1.31-.93c.09,0,.23,0,.21,0s.32.58.41.57.47-.42,0-.35a3.6,3.6,0,0,0-.78.4,6.38,6.38,0,0,0-1.75,1.1,10.66,10.66,0,0,0-2.43,4.76A52.73,52.73,0,0,0,210,98.58c-.38,2.37-.88,4.71-1.21,7.09-.76,5.34-.38,10.61-.24,16s.05,10.65.82,16c.68,4.73,1,9.61,2.36,14.22a25.8,25.8,0,0,0,2.84,6.45,6.54,6.54,0,0,0,1.75,2,9.8,9.8,0,0,0,1.83.76c.72.3,1.11.49.94,1.32-.21,1.05-1.24,1.27-2.14,1.54a48.21,48.21,0,0,1-6.84,1.29,78.8,78.8,0,0,0-14.49,3.86,108,108,0,0,1-14.54,4.13c-5.27,1-10.57,1.94-15.88,2.78-2.23.36-4.61.53-6.66,1.54-.85.42-1.49,1.18-2.33,1.59-.38.19-.75.07-1.11.2-.7.26.61.16.39.38,0,0-.2-.66-.18-.58-.5-2.07,0-4.35.27-6.41.35-2.45.66-4.88,1.12-7.3,1-5.24,1.6-10.51,2.52-15.75a91.63,91.63,0,0,0,1.61-16.1c0-2.67,0-5.35.05-8a9.35,9.35,0,0,1,.47-3.11c.32-.86.81-1.66,1.21-2.48a10.44,10.44,0,0,0,.92-2.4c.08-.4.35-2.69-.23-2.49C165.05,114.43,164.27,111.53,162.44,112.17Z"/></g><g id="side-4" data-name="side"><path class="cls-2" d="M153.31,49.87a.37.37,0,0,0-.34.61c1.91,2.13,3.71,4.49,5.57,6.61,1.51,1.72,3.14,3.33,4.64,5a58.92,58.92,0,0,1,4.14,6.22,58.52,58.52,0,0,0,5.4,7.15c1.93,2.09,4.14,4,5.69,6.42.67,1.06,1,2.29,1.7,3.31,1.55-1.26,3.69-1.64,5.07.2,2.6,3.5,2,9.46,1.85,13.53a23.4,23.4,0,0,0,7.12-4.6c1.95-1.7,4.37-2.83,6.41-4.43,4-3.14,7.77-5.33,13-4.6-2.87-1.35-5.13-4.28-7.75-6.09-1.31-.9-2.73-1.6-4.08-2.43a36.85,36.85,0,0,1-4.14-3.56A38.2,38.2,0,0,0,194,70.85c-1.2-.8-2.2-1.95-3.41-2.72C187.55,66.18,184,65,180.85,63a46.18,46.18,0,0,0-5.28-3.25c-1.86-.85-3.9-1.3-5.76-2.17-2.21-1-4-2.89-6.23-3.84-2.45-1-4.85-2.49-7.41-3.16C155.36,50.39,154.28,50.06,153.31,49.87Z"/><path class="cls-3" d="M153.31,48.37a2,2,0,0,0-1.84,1.28,2.22,2.22,0,0,0,.74,2.23c1.39,1.62,2.73,3.27,4.1,4.9,2.73,3.26,5.86,6.08,8.09,9.72a63.73,63.73,0,0,0,7.26,10.07C173,78,174.5,79.4,175.8,80.93s1.92,3.37,3,5.07a1.53,1.53,0,0,0,2.06.54c1-.8,2.27-1.33,3.2-.08a9,9,0,0,1,1.4,4,45.32,45.32,0,0,1,.06,8.56,1.5,1.5,0,0,0,1.89,1.44,22.87,22.87,0,0,0,6.69-4c2.08-1.71,4.33-3.05,6.52-4.62a38.44,38.44,0,0,1,5.88-3.9,12.49,12.49,0,0,1,7-1c1.48.18,2-2.17.76-2.8a23.75,23.75,0,0,1-5.16-4,30.29,30.29,0,0,0-5.37-3.76c-2.1-1.2-3.61-2.87-5.48-4.37s-3.66-2.45-5.37-3.89c-3.59-3-8.33-4.3-12.23-6.9a28.93,28.93,0,0,0-6.35-3.45,24.86,24.86,0,0,1-6.2-2.84,40.41,40.41,0,0,0-14.43-6.42c-1.88-.4-2.69,2.49-.8,2.89a30,30,0,0,1,6.66,2.23,40.65,40.65,0,0,1,6.06,3.18,23.13,23.13,0,0,0,5.83,3.14A28.35,28.35,0,0,1,178.07,63a48.25,48.25,0,0,0,6.12,3.52,34.71,34.71,0,0,1,6.14,3.27c.8.6,1.5,1.31,2.29,1.91.95.72,2,1.3,3,2,1.87,1.27,3.28,3.1,5.17,4.35A48.19,48.19,0,0,1,207,82.17a27,27,0,0,0,5.76,4.46l.76-2.79c-5.11-.64-9.46,1.52-13.41,4.55-2.11,1.62-4.48,2.85-6.54,4.51s-4.28,3.65-7,4.62l1.9,1.45c.14-3.77.54-7.75-.65-11.4-.56-1.73-1.49-3.59-3.18-4.44a5.11,5.11,0,0,0-5.35.82l2.05.53c-1-1.54-1.56-3.23-2.7-4.7A42.49,42.49,0,0,0,175.27,76a55.19,55.19,0,0,1-7-8.94c-1-1.54-1.86-3.16-2.95-4.64a48.91,48.91,0,0,0-3.69-4.19c-1.3-1.38-2.55-2.79-3.76-4.26l-1.74-2.11a12.57,12.57,0,0,1-1.94-2.34l.15,1.15-.18.3-1.06.44.23,0C155.2,51.13,155.23,48.13,153.31,48.37Z"/></g><g id="side-5" data-name="side"><path class="cls-1" d="M152.29,47.79a1.49,1.49,0,0,0,.38-2.51l0,0c-1.22-1-3.54-1.24-4.95-1.86-2-.87-4.09-.53-6.28-.53s-4.83.3-7.08-.16c-2.08-.42-3.5-1-5.65-1-2.76,0-2.37,1.65-2.43,4-.08,2.82-1.87,5-2.92,7.52-1.83,4.49-3.16,9.22-5,13.73-2.41,6-5.24,11.86-6.9,18.08-1.23,4.64-.51,9.68-.52,14.4a87.39,87.39,0,0,0,0,9.3c2.9-1.89,4.14-5.71,7.1-7.52a12,12,0,0,1,6.42-1.39c1.79,0,3.61-.43,5.38-.37,2,.07,4,.8,6,.94,1.79.13,3.66-.13,5.42.28a15.55,15.55,0,0,1,4.89,2.52c2.61,1.68,5.75,2.67,8.44,4.26a10,10,0,0,0,3.82,1.73c.48-1.15-1.19-3.7-1.42-4.91a23.31,23.31,0,0,0-2.1-6.31c-4-7.6-3-15.41-3.51-23.49a117.71,117.71,0,0,1-.13-11.88c.15-4.24-.82-9.87.48-14.15A1,1,0,0,1,152.29,47.79Z"/><path class="cls-3" d="M153.05,49.08a3.07,3.07,0,0,0,1.56-3.38A3.94,3.94,0,0,0,152,43.19a22.67,22.67,0,0,0-9.24-1.85c-1.84,0-3.69.14-5.54.13a25.27,25.27,0,0,1-5.24-.87c-2.37-.52-6.15-1-7,2a29.08,29.08,0,0,0-.24,3.62,14.39,14.39,0,0,1-1.82,4.41,79.06,79.06,0,0,0-4.1,10.77c-2.53,7.3-6.12,14.2-8.33,21.62a37.68,37.68,0,0,0-1.12,12.52c.17,4.37-.29,8.78.14,13.12.1,1,1.23,2,2.26,1.3a16.66,16.66,0,0,0,3.85-4c1.11-1.5,2.24-3.08,4-3.87,2.13-1,4.46-.68,6.72-.9a26.82,26.82,0,0,1,3.58-.26,23.1,23.1,0,0,1,3.49.58,20.13,20.13,0,0,0,3.37.4,25.1,25.1,0,0,1,3.68.1c2.18.36,3.84,1.82,5.7,2.9s4.15,2,6.2,3c1.88.94,3.58,2.33,5.69,2.7a1.54,1.54,0,0,0,1.84-1c.44-1.43-.28-2.89-.84-4.18-.69-1.6-.91-3.32-1.47-5-.67-2-1.77-3.8-2.49-5.78a29.13,29.13,0,0,1-1.48-6.11c-.56-4.15-.42-8.36-.61-12.53-.21-4.61-.28-9.17-.2-13.79.05-2.23-.14-4.46-.2-6.69,0-1.12,0-2.24,0-3.36a14.83,14.83,0,0,1,.17-1.62c0-.24.12-1.35.28-1.44a1.5,1.5,0,0,0-1.52-2.59c-1.64,1-1.73,3.33-1.88,5a45.53,45.53,0,0,0,0,6.29c.2,4.55-.08,9.1.08,13.65s.26,8.94.51,13.4A35,35,0,0,0,153,97.44c.53,1.19,1.16,2.31,1.59,3.55s.64,2.43,1,3.65a14.5,14.5,0,0,0,.82,2.1c.23.53.77,1.46.6,2l1.84-1c-1.71-.29-3.07-1.41-4.58-2.19-1.66-.87-3.4-1.56-5.08-2.4-3.29-1.63-5.84-4-9.67-4.2a37,37,0,0,1-5.76-.4,19.45,19.45,0,0,0-5.84-.5c-3.56.34-7.55-.05-10.69,2-3,1.9-4.12,5.48-7,7.43l2.26,1.29c-.33-3.39,0-6.79,0-10.19a94.74,94.74,0,0,1-.08-10,37.84,37.84,0,0,1,2.7-9.7c1.2-3.17,2.57-6.27,3.87-9.4,2.57-6.16,4.24-12.67,7.27-18.63a14.09,14.09,0,0,0,1.37-3.57,25.36,25.36,0,0,0,.23-3.59c0-.31.17-.37.07-.32a3.49,3.49,0,0,1,1.7-.08,44.84,44.84,0,0,1,4.58,1c3.53.63,7.13-.05,10.68.12a19.93,19.93,0,0,1,4.34,1.12,12.54,12.54,0,0,1,1.94.63c.34.16.79.22.43.42A1.5,1.5,0,0,0,153.05,49.08Z"/></g></g><g id="flag"><path class="cls-2" d="M136.82,31.18c3.07.3,6.21-.92,9.36-.67A29.65,29.65,0,0,1,157.43,34c2.46,1.4,4.26,3.75,6.81,5,2.22,1,4.39,2,6.56,3.2a25.15,25.15,0,0,0,13.56,2.64c2-.11,9.65-1.11,8.24-4.56-3.26-.09-6.64-.08-9.51-1.8-1.76-1.06-5.94-4.35-6.23-6.42a27.86,27.86,0,0,0,9.77.44c2.59-.41,8.44-4.44,9.22-7a40.84,40.84,0,0,1-14.26-2.76A54.85,54.85,0,0,1,175,19.18a17.16,17.16,0,0,1-5.08-4.11c-2.32-2.81-7.71-5.57-11.29-6.33-3.26-.68-7.14-2-10.5-2a36.27,36.27,0,0,0-4.94.88c-1.71.24-4,1.45-5.73,1.3C137.12,13.83,137.18,26.27,136.82,31.18Z"/><path class="cls-3" d="M136.82,32.68c2.63.2,5.17-.56,7.78-.68a20.33,20.33,0,0,1,7,1.12A21.22,21.22,0,0,1,158,36.17c1.82,1.36,3.39,3,5.46,4,2.32,1.15,4.65,2.24,7,3.41A23.93,23.93,0,0,0,177.62,46a28.9,28.9,0,0,0,10.73-.25c2.69-.6,7-2.31,5.7-5.89a1.58,1.58,0,0,0-1.45-1.1c-3.34-.09-6.66-.13-9.51-2.09a22.71,22.71,0,0,1-2.84-2.33,5.76,5.76,0,0,1-1.94-2.7l-1.84,1.84c4.05.93,9,1.45,12.9-.39,3-1.42,6.8-4,7.93-7.23a1.52,1.52,0,0,0-1.45-1.9,40.67,40.67,0,0,1-13.42-2.53,47.4,47.4,0,0,1-6.29-3.26,19.31,19.31,0,0,1-4.64-3.48,24.51,24.51,0,0,0-8.94-6.19,34.3,34.3,0,0,0-5.16-1.52c-2.12-.52-4.23-1.12-6.4-1.44a14.83,14.83,0,0,0-3.58-.21,33.39,33.39,0,0,0-3.74.73,28.22,28.22,0,0,0-3,.72,9.25,9.25,0,0,1-3.22.69,1.53,1.53,0,0,0-1.5,1.5c-.46,7.41-.09,14.85-.62,22.26-.14,1.92,2.86,1.92,3,0,.53-7.41.16-14.85.62-22.26l-1.5,1.5c1.92.08,3.64-.79,5.46-1.23a21.37,21.37,0,0,1,6.44-.9,39.23,39.23,0,0,1,6.43,1.32,43.87,43.87,0,0,1,5.31,1.46,25.42,25.42,0,0,1,5,2.64,28,28,0,0,1,3.84,3.61,23.41,23.41,0,0,0,4.7,3.39,53.62,53.62,0,0,0,6.15,3.21,43.22,43.22,0,0,0,15.08,3L194.41,25a8,8,0,0,1-2.65,3,19.4,19.4,0,0,1-3.91,2.47,10.29,10.29,0,0,1-4.3.73,26.66,26.66,0,0,1-6.29-.64,1.52,1.52,0,0,0-1.84,1.84c.54,2.83,3.74,5.13,5.94,6.68,3.35,2.36,7.28,2.54,11.24,2.65l-1.45-1.1a1,1,0,0,1,.12.55c0-.21-.06.05-.05,0A3,3,0,0,1,190,42a14,14,0,0,1-3.65,1,25.08,25.08,0,0,1-10.49-.51,35.58,35.58,0,0,1-6.55-2.85,41.78,41.78,0,0,1-6-3.07c-1.74-1.25-3.22-2.84-5.1-3.92a28.59,28.59,0,0,0-6-2.53A23.3,23.3,0,0,0,144.83,29c-2.69.08-5.31.9-8,.69C134.89,29.53,134.9,32.53,136.82,32.68Z"/><path class="cls-1" d="M167.68,18.26c-.23,0-.4.08-.59-.09s-.06-.7,0-1c.05-.69-.34-1.22-1.11-1.12s-.85.69-1.24,1.22a10.93,10.93,0,0,1-1.33,1.22c-.21.19-.27.52-.51.71l-.08,0c-.08-.11-.16-.23-.25-.34a7.17,7.17,0,0,0-2.6-2.39,13.3,13.3,0,0,0-2.07-.78,14.33,14.33,0,0,0-1.72,0,2.76,2.76,0,0,0-1.25.5c-.28.16-.55.32-.81.5a2.2,2.2,0,0,1-.64-.5,3.85,3.85,0,0,1-.56-.49,1.1,1.1,0,0,1-.1-.62c.05-.42.36-.61.52-.95a2.27,2.27,0,0,0-.1-1.58,1.66,1.66,0,0,0-1.19-.87c-.59-.12-.81.48-.8,1,0,.25.09.44-.08.65s-.78.09-1.15.06a1,1,0,0,0-1.23,1.26c.13.84.78.93,1.38,1.35a11.28,11.28,0,0,1,1.39,1.46c.22.23.59.29.8.55l0,0a2.69,2.69,0,0,0-.77,1.18,6.53,6.53,0,0,0,.21,4,.59.59,0,0,1,0,.08,2,2,0,0,1-.42.52c-.13.12-.27.36-.42.45a.82.82,0,0,1-.51.08c-.35-.05-.5-.31-.78-.45a1.9,1.9,0,0,0-1.31.06,1.38,1.38,0,0,0-.75,1c-.11.49.39.68.81.69.2,0,.37-.08.54.07s.05.65,0,1c-.05.63.31,1.13,1,1s.79-.63,1.15-1.12a9.36,9.36,0,0,1,1.23-1.13c.19-.18.25-.48.47-.66l.34-.24a4.79,4.79,0,0,1,1.21.32c.38.24.37.81.46,1.23a18.19,18.19,0,0,0,.43,2.2c.15.47,0,.89.58,1.09a4.57,4.57,0,0,0,1.33.15c.53,0,1,.09,1.57.11a10.4,10.4,0,0,0,1.85,0c.64-.09.52-.74.49-1.29a3.78,3.78,0,0,1,0-1.34,2.22,2.22,0,0,1,.5.4,4.88,4.88,0,0,1,.53.48,1,1,0,0,1,.1.59c-.05.4-.35.58-.5.9a2.21,2.21,0,0,0,.09,1.52,1.58,1.58,0,0,0,1.14.83c.56.12.77-.46.77-.94,0-.23-.09-.42.08-.62s.74-.08,1.09-.06a1,1,0,0,0,1.18-1.2c-.13-.81-.75-.89-1.32-1.3a10.3,10.3,0,0,1-1.33-1.39,1.89,1.89,0,0,0-.47-.3l.17-.09a2.46,2.46,0,0,0,1.15-2.36,7.47,7.47,0,0,0-.54-2.48l0,0a3.42,3.42,0,0,1,.63-.84c.14-.13.29-.39.45-.49a1,1,0,0,1,.56-.08c.38.05.54.33.84.48a2,2,0,0,0,1.42-.06,1.44,1.44,0,0,0,.8-1.05C168.66,18.47,168.13,18.26,167.68,18.26Zm-11.14,4.09a1,1,0,0,1-.94.19,2.87,2.87,0,0,1-1.31-.53,1.4,1.4,0,0,1-.49-.69A3.39,3.39,0,0,1,154,20c.07-.31.19-.69.52-.8a2,2,0,0,1,1,0,1.36,1.36,0,0,1,1.05,1.45l.15.17c0,.34.2.6.25.93S156.77,22.17,156.54,22.35Zm1.19,2.53a.4.4,0,0,1-.38-.34c-.06-.28.06-.37.23-.54l.21.09c.16.13.3.25.28.47A.31.31,0,0,1,157.73,24.88ZM162,23.71c-.1.18,0,.53-.06.74s-.29.13-.47.13c-.61,0-1.13.16-1.52-.49a2.27,2.27,0,0,1-.31-.94,1.18,1.18,0,0,1,.59-1c.33-.24.45-.46.87-.25a2.6,2.6,0,0,1,.64.44,7.5,7.5,0,0,1,.58.81Z"/><path class="cls-3" d="M167.68,17.51l-.39-.06.45.35c-.12-.21.08-.75,0-1a1.65,1.65,0,0,0-2-1.49,2.24,2.24,0,0,0-1.47,1.22,4.52,4.52,0,0,1-1,1,4.51,4.51,0,0,0-.51.46c-.12.13-.26.5-.37.58l1,.27a9.27,9.27,0,0,0-4.68-3.66,5.59,5.59,0,0,0-5,.89h.76c-.16-.1-.89-.56-.94-.76s.5-.89.57-1.18a2.81,2.81,0,0,0-.49-2.3,2.21,2.21,0,0,0-2-.85c-.79.17-1,.9-1.12,1.6-.06.44.12.15-.05.13s-.37-.06-.56-.06a2.09,2.09,0,0,0-1,.27,1.77,1.77,0,0,0-.8,1.84c.12.87.7,1.26,1.4,1.69a6,6,0,0,1,1.24,1.18,3.18,3.18,0,0,0,.48.49c.14.11.48.21.56.32l.12-.91a5.65,5.65,0,0,0-.64,6.13v-.76a1.54,1.54,0,0,1-.36.44c-.28.21,0,.22-.4.13s-.52-.34-.85-.4a2.39,2.39,0,0,0-2.12.64,1.76,1.76,0,0,0-.46,1.8c.36.84,1.1.63,1.8.89l-.45-.35c.1.18-.08.71,0,.94a1.66,1.66,0,0,0,.3.8,1.63,1.63,0,0,0,1.78.56c.7-.18.94-.67,1.33-1.22a5.74,5.74,0,0,1,1-1c.33-.3.55-.76.91-1l-.58.08c1.15.24,1.09.72,1.27,1.76.11.64.23,1.28.4,1.91.37,1.32,1.56,1.29,2.73,1.35s2.94.57,3.91-.09.33-2,.54-2.95l-1.1.45c.13.08.72.47.76.62s-.43.75-.51,1a2.75,2.75,0,0,0,.36,2.23c1,1.41,3,1.19,3.14-.62.05-.51-.11-.07.43-.05a2.12,2.12,0,0,0,1.11-.24,1.74,1.74,0,0,0,.8-1.81,2.17,2.17,0,0,0-1.24-1.58c-.87-.54-1.33-1.48-2.23-2v1.3c2.14-1.21,1.88-3.78,1.12-5.78l-1.25.73,0,0a.77.77,0,0,0,1.18-.15c.14-.22.55-1,.8-1s.78.46,1,.52a2.6,2.6,0,0,0,2.1-.4c1.39-1.06,1-2.84-.75-3-1-.09-1,1.41,0,1.5.15,0-.52.44-.64.45-.34,0-.46-.12-.73-.27a1.82,1.82,0,0,0-1.22-.3c-.88.13-1.46,1.08-1.9,1.77l1.18-.15,0,0c-.52-.43-1.55,0-1.26.73.5,1.3,1.07,3.24-.43,4.08a.76.76,0,0,0,0,1.3c.63.33,1,1,1.52,1.47.21.18,1.65.85,1.12,1.3-.26.21-1.08-.14-1.44,0a1.27,1.27,0,0,0-.81.95c0,.2.1.47-.09.56-.39.2-.54-.72-.5-1,.1-.52.55-.83.6-1.39.08-1-.76-1.64-1.5-2.12a.76.76,0,0,0-1.11.45,5.3,5.3,0,0,0,0,1.54c.05.75-.33.58-1,.54s-1.46-.11-2.18-.15a1.55,1.55,0,0,1-.88-.14c-.28-.19-.27-.39-.36-.73-.26-1-.15-2.57-.84-3.4a2.14,2.14,0,0,0-2.65-.38c-.43.35-.71.84-1.13,1.21s-.67.84-1,1.17-.38.51-.53,0c0-.15.06-.4,0-.58a1.1,1.1,0,0,0-.66-.92s-.76-.18-.74-.1c-.05-.2.71-.32.74-.31.47.05.79.49,1.29.54.92.08,1.56-.72,2-1.42a.76.76,0,0,0,0-.76,4.22,4.22,0,0,1,.4-4.31.77.77,0,0,0,.12-.91c-.38-.51-1-.76-1.39-1.24a6.59,6.59,0,0,0-1.55-1.34c-.29-.18-.94-.61-.36-.93.18-.11.57.05.77.06a1.29,1.29,0,0,0,1.35-.61c.22-.38-.05-1.57.55-.92s0,1.29-.23,1.93c-.47,1.25.59,2.15,1.56,2.74a.76.76,0,0,0,.76,0,4.19,4.19,0,0,1,3.89-.74,7.61,7.61,0,0,1,3.79,3,.75.75,0,0,0,1,.27,15.94,15.94,0,0,0,1.19-1.27,6.91,6.91,0,0,0,.88-.83c.16-.2.27-.57.46-.72.94-.75.41.71.58,1.2a1.27,1.27,0,0,0,1.4.76C168.63,19,168.64,17.45,167.68,17.51Z"/><path class="cls-3" d="M156.16,21.7l-.16.11c-.1.07,0,0,.06,0l-.08,0-.07,0c.13-.07.15,0,.07,0a1.77,1.77,0,0,0-.23,0s.19,0,0,0l-.09,0-.18,0a3.38,3.38,0,0,1-.42-.13c-.09,0,.13.06,0,0l-.09,0-.18-.1-.1-.07s.14.13,0,0a1.21,1.21,0,0,1-.16-.16.46.46,0,0,1-.07-.07s-.07-.12,0,0-.1-.21,0,0,0,0,0,0,0,.15,0,.05,0-.2,0-.25,0,.13,0,0a.5.5,0,0,1,0-.12,1.74,1.74,0,0,1,.05-.22c0-.16.08-.31.11-.47s0-.11.05-.16l0-.09c0-.08,0,0,0,.06a.71.71,0,0,0,.08-.15s-.11.15,0,.06-.11.07,0,0-.15.05-.05,0l.11,0c.1,0-.13,0,0,0H155s.16,0,.05,0,0,0,0,0l.14,0,.18.05c.12,0,0,0-.06,0l.08,0,.07,0c.13.07-.1-.1,0,0a.8.8,0,0,1,.13.13c.09.08,0,0,0-.06a.61.61,0,0,0,.07.1s.11.21.05.09,0,0,0,0l0,.1s0,.06,0,.09,0,.12,0,0a1,1,0,0,0,.23.75l.15.17-.22-.53a3.06,3.06,0,0,0,.24,1s0,.09,0,.1,0-.16,0-.05,0-.06,0-.08.08-.17,0-.09.11-.15.05-.07.11-.08,0,0a.91.91,0,0,0-.16.11.84.84,0,0,0-.34.45.78.78,0,0,0,.07.58.77.77,0,0,0,1,.27,2.08,2.08,0,0,0,.61-.57,1.31,1.31,0,0,0,.06-1.06l-.13-.33c0-.05,0-.1,0-.15s0-.06,0,.05v-.1a1.17,1.17,0,0,0-.37-.7l.22.53a2.25,2.25,0,0,0-1-1.91,2.56,2.56,0,0,0-1.17-.34,1.71,1.71,0,0,0-1.34.38,2,2,0,0,0-.52,1A6.88,6.88,0,0,0,153,21a2.1,2.1,0,0,0,1.32,1.93,2.55,2.55,0,0,0,2.56.07.81.81,0,0,0,.34-.45.78.78,0,0,0-.07-.58A.76.76,0,0,0,156.16,21.7Z"/><path class="cls-3" d="M157.73,24.13h0l.2,0a.2.2,0,0,1-.11,0l.18.08-.07,0,.15.11-.07-.06.12.15-.06-.1.08.18a.47.47,0,0,1,0-.16l0,.2a.57.57,0,0,1,0-.13l0,.2,0-.09-.08.18.05-.08-.12.15.17-.18-.73.2.22.08-.34-.19a1.09,1.09,0,0,1,.19.18l-.11-.15.06.1-.08-.18,0,.1,0-.2v.12l0-.2,0,.11.07-.18a.25.25,0,0,1,0,.07l.12-.15s0,0-.05.05l.15-.12-.07,0,.18-.08-.08,0,.2,0h-.07a.68.68,0,0,0-.29.06.6.6,0,0,0-.25.16.61.61,0,0,0-.15.24.49.49,0,0,0-.06.29.74.74,0,0,0,.21.53l.16.12a.7.7,0,0,0,.38.1h.07a1.28,1.28,0,0,0,.27-.05,1,1,0,0,0,.43-.25,1.13,1.13,0,0,0,.26-.43,1.07,1.07,0,0,0,.06-.35.86.86,0,0,0,0-.28.29.29,0,0,0,0-.09,1.28,1.28,0,0,0-.11-.24,1.12,1.12,0,0,0-.16-.22l-.13-.12,0,0-.09-.07-.08-.06-.18-.07h0l-.19-.08a.68.68,0,0,0-.4,0,.92.92,0,0,0-.33.19,2.92,2.92,0,0,0-.32.38,1.23,1.23,0,0,0-.14.57,2.66,2.66,0,0,0,0,.28,1.2,1.2,0,0,0,.13.33l0,.07a1.56,1.56,0,0,0,.16.2.7.7,0,0,0,.26.19,1.19,1.19,0,0,0,.53.14.67.67,0,0,0,.28-.06.6.6,0,0,0,.25-.16.61.61,0,0,0,.15-.24.59.59,0,0,0,.07-.29.79.79,0,0,0-.22-.53l-.16-.12A.69.69,0,0,0,157.73,24.13Z"/><path class="cls-3" d="M161.35,23.33a1.88,1.88,0,0,0-.13.94c0,.09.05-.21,0-.08s-.05.06,0-.09a.51.51,0,0,1,.33-.24c.2-.06.17,0,.09,0h-.33c-.21,0-.42,0-.62,0s.2,0,0,0l-.11,0c.18,0,.14.07.08,0l-.06,0c-.07,0,0-.08.06.05a.27.27,0,0,0-.08-.07l-.05-.06c.13.12.08.1.05.05s-.07-.11-.11-.17-.09-.25,0,0c0-.08,0-.15-.07-.23a1.17,1.17,0,0,1-.05-.2c0-.09,0-.09,0,.05,0,0,0-.07,0-.09V23c0-.15,0,.15,0,.06a.24.24,0,0,0,0-.08c.05-.15,0,.11,0,0l.09-.14c-.09.15-.09.1-.05.06a.46.46,0,0,0,.07-.07l.13-.12.06-.05c-.17.15-.07.05,0,0l.25-.2.07-.06c.08-.06-.16.11-.05,0l.05,0c.08-.07-.08,0-.09,0h0c.06,0,0,0,0,0s-.09,0,0,0h-.13s.08,0,.1,0l-.07,0,.06,0a2.25,2.25,0,0,1,.21.12s.09.05.1.07l-.08-.05.08.06a1.29,1.29,0,0,1,.17.16s0,.06.06.06l-.05-.06,0,.05.11.18a4.67,4.67,0,0,0,.36.51l-.12-.91-.32.6a.75.75,0,0,0,1.3.75l.32-.59a.79.79,0,0,0-.12-.91c.15.19,0,0-.06-.1l-.11-.18a2.43,2.43,0,0,0-.4-.51,2.88,2.88,0,0,0-1.13-.72,1.18,1.18,0,0,0-.67,0,1.59,1.59,0,0,0-.61.37l-.06.05c-.12.1.13-.1,0,0a2.88,2.88,0,0,0-.27.22,2.25,2.25,0,0,0-.41.46,1.76,1.76,0,0,0-.21,1.31,2.77,2.77,0,0,0,.42,1.06,1.77,1.77,0,0,0,1,.74,2.54,2.54,0,0,0,.87.06c.45,0,.9.06,1.25-.3a1.12,1.12,0,0,0,.29-.82,1.77,1.77,0,0,0,0-.23v-.1c0-.08,0-.05,0,.1,0-.08,0,0,0,.09a.75.75,0,0,0,.07-.57.71.71,0,0,0-.34-.45A.76.76,0,0,0,161.35,23.33Z"/></g></g></g></g></g></svg>