<svg xmlns="http://www.w3.org/2000/svg" viewBox="0 0 142.32 141.69"><defs><style>.cls-1{fill:#043c7a;stroke:#fff;stroke-miterlimit:10;}.cls-2{fill:#fff;}.cls-3{fill:#09edf6;}</style></defs><g id="Layer_2" data-name="Layer 2"><g id="captian"><circle class="cls-1" cx="71.15" cy="70.88" r="63.5"/><path class="cls-2" d="M45.23,4.28A111.89,111.89,0,0,0,29.36,13,66.21,66.21,0,0,0,21,19.6,49.3,49.3,0,0,0,14.27,28,105.5,105.5,0,0,0,3.42,48.3a44.44,44.44,0,0,0-2.79,10A75.59,75.59,0,0,0,0,70.92c.2,7.29.22,14.62,2.11,21.73,1.85,7,5.73,13.4,9.68,19.37a65.17,65.17,0,0,0,15.22,16.62c6,4.52,13.26,6.17,20.3,8.42,3.32,1.07,6.54,2.43,9.91,3.34a46.66,46.66,0,0,0,12,1.24,89.68,89.68,0,0,0,11.24-.27,40.89,40.89,0,0,0,6.4-1.15,52.22,52.22,0,0,0,7-2.79,110.85,110.85,0,0,0,19-10.8,64.67,64.67,0,0,0,14.57-14.17,78.13,78.13,0,0,0,8.76-16.22,85.92,85.92,0,0,0,4-10.77,60.51,60.51,0,0,0,1.89-10.86A63.19,63.19,0,0,0,132.59,36a56.45,56.45,0,0,0-6.32-8.28c-2.3-2.47-4.92-4.65-7.42-6.91-5.58-5.05-11.38-10-18.12-13.38a68.6,68.6,0,0,0-23-7C70.33-.47,62.57.2,55.25,1.32A50,50,0,0,0,47,3.52c-3.71,1.23-6.53,5.23-5.24,9.23C43,16.45,47,19.31,51,18a51,51,0,0,1,8.84-2.29l-2,.27a80.26,80.26,0,0,1,20.77-.45l-2-.27a61.39,61.39,0,0,1,14.53,4.15l-1.8-.76a59.72,59.72,0,0,1,12,6.84c.62.47.47.35-.47-.38l.69.55c.46.37.92.74,1.37,1.12.91.75,1.81,1.52,2.7,2.3,1.72,1.51,3.4,3.05,5.09,4.59,1.5,1.37,3.06,2.69,4.47,4.16.68.7,1.32,1.42,1.94,2.16.32.38.61.77.93,1.15-1.6-1.92-.4-.5-.07,0a54.57,54.57,0,0,1,5.88,10.63l-.75-1.79a60.39,60.39,0,0,1,4,14.63l-.27-2a54.69,54.69,0,0,1,0,14.06l.27-2a61.28,61.28,0,0,1-4.48,15.44l.76-1.8a106.25,106.25,0,0,1-5.09,10.66q-1.23,2.18-2.64,4.25c-.45.67-.93,1.32-1.41,2-.69.92,1.18-1.49.22-.3-.28.35-.57.71-.87,1a51.62,51.62,0,0,1-7.31,7c-1.2,1,1.2-.9.2-.16l-1.06.78c-.79.57-1.59,1.12-2.4,1.66-1.79,1.19-3.62,2.32-5.48,3.41a117.41,117.41,0,0,1-13.81,7l1.79-.75A28.35,28.35,0,0,1,79,126.58l2-.27a62.21,62.21,0,0,1-9,.36,77.45,77.45,0,0,1-8.89-.2l2,.27c-4.57-.66-8.79-2.5-13.15-3.94-4.16-1.37-8.44-2.35-12.5-4l1.79.76a31.77,31.77,0,0,1-4.69-2.47c-.37-.24-.74-.49-1.1-.75s-1.45-1.09-.39-.27-.15-.14-.37-.31l-.93-.8a47,47,0,0,1-3.64-3.56c-.56-.6-1.1-1.22-1.62-1.84s-2.1-2.7-.63-.72c-2-2.65-3.81-5.36-5.51-8.19a75.32,75.32,0,0,1-4.9-9l.76,1.8a43,43,0,0,1-2.76-10.58l.27,2A118.86,118.86,0,0,1,15.1,72.9a81,81,0,0,1,.26-12.56l-.27,2a46.6,46.6,0,0,1,3.47-11.7l-.76,1.79a89.9,89.9,0,0,1,5.46-10.6q1.54-2.59,3.23-5.13c.52-.8,1.06-1.59,1.61-2.39q.36-.54.75-1.08l.31-.44c.73-1.06-1,1.21-.48.6a37,37,0,0,1,3.08-3.3c.58-.54,1.18-1.07,1.79-1.58.28-.25.57-.48.87-.72s.39-.33.59-.47c-.14.1-1.41,1.07-.6.48a87.85,87.85,0,0,1,8.67-5.61c3.17-1.79,6.42-3.43,9.72-4.95a7.53,7.53,0,0,0,3.45-4.48A7.67,7.67,0,0,0,55.49,7,7.59,7.59,0,0,0,51,3.52,8.54,8.54,0,0,0,45.23,4.28Z"/><path class="cls-3" d="M71.15,57.88c-3.66.31-4.16-.22-7.06,2.8a13.53,13.53,0,0,0-3.71,8.12A11.71,11.71,0,0,0,71.13,81.59c7.67.72,11.5-5.55,11.76-12.75.24-6.81-5.48-9.63-11.74-11"/></g></g></svg>