<svg xmlns="http://www.w3.org/2000/svg" viewBox="0 0 114.98 115.81"><defs><style>.cls-1{fill:#ff0c0c;}.cls-2{fill:#fff;}.cls-3{font-size:100px;fill:#a00000;font-family:Duper-Bold, Duper;font-weight:700;}</style></defs><g id="Layer_2" data-name="Layer 2"><g id="sailor"><circle class="cls-1" cx="57.48" cy="57.25" r="50"/><path class="cls-2" d="M36.31,3.56a87.55,87.55,0,0,0-12.44,6.87,53.1,53.1,0,0,0-7,5.51,39.56,39.56,0,0,0-5.34,6.67A85.37,85.37,0,0,0,2.78,39,45.45,45.45,0,0,0,0,57.23C.18,63.11.22,69,1.73,74.75c1.46,5.53,4.5,10.64,7.62,15.39a53.4,53.4,0,0,0,12.8,14c4.81,3.55,10.59,4.88,16.17,6.67,2.67.86,5.26,2,8,2.67a39.94,39.94,0,0,0,9.92,1,66.49,66.49,0,0,0,8.7-.23,31.42,31.42,0,0,0,5.7-1,48,48,0,0,0,5.66-2.32,85.82,85.82,0,0,0,15-8.59,53,53,0,0,0,11.78-11.52c3.32-4.47,5.57-9.58,7.71-14.68a52.69,52.69,0,0,0,4-16.05,51.08,51.08,0,0,0-7.87-31.23A44.73,44.73,0,0,0,101.69,22c-1.78-1.88-3.78-3.55-5.7-5.28-4.55-4.12-9.3-8.11-14.82-10.86A55.64,55.64,0,0,0,62.59.29a69.7,69.7,0,0,0-18,.79,38.12,38.12,0,0,0-6.47,1.73C34.39,4,31.58,8,32.87,12c1.2,3.71,5.24,6.57,9.22,5.24a39.57,39.57,0,0,1,7.1-1.82l-2,.27A64.71,64.71,0,0,1,63,15.35l-2-.27A48.07,48.07,0,0,1,73,18.46l-1.79-.76a44.9,44.9,0,0,1,9.1,5.22c1.35,1-.69-.56-.12-.09l1.21,1c.69.57,1.36,1.16,2,1.74,1.33,1.17,2.64,2.37,4,3.57s2.38,2.09,3.49,3.23c.5.53,1,1.07,1.46,1.62.24.28.45.58.7.85-1.52-1.69-.62-.8-.28-.33a42.6,42.6,0,0,1,4.64,8.28L96.61,41a47.19,47.19,0,0,1,3.26,11.71l-.26-2a43,43,0,0,1,0,11.33l.26-2a48.6,48.6,0,0,1-3.55,12l.76-1.79a72.68,72.68,0,0,1-5.17,10.28q-.66,1.05-1.38,2c-.34.49-1.5,1.81.14-.13-.22.26-.43.54-.65.8a38.23,38.23,0,0,1-3.44,3.64c-.65.61-1.33,1.2-2,1.76-.29.23-.58.45-.86.69,1.92-1.61.48-.39,0,0-1.62,1.17-3.3,2.25-5,3.29a92.53,92.53,0,0,1-12.13,6.23l1.79-.75a22,22,0,0,1-5.23,1.37l2-.26a50.94,50.94,0,0,1-6.88.27,69,69,0,0,1-6.9-.13l2,.26c-3.62-.49-7-1.93-10.4-3.08-3.26-1.08-6.61-1.85-9.8-3.15l1.79.75a25,25,0,0,1-3.6-1.86c-.31-.2-.62-.4-.93-.62s-1.25-.94-.23-.15-.06-.06-.21-.18l-.63-.54a35.91,35.91,0,0,1-2.93-2.86c-.42-.45-.82-.91-1.22-1.38l-.65-.79c-.19-.23-1-1.23-.18-.21s.12.14,0-.07-.41-.55-.61-.83c-.4-.56-.79-1.13-1.17-1.7-.73-1.1-1.42-2.21-2.09-3.33a56.54,56.54,0,0,1-3.81-7.06l.75,1.8a34.94,34.94,0,0,1-2.08-8.16l.27,2c-.41-3.12-.4-6.25-.5-9.4a63.24,63.24,0,0,1,.22-9.83l-.27,2a37,37,0,0,1,2.74-9.19L17,43.52A74.77,74.77,0,0,1,22.78,32.8c1-1.6,2.07-3.16,3.16-4.71.74-1.06-1.3,1.58-.25.35.26-.3.52-.6.8-.89.53-.56,1.09-1.1,1.66-1.62s1.25-1,1.85-1.56c-1.68,1.51-.77.59-.3.25s.83-.61,1.25-.9c1.4-1,2.83-1.87,4.29-2.73,2.8-1.64,5.7-3.11,8.65-4.47A7.54,7.54,0,0,0,47.33,12a7.68,7.68,0,0,0-.75-5.78,7.56,7.56,0,0,0-4.49-3.44A8.6,8.6,0,0,0,36.31,3.56Z"/><text class="cls-3" transform="translate(36 83.51)">2</text></g></g></svg>