<svg xmlns="http://www.w3.org/2000/svg" viewBox="0 0 114.98 115.26"><defs><style>.cls-1{fill:#ff0c0c;}.cls-2{fill:#fff;}.cls-3{font-size:100px;fill:#a00000;font-family:Duper-Bold, Duper;font-weight:700;}</style></defs><g id="Layer_2" data-name="Layer 2"><g id="sailor"><circle class="cls-1" cx="57.48" cy="58.04" r="50"/><path class="cls-2" d="M36.31,4.35a87.55,87.55,0,0,0-12.44,6.87,53.1,53.1,0,0,0-7,5.51,39.89,39.89,0,0,0-5.34,6.66A85.67,85.67,0,0,0,2.78,39.77,45.5,45.5,0,0,0,0,58c.15,5.88.19,11.79,1.7,17.51,1.46,5.54,4.5,10.65,7.62,15.4a53.21,53.21,0,0,0,12.8,13.95c4.81,3.56,10.59,4.89,16.17,6.68,2.67.86,5.26,2,8,2.67a39.47,39.47,0,0,0,9.92,1,66.49,66.49,0,0,0,8.7-.22,32.31,32.31,0,0,0,5.7-1,48,48,0,0,0,5.66-2.32,86.46,86.46,0,0,0,15-8.59,53,53,0,0,0,11.78-11.53c3.32-4.46,5.57-9.57,7.71-14.67a52.69,52.69,0,0,0,4-16,51.08,51.08,0,0,0-7.87-31.23,44.73,44.73,0,0,0-5.25-6.77c-1.78-1.88-3.78-3.55-5.7-5.29-4.55-4.11-9.3-8.1-14.82-10.85A55.64,55.64,0,0,0,62.59,1.08a70.14,70.14,0,0,0-18,.78A39.11,39.11,0,0,0,38.11,3.6c-3.72,1.23-6.53,5.23-5.24,9.22,1.2,3.71,5.24,6.56,9.22,5.24a39.57,39.57,0,0,1,7.1-1.82l-2,.27A65.21,65.21,0,0,1,63,16.13l-2-.26A47.64,47.64,0,0,1,73,19.25l-1.79-.76a44.9,44.9,0,0,1,9.1,5.22c1.35,1-.69-.56-.12-.09l1.21,1c.69.57,1.36,1.15,2,1.74,1.33,1.17,2.64,2.37,4,3.56s2.38,2.1,3.49,3.24c.5.52,1,1.06,1.46,1.62.24.28.45.58.7.85-1.52-1.69-.62-.81-.28-.33a42.31,42.31,0,0,1,4.64,8.28l-.75-1.79a47.19,47.19,0,0,1,3.26,11.71l-.26-2a43,43,0,0,1,0,11.33l.26-2a48.73,48.73,0,0,1-3.55,12l.76-1.79a72.68,72.68,0,0,1-5.17,10.28c-.44.69-.9,1.38-1.38,2-.34.49-1.5,1.81.14-.13-.22.26-.43.54-.65.8a39.47,39.47,0,0,1-3.44,3.64c-.65.61-1.33,1.19-2,1.76-.29.23-.58.45-.86.69,1.92-1.61.48-.39,0-.05-1.62,1.17-3.3,2.25-5,3.29a92.53,92.53,0,0,1-12.13,6.23l1.79-.76a22.06,22.06,0,0,1-5.23,1.38l2-.27a49.36,49.36,0,0,1-6.88.28,69,69,0,0,1-6.9-.14l2,.27c-3.62-.5-7-1.94-10.4-3.08-3.26-1.08-6.61-1.85-9.8-3.16l1.79.76A25,25,0,0,1,31.32,93l-.93-.62c-.23-.17-1.25-.94-.23-.15s-.06-.06-.21-.18l-.63-.54a35.91,35.91,0,0,1-2.93-2.86c-.42-.45-.82-.91-1.22-1.38l-.65-.79c-.19-.23-1-1.23-.18-.22s.12.15,0-.06-.41-.55-.61-.83q-.6-.84-1.17-1.71c-.73-1.09-1.42-2.2-2.09-3.33a55.72,55.72,0,0,1-3.81-7.05l.75,1.79A34.73,34.73,0,0,1,15.3,67l.27,2c-.41-3.12-.4-6.26-.5-9.4a63.4,63.4,0,0,1,.22-9.84l-.27,2a36.86,36.86,0,0,1,2.74-9.19L17,44.31a75.41,75.41,0,0,1,5.78-10.73c1-1.59,2.07-3.15,3.16-4.7.74-1.06-1.3,1.57-.25.35.26-.31.52-.6.8-.89.53-.57,1.09-1.1,1.66-1.62s1.25-1,1.85-1.56c-1.68,1.51-.77.59-.3.24L31,24.5q2.1-1.44,4.29-2.72c2.8-1.64,5.7-3.12,8.65-4.48a7.49,7.49,0,0,0,3.44-4.48A7.68,7.68,0,0,0,46.58,7,7.56,7.56,0,0,0,42.09,3.6,8.48,8.48,0,0,0,36.31,4.35Z"/><text class="cls-3" transform="translate(42 81.3)">1</text></g></g></svg>