<svg xmlns="http://www.w3.org/2000/svg" viewBox="0 0 157.3 158.41"><defs><style>.cls-1{fill:#ff0c0c;}.cls-2{fill:#fff;}</style></defs><g id="Layer_2" data-name="Layer 2"><g id="typo"><path class="cls-1" d="M79.23,157c7.43-30.26,21.13-53.26,43.74-74.62,18.28-17.27,46.61-43.85,25.19-68.19C135.26-.52,115.47-2.58,98.24,8.61c-12.61,8.19-20.31,24-19.77,38.7h.34C79.34,32.63,71.64,16.8,59,8.61,41.81-2.58,22-.52,9.11,14.14-12.3,38.48,16,65.06,34.31,82.33,56.92,103.69,71.8,126.69,79.23,157Z"/><path class="cls-2" d="M80.68,157.35c4.48-18.17,11.86-35.42,22.77-50.67A159.72,159.72,0,0,1,122,85.37C128.2,79.3,134.64,73.46,140.43,67,151,55.08,162.11,38.6,155.11,22.2A37.65,37.65,0,0,0,110.73,1.34a44.62,44.62,0,0,0-23,14.79A48.65,48.65,0,0,0,77.26,40.76,42.14,42.14,0,0,0,77,47.31a1.53,1.53,0,0,0,1.5,1.5h.34a1.53,1.53,0,0,0,1.5-1.5C80.9,28.86,69.82,11,52.87,3.58a39.78,39.78,0,0,0-26-2.37A39,39,0,0,0,5.23,16.67,28.81,28.81,0,0,0,.76,39.83C2.65,48.1,7.45,55.47,12.67,62A189.29,189.29,0,0,0,30.61,80.9a216,216,0,0,1,19.44,20.47,140.9,140.9,0,0,1,25.83,48.91c.69,2.34,1.32,4.7,1.91,7.07.46,1.87,3.35,1.07,2.89-.8a144.46,144.46,0,0,0-22.25-49.07A169.88,169.88,0,0,0,40.89,86.67c-6-6.12-12.49-11.8-18.41-18S11.12,56,7.21,48.45C3.74,41.78,1.76,34.12,3.76,26.68,6,18.41,12.54,11.37,19.9,7.25A34.28,34.28,0,0,1,44.11,3.84,41.82,41.82,0,0,1,66.7,17.39,45,45,0,0,1,77.06,41.13a42.48,42.48,0,0,1,.25,6.18l1.5-1.5h-.34l1.5,1.5C79.4,29.55,90.27,12.4,106.82,5.8a36.15,36.15,0,0,1,24.87-1.08,35.61,35.61,0,0,1,19.7,16.62c8.12,15.2-2.4,31.32-12.34,42.66-5.49,6.26-11.56,12-17.59,17.69a168.53,168.53,0,0,0-18.35,20.43,145.45,145.45,0,0,0-23.55,47.75q-.94,3.31-1.77,6.68C77.32,158.42,80.22,159.22,80.68,157.35Z"/></g></g></svg>