<svg xmlns="http://www.w3.org/2000/svg" viewBox="0 0 47.76 71.11"><defs><style>.cls-1{fill:#ff0c0c;}.cls-2{fill:#fff;}</style></defs><g id="Layer_2" data-name="Layer 2"><g id="settings"><path class="cls-1" d="M44.44,14.09c-3.85-10.23-15-14.2-25.23-12C14.72,3.09,8.89,6.23,6,9.92,2,15.13.53,23.7,2.29,30c1.46,5.23,7.08,8.13,9.07,13.22.78,2,1.27,4,2,6a25.37,25.37,0,0,1,1.28,2.9c.26,1.16-.26,2.26.14,3.31h-.19c4.2,0,8.74,1.59,12.83,1,3.25-.48,5.84-.33,6.46-3.7a48.81,48.81,0,0,1,2-8.32c2-5.32,7.62-8.65,9.36-14.18A24.25,24.25,0,0,0,44.44,14.09ZM11.05,20.45a.92.92,0,0,1-1.51-.79,8.33,8.33,0,0,1,.75-3.18,15.79,15.79,0,0,1,4-5.41,19,19,0,0,1,8.29-2.75.92.92,0,0,1,.72,1.61Z"/><path class="cls-2" d="M45.88,13.69A20.89,20.89,0,0,0,33.23,1.44a25.88,25.88,0,0,0-18.32.49A26.67,26.67,0,0,0,6.24,7.44a20.42,20.42,0,0,0-4.87,8.38C-.59,21.92-.83,29.64,3.2,35c2.07,2.74,4.88,5,6.44,8.1,1.06,2.14,1.47,4.55,2.33,6.77a14.82,14.82,0,0,1,1.2,2.71c.19,1.11-.17,2.19.15,3.31L14.76,54h-.19a1.5,1.5,0,0,0,0,3,64.86,64.86,0,0,1,7.35.85,24.87,24.87,0,0,0,6.62,0,10.84,10.84,0,0,0,4.59-1.21c1.55-1,2-2.6,2.34-4.32A44.7,44.7,0,0,1,37.27,45a16.77,16.77,0,0,1,3-4.78c2.47-3,5.25-5.82,6.48-9.61,1.79-5.55,1.16-11.53-.83-16.93-.66-1.8-3.56-1-2.89.8a23.79,23.79,0,0,1,1.21,14c-.9,3.68-3.26,6.29-5.64,9.12a28.36,28.36,0,0,0-3.14,4.32,22.91,22.91,0,0,0-2.06,5.8c-.25,1-.46,2.07-.66,3.1a8.77,8.77,0,0,1-.62,2.64c-.59,1-2,1.14-3.06,1.29a25.5,25.5,0,0,1-6.87.12A66.9,66.9,0,0,0,14.57,54v3h.19a1.52,1.52,0,0,0,1.45-1.9,12.07,12.07,0,0,1,0-2.48,6.19,6.19,0,0,0-.68-2.29,45.35,45.35,0,0,1-2-5.58,21.64,21.64,0,0,0-4.72-7.91c-1.85-2.06-4-4.11-4.9-6.82a20.84,20.84,0,0,1-.61-8.71,22.89,22.89,0,0,1,2.91-8.84A17.63,17.63,0,0,1,12.76,6.3,23.66,23.66,0,0,1,29.25,3.45c6.13,1.24,11.44,5.1,13.74,11C43.68,16.27,46.58,15.49,45.88,13.69Z"/><path class="cls-2" d="M10.3,19.16c-.18.13-.16,0,0,.06s.31-.06.48.06.08.14.14.18,0,.26.12.09a2.27,2.27,0,0,0,.06-.59c0-.24.08-.48.13-.71a9.63,9.63,0,0,1,1.13-2.46,10.16,10.16,0,0,1,3.49-3.92A16.78,16.78,0,0,1,21.29,10c.42-.08.89-.09,1.29-.21h.19c0,.2-.54-.27-.56-.32s0-.62.05-.59-.09.06-.17.12c-1.25,1-2.41,2.07-3.61,3.09l-5.27,4.53L10,19.39a1.5,1.5,0,1,0,2.12,2.12l9.57-8.19,2.14-1.84a2.91,2.91,0,0,0,1.33-2.21,2.44,2.44,0,0,0-2.22-2.44,12.61,12.61,0,0,0-3.59.55A15.5,15.5,0,0,0,13,10.25a16,16,0,0,0-4.31,6.29,8.93,8.93,0,0,0-.5,2.22,3.44,3.44,0,0,0,.11,2,2.42,2.42,0,0,0,3.56,1,1.54,1.54,0,0,0,.54-2.05A1.51,1.51,0,0,0,10.3,19.16Z"/><path class="cls-2" d="M15.54,62c3.33,0,6.69.07,10,.21,2.7.11,5.47.57,8-.61A1.5,1.5,0,0,0,32.05,59a7.54,7.54,0,0,1-3.4.38c-1.19,0-2.37-.18-3.56-.2-3.18-.06-6.37-.19-9.55-.19a1.5,1.5,0,0,0,0,3Z"/><path class="cls-2" d="M15.73,67.23c5.23,0,10.59.88,15.73-.44,1.87-.48,1.07-3.37-.8-2.89-4.85,1.24-10,.35-14.93.33a1.5,1.5,0,0,0,0,3Z"/><path class="cls-2" d="M18.84,71.11H29.31a1.5,1.5,0,1,0,0-3H18.84a1.5,1.5,0,0,0,0,3Z"/></g></g></svg>