<svg xmlns="http://www.w3.org/2000/svg" viewBox="0 0 44.72 69.6"><defs><style>.cls-1{fill:#fff;}</style></defs><g id="Layer_2" data-name="Layer 2"><g id="settings"><path class="cls-1" d="M42.88,12.57C39,2.34,27.85-1.63,17.65.6c-4.49,1-10.32,4.12-13.18,7.8C.43,13.61-1,22.18.74,28.52c1.45,5.22,7.07,8.12,9.06,13.22.78,2,1.27,4,2,6a26.31,26.31,0,0,1,1.27,2.9c.26,1.15-.26,2.25.15,3.31H13c4.2,0,8.75,1.58,12.83,1,3.25-.49,5.85-.33,6.46-3.7a49.88,49.88,0,0,1,2-8.33c2-5.32,7.62-8.65,9.36-14.17A24.22,24.22,0,0,0,42.88,12.57ZM9.49,18.94A.92.92,0,0,1,8,18.15,8.39,8.39,0,0,1,8.74,15a15.54,15.54,0,0,1,4-5.41A19,19,0,0,1,21.05,6.8a.92.92,0,0,1,.72,1.61Z"/><path class="cls-1" d="M14,60.48c3.33,0,6.69.08,10,.21,2.69.11,5.46.58,8-.61a1.51,1.51,0,0,0,.54-2,1.54,1.54,0,0,0-2.05-.54,7.54,7.54,0,0,1-3.4.38c-1.19,0-2.37-.17-3.56-.19-3.18-.06-6.36-.19-9.55-.2a1.5,1.5,0,0,0,0,3Z"/><path class="cls-1" d="M14.18,65.72c5.22,0,10.58.87,15.72-.44,1.87-.48,1.08-3.38-.8-2.9-4.84,1.24-10,.35-14.92.34a1.5,1.5,0,0,0,0,3Z"/><path class="cls-1" d="M17.28,69.6H27.75a1.5,1.5,0,0,0,0-3H17.28a1.5,1.5,0,0,0,0,3Z"/></g></g></svg>