<svg xmlns="http://www.w3.org/2000/svg" viewBox="0 0 82.66 87.04"><defs><style>.cls-1{fill:#fff;}</style></defs><g id="Layer_2" data-name="Layer 2"><g id="settings"><path class="cls-1" d="M60.9,30c-3.85-10.22-15-14.19-25.23-12-4.49,1-10.32,4.12-13.18,7.8-4,5.22-5.5,13.78-3.73,20.12,1.45,5.22,7.07,8.13,9.06,13.22.78,2,1.27,4,2,6a27.16,27.16,0,0,1,1.27,2.9c.26,1.15-.26,2.25.15,3.31H31c4.2,0,8.75,1.58,12.83,1,3.25-.49,5.85-.33,6.46-3.7a50.13,50.13,0,0,1,2-8.33c2-5.32,7.62-8.65,9.36-14.17A24.22,24.22,0,0,0,60.9,30ZM27.51,36.38A.92.92,0,0,1,26,35.59a8.39,8.39,0,0,1,.76-3.19,15.5,15.5,0,0,1,4-5.4,18.86,18.86,0,0,1,8.28-2.76.93.93,0,0,1,.72,1.62Z"/><path class="cls-1" d="M32,77.92c3.33,0,6.69.08,10,.21,2.7.11,5.47.58,8-.61a1.51,1.51,0,0,0,.54-2,1.54,1.54,0,0,0-2.05-.54,7.54,7.54,0,0,1-3.4.39c-1.19,0-2.37-.18-3.56-.2-3.18-.06-6.37-.19-9.55-.2a1.5,1.5,0,0,0,0,3Z"/><path class="cls-1" d="M32.2,83.16c5.22,0,10.58.87,15.72-.44,1.87-.48,1.08-3.37-.8-2.89-4.84,1.24-10,.34-14.92.33a1.5,1.5,0,0,0,0,3Z"/><path class="cls-1" d="M35.3,87H45.77a1.5,1.5,0,0,0,0-3H35.3a1.5,1.5,0,0,0,0,3Z"/><path class="cls-1" d="M38.57,1.5c-.27,3.59,1,7.05,1,10.6a1.5,1.5,0,1,0,3,0c0-3.58-1.28-7-1-10.6A1.51,1.51,0,0,0,40.07,0a1.53,1.53,0,0,0-1.5,1.5Z"/><path class="cls-1" d="M58,17.2c2-1.72,4.06-3.34,6.06-5a1.5,1.5,0,0,0,0-2.12A1.55,1.55,0,0,0,62,10c-2,1.7-4.07,3.33-6.06,5.05a1.51,1.51,0,0,0,0,2.12,1.54,1.54,0,0,0,2.12,0Z"/><path class="cls-1" d="M68.34,39.85c4.29,0,8.58.24,12.87.26a1.5,1.5,0,0,0,0-3c-4.29,0-8.58-.25-12.87-.26a1.5,1.5,0,0,0,0,3Z"/><path class="cls-1" d="M60.28,58.55c.08,1.68,1.49,3,2.66,4,1.41,1.25,2.93,2.37,4.36,3.59.34.29.67.58,1,.89.14.13.26.26.39.4s.11.14.17.2c.2.22-.22-.31,0,0a1.54,1.54,0,0,0,2.06.54,1.51,1.51,0,0,0,.53-2,17.81,17.81,0,0,0-3.54-3.34,35.5,35.5,0,0,1-4-3.46l-.21-.24c-.09-.11-.24-.38,0,0-.09-.14-.2-.27-.29-.42a1.14,1.14,0,0,1-.1-.19c-.16-.27.07.26,0,.1a1.09,1.09,0,0,0-.05-.17c-.09-.23,0,.43,0,.14a1.5,1.5,0,0,0-3,0Z"/><path class="cls-1" d="M11.34,67.94a6.24,6.24,0,0,1,.68-.68l.37-.31c.2-.16-.26.19,0,0l.23-.18c.63-.46,1.28-.88,1.92-1.31a13.63,13.63,0,0,0,3.73-3.28,4.87,4.87,0,0,0,.87-2.66,1.5,1.5,0,0,0-1.5-1.5,1.53,1.53,0,0,0-1.5,1.5c0,.1,0,.2,0,.3,0-.49,0-.18,0,0a2.29,2.29,0,0,1-.08.28c-.13.37.13-.24,0,0a5.39,5.39,0,0,1-.3.52c-.07.1-.31.36,0,0l-.21.25a8.24,8.24,0,0,1-.9.87l-.27.22c-.32.26.17-.12,0,0l-.59.42a22.61,22.61,0,0,0-4.48,3.4,1.5,1.5,0,0,0,2.12,2.12Z"/><path class="cls-1" d="M1.45,38.34H12.56a1.5,1.5,0,0,0,0-3H1.45a1.5,1.5,0,0,0,0,3Z"/><path class="cls-1" d="M14.29,9.83A17,17,0,0,0,18,14.48a57,57,0,0,0,4.35,3.73,1.53,1.53,0,0,0,2.12,0,1.51,1.51,0,0,0,0-2.12c-1.47-1.16-2.91-2.35-4.26-3.64a27.3,27.3,0,0,1-2-2.14L18,10c-.09-.11-.19-.26,0,0-.13-.18-.27-.36-.39-.54a8.54,8.54,0,0,1-.66-1.13,1.5,1.5,0,0,0-2-.54,1.53,1.53,0,0,0-.54,2.05Z"/></g></g></svg>