<svg xmlns="http://www.w3.org/2000/svg" viewBox="0 0 421.76 45.27"><defs><style>.cls-1{fill:#09edf6;}.cls-2{fill:#fff;}.cls-3{fill:#043c7a;}</style></defs><g id="Layer_2" data-name="Layer 2"><g id="players"><g id="arrow"><g id="start-fill"><path class="cls-1" d="M48.76,3.38c3.2,4.4-2.24,10.19-4.36,13.85-1,1.75-2.68,3.69-3.09,5.72-.54,2.65,1.57,4.61,2.61,6.88.72,1.58,2,3.36,2.73,4.94.76,1.75,2,3.39,2.4,5.28.12.5.54,2.87.09,3.28-1.07,1-6.06-2.36-7-2.88A97.07,97.07,0,0,0,30,34.75c-4.42-1.82-8.71-3.92-13.14-5.67C12,27.16,7,25,2.05,23.59a.77.77,0,0,1-.15-1.42,130.42,130.42,0,0,1,17.23-7.32c3.19-1.08,6.13-1.74,9.1-3.37,1.75-1,3.62-1.32,5.41-2.15S36.71,8.1,38.32,7.2a30.51,30.51,0,0,1,5.4-2.46A28.86,28.86,0,0,1,48.76,3.38Z"/></g><g id="start-outline"><path class="cls-2" d="M47.47,4.14c2.31,3.38-1.23,7.59-3.09,10.34C43.22,16.2,42,18,41,19.77a7.13,7.13,0,0,0-.81,6.36A18.47,18.47,0,0,0,41.75,29c.59,1,1,2,1.61,3,1.2,2.08,2.32,4.18,3.41,6.32a9.23,9.23,0,0,1,.93,2.64A9.58,9.58,0,0,1,47.83,42a1.56,1.56,0,0,0,0,.53.22.22,0,0,1,0,.14.79.79,0,0,1,.63-.62c.12-.36.28.2,0,0,.05.06-.24-.06-.28-.07a4.69,4.69,0,0,1-.89-.31,19.91,19.91,0,0,1-2.2-1.14,101.42,101.42,0,0,0-11.29-5.74c-5.11-2.15-10.15-4.47-15.28-6.57-2.66-1.09-5.34-2.17-8-3.23C9.36,24.47,8.17,24,7,23.58c-.67-.24-1.35-.47-2-.69L3.8,22.54c-.66-.2-.85-.55-1,.33s.12.47.71.18l.83-.42L6,21.81c1.28-.6,2.56-1.19,3.85-1.75,2.6-1.14,5.25-2.19,7.92-3.15s5.68-1.73,8.43-2.84c1.39-.56,2.68-1.35,4.07-1.89s2.78-1,4.13-1.56C37,9.5,39.4,8.21,41.93,7a28.3,28.3,0,0,1,3.68-1.32,13.46,13.46,0,0,1,3.15-.84c1.93-.09,1.94-3.09,0-3a22.6,22.6,0,0,0-6.6,1.82c-2.52,1-4.81,2.43-7.3,3.48-2.74,1.16-5.53,2.11-8.2,3.42a66.78,66.78,0,0,1-8.15,2.88A132.35,132.35,0,0,0,1.76,20.56c-1,.52-1.87,1.24-1.75,2.5.14,1.45,1.31,1.88,2.54,2.23,3.07.9,6,2.07,9,3.26,5.77,2.33,11.43,4.87,17.16,7.28a100.85,100.85,0,0,1,13.84,6.6c1.84,1.12,7.82,4.86,8.26.45a11,11,0,0,0-1.27-5.72c-1.16-2.41-2.5-4.71-3.79-7-.66-1.19-1.28-2.38-2-3.55A4.6,4.6,0,0,1,42.85,23a14.43,14.43,0,0,1,2.22-4c.64-1,1.24-2,1.9-3,2.55-3.77,6.16-8.88,3.09-13.37C49,1,46.38,2.54,47.47,4.14Z"/></g><g id="stok-fill"><path class="cls-3" d="M394,20.65c1.69.73,2.12,3,1.65,4.78-.7,2.62-1.58,2.09-4.56,2.11-4.39,0-8.8-.15-13.19,0-7.64.27-15.18,1.68-22.76,1.81-8.07.14-15.85-.35-23.67.37-9.89.9-19.8,1-29.75,1-19.9,0-39.73.92-59.56-.41-4.94-.33-9.91.72-14.88.72-6.44,0-12.81-.67-19.17-.38-12,.54-23.88-.79-35.81-.63-13,.16-25.84-1.78-38.93-1.78-12.93,0-25.93.29-38.83-.34a390.24,390.24,0,0,0-39.3.36c-3.17.16-9.31.49-12.12-1.09-4-2.24-3-7.52,1.51-8.81,4.13-1.16,9.79-.16,14.09-.68a76.6,76.6,0,0,1,15.66-.09c9.92.86,19.93.18,29.82,1.06a134,134,0,0,0,16.69.42,129.14,129.14,0,0,1,14.17.29,322,322,0,0,0,41.11.44,205,205,0,0,1,24.77.62c9,.6,17.38.22,26.57.58,4,.16,7.83.46,11.81.45s6.13-.62,9.89-.4c3.13.19,7.7,1.08,10.95,1.11,4.65,0,9.95.09,14.07.25,9.92.41,19.89-.72,30.46-.23,8.81.41,18.23-.53,26.56-.35,8.77.18,17.54.91,26.26.13,7.58-.69,15.2-1.09,22.8-1.17C384.13,20.77,392,19.63,394,20.65Z"/></g><g id="stok-outline"><path class="cls-2" d="M393.28,21.94c1.12.6,1.69,3.55.37,4.12a8.26,8.26,0,0,1-2.53,0c-1.62,0-3.24,0-4.86,0a153.43,153.43,0,0,0-18.06.8,163.75,163.75,0,0,1-17.84,1.06c-6.07,0-12.14-.22-18.19.28-12.37,1-24.7,1-37.09,1.1s-25,.43-37.49.2c-6.13-.12-12.32-.84-18.43-.69-3.06.08-6.09.5-9.14.68a88.09,88.09,0,0,1-8.9-.06c-6.19-.26-12.32-.13-18.51-.1s-12.17-.31-18.25-.54-12.34-.1-18.52-.3c-6-.2-12-.7-18.05-1.11-12.31-.83-24.62-.46-36.94-.53s-24.64-.9-37-.7c-6.09.1-12.17.34-18.26.64-2.09.11-4.19.21-6.28.14-1.91-.07-4.41-.12-6-1.39a3,3,0,0,1-.48-4.32c1.4-1.73,4.1-1.81,6.13-1.88,2.62-.09,5.25.12,7.87,0,2.9-.11,5.77-.54,8.68-.58,6.09-.08,12.14.68,18.22.8,6.25.12,12.5,0,18.73.47,5.92.42,11.78.75,17.72.58,6.1-.17,12.11.1,18.19.5a316.55,316.55,0,0,0,35.79.31c6.18-.29,12.31-.3,18.49,0,6,.3,11.92.77,17.91.85s12,0,17.93.27a139.81,139.81,0,0,0,16.63.06c5.08-.36,10,.95,15,1.06q8.16.18,16.33.32c5.79.11,11.58-.21,17.36-.36,6-.14,12,.24,18,.15,5.74-.09,11.47-.47,17.21-.46,6.14,0,12.28.45,18.42.5s12.18-.61,18.28-1c5.61-.34,11.25-.27,16.85-.63,2-.13,3.92-.31,5.88-.41,1.36-.07,3.43-.41,4.73.15,1.75.76,3.28-1.82,1.51-2.59-3.31-1.43-7.75-.46-11.23-.21-5.67.4-11.37.31-17.05.65-6.45.39-12.85,1.09-19.32,1-6.23-.06-12.46-.52-18.69-.49-6.08,0-12.16.45-18.24.47-6.24,0-12.45-.28-18.7-.09-6.05.19-12.08.41-18.12.19-5.47-.19-11,.14-16.46-.44-2.58-.27-5.15-.73-7.74-.89a72.8,72.8,0,0,0-8,.35c-6.15.32-12.35-.42-18.51-.53s-12.3,0-18.45-.27c-6.4-.27-12.77-.85-19.18-.95-6.24-.1-12.46.37-18.7.52s-12.66.11-19-.12-12.54-.86-18.81-1-12.51.28-18.77,0-12.52-.83-18.82-.9c-6.48-.07-12.9-.35-19.37-.74a78.19,78.19,0,0,0-9.56,0c-2.83.18-5.58.5-8.43.45-4.26-.08-10.2-.74-13.2,3a6.07,6.07,0,0,0,1.88,9.11c3.54,2,8.43,1.52,12.32,1.33,12.7-.62,25.42-1,38.13-.47s25.64.45,38.48.42,25.49,1.67,38.27,1.78c6.43,0,12.82.13,19.24.4s12.87.47,19.31.23c6.28-.25,12.55.37,18.83.38,3.17,0,6.32-.39,9.48-.62a74.84,74.84,0,0,1,9.59.13c13.06.69,26.15.5,39.22.33,12.87-.17,25.78.09,38.64-.61,6.35-.35,12.64-1,19-.95s12.63.21,18.94-.35S374.38,29,380.7,29c3.24,0,6.49.06,9.73.06,1.58,0,3.72.4,5.11-.56,2.93-2,2.21-7.55-.75-9.14C393.09,18.44,391.57,21,393.28,21.94Z"/></g><g id="touw"><g id="touw-2" data-name="touw"><g id="fill"><path class="cls-1" d="M84.31,14.56c1.53,1.14,3.65,2.88,5.11,4.11a16.19,16.19,0,0,1,2.87,2.86c1.79,2.47,4.28,4.9,5,8,.31,1.23,1.29,3.35-.13,4.21s-3.32-.15-4.29-1.23c-1.43-1.6-2.51-3.54-3.82-5.26-2.28-3-4.08-6.18-6.75-8.86-.8-.81-1.86-2.9-.32-3.65C83.21,14.13,83.29,14.56,84.31,14.56Z"/></g><path class="cls-3" d="M81.27,15.69a9.42,9.42,0,0,1,2.34,1.67c.79.69,1.61,1.33,2.39,2a22.28,22.28,0,0,1,4.15,4.31,8.55,8.55,0,0,0,1.72,2.07,9.73,9.73,0,0,1,1.92,2.08,20.67,20.67,0,0,1,1.65,2.94,22.55,22.55,0,0,1,.67,2.84l1.45-.39a21,21,0,0,0-.68-2.84,20,20,0,0,0-1.64-2.93,9.11,9.11,0,0,0-1.82-2,8.78,8.78,0,0,1-1.82-2.16A21.71,21.71,0,0,0,87.44,19c-.77-.71-1.59-1.36-2.38-2.05a9.38,9.38,0,0,0-2.34-1.66c-.36-.17-1.1.54-1.45.38Z"/><g id="outline"><path class="cls-2" d="M83.93,15.2c1.32,1,2.6,2,3.88,3.1a24,24,0,0,1,3.7,3.43c2,2.62,4.27,5.11,5.21,8.37.32,1.11,1.15,3.2-.79,3.18-1.74,0-3-1.8-3.84-3.06-2.12-3-4.18-6.06-6.37-9-.57-.77-1.17-1.53-1.8-2.26a11.72,11.72,0,0,1-1.56-1.82c-.29-.52-.63-1.27-.07-1.71s1.35-.14,2-.11c1,0,1-1.47,0-1.5a5.75,5.75,0,0,0-1.94-.05,2.52,2.52,0,0,0-1.77,1.48c-.44,1.3.37,2.71,1.21,3.65a105,105,0,0,1,8.4,11.24c1.1,1.63,2.25,3.47,4.13,4.27,1.42.62,3.52.52,4.17-1.14.55-1.4-.19-3.2-.62-4.54a17.72,17.72,0,0,0-3.2-5.32A34.31,34.31,0,0,0,90,18.14c-1.72-1.45-3.46-2.88-5.27-4.23C83.91,13.33,83.16,14.63,83.93,15.2Z"/></g><g id="touw-fill"><path class="cls-1" d="M90.28,17.75a3.4,3.4,0,0,1,4.35-1.64h0c1.52.65,2,1.91,2.12,3.47a4.45,4.45,0,0,1-.31,2.47,10.65,10.65,0,0,1-1.92,2.44,74.3,74.3,0,0,0-5,6.3,4.61,4.61,0,0,1-4.14,2.06c-1.11.06-1.35-.07-1.89-1.5s.21-2.77,1.71-4.28a18.83,18.83,0,0,0,2.21-3.23,33.56,33.56,0,0,0,1.88-4.29c.23-.5.61-.91.8-1.44C90.15,18,90.21,17.91,90.28,17.75Z"/></g><path class="cls-3" d="M93.74,16.78c-.06,3.36-2.09,6.75-4,9.42A14.48,14.48,0,0,1,88,28.35a4.59,4.59,0,0,1-1.2.85,5.72,5.72,0,0,0-1,.51c-.82.66-1.34,1.71-2.22,2.3.39-.26,1.06-.12,1.45-.39.88-.59,1.39-1.64,2.22-2.3a5.07,5.07,0,0,1,1-.5A4.73,4.73,0,0,0,89.38,28a13.44,13.44,0,0,0,1.82-2.23c1.9-2.66,3.93-6.06,4-9.42,0,.13-1.45.24-1.45.39Z"/><g id="touw-outline"><path class="cls-2" d="M90.93,18.13a2.69,2.69,0,0,1,3.18-1.41A2.81,2.81,0,0,1,96,19.23a4.35,4.35,0,0,1-1.26,4c-1.06,1.12-2,2.34-3,3.51s-2,2.51-2.89,3.82a3.87,3.87,0,0,1-3.06,1.57c-.31,0-.85.14-1.11-.06a2.64,2.64,0,0,1-.57-1.54C84,29,85.51,28,86.31,27a19.37,19.37,0,0,0,2.53-4.21c.34-.8.62-1.62,1-2.42s.78-1.47,1.14-2.22-.88-1.63-1.29-.76-.85,1.52-1.19,2.32-.7,1.91-1.13,2.82a24.87,24.87,0,0,1-1.4,2.39,23.67,23.67,0,0,1-2,2.53,4.18,4.18,0,0,0-1,4.36,2.32,2.32,0,0,0,2.52,1.82,5.82,5.82,0,0,0,4.08-1.54A18.11,18.11,0,0,0,91,29.94c.67-.91,1.4-1.77,2.13-2.63L95.08,25a17.34,17.34,0,0,0,1.8-2.13,6.12,6.12,0,0,0,.39-4.82,4.15,4.15,0,0,0-7.63-.71C89.18,18.22,90.47,19,90.93,18.13Z"/></g></g><g id="touw-3" data-name="touw"><g id="fill-2" data-name="fill"><path class="cls-1" d="M67,14.56c1.54,1.14,3.66,2.88,5.11,4.11A16.24,16.24,0,0,1,75,21.53c1.78,2.47,4.28,4.9,5,8,.3,1.23,1.28,3.35-.13,4.21s-3.33-.15-4.29-1.23c-1.44-1.6-2.51-3.54-3.82-5.26-2.28-3-4.09-6.18-6.75-8.86-.8-.81-1.87-2.9-.32-3.65C66,14.13,66,14.56,67,14.56Z"/></g><path class="cls-3" d="M64,15.69a9.61,9.61,0,0,1,2.34,1.67c.79.69,1.61,1.33,2.38,2a22,22,0,0,1,4.16,4.31,8.55,8.55,0,0,0,1.72,2.07,9.73,9.73,0,0,1,1.92,2.08,21.64,21.64,0,0,1,1.64,2.94,21,21,0,0,1,.68,2.84l1.44-.39a19.54,19.54,0,0,0-.67-2.84A20,20,0,0,0,78,27.48a9.36,9.36,0,0,0-1.82-2,8.78,8.78,0,0,1-1.82-2.16A21.71,21.71,0,0,0,70.18,19c-.77-.71-1.59-1.36-2.38-2.05a9.57,9.57,0,0,0-2.34-1.66c-.36-.17-1.1.54-1.45.38Z"/><g id="outline-2" data-name="outline"><path class="cls-2" d="M66.66,15.2c1.33,1,2.61,2,3.88,3.1a23.16,23.16,0,0,1,3.7,3.43c2.06,2.62,4.28,5.11,5.21,8.37.33,1.11,1.16,3.2-.78,3.18-1.74,0-3-1.8-3.84-3.06-2.12-3-4.18-6.06-6.37-9-.58-.77-1.17-1.53-1.81-2.26a11.66,11.66,0,0,1-1.55-1.82c-.3-.52-.63-1.27-.07-1.71s1.34-.14,2-.11a.75.75,0,0,0,0-1.5,5.69,5.69,0,0,0-1.93-.05,2.51,2.51,0,0,0-1.77,1.48c-.44,1.3.37,2.71,1.21,3.65A105,105,0,0,1,73,30.13c1.1,1.63,2.25,3.47,4.12,4.27,1.42.62,3.52.52,4.18-1.14.55-1.4-.19-3.2-.63-4.54a17.49,17.49,0,0,0-3.19-5.32,34.38,34.38,0,0,0-4.75-5.26c-1.72-1.45-3.46-2.88-5.26-4.23C66.65,13.33,65.9,14.63,66.66,15.2Z"/></g><g id="touw-fill-2" data-name="touw-fill"><path class="cls-1" d="M73,17.75a3.4,3.4,0,0,1,4.35-1.64h0c1.52.65,2,1.91,2.12,3.47a4.54,4.54,0,0,1-.31,2.47,10.93,10.93,0,0,1-1.92,2.44,74.41,74.41,0,0,0-5,6.3,4.58,4.58,0,0,1-4.13,2.06c-1.11.06-1.35-.07-1.9-1.5s.22-2.77,1.71-4.28a19.47,19.47,0,0,0,2.22-3.23,33.51,33.51,0,0,0,1.87-4.29,13.51,13.51,0,0,0,.8-1.44C72.88,18,72.94,17.91,73,17.75Z"/></g><path class="cls-3" d="M76.47,16.78c-.06,3.36-2.08,6.75-4,9.42a13.81,13.81,0,0,1-1.73,2.15,4.76,4.76,0,0,1-1.2.85,5.4,5.4,0,0,0-1,.51c-.82.66-1.34,1.71-2.22,2.3.39-.26,1.05-.12,1.45-.39C68.65,31,69.16,30,70,29.32a4.83,4.83,0,0,1,1-.5A4.73,4.73,0,0,0,72.12,28a13.44,13.44,0,0,0,1.82-2.23c1.9-2.66,3.92-6.06,4-9.42,0,.13-1.44.24-1.45.39Z"/><g id="touw-outline-2" data-name="touw-outline"><path class="cls-2" d="M73.67,18.13a2.68,2.68,0,0,1,3.17-1.41,2.8,2.8,0,0,1,1.88,2.51,4.3,4.3,0,0,1-1.26,4c-1,1.12-2,2.34-3,3.51s-2,2.51-2.89,3.82a3.88,3.88,0,0,1-3.07,1.57c-.3,0-.84.14-1.1-.06a2.65,2.65,0,0,1-.58-1.54C66.74,29,68.24,28,69,27a19.82,19.82,0,0,0,2.54-4.21c.34-.8.61-1.62.94-2.42s.79-1.47,1.15-2.22-.88-1.63-1.3-.76-.84,1.52-1.18,2.32-.7,1.91-1.13,2.82a25,25,0,0,1-1.41,2.39,22.4,22.4,0,0,1-2,2.53,4.2,4.2,0,0,0-1,4.36,2.33,2.33,0,0,0,2.53,1.82,5.82,5.82,0,0,0,4.08-1.54,19.32,19.32,0,0,0,1.55-2.13c.67-.91,1.39-1.77,2.13-2.63L77.82,25a18.27,18.27,0,0,0,1.8-2.13A6.17,6.17,0,0,0,80,18.08a4.16,4.16,0,0,0-7.64-.71C71.92,18.22,73.21,19,73.67,18.13Z"/></g></g><g id="touw-4" data-name="touw"><g id="fill-3" data-name="fill"><path class="cls-1" d="M49.78,14.56c1.53,1.14,3.65,2.88,5.11,4.11a16.59,16.59,0,0,1,2.88,2.86c1.78,2.47,4.27,4.9,5,8,.31,1.23,1.29,3.35-.12,4.21s-3.33-.15-4.3-1.23c-1.43-1.6-2.5-3.54-3.81-5.26-2.29-3-4.09-6.18-6.75-8.86-.8-.81-1.87-2.9-.32-3.65C48.69,14.13,48.76,14.56,49.78,14.56Z"/></g><path class="cls-3" d="M46.75,15.69a9.8,9.8,0,0,1,2.34,1.67c.79.69,1.61,1.33,2.38,2a22.33,22.33,0,0,1,4.16,4.31,8.51,8.51,0,0,0,1.71,2.07,9.48,9.48,0,0,1,1.92,2.08,20.67,20.67,0,0,1,1.65,2.94,20.94,20.94,0,0,1,.67,2.84S63,33.25,63,33.25a22.55,22.55,0,0,0-.67-2.84,20,20,0,0,0-1.65-2.93,9.06,9.06,0,0,0-1.81-2,8.37,8.37,0,0,1-1.82-2.16A22.29,22.29,0,0,0,52.92,19c-.77-.71-1.59-1.36-2.39-2.05a9.52,9.52,0,0,0-2.33-1.66c-.36-.17-1.11.54-1.45.38Z"/><g id="outline-3" data-name="outline"><path class="cls-2" d="M49.4,15.2c1.32,1,2.61,2,3.88,3.1A23.6,23.6,0,0,1,57,21.73c2.06,2.62,4.27,5.11,5.21,8.37.32,1.11,1.16,3.2-.79,3.18-1.74,0-2.95-1.8-3.84-3.06-2.11-3-4.18-6.06-6.37-9-.57-.77-1.17-1.53-1.8-2.26a12.29,12.29,0,0,1-1.56-1.82c-.29-.52-.62-1.27-.07-1.71s1.35-.14,2-.11c1,0,1-1.47,0-1.5a5.69,5.69,0,0,0-1.93-.05,2.52,2.52,0,0,0-1.78,1.48c-.43,1.3.38,2.71,1.22,3.65a104.88,104.88,0,0,1,8.39,11.24c1.11,1.63,2.25,3.47,4.13,4.27,1.42.62,3.52.52,4.17-1.14.55-1.4-.18-3.2-.62-4.54a17.52,17.52,0,0,0-3.2-5.32,33.8,33.8,0,0,0-4.74-5.26c-1.72-1.45-3.46-2.88-5.26-4.23C49.39,13.33,48.64,14.63,49.4,15.2Z"/></g><g id="touw-fill-3" data-name="touw-fill"><path class="cls-1" d="M55.76,17.75a3.39,3.39,0,0,1,4.34-1.64h0c1.51.65,2,1.91,2.11,3.47a4.54,4.54,0,0,1-.3,2.47A10.93,10.93,0,0,1,60,24.5a72.46,72.46,0,0,0-5,6.3,4.59,4.59,0,0,1-4.14,2.06c-1.11.06-1.35-.07-1.89-1.5s.22-2.77,1.71-4.28a19.47,19.47,0,0,0,2.22-3.23,33.51,33.51,0,0,0,1.87-4.29,15.53,15.53,0,0,0,.8-1.44C55.62,18,55.68,17.91,55.76,17.75Z"/></g><path class="cls-3" d="M59.21,16.78c-.06,3.36-2.09,6.75-4,9.42a13.87,13.87,0,0,1-1.74,2.15,4.54,4.54,0,0,1-1.19.85,5.12,5.12,0,0,0-1,.51c-.83.66-1.35,1.71-2.22,2.3.38-.26,1-.12,1.44-.39.88-.59,1.4-1.64,2.23-2.3a4.6,4.6,0,0,1,1-.5,4.68,4.68,0,0,0,1.1-.78,14,14,0,0,0,1.83-2.23c1.89-2.66,3.92-6.06,4-9.42,0,.13-1.45.24-1.45.39Z"/><g id="touw-outline-3" data-name="touw-outline"><path class="cls-2" d="M56.41,18.13a2.68,2.68,0,0,1,3.17-1.41,2.8,2.8,0,0,1,1.88,2.51,4.32,4.32,0,0,1-1.26,4c-1.05,1.12-2,2.34-3,3.51s-2,2.51-2.9,3.82a3.87,3.87,0,0,1-3.06,1.57c-.31,0-.84.14-1.1-.06a2.59,2.59,0,0,1-.58-1.54C49.48,29,51,28,51.78,27a19.37,19.37,0,0,0,2.53-4.21c.35-.8.62-1.62.95-2.42s.79-1.47,1.15-2.22-.88-1.63-1.3-.76-.85,1.52-1.18,2.32-.7,1.91-1.14,2.82a24.87,24.87,0,0,1-1.4,2.39,23.67,23.67,0,0,1-2,2.53,4.2,4.2,0,0,0-1,4.36,2.32,2.32,0,0,0,2.52,1.82A5.84,5.84,0,0,0,55,32.07a19.32,19.32,0,0,0,1.55-2.13c.66-.91,1.39-1.77,2.12-2.63s1.28-1.52,1.92-2.28a18.27,18.27,0,0,0,1.8-2.13,6.12,6.12,0,0,0,.38-4.82,4.15,4.15,0,0,0-7.63-.71C54.65,18.22,56,19,56.41,18.13Z"/></g></g></g><g id="fill-4" data-name="fill"><path class="cls-1" d="M397.08,22.68a69.27,69.27,0,0,0,6-5.42c1.07-1.11,2.62-1.57,3.84-2.49A18.34,18.34,0,0,0,409.69,12c1.68-1.94,4.82-3.71,5.58-6.34.5-1.69-1.1-1.77-2.65-2.06a33.92,33.92,0,0,0-5.7-.39c-4.84-.11-9.76-1-14.56-1.55a25,25,0,0,0-6.11,0c-2.48.35-4.94.25-7.43.49-3.76.36-7.53,1.29-11.31,1.29-4.56,0-8.06,2-11.29,5.11-2.05,2-4,4.11-6,6.19-1.24,1.33-2.89,1.74-4.4,2.74-4.16,2.75-9.34,4.88-14.41,3.89,3.51-.12,7.49.53,11.18.53s7.29-1,11-1c9.19,0,18.25-.64,27.44-.64C386.59,20.26,391.66,22,397.08,22.68Z"/></g><g id="lines"><path class="cls-3" d="M406.06,7.72c-2.88,2-5.69,4.09-8.39,6.31-2.5,2-4.76,4.53-7.52,6.21a6.3,6.3,0,0,1,1.45-.37,5.87,5.87,0,0,0,1.45-.4c2.76-1.69,5-4.17,7.51-6.22C403.27,11,406.08,8.94,409,7a5.61,5.61,0,0,1-1.45.37,5.11,5.11,0,0,0-1.45.4Z"/><path class="cls-3" d="M396.36,6.46a23,23,0,0,0-7.17,5.79,50.28,50.28,0,0,0-5.93,8c.1-.17,1.24-.31,1.45-.37l1-.28c.08,0,.39-.06.43-.12a49.91,49.91,0,0,1,5.93-8,22.78,22.78,0,0,1,7.17-5.78c-.89.41-2,.35-2.9.77Z"/><path class="cls-3" d="M386.36,5.3a46.41,46.41,0,0,0-3.7,3,21,21,0,0,0-3,4.1,27.62,27.62,0,0,0-2.22,3.83,9.58,9.58,0,0,1-2.07,3.51,2,2,0,0,1,.42-.11c.35-.08.69-.17,1-.27l1-.28a1.37,1.37,0,0,0,.42-.12,9.09,9.09,0,0,0,2-3.41,27.91,27.91,0,0,1,2.27-3.92,21.72,21.72,0,0,1,2.88-4,47,47,0,0,1,3.79-3.1,1.55,1.55,0,0,1-.43.1l-1,.27a4.74,4.74,0,0,0-1.45.41Z"/><path class="cls-3" d="M376.37,6.17a23.64,23.64,0,0,0-6.15,6.38,19.72,19.72,0,0,0-2,3.76,17.48,17.48,0,0,1-1.7,4,2.26,2.26,0,0,1,.42-.1l1-.27,1-.28c.09,0,.38-.06.42-.13a16.19,16.19,0,0,0,1.67-3.92,19.14,19.14,0,0,1,2-3.87,23.93,23.93,0,0,1,6.15-6.38,5.8,5.8,0,0,1-1.46.38,5,5,0,0,0-1.44.4Z"/><path class="cls-3" d="M369.46,7a15.9,15.9,0,0,0-3,.69,9.13,9.13,0,0,0-2.28.91,37.49,37.49,0,0,0-4.1,3.25,31.74,31.74,0,0,0-4.4,4c-1.44,1.7-2.7,3.55-4.1,5.29a2.47,2.47,0,0,1,.43-.11l1-.27,1-.28c.09,0,.36-.05.42-.12,1.18-1.46,2.29-3,3.43-4.46a23.62,23.62,0,0,1,3.5-3.57l3.46-2.89A18.05,18.05,0,0,1,366.74,8a9.52,9.52,0,0,1,.87-.52l.49-.23.34-.12c-2.16.46-2.78.65-1.87.57s1.92-.7,2.89-.77Z"/></g><g id="outline-4" data-name="outline"><path class="cls-2" d="M398.14,23.74c1.65-1.33,3.26-2.71,4.78-4.18a15.64,15.64,0,0,1,2-1.84c.75-.49,1.58-.84,2.34-1.33a25.76,25.76,0,0,0,4.05-3.9c1.12-1.11,2.4-2,3.47-3.21s2.15-2.65,2.1-4.24-1.43-2.4-2.86-2.7c-4.1-.86-8.34-.55-12.49-1S392.91-.12,388.6,0c-2.18.07-4.34.41-6.52.5a59,59,0,0,0-6.24.55c-2.22.32-4.44.72-6.68.86a30.32,30.32,0,0,0-5.46.52A19.61,19.61,0,0,0,355,7.69c-1.78,1.72-3.46,3.53-5.14,5.34-1.51,1.62-3.42,2.36-5.26,3.53-3.74,2.38-8.22,4.21-12.73,3.41l-.4,2.94c4-.1,8.06.67,12.1.51,2.07-.09,4.11-.44,6.15-.71a54.94,54.94,0,0,1,6.41-.33c4.41-.06,8.81-.23,13.22-.38s8.8-.42,13.17-.21c4.79.24,9.43,1.67,14.17,2.34a1.57,1.57,0,0,0,1.85-1.05,1.52,1.52,0,0,0-1-1.85c-4.18-.58-8.26-1.69-12.44-2.21-4.37-.54-8.87-.23-13.26-.1s-9,.33-13.45.42c-2.17.05-4.36,0-6.52.15s-4.27.57-6.4.79c-4.66.48-9.29-.49-14-.37-1.62.05-2.13,2.64-.4,2.95a18.77,18.77,0,0,0,10.71-1.42,34.53,34.53,0,0,0,4.86-2.63c1.46-.92,3.11-1.49,4.4-2.67,2.87-2.64,5.15-5.88,8.28-8.25a14.55,14.55,0,0,1,4.13-2.25,17.38,17.38,0,0,1,5-.68c4.1-.15,8.12-1.2,12.23-1.4s8.08-.79,12.14-.34S401,4.39,405,4.64c2,.13,4.12,0,6.16.26a14.91,14.91,0,0,0,2.46.43c.4,0,.16.12.19-.1a2.62,2.62,0,0,1-.41.88c-.88,1.49-2.41,2.54-3.66,3.69s-2.45,3-4.06,4c-.75.49-1.58.84-2.33,1.33a14.85,14.85,0,0,0-2.27,2c-1.62,1.58-3.34,3.07-5.1,4.49C394.52,22.83,396.65,24.94,398.14,23.74Z"/></g><g id="fill-5" data-name="fill"><path class="cls-1" d="M396.06,27.76a64.15,64.15,0,0,0,7.67,4.54c1.15.57,2.39.79,3.55,1.29,1.37.61,2.53,1.55,3.94,2.11a37.48,37.48,0,0,1,6.66,3.12c.74.48,2.09.87,2.33,1.77s-.49,1.33-1.3,1.49a87,87,0,0,1-17.13,1.65c-5.08,0-10.15-.1-15.22-.1-3.46,0-6.86.39-10.28-.12a51.12,51.12,0,0,0-7.73-.17c-2.86,0-6.18.43-8.93-.42a3.47,3.47,0,0,1-1.6-1,23.06,23.06,0,0,0-4.46-3.06c-3.18-1.77-6.14-3.92-9.45-5.47a28.11,28.11,0,0,0-6.43-2.15c-1.49-.29-3-.33-4.48-.7,2.5-.47,5.28.43,7.84.33a75.67,75.67,0,0,0,9.51-1c6.92-1.18,14.09-.74,21.08-1a111.84,111.84,0,0,0,15.2-1.41c1.47-.25,3-.06,4.44-.24S394.71,27.76,396.06,27.76Z"/></g><g id="lines-2" data-name="lines"><path class="cls-3" d="M409.84,39.42c-3.79-1.25-7.78-1.87-11.45-3.48s-6.15-4.58-9.17-7.09c-.14-.11-1.27.32-1.46.37s-1.31.51-1.44.4c3,2.51,5.49,5.48,9.17,7.1s7.67,2.23,11.45,3.48c.31.09,1.15-.3,1.46-.38s1.14-.5,1.44-.4Z"/><path class="cls-3" d="M395,40.14a18.08,18.08,0,0,0-5-2.79,34.3,34.3,0,0,1-5.35-2.77c-1.28-.81-2.55-1.66-3.8-2.52-1-.67-2.43-1.6-2.61-2.9,0,.1-2.92.63-2.9.77.18,1.31,1.62,2.24,2.61,2.91,1.26.85,2.52,1.71,3.8,2.52a34.27,34.27,0,0,0,5.35,2.76,18.11,18.11,0,0,1,5,2.8c.13.11,1.28-.32,1.46-.37s1.32-.51,1.44-.41Z"/><path class="cls-3" d="M382.48,40.77c-5.48-2.93-12.82-5.23-15-11.72,0-.08-2.88.82-2.9.78,2.21,6.49,9.55,8.79,15,11.71.22.12,1.21-.31,1.45-.37l1-.28c.07,0,.37-.15.42-.12Z"/><path class="cls-3" d="M370.25,39.73c-3.53,0-6.67-1.33-9.72-3A23.31,23.31,0,0,1,356.39,34a11.26,11.26,0,0,1-3.14-3.59c-.08-.17-2.84.91-2.9.78a11,11,0,0,0,3,3.51,24.07,24.07,0,0,0,4.23,2.84c3.06,1.64,6.2,2.95,9.72,3a6.2,6.2,0,0,0,1.45-.38,7,7,0,0,1,1.45-.4Z"/></g><g id="outline-5" data-name="outline"><path class="cls-2" d="M395.31,29.05c2.9,1.91,5.89,4,9.19,5.17a19.24,19.24,0,0,1,2.57.94c.78.39,1.51.89,2.29,1.31,1.57.84,3.31,1.36,4.92,2.11a23.87,23.87,0,0,1,2.3,1.2,7.14,7.14,0,0,0,1.9,1.06c.06,0,.22.18.27.16s.24-.49.23-.5-.91.22-.94.23c-1,.2-2.05.37-3.07.53a84.83,84.83,0,0,1-12.23,1c-4.08,0-8.17,0-12.25-.07s-8.37.35-12.5,0c-2-.15-4-.43-6.05-.41s-3.81,0-5.71.12a21.16,21.16,0,0,1-5.62-.26c-1.49-.36-2.55-1.75-3.8-2.6-1.68-1.15-3.5-2.07-5.23-3.14s-3.6-2.26-5.49-3.24a32.1,32.1,0,0,0-6-2.43c-2.13-.6-4.32-.69-6.47-1.18V32c2-.31,4,.19,5.93.34a36,36,0,0,0,6.05-.28c4.3-.42,8.52-1.25,12.85-1.43,8.45-.34,16.87,0,25.28-1.15,1.18-.16,2.35-.38,3.53-.53s2.25-.06,3.38-.14c1.88-.12,3.59.43,5.45.5s1.93-2.94,0-3c-1.56-.06-3.07-.65-4.64-.57a56.34,56.34,0,0,0-5.95.47,106.47,106.47,0,0,1-12.87,1.16c-4.33.18-8.66.09-13,.22s-8.55.85-12.86,1.35a39.83,39.83,0,0,1-7.24.4c-2.28-.17-4.44-.6-6.72-.24-1.48.24-1.38,2.59,0,2.9,2,.45,4,.53,6,1.06a27.92,27.92,0,0,1,5.95,2.35c1.81,1,3.54,2.06,5.28,3.13s3.43,1.93,5.06,3c1.39.92,2.48,2.32,4.1,2.85a17.86,17.86,0,0,0,5.92.56l6.08-.14a62,62,0,0,1,6.53.39,60,60,0,0,0,6.84,0c2.21-.06,4.42,0,6.63,0,4.48,0,9,.17,13.45,0a89.45,89.45,0,0,0,12.75-1.31c1.5-.26,3.57-.4,4.18-2.09s-.65-3-2-3.77c-1.77-1-3.48-1.94-5.34-2.73-1.05-.44-2.16-.8-3.17-1.32s-1.73-1-2.65-1.5c-1.92-.94-4-1.43-5.85-2.46s-3.85-2.31-5.73-3.55C395.2,25.4,393.7,28,395.31,29.05Z"/></g></g></g></g></svg>