<svg xmlns="http://www.w3.org/2000/svg" viewBox="0 0 421.73 45.24"><defs><style>.cls-1{fill:#09edf6;}.cls-2{fill:#fff;}.cls-3{fill:#043c7a;}</style></defs><g id="Layer_2" data-name="Layer 2"><g id="players"><g id="arrow"><g id="start-fill"><path class="cls-1" d="M373,3.35c-3.2,4.4,2.24,10.19,4.37,13.85,1,1.74,2.67,3.68,3.08,5.72.54,2.65-1.57,4.61-2.61,6.88-.72,1.57-2,3.36-2.73,4.94-.76,1.74-1.95,3.39-2.4,5.27-.11.51-.54,2.88-.08,3.28,1.06,1,6-2.35,6.94-2.88a96.26,96.26,0,0,1,12.2-5.69c4.42-1.82,8.71-3.93,13.15-5.67,4.87-1.92,9.82-4.14,14.8-5.49a.77.77,0,0,0,.14-1.42,129.86,129.86,0,0,0-17.23-7.32c-3.19-1.08-6.13-1.75-9.1-3.37-1.75-1-3.62-1.33-5.41-2.15S385,8.07,383.41,7.17A29.81,29.81,0,0,0,378,4.71,28.86,28.86,0,0,0,373,3.35Z"/></g><g id="start-outline"><path class="cls-2" d="M371.67,2.59c-2.7,4-.15,8.54,2.15,12q1.92,2.86,3.76,5.77a7.07,7.07,0,0,1,1.43,3.3A6.3,6.3,0,0,1,377.68,27c-.62,1-1.13,2.06-1.7,3.09-.66,1.19-1.44,2.33-2,3.56-1,2.13-2.43,4.23-2.83,6.59-.26,1.53-.69,4.05,1.29,4.63,1.57.46,3.4-.58,4.73-1.29s2.6-1.56,3.93-2.31a80,80,0,0,1,8.2-3.91c5.65-2.37,11.22-4.94,16.9-7.21,2.83-1.13,5.64-2.32,8.5-3.37,1.49-.55,3-1.06,4.51-1.51,1.24-.36,2.4-.77,2.54-2.24a2.43,2.43,0,0,0-1.54-2.39c-1.43-.79-2.94-1.45-4.42-2.14q-4.12-1.9-8.37-3.53c-3.11-1.19-6.29-2.12-9.43-3.21-1.58-.55-3-1.31-4.52-2S390.35,8.66,388.85,8s-2.9-1.19-4.28-1.91-2.78-1.5-4.25-2.12A23.48,23.48,0,0,0,373,1.85c-1.93-.09-1.93,2.91,0,3a11.44,11.44,0,0,1,2.62.66c1.06.34,2.14.64,3.18,1,2.39.93,4.56,2.32,6.92,3.32s5,1.78,7.26,3a44,44,0,0,0,7.11,2.73,117.92,117.92,0,0,1,15.46,6.1l1.89.92c.28.14,1.44.94,1.67.84l-.24-1.2-.46.13a4.86,4.86,0,0,0-1.13.34c-.75.24-1.5.5-2.25.76-2.65.94-5.25,2-7.85,3.06-5.24,2.13-10.37,4.48-15.58,6.65a91.65,91.65,0,0,0-13.23,6.21,31.08,31.08,0,0,1-3.95,2.2c-.2.09-1.28.34-1.3.37-.19.31,1.76-.27.81.67,0,0,0-.32,0-.39A12,12,0,0,0,374,41c.35-2.1,1.6-4,2.53-5.86.54-1.11,1.22-2.14,1.83-3.21s1-2,1.61-3c1.3-2.13,2.49-4.26,1.8-6.83-.65-2.41-2.4-4.59-3.74-6.66-1.93-3-6.3-7.68-3.78-11.37C375.36,2.51,372.76,1,371.67,2.59Z"/></g><g id="stok-fill"><path class="cls-3" d="M27.7,20.62c-1.69.73-2.12,3-1.65,4.78.7,2.62,1.59,2.09,4.56,2.11,4.39,0,8.8-.15,13.19,0,7.64.27,15.18,1.68,22.76,1.81,8.07.14,15.85-.35,23.68.37,9.88.9,19.79,1,29.74,1,19.9,0,39.73.91,59.56-.41,4.94-.33,9.92.72,14.88.72,6.44,0,12.81-.68,19.18-.39,12,.55,23.88-.78,35.81-.63,13,.17,25.83-1.77,38.93-1.77,12.93,0,25.92.29,38.83-.35,13.07-.64,26.24-.3,39.29.37,3.17.16,9.31.49,12.12-1.1,4-2.23,3.05-7.52-1.5-8.8-4.14-1.16-9.8-.17-14.1-.68a76.6,76.6,0,0,0-15.66-.09c-9.92.86-19.93.17-29.82,1.05a132.08,132.08,0,0,1-16.69.43,126.74,126.74,0,0,0-14.17.28,318.41,318.41,0,0,1-41.11.44,206.86,206.86,0,0,0-24.76.63c-9,.6-17.39.22-26.58.58-4,.16-7.83.46-11.81.45s-6.13-.63-9.89-.4c-3.12.19-7.7,1.08-11,1.11-4.65.05-9.95.08-14.07.25-9.91.4-19.89-.72-30.46-.23-8.81.41-18.23-.53-26.55-.36-8.78.19-17.55.92-26.27.13-7.58-.68-15.2-1.08-22.8-1.16C37.6,20.73,29.73,19.6,27.7,20.62Z"/></g><g id="stok-outline"><path class="cls-2" d="M26.94,19.32c-3,1.59-3.76,7.42-.55,9.27,1.52.88,3.95.43,5.61.42,3.24,0,6.48-.1,9.72-.05,6.31.09,12.55,1,18.83,1.53s12.4.31,18.61.3c6.37,0,12.66.63,19,1s12.92.43,19.38.45c13,0,25.93.35,38.89.3,6.54,0,13.07-.15,19.6-.5a72.93,72.93,0,0,1,9.58-.09c3.16.25,6.31.61,9.49.6,6.4,0,12.77-.6,19.18-.36s12.87,0,19.3-.28,12.58-.31,18.89-.38,12.72-.57,19.07-1c12.89-.91,25.74-.63,38.64-.69s25.56-.92,38.36-.69c6.22.11,12.44.38,18.66.69,3.92.18,9.06.68,12.51-1.57A6.07,6.07,0,0,0,381,19c-3.14-3.53-9-2.8-13.25-2.73-2.86.05-5.64-.3-8.48-.47a78.19,78.19,0,0,0-9.56.06c-6.47.41-12.89.65-19.37.72s-12.75.67-19.13.92c-6.16.25-12.3-.18-18.45,0s-12.54.8-18.81,1-12.66.25-19,.1-12.69-.63-19.05-.5-12.76.72-19.15,1c-6,.23-12.09.13-18.13.24s-12.33.87-18.47.51a61.17,61.17,0,0,0-7.89-.31c-2.61.18-5.19.64-7.78.9-5.53.56-11.17.23-16.72.43-6,.22-11.94,0-17.91-.22-6.24-.19-12.46.14-18.7.1-6.07,0-12.14-.46-18.22-.48-6.36,0-12.71.47-19.07.51S61,20.09,54.53,19.72c-5.6-.32-11.23-.24-16.82-.65-3.34-.25-7.58-1.13-10.77.25-1.76.77-.24,3.35,1.52,2.59,1.29-.56,3.37-.22,4.72-.15,2.1.1,4.2.31,6.31.43,5.58.34,11.18.28,16.76.63,6.11.39,12.16,1,18.29,1s12.25-.51,18.38-.5c5.75,0,11.49.39,17.23.47,6,.08,12-.29,18-.14,11.29.29,22.56.41,33.86,0,5-.17,9.79-1.42,14.8-1a136.68,136.68,0,0,0,16.69-.09c6-.26,12-.18,17.93-.27s11.94-.56,17.92-.86c12.15-.62,24.26.45,36.41.34s24-1.46,36.07-1.14c6.06.16,12-.25,18.06-.64s12.26-.3,18.38-.43,12.14-.9,18.22-.78c2.89.05,5.74.49,8.62.57,2.62.08,5.25-.13,7.88,0,2.07.09,4.8.24,6.06,2.17a3,3,0,0,1-.88,4.16c-1.64,1.18-4.12,1.2-6.05,1.25-2.13.06-4.25-.05-6.37-.16-12.29-.61-24.6-.93-36.89-.41s-24.72.47-37.09.44c-12.13,0-24.14,1.33-36.25,1.7-6.18.19-12.35.05-18.52.3s-12.16.56-18.25.52-12.32-.13-18.51.12a85.24,85.24,0,0,1-8.9,0c-3-.2-6.08-.61-9.13-.67-6.24-.11-12.55.6-18.8.71s-12.37.08-18.55,0c-12.46-.13-24.93-.09-37.38-.36-6.11-.13-12.19-.51-18.28-1S77.1,27.82,71,27.85a163.46,163.46,0,0,1-17.83-1.1A159.65,159.65,0,0,0,34.78,26c-1.39,0-2.78,0-4.17,0a8.26,8.26,0,0,1-2.53,0c-1.32-.56-.76-3.5.38-4.11C30.16,21,28.65,18.41,26.94,19.32Z"/></g><g id="touw"><g id="touw-2" data-name="touw"><g id="fill"><path class="cls-1" d="M337.43,14.52c-1.54,1.15-3.66,2.89-5.12,4.12a15.86,15.86,0,0,0-2.87,2.86c-1.79,2.47-4.28,4.9-5,8-.3,1.23-1.28,3.35.13,4.2s3.32-.14,4.29-1.22c1.44-1.6,2.51-3.55,3.82-5.26,2.28-3,4.09-6.18,6.75-8.87.8-.8,1.86-2.89.32-3.64C338.52,14.1,338.44,14.52,337.43,14.52Z"/></g><path class="cls-3" d="M339,15.66a9.61,9.61,0,0,0-2.34,1.67c-.79.68-1.61,1.33-2.38,2a22,22,0,0,0-4.16,4.31,8.74,8.74,0,0,1-1.72,2.07,9.73,9.73,0,0,0-1.92,2.08,22.14,22.14,0,0,0-1.64,2.93,21.33,21.33,0,0,0-.68,2.84c.07-.23,1.38-.13,1.45-.38a21.11,21.11,0,0,1,.68-2.85,21.07,21.07,0,0,1,1.64-2.93,8.84,8.84,0,0,1,1.82-2,8.78,8.78,0,0,0,1.82-2.16A22,22,0,0,1,335.74,19c.77-.71,1.59-1.36,2.38-2a9.42,9.42,0,0,1,2.34-1.67c-.45.2-1,.19-1.45.39Z"/><g id="outline"><path class="cls-2" d="M337.05,13.87c-1.66,1.25-3.27,2.56-4.85,3.89-.74.62-1.49,1.23-2.17,1.9a28.76,28.76,0,0,0-2,2.5,28.28,28.28,0,0,0-3.63,5.21A12.48,12.48,0,0,0,323,32.18a2.6,2.6,0,0,0,3.12,2.53c2-.22,3.28-1.72,4.38-3.21,2.77-3.75,5.17-7.85,8.22-11.39,1.09-1.26,2.76-2.64,2.45-4.53a2.16,2.16,0,0,0-1.42-1.68,4.72,4.72,0,0,0-2.36-.13c-1,0-1,1.54,0,1.5a5.28,5.28,0,0,1,1.53-.09c.78.19.9.72.65,1.41a4.35,4.35,0,0,1-1,1.45c-.66.7-1.29,1.43-1.88,2.18-2.22,2.84-4.31,5.85-6.32,8.84-.93,1.38-1.89,3.09-3.44,3.86-.62.31-1.62.57-2.18,0s-.21-1.38-.05-2a15.19,15.19,0,0,1,1.65-4.17,51.43,51.43,0,0,1,3.09-4.12,41.81,41.81,0,0,1,8.31-7.5C338.57,14.6,337.82,13.29,337.05,13.87Z"/></g><g id="touw-fill"><path class="cls-1" d="M331.45,17.72a3.4,3.4,0,0,0-4.35-1.64h0c-1.52.65-2,1.91-2.12,3.47a4.49,4.49,0,0,0,.31,2.46,10.49,10.49,0,0,0,1.92,2.45,74.26,74.26,0,0,1,5,6.29c1,1.57,2.37,2,4.13,2.07,1.11.06,1.35-.08,1.9-1.51s-.22-2.76-1.71-4.27a19.36,19.36,0,0,1-2.22-3.24,32.82,32.82,0,0,1-1.88-4.28c-.23-.51-.61-.91-.8-1.45A2.24,2.24,0,0,0,331.45,17.72Z"/></g><path class="cls-3" d="M326.55,16.75c.05,3.36,2.08,6.75,4,9.42a14.81,14.81,0,0,0,1.73,2.15,4.84,4.84,0,0,0,1.2.85,4.86,4.86,0,0,1,1,.51c.82.66,1.34,1.7,2.22,2.3.28.19,1.19-.57,1.45-.39-.88-.59-1.39-1.65-2.22-2.3a5.72,5.72,0,0,0-1-.51A4.69,4.69,0,0,1,333.8,28,13.44,13.44,0,0,1,332,25.78c-1.9-2.67-3.93-6.06-4-9.42,0,.11-1.45.26-1.44.39Z"/><g id="touw-outline"><path class="cls-2" d="M332.09,17.34c-1.47-2.74-5.66-3.12-7.24-.24a6.47,6.47,0,0,0-.5,4.61c.52,1.75,2.1,3.08,3.25,4.43,1.37,1.63,2.73,3.24,3.94,5a5.19,5.19,0,0,0,3.66,2.33c1.18.18,2.51.33,3.23-.82a4,4,0,0,0,.13-4.25,18.13,18.13,0,0,0-1.9-2.3,22.42,22.42,0,0,1-1.87-2.9,23.08,23.08,0,0,1-1.33-3.11c-.39-1-.92-1.83-1.37-2.75s-1.71-.11-1.29.75c.3.63.66,1.2,1,1.82s.59,1.51.89,2.26A22.49,22.49,0,0,0,334.75,26c.8,1.25,2.19,2.22,2.74,3.62.26.66.15,2.24-.66,2.48a4.26,4.26,0,0,1-1.66-.14,3.64,3.64,0,0,1-1.63-.75,7.67,7.67,0,0,1-1.21-1.56c-.46-.67-1-1.31-1.47-1.94-1-1.27-2.1-2.51-3.15-3.76s-2-2-2-3.59c0-1.34.26-2.86,1.57-3.51a2.69,2.69,0,0,1,3.57,1.25C331.26,18.94,332.55,18.19,332.09,17.34Z"/></g></g><g id="touw-3" data-name="touw"><g id="fill-2" data-name="fill"><path class="cls-1" d="M354.69,14.52c-1.53,1.15-3.66,2.89-5.11,4.12a15.91,15.91,0,0,0-2.88,2.86c-1.78,2.47-4.28,4.9-5,8-.3,1.23-1.28,3.35.13,4.2s3.33-.14,4.3-1.22c1.43-1.6,2.5-3.55,3.81-5.26,2.28-3,4.09-6.18,6.75-8.87.8-.8,1.87-2.89.32-3.64C355.78,14.1,355.7,14.52,354.69,14.52Z"/></g><path class="cls-3" d="M356.27,15.66a9.8,9.8,0,0,0-2.34,1.67c-.79.68-1.61,1.33-2.38,2a22.33,22.33,0,0,0-4.16,4.31,8.7,8.7,0,0,1-1.71,2.07,9.48,9.48,0,0,0-1.92,2.08,21.13,21.13,0,0,0-1.65,2.93,19.85,19.85,0,0,0-.67,2.84c.06-.23,1.37-.13,1.45-.38a19.67,19.67,0,0,1,.67-2.85,21.07,21.07,0,0,1,1.64-2.93,9.08,9.08,0,0,1,1.82-2,8.78,8.78,0,0,0,1.82-2.16A22.33,22.33,0,0,1,353,19c.77-.71,1.59-1.36,2.38-2a9.61,9.61,0,0,1,2.34-1.67c-.45.2-1,.19-1.45.39Z"/><g id="outline-2" data-name="outline"><path class="cls-2" d="M354.31,13.87c-1.66,1.25-3.26,2.56-4.85,3.89-.74.62-1.48,1.23-2.16,1.9a27.13,27.13,0,0,0-2,2.5,28.77,28.77,0,0,0-3.63,5.21,12.48,12.48,0,0,0-1.33,4.81,2.61,2.61,0,0,0,3.13,2.53c2-.22,3.27-1.72,4.37-3.21,2.78-3.75,5.18-7.85,8.23-11.39,1.08-1.26,2.75-2.64,2.45-4.53a2.19,2.19,0,0,0-1.43-1.68,4.72,4.72,0,0,0-2.36-.13c-1,0-1,1.54,0,1.5a5.28,5.28,0,0,1,1.53-.09c.78.19.9.72.66,1.41a4.24,4.24,0,0,1-1,1.45c-.66.7-1.28,1.43-1.88,2.18-2.21,2.84-4.3,5.85-6.32,8.84-.93,1.38-1.89,3.09-3.44,3.86-.61.31-1.62.57-2.18,0s-.21-1.38-.05-2a15.21,15.21,0,0,1,1.66-4.17,51.43,51.43,0,0,1,3.09-4.12,41.81,41.81,0,0,1,8.31-7.5C355.83,14.6,355.08,13.29,354.31,13.87Z"/></g><g id="touw-fill-2" data-name="touw-fill"><path class="cls-1" d="M348.71,17.72a3.39,3.39,0,0,0-4.35-1.64h0c-1.52.65-2,1.91-2.12,3.47a4.49,4.49,0,0,0,.31,2.46,10.76,10.76,0,0,0,1.92,2.45,74.26,74.26,0,0,1,5,6.29c1,1.57,2.37,2,4.13,2.07,1.11.06,1.35-.08,1.9-1.51s-.22-2.76-1.71-4.27a20,20,0,0,1-2.22-3.24,32.77,32.77,0,0,1-1.87-4.28,13.65,13.65,0,0,1-.8-1.45C348.85,18,348.79,17.88,348.71,17.72Z"/></g><path class="cls-3" d="M343.81,16.75c.06,3.36,2.09,6.75,4,9.42a14.88,14.88,0,0,0,1.74,2.15,4.78,4.78,0,0,0,1.19.85,4.63,4.63,0,0,1,1,.51c.83.66,1.35,1.7,2.22,2.3.28.19,1.19-.57,1.45-.39-.87-.59-1.39-1.65-2.22-2.3a5.12,5.12,0,0,0-1-.51,4.44,4.44,0,0,1-1.1-.77,13.49,13.49,0,0,1-1.83-2.23c-1.9-2.67-3.92-6.06-4-9.42,0,.11-1.45.26-1.45.39Z"/><g id="touw-outline-2" data-name="touw-outline"><path class="cls-2" d="M349.36,17.34c-1.48-2.74-5.67-3.12-7.25-.24a6.52,6.52,0,0,0-.49,4.61c.51,1.75,2.1,3.08,3.24,4.43a63.16,63.16,0,0,1,3.94,5,5.21,5.21,0,0,0,3.66,2.33c1.18.18,2.52.33,3.23-.82a4,4,0,0,0,.13-4.25,17.32,17.32,0,0,0-1.9-2.3,21.35,21.35,0,0,1-1.86-2.9,21.92,21.92,0,0,1-1.34-3.11c-.38-1-.92-1.83-1.36-2.75s-1.71-.11-1.3.75c.3.63.67,1.2,1,1.82s.59,1.51.89,2.26A22.49,22.49,0,0,0,352,26c.81,1.25,2.19,2.22,2.74,3.62.26.66.16,2.24-.65,2.48a4.3,4.3,0,0,1-1.67-.14,3.64,3.64,0,0,1-1.63-.75,7.29,7.29,0,0,1-1.2-1.56c-.47-.67-1-1.31-1.47-1.94-1-1.27-2.11-2.51-3.16-3.76s-2-2-2.05-3.59c0-1.34.26-2.86,1.57-3.51a2.69,2.69,0,0,1,3.57,1.25C348.52,18.94,349.82,18.19,349.36,17.34Z"/></g></g><g id="touw-4" data-name="touw"><g id="fill-3" data-name="fill"><path class="cls-1" d="M372,14.52c-1.53,1.15-3.65,2.89-5.11,4.12A15.86,15.86,0,0,0,364,21.5c-1.79,2.47-4.28,4.9-5,8-.31,1.23-1.29,3.35.13,4.2s3.32-.14,4.29-1.22c1.43-1.6,2.51-3.55,3.82-5.26,2.28-3,4.08-6.18,6.75-8.87.79-.8,1.86-2.89.32-3.64C373.05,14.1,373,14.52,372,14.52Z"/></g><path class="cls-3" d="M373.53,15.66a9.56,9.56,0,0,0-2.33,1.67c-.79.68-1.61,1.33-2.39,2a22.28,22.28,0,0,0-4.15,4.31,8.74,8.74,0,0,1-1.72,2.07A9.73,9.73,0,0,0,361,27.83a21.13,21.13,0,0,0-1.65,2.93,23,23,0,0,0-.67,2.84c.07-.23,1.38-.13,1.45-.38a22.7,22.7,0,0,1,.67-2.85,21.13,21.13,0,0,1,1.65-2.93,8.61,8.61,0,0,1,1.82-2,8.53,8.53,0,0,0,1.81-2.16A22.63,22.63,0,0,1,370.26,19c.78-.71,1.6-1.36,2.39-2A9.56,9.56,0,0,1,375,15.27c-.44.2-1,.19-1.45.39Z"/><g id="outline-3" data-name="outline"><path class="cls-2" d="M371.57,13.87c-1.65,1.25-3.26,2.56-4.85,3.89-.73.62-1.48,1.23-2.16,1.9a25.48,25.48,0,0,0-2,2.5,27.8,27.8,0,0,0-3.63,5.21,12.5,12.5,0,0,0-1.34,4.81,2.61,2.61,0,0,0,3.13,2.53c2-.22,3.27-1.72,4.37-3.21,2.78-3.75,5.18-7.85,8.23-11.39,1.09-1.26,2.76-2.64,2.45-4.53a2.16,2.16,0,0,0-1.42-1.68,4.76,4.76,0,0,0-2.37-.13c-1,0-1,1.54,0,1.5a5.33,5.33,0,0,1,1.54-.09c.78.19.9.72.65,1.41a4.35,4.35,0,0,1-1,1.45c-.67.7-1.29,1.43-1.88,2.18-2.22,2.84-4.31,5.85-6.33,8.84-.93,1.38-1.89,3.09-3.44,3.86-.61.31-1.61.57-2.17,0s-.21-1.38-.05-2a15.19,15.19,0,0,1,1.65-4.17A51.43,51.43,0,0,1,364,22.67a41.81,41.81,0,0,1,8.31-7.5C373.09,14.6,372.35,13.29,371.57,13.87Z"/></g><g id="touw-fill-3" data-name="touw-fill"><path class="cls-1" d="M366,17.72a3.39,3.39,0,0,0-4.34-1.64h0c-1.51.65-2,1.91-2.11,3.47a4.4,4.4,0,0,0,.31,2.46,10.45,10.45,0,0,0,1.91,2.45,72.32,72.32,0,0,1,5,6.29,4.62,4.62,0,0,0,4.14,2.07c1.11.06,1.35-.08,1.89-1.51s-.21-2.76-1.71-4.27a19.31,19.31,0,0,1-2.21-3.24,32.82,32.82,0,0,1-1.88-4.28,15.7,15.7,0,0,1-.8-1.45C366.11,18,366.05,17.88,366,17.72Z"/></g><path class="cls-3" d="M361.07,16.75c.06,3.36,2.09,6.75,4,9.42a15.58,15.58,0,0,0,1.74,2.15,4.84,4.84,0,0,0,1.2.85,5.12,5.12,0,0,1,1,.51c.82.66,1.34,1.7,2.22,2.3.28.19,1.18-.57,1.45-.39-.88-.59-1.4-1.65-2.22-2.3a5.49,5.49,0,0,0-1-.51,4.64,4.64,0,0,1-1.1-.77,14,14,0,0,1-1.83-2.23c-1.89-2.67-3.92-6.06-4-9.42,0,.11-1.45.26-1.45.39Z"/><g id="touw-outline-3" data-name="touw-outline"><path class="cls-2" d="M366.62,17.34c-1.47-2.74-5.67-3.12-7.25-.24a6.52,6.52,0,0,0-.49,4.61c.51,1.75,2.1,3.08,3.24,4.43a63.29,63.29,0,0,1,3.95,5,5.17,5.17,0,0,0,3.66,2.33c1.18.18,2.51.33,3.23-.82a4,4,0,0,0,.13-4.25,18.13,18.13,0,0,0-1.9-2.3,21.41,21.41,0,0,1-1.87-2.9A24.49,24.49,0,0,1,368,20.09c-.38-1-.92-1.83-1.36-2.75s-1.71-.11-1.29.75c.29.63.66,1.2,1,1.82s.6,1.51.9,2.26A22.44,22.44,0,0,0,369.27,26c.81,1.25,2.2,2.22,2.75,3.62.26.66.15,2.24-.66,2.48a4.31,4.31,0,0,1-1.67-.14,3.6,3.6,0,0,1-1.62-.75,7.67,7.67,0,0,1-1.21-1.56c-.46-.67-1-1.31-1.47-1.94-1-1.27-2.1-2.51-3.15-3.76s-2.05-2-2.06-3.59c0-1.34.26-2.86,1.57-3.51a2.7,2.7,0,0,1,3.58,1.25C365.78,18.94,367.08,18.19,366.62,17.34Z"/></g></g></g><g id="fill-4" data-name="fill"><path class="cls-1" d="M24.65,22.65a66.29,66.29,0,0,1-6-5.43c-1.08-1.11-2.63-1.56-3.85-2.48A18.34,18.34,0,0,1,12,12C10.37,10,7.22,8.26,6.46,5.64,6,4,7.56,3.87,9.11,3.57a33.92,33.92,0,0,1,5.7-.38c4.84-.12,9.76-1,14.56-1.55a25,25,0,0,1,6.11,0c2.48.35,4.94.25,7.43.49,3.77.35,7.53,1.29,11.31,1.29,4.56,0,8.06,2,11.29,5.11,2.06,2,4,4.11,6,6.19,1.24,1.33,2.88,1.73,4.39,2.73,4.17,2.76,9.34,4.89,14.41,3.9-3.51-.12-7.49.52-11.17.52s-7.3-1-11-1c-9.19,0-18.25-.64-27.44-.64C35.14,20.23,30.07,21.92,24.65,22.65Z"/></g><g id="lines"><path class="cls-3" d="M12.77,7.69c2.88,2,5.69,4.09,8.4,6.31,2.49,2,4.76,4.52,7.52,6.21.19.12,1.23-.31,1.45-.37l1-.28a2.19,2.19,0,0,1,.42-.13c-2.76-1.68-5-4.17-7.51-6.21-2.71-2.22-5.52-4.31-8.4-6.31-.17-.11-1.25.32-1.46.38s-1.27.52-1.44.4Z"/><path class="cls-3" d="M22.47,6.43a22.7,22.7,0,0,1,7.17,5.79,49.73,49.73,0,0,1,5.94,8A10,10,0,0,0,37,19.84c.12,0,1.42-.45,1.44-.41a50.28,50.28,0,0,0-5.93-8,23,23,0,0,0-7.17-5.79,2.06,2.06,0,0,0-.43.11q-.51.12-1,.27l-1,.27a1.6,1.6,0,0,1-.43.13Z"/><path class="cls-3" d="M32.47,5.26c1.24,1,2.56,1.91,3.71,3a22,22,0,0,1,3,4.11,28.67,28.67,0,0,1,2.22,3.83,9.19,9.19,0,0,0,2.07,3.5c.12.11,1.27-.32,1.45-.37s1.33-.51,1.44-.4a9.28,9.28,0,0,1-2-3.41A30.13,30.13,0,0,0,42,11.61a22,22,0,0,0-2.88-4,47,47,0,0,0-3.79-3.1c-.14-.11-1.27.32-1.45.37s-1.31.51-1.45.4Z"/><path class="cls-3" d="M42.47,6.14a23.75,23.75,0,0,1,6.14,6.38,19.76,19.76,0,0,1,2,3.76,17.05,17.05,0,0,0,1.7,4,7.62,7.62,0,0,0,1.45-.38,10,10,0,0,1,1.45-.4,16.36,16.36,0,0,1-1.67-3.92,19.39,19.39,0,0,0-2-3.87,23.78,23.78,0,0,0-6.15-6.38c-.16-.11-1.24.32-1.45.37l-1,.28a2.19,2.19,0,0,1-.42.13Z"/><path class="cls-3" d="M52.27,7.69a7.63,7.63,0,0,1,4,2c1.21,1,2.39,2,3.59,3a24.82,24.82,0,0,1,3.72,3.67c1.21,1.56,2.37,3.15,3.6,4.68a7,7,0,0,0,1.46-.37,7.68,7.68,0,0,1,1.44-.4c-1.23-1.54-2.39-3.13-3.61-4.68A23.91,23.91,0,0,0,62.79,12c-1.2-1-2.38-2-3.59-3a7.7,7.7,0,0,0-4-2,5.42,5.42,0,0,0-1.46.38,5.33,5.33,0,0,1-1.44.4Z"/></g><g id="outline-4" data-name="outline"><path class="cls-2" d="M25.71,21.59c-1.53-1.24-3-2.52-4.45-3.87a19.57,19.57,0,0,0-4.08-3.29,15,15,0,0,1-4.08-3.52c-1-1.1-2.18-2-3.26-3A8.57,8.57,0,0,1,8.38,6.22C8.21,6,8.12,5.65,8,5.4s-.17,0,0-.06a19.51,19.51,0,0,1,5.44-.62A111.69,111.69,0,0,0,25.63,3.6,56.66,56.66,0,0,1,31.71,3c2.06-.06,4,.29,6.09.41s4,.13,6.05.37,4.08.61,6.12.87c3.55.46,7,.08,10.29,1.83s5.72,4.62,8.2,7.26a17.35,17.35,0,0,0,4.87,4.08c1.8.92,3.44,2.1,5.26,3a19.58,19.58,0,0,0,12.08,2c1.71-.31,1.23-2.91-.4-2.95-4.12-.11-8.22.7-12.33.49-2.08-.1-4.12-.47-6.18-.72a61.24,61.24,0,0,0-6.64-.31c-4.49-.07-9-.25-13.46-.4a121.55,121.55,0,0,0-13.36-.12c-4.75.38-9.34,1.72-14,2.38-1.9.27-1.09,3.16.8,2.89,4.13-.58,8.18-1.74,12.33-2.18a94.87,94.87,0,0,1,13.06,0c4.4.13,8.8.31,13.21.41,2.17,0,4.35,0,6.51.15s4.1.56,6.17.78c4.65.48,9.28-.49,13.94-.37l-.4-2.94c-3.93.69-7.88-.63-11.28-2.54-1.65-.93-3.34-1.86-5-2.83s-3-2.94-4.37-4.37c-2.59-2.71-5.3-5.44-8.8-6.95S53,2.07,49.19,1.52C47.1,1.22,45,.85,42.91.66S38.57.5,36.41.28A34.46,34.46,0,0,0,29.83.09c-2.11.2-4.21.51-6.31.79s-4.39.57-6.6.71-4.27,0-6.39.27C9.07,2,6.92,2.11,5.75,3.15s-.94,2.69-.29,4a13.82,13.82,0,0,0,3.59,4c1.49,1.31,2.67,2.91,4.17,4.2s3.48,2,5,3.51a68.56,68.56,0,0,0,5.41,4.81C25.08,24.91,27.22,22.8,25.71,21.59Z"/></g><g id="fill-5" data-name="fill"><path class="cls-1" d="M25.67,27.72A65.46,65.46,0,0,1,18,32.27c-1.16.56-2.39.78-3.55,1.29-1.38.61-2.54,1.55-4,2.1a37.52,37.52,0,0,0-6.66,3.13c-.74.47-2.09.87-2.33,1.77s.5,1.33,1.3,1.49A87,87,0,0,0,20,43.7c5.07,0,10.14-.1,15.21-.1,3.46,0,6.86.39,10.28-.13a51.18,51.18,0,0,1,7.73-.16c2.86,0,6.18.43,8.94-.42a3.58,3.58,0,0,0,1.59-1,22.62,22.62,0,0,1,4.46-3.06c3.18-1.77,6.15-3.93,9.45-5.47a28.11,28.11,0,0,1,6.43-2.15c1.49-.3,3-.34,4.49-.7-2.51-.47-5.28.42-7.85.32a72.29,72.29,0,0,1-9.51-1c-6.92-1.17-14.09-.73-21.08-1a111.54,111.54,0,0,1-15.19-1.41c-1.47-.26-3-.06-4.45-.25S27,27.72,25.67,27.72Z"/></g><g id="lines-2" data-name="lines"><path class="cls-3" d="M14.74,39.4c3.69-1.21,7.58-1.84,11.18-3.35,3.83-1.62,6.36-4.64,9.49-7.24a5.15,5.15,0,0,1-1.45.38,4.27,4.27,0,0,0-1.44.4c-3,2.47-5.41,5.41-9,7s-7.75,2.28-11.57,3.53c.68-.22,1.93-.45,2.8-.74Z"/><path class="cls-3" d="M29.61,40.11a17.83,17.83,0,0,1,5-2.79A34.3,34.3,0,0,0,40,34.55c1.28-.81,2.55-1.67,3.8-2.52,1-.67,2.43-1.6,2.61-2.9A12.68,12.68,0,0,1,45,29.5a6.22,6.22,0,0,0-1.45.4c-.17,1.3-1.62,2.23-2.61,2.91-1.25.85-2.52,1.7-3.79,2.52a34.8,34.8,0,0,1-5.36,2.76,18.11,18.11,0,0,0-5,2.8c.26-.23,1.11-.28,1.45-.38a4.39,4.39,0,0,0,1.45-.4Z"/><path class="cls-3" d="M42.15,40.73C47.63,37.81,55,35.51,57.18,29a7.63,7.63,0,0,1-1.45.38c-.19.05-1.39.21-1.45.4-2.21,6.48-9.55,8.78-15,11.71a7.18,7.18,0,0,1,1.45-.37,7.09,7.09,0,0,0,1.45-.41Z"/><path class="cls-3" d="M51.48,40.47a22.22,22.22,0,0,0,5.66-1,28.17,28.17,0,0,0,5.44-2,27.53,27.53,0,0,0,5.08-3.06,12.27,12.27,0,0,0,3.72-4.07c-.07.15-1.27.32-1.45.37s-1.35.2-1.45.41a10.29,10.29,0,0,1-2.76,3.26A23,23,0,0,1,62,37.07a37.7,37.7,0,0,1-4.11,2.08c-.42.17-.85.32-1.28.47-.92.33,1.11-.3,1.12-.29a3.22,3.22,0,0,0-.8.15,16.26,16.26,0,0,1-2.51.22c-1,0-1.94.77-2.9.77Z"/></g><g id="outline-5" data-name="outline"><path class="cls-2" d="M24.91,26.43c-1.58,1-3.17,2.08-4.81,3a34.5,34.5,0,0,1-5.46,2.42c-1.74.65-3.21,1.8-4.93,2.49a51.68,51.68,0,0,0-5.33,2.36c-1.23.67-3.07,1.4-3.89,2.59a2.58,2.58,0,0,0,1,3.86c1.69.83,4.05.89,5.89,1.15,2.11.29,4.21.52,6.33.66,4.45.3,8.91.2,13.36.16s9,0,13.5.08c2.22,0,4.37-.29,6.58-.43s4.3,0,6.44,0c3.39,0,8,.86,10.78-1.54a32.32,32.32,0,0,1,5.15-3.52c2-1.18,4-2.48,6-3.66a31.7,31.7,0,0,1,6.26-2.81c2.34-.72,4.74-.83,7.12-1.37,1.37-.31,1.48-2.65,0-2.89a22,22,0,0,0-5.85.15,32.33,32.33,0,0,1-6.22-.12c-4.3-.39-8.51-1.26-12.83-1.47-8.65-.42-17.28,0-25.89-1.17-1.23-.17-2.45-.42-3.69-.56s-2.22-.05-3.33-.12c-1.89-.12-3.6.43-5.46.49s-1.94,3.07,0,3c1.56,0,3.08-.64,4.64-.56,2,.1,3.91.18,5.86.47a117.85,117.85,0,0,0,12.72,1.15c4.25.18,8.5.1,12.74.21s8.4.75,12.63,1.28a50.78,50.78,0,0,0,7.08.53c2.25,0,4.54-.74,6.8-.39V29c-1.85.42-3.75.5-5.59.95a30.53,30.53,0,0,0-5.27,1.86c-3.53,1.59-6.69,3.87-10,5.77A26.88,26.88,0,0,0,63,40.5a3.88,3.88,0,0,1-1.65,1.06,12.2,12.2,0,0,1-2.76.35c-3.88.12-7.78-.39-11.65-.1-2,.16-4,.45-6.1.43s-4.08-.14-6.13-.14c-4.17,0-8.34.07-12.52.09a104.8,104.8,0,0,1-12-.52c-2.09-.22-4.16-.54-6.22-.93a4.67,4.67,0,0,0-1.09-.24c-.21.13.09.39.28.39.46,0,1.45-.79,1.85-1a37.29,37.29,0,0,1,5.54-2.6c1.78-.7,3.33-1.91,5.13-2.55a36.24,36.24,0,0,0,5.61-2.45c1.77-1,3.47-2.12,5.17-3.24S26.53,25.36,24.91,26.43Z"/></g></g></g></g></svg>