<svg xmlns="http://www.w3.org/2000/svg" viewBox="0 0 110.86 101.07"><defs><style>.cls-1{fill:#fff;}</style></defs><g id="Layer_2" data-name="Layer 2"><g id="settings"><path class="cls-1" d="M29.51,75.46c3.3,2.2,4.87,6.33,8.25,8.14,3.86,2.07,5.42,5.76,8.35,8.23a62.47,62.47,0,0,1,7,6.44c.55.64,2.75,3.07,3.72,2.78,1.16-.35.66-4.94.66-5.89.41-5.36,1.23-6.59.62-11.77s-.14-10-.63-15.18c-.34-3.68.23-7.3,0-11-.34-6.9.63-14.08.71-21,.06-5.62.11-11.34-.33-17a49,49,0,0,1,.4-13c0-1.52,0-3-.11-4.59a1.48,1.48,0,0,0-2-1.29C51.83,1.85,47.4,7.5,44.75,10.58,40.18,15.89,35,19.21,29.52,25.13c-5.18,0-10.45.05-15.62.1-4.22,0-8.55.31-12.81.31C.41,28.88.73,33.2.73,36.66c0,2.67.45,5.4.26,8.06C.81,47.19,0,49.46,0,52c0,7.67.68,15.28.68,23,4.84,1.79,10.67,0,15.66.48,3.82.35,9.53-.16,12.92,0"/><path class="cls-1" d="M71.46,19.66c4.76,6.11,10.73,12.75,11,20.92.14,4.39,1.85,8.76,1,13.16a46,46,0,0,1-4.49,12c-2.24,4.34-5.5,8-8,12.25a1.5,1.5,0,0,0,2.59,1.51c2.31-4,5.33-7.47,7.55-11.49a58.75,58.75,0,0,0,2.75-6,42.62,42.62,0,0,0,2.27-6.67,18.93,18.93,0,0,0,.36-6.75c-.29-2.37-.9-4.71-1-7.1a26.82,26.82,0,0,0-.87-6.24,29.58,29.58,0,0,0-2.6-6c-2.36-4.21-5.47-7.94-8.43-11.74-1.18-1.52-3.29.62-2.12,2.13Z"/><path class="cls-1" d="M80.72,13.49c3.53,2.12,5,6.59,6.73,10.12,1.08,2.27,2.31,4.47,3.27,6.8a51,51,0,0,1,2.36,7.75,43.71,43.71,0,0,1,1.4,8.41,69.61,69.61,0,0,1-.72,8.51,50.65,50.65,0,0,1-1.22,8.13,44.94,44.94,0,0,1-2.74,7.07c-2.19,4.85-4.72,9.76-8.61,13.47-1.4,1.33.72,3.45,2.12,2.12,3.7-3.52,6.26-8.07,8.42-12.64A76,76,0,0,0,94.84,66a38.44,38.44,0,0,0,1.7-8.64c.31-2.94.73-5.92.92-8.88a32.66,32.66,0,0,0-1-9,63.4,63.4,0,0,0-2.35-8.59,82.2,82.2,0,0,0-3.57-7.75c-2.19-4.36-3.87-9.55-8.29-12.2a1.5,1.5,0,0,0-1.52,2.59Z"/><path class="cls-1" d="M89.62,2.52a45.07,45.07,0,0,1,6.2,7.63,66.93,66.93,0,0,1,5.63,8.6c3,6,5.88,12.58,6.25,19.37.2,3.54.07,7.1.16,10.65a40.7,40.7,0,0,1-.1,5.06c-.08.76-.24,1.5-.35,2.26-.14,1,0,1.95-.21,2.93a79.45,79.45,0,0,1-1.87,9.7,82.63,82.63,0,0,1-3.56,9.65,55.09,55.09,0,0,1-5.67,9.81c-2.11,2.93-5,5.17-7.1,8.13-1.11,1.58,1.49,3.09,2.59,1.52,1.91-2.73,4.57-4.83,6.6-7.47a54.38,54.38,0,0,0,5.43-8.91,84.77,84.77,0,0,0,3.89-9.76,39.8,39.8,0,0,0,1.4-4.79c.41-1.9.57-3.85.93-5.76,1.27-7,1-14.09.92-21.18S108.23,26,105.2,19.61a55.34,55.34,0,0,0-2.62-5.08c-1.11-1.81-2.41-3.48-3.66-5.18C96.67,6.24,94.61,3,91.74.4c-1.43-1.29-3.56.83-2.12,2.12Z"/></g></g></svg>