<svg xmlns="http://www.w3.org/2000/svg" viewBox="0 0 112.42 103.85"><defs><style>.cls-1{fill:#ff0c0c;}</style></defs><g id="Layer_2" data-name="Layer 2"><g id="settings"><path class="cls-1" d="M31.06,76.73c3.31,2.2,4.87,6.33,8.25,8.14,3.87,2.07,5.42,5.76,8.35,8.23a60.79,60.79,0,0,1,7,6.44c.56.64,2.75,3.07,3.73,2.78,1.16-.35.65-4.94.65-5.89.41-5.36,1.24-6.59.62-11.77s-.14-10-.62-15.18c-.35-3.68.23-7.3,0-11-.34-6.9.63-14.08.71-21,.07-5.62.12-11.34-.32-17a49,49,0,0,1,.39-13c0-1.52,0-3-.11-4.59a1.47,1.47,0,0,0-2-1.29C53.39,3.12,49,8.77,46.3,11.85c-4.57,5.31-9.77,8.63-15.23,14.55-5.18,0-10.44.05-15.62.09-4.22,0-8.55.32-12.8.32-.69,3.34-.36,7.66-.36,11.12,0,2.67.45,5.4.25,8.06-.18,2.47-1,4.74-1,7.23,0,7.67.69,15.28.69,23,4.84,1.79,10.66,0,15.65.48,3.82.35,9.54-.16,12.93,0"/><path class="cls-1" d="M30.3,78c2.26,1.57,3.64,4,5.52,6S40.16,87,42,89a57.34,57.34,0,0,0,5.51,5.94,74.49,74.49,0,0,1,6.67,6.26c1.15,1.23,3.27,3.5,5.15,2.4,1.69-1,1.43-3.79,1.36-5.43a37.58,37.58,0,0,1,.49-6.61,34.09,34.09,0,0,0,0-7.82c-.34-3.6-.2-7.23-.32-10.84-.06-1.69-.25-3.37-.3-5-.06-1.84.06-3.67.13-5.5.13-3.57-.12-7.14,0-10.72s.45-7.2.61-10.81A207.89,207.89,0,0,0,60.91,19a48.4,48.4,0,0,1,.35-10.69,22.08,22.08,0,0,0,.06-5A3.23,3.23,0,0,0,59.4.2c-2.6-1-5.91,2-7.68,3.56a66.87,66.87,0,0,0-6.11,6.59c-4.69,5.51-10.68,9.7-15.6,15l1.06-.44c-4.8,0-9.6.05-14.41.09s-9.34.31-14,.32a1.51,1.51,0,0,0-1.45,1.1C.5,30.09.75,33.83.78,37.54c0,2.11.25,4.21.3,6.33a32.67,32.67,0,0,1-.71,6.22C-.33,54.3.14,58.75.33,63c.19,4.42.4,8.83.41,13.25a1.54,1.54,0,0,0,1.1,1.45c5,1.75,10.28.19,15.44.48,4.52.26,9-.14,13.54.06,1.93.08,1.92-2.92,0-3-4.38-.19-8.75.3-13.13,0-5-.37-10.19,1.29-15.06-.4l1.11,1.44c0-4.42-.22-8.83-.41-13.25-.18-4.1-.72-8.49,0-12.55a34,34,0,0,0,.75-5.87c0-2.06-.26-4.11-.3-6.17-.07-3.68-.39-7.55.3-11.19l-1.44,1.1c7.68,0,15.37-.35,23.06-.39a39.94,39.94,0,0,0,5.36,0c1-.14,1.42-.83,2.06-1.5s1.52-1.53,2.31-2.28c2.36-2.23,4.86-4.3,7.26-6.48A73.93,73.93,0,0,0,49,11a39.77,39.77,0,0,1,6.31-6.33,16,16,0,0,1,1.79-1.15c.24-.13,1-.65,1.26-.55.06,0,.05,1.85.06,2.17a20.66,20.66,0,0,1-.17,3.34,51.22,51.22,0,0,0-.28,11,187.07,187.07,0,0,1,.2,23.2c-.21,3.76-.51,7.51-.58,11.28s0,7.46-.07,11.2.32,7.63.35,11.45c0,1.73,0,3.45.12,5.17.11,1.9.42,3.79.46,5.7a62,62,0,0,1-.72,7.56,22.47,22.47,0,0,0,0,3.07c0,.53,0,1.07,0,1.6a7.44,7.44,0,0,0-.13,1.3c.07.36-.33.1.23-.06.78-.22.5-.12.05-.45a10.53,10.53,0,0,1-1.21-1.1c-1.15-1.17-2.2-2.41-3.41-3.53-2.58-2.38-5.32-4.41-7.55-7.16a23.51,23.51,0,0,0-3.4-3.65c-1.21-1-2.69-1.62-3.84-2.69-2.36-2.22-3.9-5.08-6.61-7-1.59-1.1-3.1,1.5-1.52,2.59Z"/><path class="cls-1" d="M73,20.93C77.78,27,83.75,33.68,84,41.85c.13,4.39,1.85,8.76,1,13.16a46.37,46.37,0,0,1-4.49,12c-2.25,4.34-5.51,8-8,12.25a1.5,1.5,0,0,0,2.59,1.51c2.31-4,5.33-7.47,7.55-11.49a61,61,0,0,0,2.76-6,44.79,44.79,0,0,0,2.27-6.67,19.16,19.16,0,0,0,.35-6.75c-.29-2.37-.89-4.71-1-7.1a26.3,26.3,0,0,0-.87-6.24,29.54,29.54,0,0,0-2.59-6c-2.36-4.21-5.48-7.94-8.43-11.74-1.19-1.52-3.3.62-2.12,2.13Z"/><path class="cls-1" d="M82.28,14.76c3.53,2.12,5,6.59,6.73,10.12,1.08,2.27,2.3,4.47,3.26,6.8a48.78,48.78,0,0,1,2.36,7.75A43.73,43.73,0,0,1,96,47.84a71.67,71.67,0,0,1-.73,8.51,49.55,49.55,0,0,1-1.22,8.13,44,44,0,0,1-2.74,7.07C89.16,76.4,86.64,81.31,82.74,85c-1.4,1.33.72,3.45,2.12,2.12,3.7-3.52,6.27-8.07,8.42-12.64a71.22,71.22,0,0,0,3.11-7.25,38.44,38.44,0,0,0,1.7-8.64c.31-2.94.73-5.92.92-8.88a32.66,32.66,0,0,0-1-9,62,62,0,0,0-2.35-8.59,79.67,79.67,0,0,0-3.56-7.75c-2.2-4.36-3.88-9.55-8.3-12.2a1.5,1.5,0,0,0-1.51,2.59Z"/><path class="cls-1" d="M91.17,3.79a44.59,44.59,0,0,1,6.2,7.63A65.89,65.89,0,0,1,103,20c3,6,5.88,12.58,6.26,19.37.19,3.54.06,7.1.15,10.65a40.7,40.7,0,0,1-.1,5.06c-.07.76-.24,1.5-.34,2.26-.14,1,0,2-.22,2.93a77.6,77.6,0,0,1-1.87,9.7,85.13,85.13,0,0,1-3.55,9.65,55.75,55.75,0,0,1-5.68,9.81c-2.11,2.92-5,5.17-7.1,8.13-1.11,1.58,1.49,3.09,2.59,1.52,1.92-2.73,4.58-4.83,6.6-7.47a55.14,55.14,0,0,0,5.44-8.91A82.94,82.94,0,0,0,109.06,73a39.8,39.8,0,0,0,1.4-4.79c.42-1.9.58-3.85.93-5.76,1.28-7,1.06-14.09.93-21.18s-2.53-13.92-5.57-20.35a50.76,50.76,0,0,0-2.62-5.08c-1.11-1.81-2.41-3.48-3.65-5.18-2.26-3.11-4.32-6.35-7.19-8.95-1.43-1.29-3.55.83-2.12,2.12Z"/></g></g></svg>