<svg xmlns="http://www.w3.org/2000/svg" viewBox="0 0 111.71 100.86"><defs><style>.cls-1{fill:#fff;}</style></defs><g id="Layer_2" data-name="Layer 2"><g id="settings"><path class="cls-1" d="M29.51,75.24c3.3,2.2,4.87,6.34,8.25,8.15,3.86,2.06,5.42,5.76,8.35,8.23a62.47,62.47,0,0,1,7,6.44c.55.64,2.75,3.06,3.72,2.77,1.16-.34.66-4.94.66-5.89.41-5.35,1.23-6.59.62-11.76S58,73.22,57.52,68c-.34-3.69.23-7.31,0-11-.34-6.89.63-14.07.71-21,.06-5.63.11-11.35-.33-17a49,49,0,0,1,.4-13c0-1.52,0-3-.11-4.6a1.48,1.48,0,0,0-2-1.28c-4.44,1.55-8.87,7.2-11.52,10.28C40.18,15.68,35,19,29.52,24.92c-5.18,0-10.45,0-15.62.09-4.22,0-8.55.32-12.81.32C.41,28.67.73,33,.73,36.45c0,2.67.45,5.4.26,8C.81,47,0,49.24,0,51.74c0,7.67.68,15.28.68,23,4.84,1.79,10.67,0,15.66.47,3.82.36,9.53-.16,12.92,0"/><path class="cls-1" d="M70.76,31.06c9,10.73,20.95,18.27,30.67,28.22a62.62,62.62,0,0,1,7.43,9.06c1.06,1.6,3.66.09,2.59-1.52-7.91-11.89-19.91-19.89-30.31-29.37a87.35,87.35,0,0,1-8.26-8.51c-1.24-1.48-3.35.65-2.12,2.12Z"/><path class="cls-1" d="M106.58,27.35C101.5,34.54,95.12,40.69,90,47.82c-5,6.86-8.4,14.79-14.27,21-1.33,1.4.79,3.53,2.12,2.12,6-6.28,9.5-14.23,14.48-21.22,5.2-7.28,11.71-13.52,16.88-20.83,1.11-1.58-1.49-3.08-2.59-1.52Z"/></g></g></svg>