<svg xmlns="http://www.w3.org/2000/svg" viewBox="0 0 272.46 273.12"><defs><style>.cls-1{fill:#043c7a;}.cls-2{fill:#fff;}.cls-3{fill:#09edf6;}</style></defs><g id="Layer_2" data-name="Layer 2"><g id="players"><g id="fill"><path class="cls-1" d="M126.53,70.16c0,1-.58,2.61.34,3.47s2.31.4,3.38,1.07c2.25,1.42,1.58,8.17,1.7,10.53.21,4.12,0,8.32,0,12.44,0,2.19.22,4.3.32,6.46.06,1.14.4,2.83,0,3.89a21.29,21.29,0,0,1,6.3-1c1.42.07,2.26.72,3.46,1.15,1.31-6.49-.48-13.1-.48-19.59a64.32,64.32,0,0,1,.32-8.9,29.12,29.12,0,0,1,.46-3.11c.23-.91-.21-.85.61-1.33s2.26-.27,3.29-1c1.37-1,2.62-2.32,1.37-3.94-.92-1.18-3-1-4.65-1.11a91,91,0,0,0-9.91,0,22.21,22.21,0,0,0-6.53.92"/></g><path class="cls-2" d="M131.63,76.93h10.22a1.5,1.5,0,0,0,0-3H131.63a1.5,1.5,0,0,0,0,3Z"/><g id="outline"><path class="cls-2" d="M125,70.16c-.07,1.6-.53,3.24.78,4.53a4.1,4.1,0,0,0,2.39,1c.5.07,1.08,0,1.43.43.69.78.69,2.33.76,3.31.09,1.39.06,2.79.05,4.18,0,3.88.09,7.76,0,11.65,0,2.18,0,4.35.16,6.54.07,1,.11,2,.19,3a7.43,7.43,0,0,1,0,2.82,1.52,1.52,0,0,0,1.84,1.85,22.39,22.39,0,0,1,5-.91,9.54,9.54,0,0,1,4,1.1,1.51,1.51,0,0,0,1.84-1c.91-4.81.35-9.58-.11-14.4a65.37,65.37,0,0,1,0-14.26c.13-1.09.32-2.16.49-3.24,0-.23,0-1.24,0-.46,0,.57-.16.22.28.2a6.17,6.17,0,0,0,.84-.15A6,6,0,0,0,149.36,73a3.63,3.63,0,0,0-1.94-4.6c-1.63-.75-3.69-.61-5.44-.71-2.81-.16-5.62,0-8.43.09a29.52,29.52,0,0,0-7.42,1,1.5,1.5,0,0,0,.79,2.89c4-1.13,8.25-1,12.33-1a47.06,47.06,0,0,1,5.94.25c.47.06,1.44.17,1.45.83s-1.4,1.51-2,1.65c-1.31.31-3.15.42-3.65,2a26.9,26.9,0,0,0-.7,4.91,64.26,64.26,0,0,0,0,12.86c.41,4.9,1.25,9.88.32,14.77l1.84-1a11.53,11.53,0,0,0-4.79-1.2,26.23,26.23,0,0,0-5.77,1l1.84,1.85c.53-1.79.09-3.85,0-5.68-.13-2.17-.25-4.32-.23-6.5,0-4.12-.07-8.24,0-12.35,0-2.68.24-5.65-.72-8.2A4.09,4.09,0,0,0,130,73c-.49-.13-1.82,0-2.11-.52s.12-1.73.15-2.3c.08-1.94-2.93-1.93-3,0Z"/></g><g id="fill-2" data-name="fill"><path class="cls-1" d="M174.5,82.07a5.37,5.37,0,0,0-.86,4.31c.26,1.22,2.17,2.53,1.77,3.51-.09.23-3.21,2-3.74,2.41a19.26,19.26,0,0,0-3.45,3.25c-2.67,3.3-5.8,6.23-8.45,9.59-1.94,2.48-5,7-8,7.92,3.52,1.12,4.49,3.25,6.73,5.56,2.71-2,5.11-4.48,7.78-6.57a58.45,58.45,0,0,0,5.68-4.69c2.52-2.54,4.54-5.31,7.08-7.79,1.37-1.34,1.47-2.88,3.32-2.62,2.1.3,5.74,4,7.19.73.88-2-3-6-4.51-7.71a33.44,33.44,0,0,0-6.49-5.08c-1.32-.87-2-2.73-4-2.73"/></g><path class="cls-2" d="M174.77,90.8c.57.52,1.15,1,1.72,1.57.28.26.55.52.82.8a4.84,4.84,0,0,1,.76.87c0-.09-.12-.17,0,0l.17.23.33.47.61.9a12,12,0,0,0,1.65,2,1.5,1.5,0,0,0,2.12-2.12,7,7,0,0,1-.79-.84c0-.06-.11-.12-.15-.18.18.28,0,0,0,0s-.23-.31-.34-.47c-.47-.69-.94-1.38-1.46-2a29.7,29.7,0,0,0-3.3-3.24,1.5,1.5,0,1,0-2.12,2.12Z"/><g id="outline-2" data-name="outline"><path class="cls-2" d="M173.2,81.31a6.85,6.85,0,0,0-.93,5.73,7.22,7.22,0,0,0,1.24,2l.33.46c.23.56.44.32.62-.72-.12,0-.33.22-.44.3-2.59,1.69-5,3.16-7,5.6-2.77,3.35-5.93,6.35-8.6,9.79-1,1.35-2,2.74-3.17,4a9.89,9.89,0,0,1-3.85,3.13,1.52,1.52,0,0,0,0,2.9c2.72.92,4.16,3.17,6.06,5.17a1.51,1.51,0,0,0,1.82.23c2.26-1.71,4.32-3.64,6.47-5.48s4.55-3.42,6.63-5.36,3.71-4.06,5.54-6.11c.87-1,1.85-1.87,2.69-2.87.39-.48.87-1.63,1.5-1.66a4.46,4.46,0,0,1,1.82.78,13.19,13.19,0,0,0,2.64,1.15,3.56,3.56,0,0,0,4.29-1.92c1.53-3.23-2.41-7-4.37-9.12a33.92,33.92,0,0,0-6.44-5.25c-1.93-1.28-3-3.27-5.52-3.41-1.93-.11-1.93,2.89,0,3,.76,0,1.22.6,1.72,1.12a11.41,11.41,0,0,0,2.1,1.76A31.07,31.07,0,0,1,184,91c.69.74,5.4,5.51,4,6.44-.76.48-2.84-1-3.52-1.36-1.46-.68-3.13-1.08-4.51,0A10.54,10.54,0,0,0,178.46,98c-.76,1-1.7,1.77-2.51,2.67-1.68,1.88-3.25,3.85-5,5.63-2,2-4.27,3.51-6.41,5.27s-4.38,4-6.75,5.75l1.82.24c-1.07-1.12-2-2.39-3.11-3.45a11.48,11.48,0,0,0-4.28-2.5v2.9c3.49-1.19,5.79-4.56,7.92-7.37,2.69-3.53,5.9-6.6,8.74-10a19.24,19.24,0,0,1,3.92-3.78c1-.68,2.09-1.22,3.08-1.92a2.36,2.36,0,0,0,.58-3.46,10.18,10.18,0,0,1-1.35-2,3.94,3.94,0,0,1,.71-3.16c1.07-1.61-1.53-3.12-2.59-1.51Z"/></g><path class="cls-1" d="M163.89,130c9.25,0,18.38,1,27.53,1a16.24,16.24,0,0,0,3.27,0c1.69-.39,1.54-.81,2.32-2.45,1.28-2.69,4.69-5.14,5.09-.85.28,2.94-.18,5.93,0,8.84.16,2.74.58,5.86-.36,8.48-1.67,4.71-3.39-1.59-4.11-3.34-1.28-3.08-3.3-2-6.28-2-4.65,0-9,1-13.64,0-5-1.09-9.44-.05-14.43,0,.6-3.39,2.12-6,.25-9.52"/><path class="cls-2" d="M163.89,131.52c8.45,0,16.87.87,25.32,1a29.94,29.94,0,0,0,5.68,0,3.79,3.79,0,0,0,2.8-1.81,13.13,13.13,0,0,1,1.7-3c.27-.27.75-.49,1-.76,0,0,.3-.11.15-.06-.35.12-.14-.38-.06.15.53,3.69,0,7.47.25,11.2a17.82,17.82,0,0,1-.17,5.6c0,.2-.6,1.52-.58,1.55s.68-.11.69-.11c.19,0,.24.28.25.12s-.26-.34-.27-.37c-1.18-1.77-1.24-4.17-2.76-5.75-1.87-1.93-4.85-1.17-7.24-1.12s-4.54.31-6.82.41a34,34,0,0,1-6.91-.55c-4.54-.71-9.06.09-13.62.13l1.45,1.9c.33-1.78.91-3.51,1.12-5.31a9.2,9.2,0,0,0-1-5.37c-.86-1.73-3.45-.21-2.59,1.51,1.4,2.8.14,5.52-.39,8.37a1.52,1.52,0,0,0,1.44,1.9c4.34,0,8.75-.92,13.07-.2a34,34,0,0,0,6.76.65c2.2-.06,4.38-.32,6.57-.41,1.59-.07,3.24-.25,4.83-.2,1.13,0,1.5.65,1.89,1.66.66,1.77,1.34,4.93,3.45,5.52,3.34.94,4-4.9,4-6.89s-.26-4.07-.27-6.1c0-2.18.21-4.35.11-6.53-.07-1.45-.21-3.12-1.4-4.13a3,3,0,0,0-3.43-.15,7.56,7.56,0,0,0-2.8,2.84c-.53.88-.6,2.1-1.59,2.32a14.39,14.39,0,0,1-3.28,0c-1.22,0-2.45,0-3.67-.06-2.62-.07-5.23-.2-7.85-.35-5.25-.28-10.5-.61-15.76-.62a1.5,1.5,0,0,0,0,3Z"/><path class="cls-2" d="M194.7,131.86a4.74,4.74,0,0,0,.36,1l.18.4.07.18c-.06-.17-.07-.17,0,0a8.75,8.75,0,0,1,.23.88c0,.14.06.27.08.41s0,.18,0,.27c0-.14,0-.16,0-.05,0,1.32-.18,2.63-.19,4a1.5,1.5,0,0,0,3,0,31.09,31.09,0,0,0,.17-4.09,10.1,10.1,0,0,0-.41-2.11c-.13-.36-.29-.71-.44-1.06a.89.89,0,0,1-.08-.17c.07.17.07.17,0,0a3.84,3.84,0,0,1-.11-.46,1.52,1.52,0,0,0-1.85-1.05,1.56,1.56,0,0,0-1.05,1.85Z"/><path class="cls-1" d="M159.2,151.7a11.28,11.28,0,0,1-2.42,2.51c-.73.72-1.5,1.4-2.22,2.11-.32.32-1.47,1.08-1.56,1.5-.17.89,1.28,2.33,1.86,2.92,2.36,2.37,5,4.4,7.33,6.83,1.21,1.27,2.49,2.52,3.67,3.83s2.41,2.67,3.52,4.08a9.83,9.83,0,0,0,1.74,1.9c1.49,1.12,2.62,2.6,4.06,3.74.26.21.67.35.66.73s-1.2,1.32-1.48,1.66a3.6,3.6,0,0,0-.89,2.36c-.08.76-.41,2.53.5,2.55s2.17-1.26,2.8-1.65c1.28-.79,2.78-1.2,4-2.07a30,30,0,0,0,3.13-2.84,29.26,29.26,0,0,0,2.47-2.51c1.25-1.55,2.33-3.26,3.6-4.8,1.48-1.79-1.3-1.46-2.45-1.25-1.35.24-3.44,1.3-4.72.75a1.7,1.7,0,0,1-.84-.76,23.35,23.35,0,0,0-2.91-3.58c-1.43-1.31-2.75-2.69-4.3-3.89-2-1.54-4.09-2.92-6-4.61a31.11,31.11,0,0,1-3.26-3.8,32.83,32.83,0,0,0-3.86-4.13c-.66-.58-1.33-1.13-2-1.72"/><path class="cls-2" d="M183.79,173.16c-1.91,0-3.3,1.61-4.44,2.93a27.29,27.29,0,0,1-1.9,2c-.36.34-.71.7-1.09,1a3.9,3.9,0,0,0-1.07,1.25,1.54,1.54,0,0,0,.54,2.05,1.52,1.52,0,0,0,2.06-.53,2.34,2.34,0,0,0,.14-.27c-.12.15-.14.18-.07.1l.12-.12c.14-.14.29-.26.44-.39.37-.32.7-.67,1-1,.62-.6,1.23-1.19,1.79-1.84a20.58,20.58,0,0,1,1.48-1.62l.22-.19.08-.07h0l.11-.08.19-.12a1.08,1.08,0,0,0,.24-.12l-.16.07.11,0a.84.84,0,0,0,.24-.06c-.12.06-.36,0-.08,0a1.5,1.5,0,0,0,0-3Z"/><path class="cls-2" d="M157.91,150.94a8.16,8.16,0,0,1-1.83,1.88c-.88.79-1.7,1.65-2.58,2.44-1.12,1-2.39,1.81-1.88,3.53s2,2.87,3.16,4c1.76,1.67,3.65,3.21,5.39,4.91s3.45,3.48,5.08,5.3c1.5,1.67,2.82,3.69,4.47,5.2.8.72,1.63,1.38,2.39,2.14s1.53,1.85,2.42,2.19c.56.22.4-1.4-.11-1.13-.14.07-.26.26-.38.38s-.44.38-.63.59a5.17,5.17,0,0,0-1.24,2.15c-.35,1.28-.66,3.39.15,4.55,1.12,1.62,3,.62,4.25-.27,1.55-1.13,3.39-1.68,5-2.77a37.68,37.68,0,0,0,5-4.6,65.27,65.27,0,0,0,4.33-5.6c.92-1.17,1.62-2.89,0-3.81-1.13-.63-2.79-.34-4-.07-.77.17-1.51.47-2.28.66-1.15.28-1.26,0-1.92-.89-3-4.21-7.23-7.07-11.26-10.24a33.51,33.51,0,0,1-5.07-5.44,45.94,45.94,0,0,0-5.57-5.5c-1.45-1.26-3.58.85-2.12,2.13a48.55,48.55,0,0,1,4.44,4.16c1.33,1.48,2.44,3.14,3.79,4.6,2.78,3,6.54,5,9.52,7.85a32.38,32.38,0,0,1,4,4.47,3.84,3.84,0,0,0,3.87,1.94c1.44-.17,2.75-.84,4.19-1a5.53,5.53,0,0,0,.71,0,1.37,1.37,0,0,1,.33,0s-.58-1.18-.6-1.18c-.26,0-1.62,2.11-1.78,2.33a34.21,34.21,0,0,1-4.15,4.84,17.93,17.93,0,0,1-4.58,3.65,21.28,21.28,0,0,0-2.4,1.17,8.1,8.1,0,0,0-1.73,1.24s-.39.18-.39.22c0,.23,1,.46,1,.49s0-.68,0-.83a3.86,3.86,0,0,1,.45-1.9c.7-1,2.11-1.59,2-3a2.34,2.34,0,0,0-1.16-1.67,25.89,25.89,0,0,1-2.22-2.1c-.71-.7-1.51-1.3-2.24-2a25.72,25.72,0,0,1-1.95-2.34c-1.37-1.65-2.82-3.25-4.3-4.79-1.73-1.8-3.46-3.57-5.32-5.23-1.6-1.43-3.25-2.81-4.71-4.38-.26-.28-.48-.61-.73-.89,0,0-.14-.31-.18-.32s-.29.43-.07.44,1.56-1.36,1.82-1.6c1.41-1.35,3.27-2.61,4.25-4.32a1.5,1.5,0,0,0-2.59-1.52Z"/><path class="cls-1" d="M132,162.91a24.94,24.94,0,0,0-.7,7.6c.16,3.18,0,6.33.15,9.51.08,2,0,4,.16,6,.19,2.17.44,4.31.46,6.5a20.8,20.8,0,0,1,0,3.06c-1.89-.73-3.35,1.07-4.51,2.18a4.85,4.85,0,0,0-1.17,1.55c-.34.69-.43.85.45.95,1.12.11,2.27,0,3.39,0,1.81.05,3.62.25,5.43.36,1.5.09,3,.11,4.49.12s3.06-.11,4.59-.14a11.37,11.37,0,0,0,2.49-.26,5,5,0,0,0-2.6-3.61c-.79-.31-2.37-1-2.91-.4-.27-1.34.21-3.07.24-4.45,0-2.33-.36-4.62-.51-6.94-.25-4,.4-8.09.61-12.12a37.9,37.9,0,0,0,.25-5.63c-.1-.93-.26-1.87-.44-2.79a2.77,2.77,0,0,0-.16-.79c-.28-.26-1.74.08-2.09.12-.76.09-1.52.24-2.29.27a8,8,0,0,1-1.63-.09,27.88,27.88,0,0,1-3.18-.75"/><path class="cls-2" d="M130.61,195.52a6,6,0,0,0,2.89,2.38,5.52,5.52,0,0,0,2.49.18l.23,0c.12,0,.82-.15.27,0a5.79,5.79,0,0,1,.6-.07,16.84,16.84,0,0,0,1.73-.28,7.92,7.92,0,0,0,3.27-1.71,1.53,1.53,0,0,0,0-2.13,1.56,1.56,0,0,0-2.13,0,3.22,3.22,0,0,1-.46.34,6.12,6.12,0,0,1-.56.31c-.11.06-.27.12-.06,0l-.31.11a5.44,5.44,0,0,1-.54.15l-.62.12-.19,0-.2,0-.49.06-.53.07h.09a6.82,6.82,0,0,1-.9.07c-.15,0-.3,0-.44,0s.32.07.05,0l-.25-.06-.25-.08c-.18-.05,0,0,0,0-.16-.1-.34-.19-.5-.3.18.12.05,0,0,0a2.77,2.77,0,0,1-.25-.24,2.64,2.64,0,0,1-.35-.44,1.5,1.5,0,1,0-2.59,1.52Z"/><path class="cls-2" d="M130.59,162.51a28.34,28.34,0,0,0-.75,8c.11,2.86,0,5.71.12,8.56s0,5.4.3,8.1a41.46,41.46,0,0,1,.32,8.4l1.9-1.45c-2.65-.82-4.91,1.25-6.51,3.14-.68.79-1.58,2.09-1.22,3.19.48,1.45,2.33,1.35,3.55,1.34,3.52,0,7,.39,10.51.44,1.6,0,3.2,0,4.8-.09a18,18,0,0,0,4-.36,1.53,1.53,0,0,0,1.05-1.84,6.47,6.47,0,0,0-3-4.38c-.72-.39-1.71-.43-2.35-.92-.35-.18-.4-.22-.17-.13a3,3,0,0,1,.07-.66c.07-.51.18-1,.23-1.53.19-2.45-.34-4.94-.49-7.38a51.06,51.06,0,0,1,.26-7.52q.32-3.71.58-7.42a19.37,19.37,0,0,0-.57-6.65c-.53-1.78-2.49-1.29-3.86-1.08a14.25,14.25,0,0,1-6.45-.56,1.5,1.5,0,0,0-.79,2.89,15.61,15.61,0,0,0,6.13.82,10,10,0,0,0,2.57-.38H141c.62,0,.41-.25-.6-.8-.13.31.19,1.2.25,1.49a29.59,29.59,0,0,1,0,7.1c-.15,2.34-.39,4.68-.54,7a41.35,41.35,0,0,0,.09,6.95,25.67,25.67,0,0,1,.14,6.61,3.14,3.14,0,0,0,2.53,4.27,5.71,5.71,0,0,1,1.83.82,3.82,3.82,0,0,1,1.17,2.25l1.05-1.85a19.19,19.19,0,0,1-4.15.28q-2.61.11-5.22,0c-1.76,0-3.5-.22-5.25-.34-1-.06-2-.11-2.94-.09-.53,0-1.94.26-2.32,0l.68.89c.09.26-.18.53,0,.41s.4-.68.53-.82a12.8,12.8,0,0,1,1.1-1.11c.66-.64,1.37-1.42,2.36-1.12a1.52,1.52,0,0,0,1.9-1.44,39.09,39.09,0,0,0-.28-7.94c-.25-2.69-.24-5.38-.33-8.09s0-5.38-.09-8.07a29,29,0,0,1,.6-8.16c.47-1.88-2.42-2.68-2.89-.8Z"/><path class="cls-1" d="M111.73,152.36c-2.09,2.12-4.15,3.74-5.87,6.19a61.23,61.23,0,0,1-5.43,6.29c-2.08,2.24-4.83,4.08-6.76,6.4-1.75,2.11-3,4-6,2.52-1.39-.7-5.26-2.58-4.45.9.29,1.25,1.77,2,2.52,3a47,47,0,0,0,2.8,3.88c2.36,2.48,5.15,6.31,8.66,7.08,3,.67,1.95-1.68,1-3.61-.53-1.11-1.59-2-1.12-3.11.87-2.12,4.64-4.07,6.25-5.49,2.52-2.22,4.46-5,6.83-7.31a37.94,37.94,0,0,0,3.56-3.62,49.41,49.41,0,0,1,3.34-3.75c1.06-1.13,2.49-2,3.5-3-2.89-2.18-5.08-4.43-8.25-6.18"/><path class="cls-2" d="M89,174.76a16.07,16.07,0,0,0,3,5.6,8,8,0,0,0,2.4,1.61c.38.19.76.37,1.13.57.2.11.4.22.59.35s.37.2,0,0a1.38,1.38,0,0,1,.26.22A1.5,1.5,0,0,0,98.59,181a9.46,9.46,0,0,0-2.32-1.49c-.38-.18-.77-.36-1.14-.57a5.84,5.84,0,0,1-.53-.33l-.14-.1.12.1c-.06,0-.22-.19-.26-.23a6,6,0,0,1-.42-.45c-.06-.07-.23-.3-.08-.09l-.22-.32a9.93,9.93,0,0,1-.71-1.22c-.1-.19-.19-.38-.28-.58s-.11-.24-.16-.35c-.11-.27,0,.1,0-.06L91.89,174a1.5,1.5,0,1,0-2.89.8Z"/><path class="cls-2" d="M110.67,151.3c-1.45,1.46-3,2.8-4.38,4.33s-2.56,3.35-4,4.93A61.92,61.92,0,0,1,98,165.11c-1.51,1.4-3.15,2.66-4.58,4.15-1,1-2,3-3.41,3.46-1,.34-2.41-.67-3.38-1.05-2.21-.87-5.19-.67-5.05,2.4.09,1.93,1.38,2.89,2.64,4.14s2.22,3.26,3.55,4.71c2.33,2.53,4.57,5.44,7.86,6.75,1.3.52,3.2,1,4.33-.16,1-.95.73-2.38.3-3.53a15.78,15.78,0,0,0-.86-1.93c-.33-.61-1.09-1.25-.79-1.92.59-1.32,2.53-2.32,3.66-3.11,3.65-2.54,6.1-6.15,9.25-9.21.81-.78,1.66-1.51,2.42-2.33s1.5-1.85,2.3-2.73A37.94,37.94,0,0,1,118.9,162c.9-.79,1.87-1.47,2.73-2.3a1.53,1.53,0,0,0-.3-2.36c-2.74-2.09-5.23-4.47-8.25-6.17a1.5,1.5,0,0,0-1.51,2.59c3,1.7,5.51,4.08,8.25,6.17l-.31-2.36c-1.39,1.35-2.94,2.46-4.28,3.88s-2.55,3.09-4,4.49-2.69,2.56-3.94,4-2.54,3-3.93,4.36c-2.15,2.14-5.16,3.41-7,5.87a3.57,3.57,0,0,0-.31,4.2c.36.64.78,1.23,1.09,1.9a9.35,9.35,0,0,0,.51,1.41c.13.18-.32.47.18-.1-.19.21.23-.46.31-.35,0,0-.8-.11-.91-.14A7,7,0,0,1,95.14,186a20.91,20.91,0,0,1-3.58-3.39,33.1,33.1,0,0,1-3.32-4,20,20,0,0,0-1.56-2.21c-.51-.59-1.19-1-1.69-1.61a8.94,8.94,0,0,1-.42-1c.25.12-.35.29-.35.3a4.36,4.36,0,0,1,.49.06,12.85,12.85,0,0,1,2.58,1.06,4.93,4.93,0,0,0,4.47,0,12.43,12.43,0,0,0,3.11-3.07,46.55,46.55,0,0,1,4.64-4.35,57.84,57.84,0,0,0,4.51-4.62c1.47-1.64,2.68-3.46,4.11-5.11s3.11-3.09,4.66-4.65a1.5,1.5,0,0,0-2.12-2.12Z"/><path class="cls-1" d="M71.22,125.28c-1.66,3.11-2,7.63-1.64,11.07a42.94,42.94,0,0,0,1,5.88,13.06,13.06,0,0,0,.55,2.66c1.77,3.33,3.57-1.26,4-2.82s.8-1.81,2.55-1.87c2.53-.09,5,0,7.58-.14,5.39-.26,11-.95,16.4-.42,2.62.26,5.4,1,8,.93.1-1.19-.62-2.73-.75-4a24.4,24.4,0,0,1,.2-6.39c-1.87-.95-6.25-.27-8.56-.21-2.6.07-5.17.64-7.77.63a70.83,70.83,0,0,0-10.1.51c-1.39.21-6.28.64-7.06-.86-.2-.38.11-1.13,0-1.57a6.12,6.12,0,0,0-.76-1.64c-.75-1.38-1.57-1.5-2.92-2.13"/><path class="cls-2" d="M69.92,124.52c-2,3.94-2.25,8.64-1.72,13,.28,2.3.73,4.61,1.18,6.88.32,1.61,1.64,3.54,3.52,3.16,1.42-.29,2.28-1.67,2.84-2.89.3-.65.68-2.64,1.18-2.87.77-.36,2.27-.1,3.11-.11,1.34,0,2.68,0,4-.05,2.65-.07,5.29-.31,7.93-.47a62.51,62.51,0,0,1,9.18,0c2.85.24,5.64,1,8.51,1a1.52,1.52,0,0,0,1.5-1.5c0-1.54-.64-2.95-.79-4.47a22.76,22.76,0,0,1,.18-5.53,1.53,1.53,0,0,0-.69-1.69c-3-1.35-6.63-.56-9.77-.4-2.29.11-4.56.55-6.85.61s-4.47,0-6.7.13c-3,.18-5.94,1.11-9,.45a1.77,1.77,0,0,1-.68-.23c.26.21.09.53.24-.14a4,4,0,0,0-.76-2.72,6.85,6.85,0,0,0-3.63-3c-1.74-.79-3.27,1.79-1.51,2.59,1.33.61,2.94,1.33,2.91,3.06a2.83,2.83,0,0,0,2.17,3.18c2.69.88,5.69.19,8.41-.07,2.23-.21,4.48-.26,6.73-.27a67.73,67.73,0,0,0,6.83-.47c1.82-.18,3.65-.25,5.47-.37,1.42-.09,3.29-.39,4.62.22l-.69-1.7a28.15,28.15,0,0,0-.33,5.87c.11,1.66.86,3.3.83,4.93l1.5-1.5a46.5,46.5,0,0,1-6.75-.77,45,45,0,0,0-7.06-.34c-4.89.11-9.75.65-14.65.69-1.74,0-4-.32-5.66.42-1.3.58-1.62,1.81-2,3.05a9.19,9.19,0,0,1-.66,1.59c-.19.34-.86.89-.35.91s0-.19-.11-.49a5.65,5.65,0,0,1-.24-1.29c-.15-1.09-.43-2.16-.63-3.24-.79-4.36-1.1-9.49,1-13.57.88-1.71-1.71-3.23-2.59-1.51Z"/><path class="cls-2" d="M74.14,130.84c0,3.13.5,6.24.51,9.36a1.5,1.5,0,0,0,3,0c0-3.12-.5-6.23-.51-9.36a1.5,1.5,0,0,0-3,0Z"/><path class="cls-1" d="M82.22,97.57c1.4-1.52,1.78-3.34,2.93-4.93a32,32,0,0,1,4.54-4.84c1.91-1.68,4-3.3,6-4.83,1.57-1.17,3.36-2.53,3.48.26a17.84,17.84,0,0,1-.09,4.07c-.29,1.61-.5,2.51.4,3.89,1.93,3,4.77,5.52,7.27,8a89.32,89.32,0,0,1,6.81,7.74c1.53,1.9,3.6,3.35,4.91,5.4.56.86.81,1,.41,1.84a10,10,0,0,1-1.54,1.58c-1,1-2.81,2.07-3.37,3.36-3.23-1.18-4.5-5-6.8-7.18s-4.35-4.21-6.43-6.44c-.9-1-1.56-2.18-2.54-3.06s-2-1.53-3-2.44-1.8-1.37-2.63-2.14c-1-1-1.34-1.37-2.68-.65S87.53,99.07,86,99.53c-1.66.51-2.24-.14-3.3-1.32"/><path class="cls-2" d="M92,97.32a9.54,9.54,0,0,1,.63-1.08L93,95.7c.11-.14-.15.18,0,0l.25-.29a17,17,0,0,1,2-2l.52-.42c-.24.19.07-.05.12-.09l.32-.23c.39-.28.79-.54,1.2-.79s.75-.43,1.13-.62l.59-.27c-.35.16,0,0,.06,0l.3-.11A1.54,1.54,0,0,0,100.62,89a1.52,1.52,0,0,0-1.85-1,18.32,18.32,0,0,0-5.46,3.24A15,15,0,0,0,89.4,95.8a1.55,1.55,0,0,0,.54,2.06,1.53,1.53,0,0,0,2-.54Z"/><path class="cls-2" d="M83.28,98.63c1.52-1.75,2.16-4,3.6-5.79a38.11,38.11,0,0,1,5.32-5.23,50.11,50.11,0,0,1,5.44-4.19s.53-.27.53-.33l-.55-.31,0,.13a4.36,4.36,0,0,0,0,.79,17,17,0,0,1-.16,3.77A6.5,6.5,0,0,0,98.92,93a44.14,44.14,0,0,0,4.62,5.14c1.77,1.75,3.55,3.48,5.2,5.34s3.11,3.92,4.84,5.71c.85.88,1.77,1.69,2.59,2.6a12.17,12.17,0,0,1,1.12,1.45c.07.11.26.67.29.3s-.24.15-.35.26c-1.47,1.5-3.58,2.62-4.56,4.55l1.7-.69c-2.76-1.11-3.94-4.58-5.92-6.59-1.4-1.44-2.91-2.78-4.32-4.21s-2.74-3-4.06-4.64a33.32,33.32,0,0,0-4.23-3.72c-.7-.6-1.47-1.11-2.16-1.72a5.32,5.32,0,0,0-1.88-1.34c-1.69-.52-3.23.85-4.51,1.74-.59.4-1.5,1.15-2.26,1-.52-.08-.91-.7-1.24-1.07-1.3-1.43-3.41.7-2.12,2.13,1.06,1.18,2.18,2.1,3.86,1.89,2-.24,3.23-1.54,4.84-2.49.17-.1.9-.29.5-.39.34.08.75.67,1,.89.76.64,1.57,1.2,2.31,1.86a29,29,0,0,1,4.25,4,46.87,46.87,0,0,0,4.25,4.66c1.4,1.4,3,2.69,4.27,4.22,2.08,2.53,3.39,5.38,6.61,6.67a1.49,1.49,0,0,0,1.69-.69c.93-1.84,3.24-2.83,4.54-4.42,1.61-2,.14-3.87-1.24-5.47-.8-.93-1.71-1.74-2.57-2.61-1-1-1.92-2.2-2.85-3.32a81,81,0,0,0-5.63-6.22,65.48,65.48,0,0,1-5.71-6,5.32,5.32,0,0,1-1.47-2.68c-.06-1.21.39-2.46.41-3.68,0-1.8.23-5-2.19-5.38-1.9-.26-3.79,1.67-5.15,2.72a59.07,59.07,0,0,0-7.32,6.36,20.08,20.08,0,0,0-2.67,3.37,25.9,25.9,0,0,1-2.25,3.94c-1.25,1.46.86,3.59,2.12,2.12Z"/><g id="fill-3" data-name="fill"><path class="cls-3" d="M163.4,125.38c-4.83-10.81-18.2-18.63-30.92-17-4.77,0-10.69,4.3-14.68,6.71-5.74,3.47-7.91,11.15-8,17.48-.19,10.62,4.58,23.19,15,28.48,5.15,2.61,10.41,1.51,15.94.78,7-.93,9.43-2.55,14.87-7.18C162.8,148.48,167.73,135.05,163.4,125.38Zm-13.14,22c-3.62,3.08-5.21,4.16-9.88,4.78-3.68.48-7.18,1.21-10.6-.52-6.94-3.51-10.11-11.87-10-18.93.08-4.21,1.52-9.31,5.33-11.62,2.65-1.6,6.59-4.46,9.76-4.46,8.46-1.06,17.34,4.14,20.55,11.33C158.32,134.42,155.05,143.34,150.26,147.41Z"/></g><path class="cls-2" d="M132.48,106.84a19.27,19.27,0,0,0-8.74,2.85,65,65,0,0,0-7.84,4.84c-4.76,3.58-6.84,9.59-7.46,15.32-1.18,11,3.07,23.45,12,30.23a18.93,18.93,0,0,0,8.93,3.88c3.62.49,7.23-.11,10.82-.6a30.49,30.49,0,0,0,8.11-1.94,27.61,27.61,0,0,0,6.51-4.24,31.17,31.17,0,0,0,10-14.08c1.89-5.41,2.47-11.7.41-17.16-4.77-12.65-19.58-20.66-32.76-19.1-1.9.22-1.92,3.22,0,3a29.78,29.78,0,0,1,28,13.27c5.68,9,2.75,21.46-4.34,28.92-3.2,3.37-7.26,6.46-11.83,7.59a61.89,61.89,0,0,1-9.1,1.38c-3.29.31-6.65.22-9.66-1.28-9.32-4.65-14-15.59-14.27-25.57-.15-5.49,1-11.79,4.92-15.9,2-2.09,4.86-3.52,7.32-5,2.7-1.6,5.74-3.36,9-3.42,1.93,0,1.93-3,0-3Z"/><path class="cls-2" d="M134.89,115.16a13.29,13.29,0,0,0-5.83,1.83,47.51,47.51,0,0,0-5.25,3.21c-3.29,2.36-4.83,6.32-5.33,10.21-1,7.5,1.8,16.11,7.88,20.84a13.31,13.31,0,0,0,5.91,2.8,23.44,23.44,0,0,0,7.19-.24,23.67,23.67,0,0,0,5.88-1.28,18.31,18.31,0,0,0,4.5-2.82c6-4.85,10.15-13.6,7.37-21.32-3.14-8.73-13.29-14.26-22.32-13.23-1.9.21-1.92,3.22,0,3a19.32,19.32,0,0,1,18.2,8.61c3.66,5.86,1.69,14-3,18.72a16.51,16.51,0,0,1-7.6,4.8,41.25,41.25,0,0,1-6.05.89,11,11,0,0,1-6.09-.89c-6-3.08-8.92-10.14-9.08-16.58-.08-3.56.67-7.68,3.3-10.28a23.24,23.24,0,0,1,4.62-3.08c1.71-1,3.63-2.13,5.67-2.19s1.93-3.06,0-3Z"/><g id="fill-4" data-name="fill"><path class="cls-3" d="M221.48,125.67c-1.22-15.17-4.28-28.56-14.5-40.22-2.22-2.52-3.26-5.65-5.66-7.83-1.89-1.71-4.44-2.61-6.44-4.16-2.43-1.89-4.29-4.42-6.59-6.46-2.95-2.64-6-5.64-9.63-7.2-3.2-1.36-6.59-1.57-9.92-2.44C163.88,56.1,160,53.48,155,52.67c-4-.64-7.85-1.58-11.84-2-6.18-.71-11.58-1.12-17.6.47-5.79,1.53-11.69,3.43-17.47,4.72-3.74.83-8.32-.11-11.84,1.19h3C85.84,62.71,76.7,75.06,67.75,85.88c-4.27,5.17-7.14,12.31-9.43,18.55-3.8,10.36-6.71,22.88-5.82,34,.29,3.61.56,7.22.9,10.8.52,5.31,1.72,8.67,3.85,13.58,3.24,7.47,4.19,16,10,22.17,2.32,2.48,5.43,4.24,8,6.51s3.84,4.86,6,7.34c3.79,4.35,8.35,9,13.63,11.36,9.69,4.3,19.67,8.56,30.51,9.43,13.39,1.07,27.54.5,40.27-3.94A109.14,109.14,0,0,0,191,202.87c3.95-2.72,6.37-6.76,9.44-10.37a119.37,119.37,0,0,0,15.34-23c3.54-7,4.22-15.32,4.67-23.08C220.81,139.44,222,132.58,221.48,125.67Zm-21.76,32.61c-2,6.38-6.33,14.65-10.74,19.52-9.58,10.56-23.6,18.83-37.3,22.7-11.73,3.31-26.81,5-38.36.18-3.64-1.52-6.76-4.16-10.37-5.7-5.07-2.16-7.24-4.69-11.14-8.71a86.62,86.62,0,0,1-12.14-15.08c-4.12-6.7-4.51-14.06-6.83-21.33-1.78-5.6-4.13-10.45-3.57-16.34.66-7,.39-12.15,4-18.45s6.11-13.23,10.63-19c9.3-11.9,18.66-21.67,33.77-25.71a63.24,63.24,0,0,1,19.6-1.68,51.29,51.29,0,0,1,8.49,1c2.61.58,5.06,2.48,7.92,2.32L152,70.69a43.26,43.26,0,0,0,6.31,3.08c7.33,3,14.37,4.55,21.12,8.91,2.77,1.79,3.93,4,6,6.35,2.62,3,5.32,4.85,7.28,8.35,3.17,5.69,7.61,11.79,8.53,18.38.94,6.75,2.18,13.78,2.16,20.64A74.07,74.07,0,0,1,199.72,158.28Z"/></g><g id="outline-3" data-name="outline"><path class="cls-2" d="M223,125.67c-.67-8.2-1.86-16.45-4.76-24.18a55.52,55.52,0,0,0-5.37-10.77,57,57,0,0,0-3.72-5,47.83,47.83,0,0,1-3.82-5.36,16.3,16.3,0,0,0-4-4.62c-1.69-1.24-3.66-2-5.34-3.29a37.79,37.79,0,0,1-4.66-4.55c-1.49-1.56-3.12-3-4.74-4.42a25.49,25.49,0,0,0-11.73-6.34c-2.33-.5-4.68-.83-7-1.54-2.09-.66-4.1-1.56-6.13-2.39-4.44-1.81-9.17-2.49-13.88-3.33a73.48,73.48,0,0,0-14.19-1.32c-4.84.09-9.37,1.35-14,2.67-2.45.7-4.91,1.41-7.37,2.06a37.22,37.22,0,0,1-6.65,1.44,22.62,22.62,0,0,0-4.58.5,9.91,9.91,0,0,1-1.76.33,9.1,9.1,0,0,0-2.78,1.11A52,52,0,0,0,86.26,63.4C80,68.6,74.78,74.94,69.63,81.23a66.28,66.28,0,0,0-7.28,10.11,93.79,93.79,0,0,0-5.27,12.13A96.12,96.12,0,0,0,51,130.21a95,95,0,0,0,.5,14.11c.36,4.45.7,8.88,2.09,13.14,1.31,4,3.17,7.83,4.48,11.85A67.91,67.91,0,0,0,62.4,180.7a28.42,28.42,0,0,0,8.7,9.42,27.29,27.29,0,0,1,5.06,4.47c1.41,1.72,2.59,3.6,4,5.29a54.64,54.64,0,0,0,9.34,8.9c3.7,2.67,8.1,4.28,12.28,6a101.15,101.15,0,0,0,13.42,4.6,73.56,73.56,0,0,0,14.24,2,106.31,106.31,0,0,0,28.26-1.93A94.87,94.87,0,0,0,183.92,209c3.86-2.17,8-4.46,11.1-7.64a56.43,56.43,0,0,0,4.1-4.89c1.4-1.81,2.89-3.55,4.33-5.33a123.47,123.47,0,0,0,8.21-11.48,77.69,77.69,0,0,0,6.58-12.17c3.48-8.61,3.29-18.07,4.16-27.16a85.83,85.83,0,0,0,.58-14.68c-.14-1.92-3.14-1.93-3,0a83.89,83.89,0,0,1-.55,14.43c-.44,4.52-.6,9.06-1.08,13.57a49,49,0,0,1-2.84,12.65,71.4,71.4,0,0,1-6.44,11.84,119.85,119.85,0,0,1-8,11.23c-2.67,3.28-5.18,6.85-8.15,9.87s-7.12,5.29-10.89,7.4a108,108,0,0,1-12.37,5.92A83.22,83.22,0,0,1,143,218.39c-9.11.52-18.58.31-27.44-2a100.92,100.92,0,0,1-13-4.49c-4-1.65-8.2-3.23-11.73-5.82a51.46,51.46,0,0,1-9-8.82c-1.4-1.71-2.56-3.6-4-5.27a29.86,29.86,0,0,0-4.91-4.2A32.68,32.68,0,0,1,68,183.61a23.3,23.3,0,0,1-3.32-5,79.1,79.1,0,0,1-4.09-11.08c-1.26-3.83-3.08-7.44-4.28-11.28-1.33-4.21-1.6-8.58-2-13A87.89,87.89,0,0,1,54,129.77a80.57,80.57,0,0,1,2.19-13.27,98.47,98.47,0,0,1,9-24,65.66,65.66,0,0,1,7.1-9.73c2.49-3,5-6.09,7.66-9,5.28-5.82,11.19-11.19,18.33-14.62.47-.23,1-.45,1.44-.67-.41.19-.21.06.22,0a11,11,0,0,0,2.32-.53,33.71,33.71,0,0,1,4.26-.38c4.58-.54,9.12-2.13,13.54-3.4,4.58-1.3,9.06-2.63,13.87-2.69a72,72,0,0,1,13.89,1.34c4.47.83,8.93,1.47,13.17,3.2,2,.8,3.9,1.67,5.92,2.33a63.8,63.8,0,0,0,6.71,1.51,20,20,0,0,1,6.33,2.24,33.28,33.28,0,0,1,5,3.84c1.56,1.39,3.11,2.78,4.55,4.31a41.18,41.18,0,0,0,4.5,4.36c1.61,1.24,3.47,2.06,5.15,3.18A13.62,13.62,0,0,1,203,82.34c2.14,3.51,5,6.45,7.23,9.9a59.3,59.3,0,0,1,8.22,21.62,114.11,114.11,0,0,1,1.5,11.81C220.14,127.58,223.14,127.59,223,125.67Z"/><path class="cls-2" d="M198.27,157.88a59.51,59.51,0,0,1-6.07,13A49,49,0,0,1,183,181.63a81,81,0,0,1-25.68,15.45,63.56,63.56,0,0,1-28.62,3.8,52.42,52.42,0,0,1-14.23-3.35c-2.62-1-5.14-2.3-7.69-3.48-2.24-1-4.57-1.93-6.75-3.11-3.88-2.09-6.86-5.36-9.82-8.56A74,74,0,0,1,80.73,170c-2.68-4.54-3.72-9.72-4.9-14.8-.61-2.6-1.31-5.16-2.17-7.69s-1.75-4.86-2.35-7.37a23.69,23.69,0,0,1-.45-7.74c.2-2.3.31-4.62.6-6.92a26.93,26.93,0,0,1,1.6-6.61c.94-2.41,2.37-4.61,3.54-6.92,2.37-4.66,4.5-9.48,7.54-13.76A101.66,101.66,0,0,1,93,87.57c6-6.38,13.08-11.74,21.43-14.65a52.89,52.89,0,0,1,16-2.82,83.16,83.16,0,0,1,8.5.18,29,29,0,0,1,7.91,1.33c2.28.84,4.34,2,6.84,1.92,1.41,0,2.15-2.1.76-2.8l-.67-.33A1.5,1.5,0,0,0,152.25,73a17.61,17.61,0,0,0,3.89,1.6c1.75.54,3.43,1.29,5.14,1.92,3.28,1.21,6.61,2.28,9.84,3.59s6.74,2.8,9.22,5.2a34.78,34.78,0,0,1,3,3.54,45.64,45.64,0,0,0,3.66,4,36.4,36.4,0,0,1,3,3.2,42.94,42.94,0,0,1,2.88,4.66,89.39,89.39,0,0,1,5,9c1.55,3.45,2,7,2.56,10.73.56,3.87,1.11,7.74,1.35,11.64a71.12,71.12,0,0,1-3.48,25.81c-.57,1.85,2.32,2.64,2.9.8a74.68,74.68,0,0,0,3.71-23.48A102,102,0,0,0,203.77,123c-.53-3.81-.81-7.82-2-11.48a49.62,49.62,0,0,0-4.67-9.61c-1.79-3.05-3.4-6.3-5.76-9s-4.81-4.88-7-7.61a23.05,23.05,0,0,0-8.29-6.29,105.07,105.07,0,0,0-11.49-4.54c-2-.71-4.05-1.48-6.06-2.26a32.34,32.34,0,0,1-4.76-1.85L152.25,73l.67.33.75-2.79c-2.57.06-4.73-1.53-7.15-2.18a43.29,43.29,0,0,0-8.79-1.14,69.71,69.71,0,0,0-17.25,1A52.75,52.75,0,0,0,95.34,81.1a94.57,94.57,0,0,0-9.62,10.29,70.86,70.86,0,0,0-8.59,12.84c-1.26,2.46-2.44,5-3.71,7.41a56,56,0,0,0-3.53,7.22c-1.6,4.56-1.67,9.46-2.08,14.23-.49,5.63,1.41,10.64,3.17,15.89s2.5,10.55,4.16,15.72c1.72,5.35,4.76,10,8.22,14.32a81.43,81.43,0,0,0,10.51,11.29c3.62,3.12,7.95,4.73,12.23,6.73,4.9,2.29,9.73,4.48,15,5.66a64.4,64.4,0,0,0,30.39-.6,83.43,83.43,0,0,0,27.94-13.75,67,67,0,0,0,11.26-10.28,55.14,55.14,0,0,0,7.84-12.78,59.64,59.64,0,0,0,2.6-6.61C201.76,156.84,198.86,156.05,198.27,157.88Z"/></g><path class="cls-1" d="M122.51,51.29c.86-3.09,2-5.14,5-6.42,3.41-1.47,3.27-5,3.59-8.13.19-2,.57-3.82.1-5.77a24.78,24.78,0,0,0-1.78-4.88c-.77-1.65-1.44-3.47-.62-5.23.65-1.41,1.91-2.48,2.74-3.78a3.57,3.57,0,0,0,.11-4.33,11.31,11.31,0,0,1-1.45-6c.09-3,2.56-4.79,5.38-5.21s5,1.6,6.61,3.74a5.68,5.68,0,0,1,1.35,3.46c0,1.91-1.39,2.84-2.57,4.11a2.58,2.58,0,0,0,.09,3.64c.92,1,1.85,1.48,2.26,2.79a17,17,0,0,1,.34,5.57c-.06,1.26-.33,2.5-.43,3.76a6.63,6.63,0,0,1-.09,2c-.22.49-.84.69-1.14,1.11-1.51,2.16-1.25,5.26-.79,7.65.2,1,.4,2.52,1.19,3.31,1.4,1.41,3.48,1.79,4.56,3.62.69,1.18,2.18,3.47,2,4.9-3.41-.25-6.89-1.19-10.28-1.71a19.32,19.32,0,0,0-6.81.47,75.29,75.29,0,0,1-9.14,1.58"/><path class="cls-2" d="M124,51.69a8.8,8.8,0,0,1,2.21-4.25c1.28-1.18,3.06-1.51,4.24-2.84,2.27-2.57,2.07-6.65,2.39-9.86a14.19,14.19,0,0,0-.86-6.45c-.7-1.92-2.6-4.5-1.89-6.59.64-1.88,2.57-3.13,3.35-5,.91-2.16-.12-3.73-1-5.69-.7-1.66-1.26-4.07-.38-5.76A4.92,4.92,0,0,1,135.94,3c1.93-.18,3.46,1.23,4.6,2.62s2.13,3.14.77,4.72c-1.22,1.41-2.68,2.45-2.55,4.52a4.4,4.4,0,0,0,1.1,2.54c.6.71,1.51,1.26,1.92,2.11.8,1.71.48,4.23.3,6.05a10.54,10.54,0,0,1-.47,3,10.19,10.19,0,0,1-.6.91,5.13,5.13,0,0,0-.46,1.42c-.21.83-.75,1.7-1,2.62a11.45,11.45,0,0,0-.24,3.25,15.42,15.42,0,0,0,1.2,5.86c1,1.92,3.07,2.38,4.54,3.74a8.63,8.63,0,0,1,1.47,2.23,5.16,5.16,0,0,1,.89,2.57l1.5-1.5c-4.41-.36-8.8-2.12-13.24-1.82s-8.6,1.83-13,2.16c-1.91.15-1.92,3.15,0,3,4.39-.33,8.61-1.86,13-2.16a25.19,25.19,0,0,1,6.52.78,61.3,61.3,0,0,0,6.72,1,1.52,1.52,0,0,0,1.5-1.5c.08-1.82-1-3.56-1.87-5.07a10.76,10.76,0,0,0-4.08-3.7A3,3,0,0,1,143,40.53a20,20,0,0,1-.5-2.65,11.83,11.83,0,0,1-.07-3,17.12,17.12,0,0,1,1.09-2.9c.11-.33,0-.71.12-.95a9.88,9.88,0,0,1,.68-1.05,9.53,9.53,0,0,0,.67-3.31,22.73,22.73,0,0,0,0-6.84,5.72,5.72,0,0,0-1.11-2.59c-.58-.75-1.89-1.47-2.09-2.43s.82-1.46,1.32-2a7,7,0,0,0,1.61-2.34c1.42-3.8-2.26-8.32-5.55-9.84a7.78,7.78,0,0,0-9.74,3.27,9.12,9.12,0,0,0-.41,6.16,14.24,14.24,0,0,0,1.13,3.08c.57,1.14.91,1.83.21,3-1.15,1.94-3,3.29-3.37,5.66s1,4.51,1.85,6.69a14.26,14.26,0,0,1,1.06,3.83,21.87,21.87,0,0,1-.28,4.2c-.19,1.8-.08,3.93-1,5.54a4.45,4.45,0,0,1-2.17,1.67,9.35,9.35,0,0,0-2.46,1.71,11.92,11.92,0,0,0-2.87,5.46,1.5,1.5,0,0,0,2.89.8Z"/><path class="cls-1" d="M187.58,65.29c4.36-2.47,8,1.6,12.28,0,1.9-.71,2.74-3.1,3.71-4.66,1.24-2,2.73-3.76,4.15-5.61,2.75-3.58,5.13-5.67,9.47-7.2,2.14-.75,3.19-.56,3.83-2.37.23-.64-.33-2,0-3a5.58,5.58,0,0,1,2.22-2.77c8.64-5.17,17.25,10,5.17,12.35-.83.16-3.72-.08-4.29.42-1,.9-.27,3.79-.4,5-.45,4.42-3.84,5.19-7.44,6.79-4.55,2-6.39,3-8.2,7.91-.68,1.83-1.55,4-1.45,6s1.76,4,.1,5.85c-2.5-1.35-4.1-1.92-5.88-4.13-1.31-1.62-2.53-3.34-3.91-5-1.79-2.08-6.46-8.75-9.33-8.22"/><path class="cls-2" d="M188.34,66.59c2.1-1.11,4.18-.35,6.33.16s4.55.72,6.51-.46S203.86,63,205,61.18a59.58,59.58,0,0,1,5.11-6.73A17,17,0,0,1,215,50.37,18.27,18.27,0,0,1,218.3,49a10.19,10.19,0,0,0,2.52-.94,4,4,0,0,0,1.65-2.25c.27-1-.27-2,0-3,.38-1.57,2.38-2.53,3.85-2.71,4.35-.52,9,5.71,5.22,9a6.79,6.79,0,0,1-3.93,1.49c-1.6,0-3.9-.27-4.92,1.26s-.34,3.62-.44,5.4a4.77,4.77,0,0,1-2.93,4c-3.74,2-8.12,2.86-10.71,6.48a22.64,22.64,0,0,0-3,6.92,9.7,9.7,0,0,0-.34,4.57c.29,1.41,1.15,2.66.16,4l2.05-.54c-1.12-.6-2.28-1.14-3.35-1.83a11.43,11.43,0,0,1-2.65-2.59c-1.57-2-3.15-4-4.74-6a42,42,0,0,0-4.2-4.74c-1.28-1.18-3.06-2.63-4.94-2.38a1.55,1.55,0,0,0-1.5,1.5c0,.73.7,1.61,1.5,1.5,1.4-.19,2.88,1.51,3.79,2.47,1.38,1.43,2.6,3,3.85,4.55,1.6,2,3.11,4.09,4.79,6s3.78,2.9,5.93,4.06a1.56,1.56,0,0,0,2.06-.54,4.5,4.5,0,0,0,.82-3.67c-.22-1.29-.83-2.45-.71-3.79a17.07,17.07,0,0,1,1.24-4.3,17.24,17.24,0,0,1,1.36-3c2-3.36,6.37-4.27,9.68-5.88a8.19,8.19,0,0,0,4.2-4.06,7.88,7.88,0,0,0,.62-3c0-.47-.06-.94-.1-1.41a8.5,8.5,0,0,0,0-1.68c0-.1.1-.3.06-.37.37.59-.75,0-.18.15a8.31,8.31,0,0,0,1.19-.1,16.21,16.21,0,0,0,2.79-.16,9.81,9.81,0,0,0,4.77-2.3c4.79-4.4.87-12.12-4.56-13.71-3.5-1-7.76.52-9.33,3.93a5.45,5.45,0,0,0-.28,3.07c.1.92-.29,1.16-1.12,1.41a22.83,22.83,0,0,0-6.5,2.89,24.61,24.61,0,0,0-5.48,5.49c-1.09,1.41-2.22,2.8-3.25,4.26-.81,1.15-1.43,2.37-2.15,3.58a3.57,3.57,0,0,1-2.63,2,9,9,0,0,1-3.6-.43c-2.78-.71-5.33-1.09-8,.31-1.71.9-.2,3.49,1.51,2.59Z"/><path class="cls-1" d="M221.49,122.9c3.29,0,4.29-.09,6,2.81,1.31,2.25,2.48,4.38,4.76,5.75,4.41,2.63,8.74-.89,12.95-2.23a17.32,17.32,0,0,1,7.11-.83c2,.31,4.07,2.66,5.85,2.72,2.85.1,3-3.09,6.34-2.14a11.6,11.6,0,0,1,5.54,3.91c2.3,3.58.21,9.91-4.77,9.05-2-.35-3.74-2.39-6-2.51-2.62-.14-4.6,1.67-6.68,3-5.32,3.52-9-1.18-14.62-2-2.71-.4-6-.36-8.4,1.13-2.14,1.34-3.39,4.16-5.23,6.11-1.06,1.11-1.23,2.86-2.78,1.19-.62-.67-.37-2.55-.32-3.38.17-3,.83-5.73.83-8.78,0-4.08.85-10.4-1.1-14.1"/><path class="cls-2" d="M221.49,124.4c1.62,0,3.1-.21,4.15,1.21,1.51,2.06,2.43,4.44,4.44,6.12a8.75,8.75,0,0,0,7.39,2c2.75-.49,5.14-2,7.75-2.93,2.17-.75,5.38-1.64,7.61-.68s3.74,2.87,6.29,2.42a5,5,0,0,0,2.22-1.06,4.8,4.8,0,0,1,1.77-1.17,4.46,4.46,0,0,1,2.58.81,9.49,9.49,0,0,1,2.92,2.34c1.72,2.3.78,7.36-2.76,7a7.36,7.36,0,0,1-2.9-1.29A8.7,8.7,0,0,0,259.6,138c-2.61-.28-4.82,1.15-6.86,2.58s-3.88,2.12-6.37,1.33c-2.24-.7-4.28-1.92-6.55-2.54a17.23,17.23,0,0,0-8-.25,10,10,0,0,0-6,4.13c-.87,1.15-1.67,2.33-2.6,3.43-.3.35-1,1-1.06,1.43l-.07.12c-.27.28,0,.25.75-.08-.1.25-.26-.62-.24-.52a13.65,13.65,0,0,1,.24-3.93c.2-1.76.49-3.5.61-5.27.19-2.8.26-5.67.25-8.47a17.88,17.88,0,0,0-1.5-8c-.86-1.73-3.45-.21-2.59,1.52,1.17,2.32,1.12,5.15,1.08,7.68-.05,2.73-.05,5.53-.32,8.25s-1,5.76-.74,8.58c.26,2.47,3.11,4.42,4.89,2C226,148,227.39,145.83,229,144c2-2.21,5-2.47,7.78-2.2,4.91.46,9.33,4.79,14.41,3,2.56-.9,4.51-3.53,7.26-3.87,2.43-.31,4.34,2.13,6.69,2.48,4.43.67,7.52-3.41,7.29-7.56a7.88,7.88,0,0,0-2.95-5.74c-1.82-1.52-4.44-3.2-6.93-2.75a5.12,5.12,0,0,0-2.33,1.15,3.63,3.63,0,0,1-1.8,1.09c-1,.09-2.17-1-3-1.46a8.24,8.24,0,0,0-3.92-1.34,20.56,20.56,0,0,0-9.34,2c-2.84,1.24-6.16,3.14-9.19,1.36-2.65-1.55-3.48-4.59-5.35-6.83-1.6-1.92-3.85-1.92-6.16-1.93a1.5,1.5,0,0,0,0,3Z"/><path class="cls-1" d="M187.58,205.6c3.44,3.62,7.5-.72,11.58.85s7,6.5,9.71,10c1.43,1.84,2.35,4.47,4,6,2.1,1.88,4.35.6,6.48,1.81,2.36,1.33,1.48,3.84,2.79,5.63a6.23,6.23,0,0,0,9.5-8.06c-2.11-2.66-3.55-1.93-6.22-3.24-2.23-1.11-1.76-2-1.77-4.56-.07-9.57-18.9-9-17.61-20,.13-1.16,1.75-5.43.64-6.36-1.78-1.49-4,4-4.8,5.12-2.25,3.23-9.24,12.51-13.79,12"/><path class="cls-2" d="M186.52,206.66c2.39,2.35,5.15,2,8.16,1.31a6.77,6.77,0,0,1,4.08-.07,10.77,10.77,0,0,1,3.65,2.66,52.89,52.89,0,0,1,5.6,7.21c1.79,2.64,3,6.3,6.47,7.09,1.41.32,3.43-.11,4.57.95.86.82.79,2.3,1.15,3.36,1,2.86,4,4.32,6.88,4.22a7.66,7.66,0,0,0,6.66-11.18A8.56,8.56,0,0,0,230.9,219a12.19,12.19,0,0,0-3.3-1.24c-.79-.24-2.19-.57-2.42-1.46a23.87,23.87,0,0,1,0-3.17c-.46-4-3.74-6.45-7-8.29s-7-3.17-9.33-6.08a6.18,6.18,0,0,1-1.26-4.5c.29-2.12,1.57-4.34.92-6.52-.76-2.58-3.59-2-5-.39s-2,3.4-3.12,5a57.28,57.28,0,0,1-4.24,5.33,22.23,22.23,0,0,1-5.68,5,4.07,4.07,0,0,1-2.32.59c-1.93-.15-1.92,2.85,0,3s4-1,5.55-2.12a35.34,35.34,0,0,0,5.41-5.25c1.38-1.63,2.71-3.32,3.92-5.07,1-1.44,1.55-3.23,2.75-4.52,0,0,.32-.31.33-.34.12-.67.2.23,0-.06.07.11-.64-.2-.51-.27a4,4,0,0,1,0,.49,17.87,17.87,0,0,1-.65,3.14,9.66,9.66,0,0,0,0,5.51c1.16,3.56,4.43,5.72,7.56,7.45,2.88,1.59,6.52,2.93,8.59,5.62,1.13,1.45,1.11,3,1.09,4.72,0,2.66,1.49,4,3.89,4.86.92.34,1.95.46,2.83.89a5.37,5.37,0,0,1,2.46,2.86,4.51,4.51,0,0,1-1.59,5.32c-1.8,1.24-5.52,1.41-6.59-.93-.5-1.09-.48-2.34-1-3.44a5.08,5.08,0,0,0-3.1-2.67c-1.63-.53-3.69,0-5.09-1.1s-2-2.76-2.78-4.13-1.87-2.68-2.83-4-2-2.72-3.1-4c-2.07-2.36-4.86-4.66-8.16-4.66-2.76,0-6.17,2.21-8.48-.06-1.37-1.35-3.5.77-2.12,2.12Z"/><path class="cls-1" d="M123.36,218.83c-.53,5.95,5.53,7,7.46,11.6,2,4.85,0,9-1.12,13.76a13.39,13.39,0,0,0-.35,6.62c.5,1.89,2.92,3.88,3.09,5.63s-1.93,3.91-2.39,5.6-1,5.24,0,6.92c2.91,5.13,10.31,1.87,12.63-1.82a4.81,4.81,0,0,0-.28-6.21c-2.64-3.45-3.38-3-1-7.08,3-5,.71-9.77-.14-15.29-.41-2.66-1-7.79.7-10.11,1.33-1.84,3.93-2.77,5.7-4.42,2.16-2,5.44-4.69.92-5.21-2.59-.29-5.7.56-8.4.56h-8.56c-2,0-6.59-1.16-8-.55"/><path class="cls-2" d="M121.86,218.83a8.43,8.43,0,0,0,2.21,6.31c1.39,1.59,3.23,2.74,4.52,4.42,4.2,5.47-.85,12.68-1,18.59a8.79,8.79,0,0,0,.85,4.32c.65,1.27,1.78,2.29,2.36,3.59.45,1-.35,2-.86,2.91a11.3,11.3,0,0,0-1.51,3.47c-.49,2.28-.84,5.13.32,7.27a6.65,6.65,0,0,0,5.53,3.39c4.39.26,9.61-3.14,10.71-7.48.8-3.16-1.29-5.32-3.05-7.64-.46-.59-.56-.65-.35-1.28.5-1.41,1.51-2.62,2.05-4,2.11-5.55-.77-11.46-1.21-17.06-.17-2.2-.44-5.2,1.28-6.87a23.05,23.05,0,0,1,3.27-2.28,23.18,23.18,0,0,0,3-2.56c1.47-1.4,3.69-4.05,1.29-5.75-2.55-1.81-6.62-.61-9.44-.35-2,.18-4,.09-5.94.08-1.73,0-3.51.12-5.24,0-2.28-.23-5.18-1.27-7.43-.44-1.79.66-1,3.56.8,2.89a5.64,5.64,0,0,1,2.42,0c1.12.12,2.24.32,3.36.46a62.82,62.82,0,0,0,8.46.16,37.83,37.83,0,0,0,4.64-.2,37.14,37.14,0,0,1,4.47-.42,12.89,12.89,0,0,1,1.87.21c.38.05.25.31.2,0,.08.47-.12-.36-.12-.36s-.51.71-.56.77c-.35.39-.73.75-1.11,1.11-1.8,1.7-4,2.78-5.83,4.4s-2.35,3.81-2.48,6.13a31.74,31.74,0,0,0,.53,6.88c.48,2.85,1.43,5.67,1.5,8.58a9.55,9.55,0,0,1-.75,4.12c-.54,1.23-1.38,2.31-1.86,3.58-.71,1.87,0,3.21,1.2,4.65.8,1,1.89,2.05,2.14,3.34a4.15,4.15,0,0,1-1.1,3.21,9.17,9.17,0,0,1-4.7,3c-1.67.44-3.53.31-4.65-1.15s-.72-4.51-.17-6.3c.69-2.2,2.81-3.88,2.4-6.39s-3-4-3.28-6.55c-.43-3.53,1.26-7.09,2-10.47a14.35,14.35,0,0,0-.72-9.75c-1.93-3.87-7.4-5.58-7.07-10.44.13-1.92-2.87-1.92-3,0Z"/><path class="cls-1" d="M66.57,185.48c-.42,2.88-1.9,5.48-1.66,8.54.21,2.71.93,3-.65,5.1a41.64,41.64,0,0,1-10.05,9.73C52.45,210,50.54,211,49.47,213c-.9,1.62-.38,4.84-1.49,6-1,1-3.75.61-5.13,1.65-2.21,1.65-3.87,4-3,6.75,1.67,5.61,7.58,5.75,10.77,1.72,1.42-1.79,1-4.25,2.64-5.72,1.47-1.3,4-1.08,5.83-1.51,5.69-1.34,5.35-5,8.06-9.31,2.43-3.9,5.11-8.4,10-7.92,1.12.11,5,1.27,6,.44,1.91-1.67-2.12-4.81-3.22-6-4.07-4.26-8.4-10-13.34-13.38"/><path class="cls-2" d="M65.12,185.08c-.49,3-1.92,5.83-1.71,8.94a16.64,16.64,0,0,1,.34,2.88c-.12,1-1.23,2.07-1.87,2.84a41.23,41.23,0,0,1-6.68,6.59c-2.24,1.71-5,2.88-6.62,5.24a6.65,6.65,0,0,0-1.1,3c-.12.88,0,2.53-.52,3.25-.44.56-1.79.5-2.45.62A6.54,6.54,0,0,0,41.2,220a7.63,7.63,0,0,0-3,7,8,8,0,0,0,3.6,5.44c3.82,2.24,9.1.06,10.79-3.89.46-1.07.56-2.29,1.08-3.33.62-1.25,2-1.42,3.24-1.57,2.47-.31,4.84-.76,6.8-2.41a13,13,0,0,0,3.1-4.85,37.87,37.87,0,0,1,3.45-6c1.24-1.8,2.85-3.76,5.11-4.23,1.9-.4,3.79.46,5.85.63,2.25.2,4.45-1.14,3.8-3.69-.53-2.08-2.49-3.52-3.93-5-4.6-4.6-8.36-10-13.76-13.72-1.59-1.11-3.09,1.49-1.52,2.59,4.55,3.16,8,7.65,11.7,11.7,1.22,1.34,2.64,2.51,3.8,3.89.25.29.86,1,.82,1.34,0-.26.26,0-.24-.1s-1-.06-1.43-.14c-1.95-.32-3.74-.86-5.73-.46a10,10,0,0,0-5.28,3.33,36.34,36.34,0,0,0-3.81,5.49c-1,1.69-1.64,3.56-2.61,5.27a6.15,6.15,0,0,1-4.19,3c-2.28.56-4.82.26-6.68,1.95s-1.44,4.42-3,6.19a5.23,5.23,0,0,1-4.42,1.85A4.39,4.39,0,0,1,41.26,227a4.86,4.86,0,0,1,3.08-5.42c2-.64,4.25-.27,5.32-2.44.88-1.78.23-4.05,1.3-5.72A9.59,9.59,0,0,1,54,210.74a42.57,42.57,0,0,0,3.67-2.59,43.6,43.6,0,0,0,7-7.13,9.21,9.21,0,0,0,1.95-3.19,7.48,7.48,0,0,0-.12-2.94c-.44-3.17,1-5.94,1.51-9,.3-1.89-2.59-2.7-2.9-.8Z"/><path class="cls-1" d="M52.51,122.08c-5.86-.16-5.24,3.43-7.77,7.44-2.4,3.79-5.9,2.74-9.72,2.21s-6.44-3.54-10.07-4.15c-4.45-.74-5.9,3.41-9.91,2.83-3.46-.49-7.14-2.8-10.62-.47-3.15,2.12-4.12,7.62-1.1,10.22,3.81,3.28,6.52,0,10.36-.72,4.9-.86,7.05,4.26,11.87,3.53,5.06-.77,9.45-4.34,15-3.13,4.64,1,6,5.64,9.71,8.11,2.46-2.9.26-9,0-12.37s-.61-9.73,1.94-12.4"/><path class="cls-2" d="M52.51,120.58a7.59,7.59,0,0,0-5.32,1.57,10.48,10.48,0,0,0-2.32,3.8c-.71,1.63-1.52,3.74-3.27,4.5s-3.77.2-5.49-.06A17.29,17.29,0,0,1,30,128a12.92,12.92,0,0,0-6.08-2,9.78,9.78,0,0,0-5.09,1.79,5.64,5.64,0,0,1-4.95.87c-2.35-.59-4.67-1.47-7.13-1.14a7.53,7.53,0,0,0-5.28,3.35c-2.07,3.08-2.11,7.78.78,10.36a6.66,6.66,0,0,0,6.31,1.6c2-.53,3.93-1.93,6.1-2,1.73,0,3.17,1,4.58,1.84a10.91,10.91,0,0,0,5,1.85c5.25.32,9.72-4,15.05-3.38,4.66.54,6.63,5.63,10.17,8.1a1.5,1.5,0,0,0,1.82-.24c2.91-3.7,1.06-8.59.55-12.77a38.29,38.29,0,0,1-.19-6.15c.08-1.93.27-4.34,1.63-5.85s-.83-3.56-2.13-2.12c-2.93,3.26-2.66,8.42-2.43,12.5a58.14,58.14,0,0,0,.87,6.16c.29,1.79.82,4.54-.42,6.11l1.82-.23c-3-2.11-4.58-5.8-8-7.5-4.16-2.08-8.68-.66-12.74.85-1.85.69-4,1.68-6,1.52-1.63-.12-3-1.15-4.36-2a10.45,10.45,0,0,0-4.77-1.71c-2.13-.12-4,.81-5.94,1.58s-3.76,1-5.25-.75a4.86,4.86,0,0,1-.73-4.46A4.92,4.92,0,0,1,7,130.49c2.26-.4,4.55.71,6.71,1.19a7.78,7.78,0,0,0,5.41-.57c1.34-.67,2.53-1.75,4-2,1.91-.38,3.78.65,5.39,1.55a18.52,18.52,0,0,0,5.93,2.53,22.14,22.14,0,0,0,6.43.54A7.15,7.15,0,0,0,46,130.28c1-1.51,1.49-3.22,2.35-4.78s2.31-1.94,4.13-1.92a1.5,1.5,0,0,0,0-3Z"/><path class="cls-1" d="M53.06,45.72c-1-3.14-.13-6.34-3.6-8.09-2.58-1.29-4.58-.79-6.72.78-3.81,2.8-4.49,10.65.11,12.81,2.66,1.24,4.59.3,5.26,3.66s-.63,5.3,2.15,7.9c3.34,3.12,8.6,3.31,12.39,5.83,3.33,2.2,2.93,4,3.09,7.71a13.06,13.06,0,0,0,3,7.64c3.52-2,6.21-6.85,8.85-9.88,2.39-2.75,6.67-5.86,7.82-9.38-5.72-1.87-12.28,3.88-16.53-2.14-3.06-4.34-2.32-9-6.76-12.73A11.47,11.47,0,0,0,56.93,47c-1.58-.34-3.29,0-4.69-1"/><path class="cls-2" d="M54.51,45.32c-.74-2.53-.48-5.39-2.33-7.49a7.39,7.39,0,0,0-8.52-1.72A10.2,10.2,0,0,0,38.78,48.8a7.41,7.41,0,0,0,5.39,4.46c.73.18,1.65.22,2.12.87.74,1,.52,2.85.55,4a8.15,8.15,0,0,0,4.11,7c2.66,1.7,5.8,2.29,8.67,3.5a9,9,0,0,1,3.84,2.61,5.85,5.85,0,0,1,.73,3.32,18.94,18.94,0,0,0,.67,5.24,15.78,15.78,0,0,0,2.62,4.86,1.54,1.54,0,0,0,2,.53c4-2.37,6.12-6.58,9-10s6.81-5.88,8.32-10.17a1.52,1.52,0,0,0-1-1.85c-3.35-1-6.59.11-9.93.54a6.43,6.43,0,0,1-4.21-.56,8.65,8.65,0,0,1-3-4.28c-1.37-3.4-2.09-6.93-4.82-9.6a15.09,15.09,0,0,0-5-3.3c-1.87-.71-4.2-.29-5.88-1.35s-3.14,1.56-1.51,2.59c1.82,1.15,3.87.8,5.84,1.4a11.28,11.28,0,0,1,5,3.38c2.48,2.83,2.78,6.86,4.58,10.07a8.43,8.43,0,0,0,8.32,4.72c3.26-.24,6.6-1.69,9.85-.71L84,64.3c-1.33,3.76-5.3,6.15-7.77,9.11-2.59,3.11-4.66,7.12-8.22,9.25l2.06.54a13.29,13.29,0,0,1-2.87-8.26c-.07-2.15-.25-4.2-1.72-5.89-1.77-2-4.5-3.11-7-4S53,63.47,51,61.42c-1.7-1.8-1-4.33-1.4-6.57a4.93,4.93,0,0,0-4.14-4.36C43.54,50,42,49.3,41.4,47.25A7.84,7.84,0,0,1,42,41.61c1.27-2.43,4.06-4,6.69-2.68s2.2,4.72,2.92,7.19a1.5,1.5,0,0,0,2.89-.8Z"/></g></g></svg>