<svg xmlns="http://www.w3.org/2000/svg" viewBox="0 0 89 274.6"><defs><style>.cls-1{fill:#09edf6;}.cls-2{fill:#043c7a;}.cls-3{fill:#fff;}</style></defs><g id="Layer_2" data-name="Layer 2"><g id="Vuurtoren"><g id="blue"><g id="fill"><path class="cls-1" d="M87.5,273.1c-.5-11.37-1.87-24.2-3.36-35.54C82,221.19,79.94,204.49,78.89,188c-.21-3.38-.77-6.82-1-10.2-.36-4.71-.36-7.71-.69-11.69-.46-5.6-2.45-11.45-2.57-17.06-.2-9.14-1.53-18.16-2-27.23-.42-8.3-2.11-16.48-2.11-24.73A22,22,0,0,0,75,96.51c.07-1.1.68-5-.35-5.72-.4-.27-1.63,0-2.07,0a15,15,0,0,1-3-.21,24.14,24.14,0,0,1-.25-2.71c-.33-1.88-.73-3.77-.9-5.66a29.21,29.21,0,0,0-.71-3.59c-.32-1.46-.11-3-.34-4.44a13.56,13.56,0,0,1,3.78-.32,9,9,0,0,0-.2-1.7c-.1-.79.09-1.62,0-2.41S70.64,69,69.78,69c-.53,0-1-.06-1.57-.06-2.55,0-6.17.2-8.71.2a20.5,20.5,0,0,0,.56-4.79c.08-1.69.14-3.35.14-5.05,0-2.64,0-5.26.15-7.89C60.49,47.92,61,50,63,48.64c.56-.37.92-2.5.54-3.46s-2-.82-3.24-1c-2.2-.32-1.9-.49-1.81-2.54a27.13,27.13,0,0,0-.17-3.92,35.53,35.53,0,0,1,.08-7.36c1.38-.3,1.5-.16,1.63-1.55.07-.79-.56-1.71-.56-2.71-.71-1.57-1.35-3.68-2.13-5.29a10.45,10.45,0,0,0-4.14-4.17c-1.64-1.08-3.89-1.31-5.19-2.89A6.75,6.75,0,0,1,46.5,9.1c3.38-1.23,2.16-6-.68-7.33-2.44-1.17-6,1-6.18,3.64-.12,2,.83,2.12,1.08,3.57a3.88,3.88,0,0,1-.37,2.87c-.4.74-1.18,1-2,1.69a15.57,15.57,0,0,1-2,1.25,48.78,48.78,0,0,0-4.23,2.91,9.88,9.88,0,0,0-3.58,8.4c0,2-1,3.29-1,4.34,1.9.12,2.12-.42,1.95,1.8-.11,1.39-.14,2.74-.14,4.15a79.81,79.81,0,0,1,0,8c-.93,0-4.12-.51-4.82.15s-.05,3.56,0,4.46a7.45,7.45,0,0,1,2.5.17c1.1.47.82,1.36.81,2.72,0,2-.09,4,0,6,.16,3.77-.25,7.41-.25,11.16-3,0-6.68.49-9.72.31-.6,0-1.26-.39-1.59.23A7.06,7.06,0,0,0,16.13,72a7.39,7.39,0,0,0,0,1.82c.15.51,0,.3.43.48a7.61,7.61,0,0,0,1.52.15,11.2,11.2,0,0,1,2,.14c.59.16.4-.11.49.54a7.59,7.59,0,0,1-.08,1.35,15,15,0,0,1-.66,4.31c-.57,1.66-1.14,3.32-1.56,5a17.89,17.89,0,0,0-.47,2.51,9.08,9.08,0,0,1-.15,2.09c-.31.78-.68.42-1.55.36a11.63,11.63,0,0,0-2.43-.09c-1.28.2-1,.72-1,2,0,.86-.16,2.88.7,3.3a8.34,8.34,0,0,0,2.64,0c.46,0,2.53.18,2.53.18a120.6,120.6,0,0,0-2.22,16.41c-.22,4.48-.19,9.25-.85,13.67-.69,4.58-1,9.28-1.7,13.84-.78,5-.51,9.93-1.15,14.89-.9,7-1.14,14-2,21-.52,4.22-.46,8.6-.82,12.85S8.6,197.2,7.88,201.27C6.5,209.1,6.5,211.1,5.54,219.48c-.68,5.91-1,11.92-2.12,17.7-1.06,5.63-.6,11.38-1,17.06-.47,6.32-.9,12.48-.9,18.86Z"/></g><g id="first"><path class="cls-2" d="M14.5,136.1c6.16-.17,12.86,0,19-.27,3.73-.17,7.55-.13,11.28-.13,6.31,0,12.71.4,19.29.17,3.08-.11,6.42,1.23,9.42-.77-.2-9.14-.43-4.2-.89-13.27-.42-8.3-2.11-15.48-2.11-23.73-1,.15-1.79-.23-2.79-.13a15.26,15.26,0,0,1-4.21.13c-2.1-.34-3.87.11-6,0-6-.3-12,.23-18,0-3.22-.12-6.78.25-10,0-3.57-.27-8.41,0-12,0-1,5-1,9.22-1.22,14.41-.22,4.48-.19,9.25-.85,13.67C14.74,130.76,15.22,131.54,14.5,136.1Z"/><path class="cls-3" d="M14.5,137.6c7.31-.19,14.63-.21,22-.36,7.58-.16,15.15.18,22.73.2,1.76,0,3.52-.08,5.28-.07,1.6,0,3.17.32,4.76.34a9.27,9.27,0,0,0,4.28-.88c.81-.4,1.38-.8,1.5-1.73a17.3,17.3,0,0,0-.07-2.69c-.12-3.57-.57-6-.77-9.65C73.71,114.52,72,106.37,72,98.1a1.52,1.52,0,0,0-1.5-1.5c-1.1.09-2.16-.18-3.27-.08a16.09,16.09,0,0,1-3.25.14c-2.19-.22-4.3,0-6.48-.06-4.79-.14-9.56.05-14.35.06-2.27,0-4.54-.11-6.81-.06s-4.56.14-6.84,0c-4-.25-8,0-12,0a1.52,1.52,0,0,0-1.45,1.1c-1.29,6.64-1.23,13.5-1.48,20.24-.12,3.42-.54,6.77-.89,10.18-.27,2.53-.24,5.06-.63,7.58-.28,1.89,2.61,2.71,2.9.8.38-2.49.44-5,.64-7.48.27-3.39.8-6.72.95-10.13.28-6.77.11-13.72,1.41-20.39L17.5,99.6c4,0,8-.25,12,0,2.28.14,4.56.05,6.84,0s4.54.06,6.81.06c4.79,0,9.56-.2,14.35-.06,2.18.07,4.29-.13,6.48.06a16.85,16.85,0,0,0,3.25-.14c1.11-.1,2.17.17,3.27.08L69,98.1c0,8.27,1.71,16.42,2.16,24.66.07,1.32.15,2.63.28,3.93l.12,1.1c0,.13.15,1.12.1.71a63.14,63.14,0,0,1,.34,6.6l.74-1.29c-2,1.21-4.12.89-6.31.68-2.41-.23-4.84,0-7.25-.05-5,0-9.92-.24-14.88-.24s-9.94.17-14.91.26-9.93,0-14.89.14C12.57,134.65,12.57,137.65,14.5,137.6Z"/></g><g id="second"><path class="cls-2" d="M6.5,223.1c5.78,0,11.93.26,17.7.24,4,0,7.86.31,11.88.07a101.1,101.1,0,0,1,10.3.16c7.6.32,15.15-.32,22.74.14,4.63.27,7.75-.61,12.38-.61-2.16-16.37-3-24.52-4-41-10,0-19.85.57-29.92.19-5.08-.19-10.48-.42-15.63-.42-3.35,0-6.64.4-10,.5-3.68.12-7.76-.26-11.47-.27-.35,4.14-.9,14.1-1.62,18.17C7.5,208.1,7.46,214.73,6.5,223.1Z"/><path class="cls-3" d="M6.5,224.6c5,0,9.91.18,14.87.23,4.81,0,9.66.33,14.46.09,5.09-.25,10.17.24,15.25.25s10.05-.23,15.07-.09a74.22,74.22,0,0,0,7.75,0c2.54-.2,5-.51,7.6-.53.73,0,1.61-.69,1.5-1.5-1.8-13.63-3.13-27.27-4-41a1.53,1.53,0,0,0-1.5-1.5c-8.9,0-17.8.46-26.71.28-4.38-.08-8.77-.32-13.15-.43s-8.53,0-12.81.28c-4.79.31-9.54-.1-14.33-.13A1.54,1.54,0,0,0,9,182.1c-.48,5.66-.61,11.38-1.44,17-.56,3.77-1.11,7.51-1.44,11.3-.36,4.24-.64,8.48-1.12,12.7-.22,1.92,2.79,1.9,3,0,.48-4.22.76-8.46,1.12-12.7.32-3.69.89-7.32,1.4-11,.8-5.74,1-11.54,1.48-17.31l-1.5,1.5c4.22,0,8.44.43,12.66.22s8.51-.49,12.81-.41c8.79.17,17.55.6,26.35.44,5.06-.1,10.12-.24,15.18-.25L76,182.1c.87,13.73,2.2,27.37,4,41l1.5-1.5c-4.48,0-8.87.77-13.37.55-5-.24-10,0-15.07,0s-10.17-.43-15.26-.32c-4.85.11-9.68,0-14.54,0-5.59,0-11.17-.23-16.76-.24A1.5,1.5,0,0,0,6.5,224.6Z"/></g><g id="window"><g id="window-2" data-name="window"><path class="cls-3" d="M59,31.59a10.82,10.82,0,0,0-2.3-.33c-1.38.2-3.24-.28-4.66-.32-2.84-.1-5.68-.32-8.53-.31-3.39,0-6.81-.09-10.19.14-1.4.1-2.82.33-3.9.33,0,2.7-.45,5.22-.31,7.88.08,1.51-.58,4.51.61,5.31s4.92.62,6.39.79a27.84,27.84,0,0,0,3.31.13c3.81,0,7.5.08,11.36.08,1.59,0,3.74-.27,5.71-.34a2.27,2.27,0,0,0,2.22-2.39l-.1-1.77A28.87,28.87,0,0,1,59,35.45C59.13,34.1,58.72,33.1,59,31.59Z"/></g><path class="cls-2" d="M42.61,31c0,1.51,0,3,0,4.52a28,28,0,0,0,.12,4,30.94,30.94,0,0,1,.28,6s1.34-.34,1.45-.37A8.12,8.12,0,0,0,46,44.71a30.94,30.94,0,0,0-.28-6,28,28,0,0,1-.12-4c-.1-1.51,0-3,0-4.52,0,0-1.34.35-1.46.38a8.28,8.28,0,0,0-1.44.4Z"/><path class="cls-2" d="M28.82,38.51c4.8-.07,9.6.15,14.4.05,4.43-.1,8.86-.11,13.29-.11,1,0,1.94-.78,2.9-.78-4.43,0-8.87,0-13.3.11-4.8.1-9.59-.12-14.39-.05-1,0-1.93.76-2.9.78Z"/><path class="cls-2" d="M30.86,32.49c2.22,0,4.45-.09,6.67-.27,1-.08,2-.25,3.09-.27s2.22.11,3.33.16c2.23.1,4.44.2,6.67.37s4.53.64,6.81.72c1.93.07,1.93-2.93,0-3-2.2-.08-4.37-.54-6.56-.7s-4.61-.29-6.92-.39a45.81,45.81,0,0,0-6.2.1c-2.29.19-4.59.27-6.89.28a1.5,1.5,0,0,0,0,3Z"/><path class="cls-2" d="M30.8,46.63c4.85,0,9.69.13,14.52.39a61.1,61.1,0,0,0,6.9.07c1.05-.07,2.11-.14,3.16-.3s2-.59,3.1-.8c1.89-.38,1.09-3.27-.8-2.89-.91.18-1.74.58-2.66.73a27.56,27.56,0,0,1-3.27.28A66.54,66.54,0,0,1,44.83,44c-4.67-.24-9.35-.35-14-.36a1.5,1.5,0,0,0,0,3Z"/></g><g id="balustrade"><path class="cls-3" d="M18.28,92.85c8.74,0,17.48-.59,26.22-.66s17.66.72,26.49.66a1.5,1.5,0,0,0,0-3c-8.83.06-17.65-.74-26.49-.66s-17.48.65-26.22.66a1.5,1.5,0,0,0,0,3Z"/><path class="cls-2" d="M25.49,89.81A75.76,75.76,0,0,0,25,82l-2.89.78c2.33,0,4.74-.43,7,.1a5.11,5.11,0,0,1,.76.23l.18.08c.12,0,.13.07.05.18a2.39,2.39,0,0,1-.13.51c-.17.68-.33,1.37-.45,2.06a24.45,24.45,0,0,0-.36,4.27s1.34-.34,1.45-.37a8.15,8.15,0,0,0,1.45-.4,23.77,23.77,0,0,1,.35-4.21c.12-.69.27-1.38.44-2.06a3,3,0,0,0,.15-.57c.08-.11.06-.18,0-.19l-.19-.08a6.49,6.49,0,0,0-.75-.23c-2.3-.53-4.71-.1-7.05-.1a22.3,22.3,0,0,0-2.89.78c.27,2.6.43,5.21.44,7.82,0,0,1.33-.34,1.45-.38a8.4,8.4,0,0,0,1.45-.4Z"/><path class="cls-2" d="M42.12,89.79a63.23,63.23,0,0,1,0-7.54l-2.9.78a25.29,25.29,0,0,1,4.35.25c.46.07.93.08,1.4.13a2.1,2.1,0,0,1,1.27.42c.67.64.16,1.93,0,2.67a16.74,16.74,0,0,0-.13,3.94s1.34-.35,1.45-.38a8.15,8.15,0,0,0,1.45-.4,15.81,15.81,0,0,1,.12-3.89c.18-.76.71-2.06,0-2.72s-1.82-.43-2.6-.53a25.18,25.18,0,0,0-4.42-.27,3,3,0,0,0-.43.11c-.34.08-.68.18-1,.27l-1,.28a2.1,2.1,0,0,0-.42.12,67.71,67.71,0,0,0,0,7.54s1.34-.35,1.45-.38a8.15,8.15,0,0,0,1.45-.4Z"/><path class="cls-2" d="M59.52,90.2c0-1.52-.22-3-.23-4.54a10.45,10.45,0,0,1,.18-2.16c.08-.34.18-1,.59-1.09l-2.8.75a3.61,3.61,0,0,1,1.18.06,13.46,13.46,0,0,0,1.42,0c.84,0,2.23-.19,2.83.56s0,1.91-.06,2.69c-.14,1.45-.12,2.91-.12,4.35,0,0,1.33-.34,1.45-.37a8.4,8.4,0,0,0,1.45-.4,29.71,29.71,0,0,1,.31-5.5c.1-.56.22-1.24-.25-1.67a3,3,0,0,0-1.91-.45c-.7,0-1.41.06-2.11,0-.3,0-.59-.07-.89-.08a2.67,2.67,0,0,0-.88.12,21.3,21.3,0,0,0-2.49.68.67.67,0,0,0-.38.36,5.2,5.2,0,0,0-.4,2c-.1,1.82.2,3.63.21,5.45,0,0,1.34-.34,1.46-.37a8.28,8.28,0,0,0,1.44-.4Z"/></g><g id="small"><path class="cls-3" d="M38.5,125.1c4,0,7.93.48,11.91.31.44-1.5.06-3.33.25-4.9a52.67,52.67,0,0,0,.49-5.75,10.5,10.5,0,0,0-1.38-5.42,7,7,0,0,0-5.19-2.78,7.87,7.87,0,0,0-3.49.11,4.48,4.48,0,0,0-2.59,2.43A22.28,22.28,0,0,0,37.27,117,33.65,33.65,0,0,0,38.5,125.1Z"/><path class="cls-2" d="M42,124.44a45.54,45.54,0,0,1,0-6.29,27.92,27.92,0,0,1,.87-3.83c.25-1,.61-2.56,1.7-2.95l-2.7.73.17,0-.2,0a3.51,3.51,0,0,1,1.58.05,3.41,3.41,0,0,1,1.25,1,8,8,0,0,1,1.83,3.42,17.31,17.31,0,0,1,.49,4.18c0,.77,0,1.54,0,2.31A5.94,5.94,0,0,0,47,125s2.9-.76,2.9-.77a13.34,13.34,0,0,1-.06-3.46,24.31,24.31,0,0,0-.25-3.81,9.82,9.82,0,0,0-1.08-3.21,5.83,5.83,0,0,0-2-2.21,3.74,3.74,0,0,0-2.75,0c-1.11.29-2.49.36-3.1,1.44a13.26,13.26,0,0,0-1,3.15,16.32,16.32,0,0,0-.62,3,51.21,51.21,0,0,0,0,6.07c0-.19,2.91-.54,2.9-.77Z"/><path class="cls-1" d="M38.5,126.6c4,0,7.94.46,11.91.31a1.56,1.56,0,0,0,1.45-1.1c.44-1.75.13-3.52.3-5.3s.49-3.82.49-5.75c0-3-.86-6.12-3.34-8a8.73,8.73,0,0,0-4.25-1.65,9,9,0,0,0-4.92.33c-3.1,1.42-3.78,4.87-4.17,8a32.76,32.76,0,0,0,1.08,12.1c.47,1.87,3.37,1.08,2.9-.8a32,32,0,0,1-1.15-9.13,18.8,18.8,0,0,1,.46-3.66c.26-1.11.44-2.49,1.36-3.25a4,4,0,0,1,3.16-.68,7.48,7.48,0,0,1,3.42,1c2,1.21,2.45,3.67,2.45,5.82a48.35,48.35,0,0,1-.44,5.39c-.19,1.61.15,3.3-.25,4.86l1.45-1.1c-4,.15-7.94-.29-11.91-.31A1.5,1.5,0,0,0,38.5,126.6Z"/></g><g id="small-2" data-name="small"><g id="fill-2" data-name="fill"><path class="cls-3" d="M17.5,168.1c1.61,0,4.1.54,5.68.69s2.26.61,2.62-1.22c.43-2.19-.06-4.39.2-6.59a42.52,42.52,0,0,0,.22-7.22c-.14-2.78-2.63-3.94-5.07-3.23-1.67.48-2,1.53-2.32,3.28a31.5,31.5,0,0,0-.5,5.13c-.07,1.63-.22,3.23-.22,4.87C18.11,164.88,17.46,166,17.5,168.1Z"/></g><path class="cls-1" d="M23,151.9c-.79.58-1.91,1.19-2.3,2.13a15.87,15.87,0,0,0-.67,4.61c-.3,3.28.14,6.57.15,9.85,0-.23,2.9-.49,2.9-.77,0-3.29-.45-6.58-.15-9.86a19.11,19.11,0,0,1,.62-4.46c.36-1,1.51-1.66,2.34-2.28a5.15,5.15,0,0,1-1.45.37,4.68,4.68,0,0,0-1.44.41Z"/><g id="outline"><path class="cls-2" d="M17.5,169.6a53.1,53.1,0,0,1,5.33.65c1.33.17,2.74.5,3.71-.67,1.24-1.49,1-4,.91-5.82-.07-2.26.28-4.49.32-6.75,0-1.89.25-4.16-.79-5.83a5.09,5.09,0,0,0-4-2.33,5.26,5.26,0,0,0-4.48,1.63c-1.06,1.32-1.25,3.24-1.45,4.86-.3,2.45-.37,5-.45,7.42a10.07,10.07,0,0,1-.26,2.3,13.52,13.52,0,0,0-.37,3,1.5,1.5,0,0,0,3,0,31.74,31.74,0,0,1,.57-3.77c.18-1.6.15-3.26.23-4.87a35.45,35.45,0,0,1,.47-5.25c.2-1,.27-1.92,1.28-2.23a2.64,2.64,0,0,1,2.61.43c.91.91.62,2.71.62,3.87,0,1.93-.29,3.83-.35,5.74-.06,1.74.28,3.56-.11,5.28-.08.37-.33.6.09.24.2-.18.32-.06-.05-.1s-1.19-.14-1.77-.22a45.92,45.92,0,0,0-5.09-.62C15.57,166.57,15.57,169.57,17.5,169.6Z"/></g></g><g id="small-3" data-name="small"><g id="fill-3" data-name="fill"><path class="cls-3" d="M63.5,169.1c2.21,0,3.72-.13,5.93-.15.5,0,1.14.15,1.46-.29.74-1,.76-4.44.7-5.74a27.13,27.13,0,0,0-2-9.64,2.74,2.74,0,0,0-4.75-.42c-1.59,2.07-1.25,6.15-1.25,8.58C63.54,163.57,62.5,166.1,63.5,169.1Z"/></g><path class="cls-1" d="M62.92,154.35a3.54,3.54,0,0,1,1.36,1,13.13,13.13,0,0,1,1.37,1.42,6.5,6.5,0,0,1,.8,3.73c0,.7,0,1.41,0,2.11s.21,1.3.24,2-.12,1.48-.07,2.23.16,1.6.17,2.41c0-.22,2.9-.51,2.9-.77,0-.77-.11-1.52-.16-2.28s.07-1.49.06-2.24-.21-1.3-.24-1.95,0-1.5,0-2.25a6.75,6.75,0,0,0-.73-3.63,10.2,10.2,0,0,0-1.36-1.43,3.73,3.73,0,0,0-1.44-1c-.3-.1-1.14.29-1.45.37l-1,.28c-.09,0-.35.15-.43.12Z"/><g id="outline-2" data-name="outline"><path class="cls-2" d="M63.5,170.6c2,0,4-.18,5.93-.15a3.08,3.08,0,0,0,2.45-.66,3.77,3.77,0,0,0,.88-1.83,25.2,25.2,0,0,0-.2-9.75c-.54-3.09-1.61-8.38-5.77-8-3.85.34-4.67,4.59-4.77,7.74a44.29,44.29,0,0,1-.09,4.89,15,15,0,0,0,.12,6.67c.58,1.84,3.47,1.05,2.9-.8-.87-2.75.13-5.61.08-8.42a27.33,27.33,0,0,1,.09-3.84,4.57,4.57,0,0,1,1.09-2.91,1.21,1.21,0,0,1,1.84.12,6.74,6.74,0,0,1,.68,1.67,22.23,22.23,0,0,1,.71,2.54A27.13,27.13,0,0,1,70,166a7.72,7.72,0,0,1-.28,1.57c0,.07,0,.31,0,.17s0-.06,0,.07l.57-.34-1.11,0c-1.88,0-3.75.15-5.62.15A1.5,1.5,0,0,0,63.5,170.6Z"/></g></g><g id="small-4" data-name="small"><g id="fill-4" data-name="fill"><path class="cls-3" d="M38.5,212.1c0-5-2.73-19.27,6.11-18.65,2.56.18,6.15,1.12,6.57,3.63.16.93.15,2.84.35,3.76.25,1.13-.24,2.26-.06,3.39a19.94,19.94,0,0,1-.2,4.82c-.07.71-.06,1.39-.09,2.11,0,1.19.07,1.34-.91,1.62C46.62,213.82,42.5,213.1,38.5,212.1Z"/></g><path class="cls-2" d="M40.17,211a16.79,16.79,0,0,1,1.77-7c.71-1.62,1.47-3.51,2.9-4.63a3.92,3.92,0,0,1,.5-.33l.08,0c.51-.23.18-.15-1,.23l-1.13.3h.17a3.12,3.12,0,0,1,1.2.26,3.35,3.35,0,0,1,1.42,1.66,16.24,16.24,0,0,1,1.24,5.48c.08,1.26.16,2.53.22,3.79a5.59,5.59,0,0,0,.74,3.08,7.9,7.9,0,0,0,1.46-.38,9.92,9.92,0,0,1,1.44-.4,5.51,5.51,0,0,1-.74-3c-.06-1.2-.13-2.41-.2-3.61a19.48,19.48,0,0,0-.6-3.64,10.83,10.83,0,0,0-.8-2.41,2.88,2.88,0,0,0-1.8-1.56c-1.13-.27-2.45.33-3.51.62a4.24,4.24,0,0,0-2.32,1.42,11.2,11.2,0,0,0-1.49,2.4c-1.28,2.66-2.51,5.53-2.47,8.53,0,0,1.34-.34,1.45-.37a9.1,9.1,0,0,0,1.45-.4Z"/><g id="outline-3" data-name="outline"><path class="cls-1" d="M40,212.1c0-2.62-.36-5.24-.39-7.86s0-5.56,1.33-7.68A3.24,3.24,0,0,1,43.18,195a9.26,9.26,0,0,1,4.66.65,3.43,3.43,0,0,1,1.67,1.18,6.11,6.11,0,0,1,.36,2.7,17.75,17.75,0,0,1,.11,3.34c-.13,1.37.13,2.74,0,4.13s-.27,2.93-.32,4.41a3,3,0,0,0,0,.42c0,.3,0,.22.1-.23a.75.75,0,0,1,.33-.33,17.39,17.39,0,0,1-2.12.44,26.46,26.46,0,0,1-9.06-1.05c-1.88-.47-2.67,2.42-.8,2.89a30.43,30.43,0,0,0,9.52,1.19,9.22,9.22,0,0,0,4-.89c1-.6,1-1.65,1.08-2.69,0-1.58.25-3.12.35-4.69a13.94,13.94,0,0,0-.06-2.24,15.62,15.62,0,0,1,.12-2.37,33.79,33.79,0,0,0-.29-3.6,5.91,5.91,0,0,0-.89-3.21c-1.38-1.94-3.92-2.68-6.16-3a7.81,7.81,0,0,0-5.25.79c-2.91,1.8-3.62,5.5-3.83,8.65-.24,3.55.32,7.05.33,10.59A1.5,1.5,0,0,0,40,212.1Z"/></g></g><g id="outline-4" data-name="outline"><path class="cls-3" d="M89,273.1c-1-23.13-5.09-46-7.3-69-.57-5.86-.9-11.75-1.42-17.61-.49-5.42-1.07-10.78-1.34-16.21a71.54,71.54,0,0,0-.68-7.46c-.43-2.79-1.08-5.54-1.56-8.32a66.94,66.94,0,0,1-.71-8.6c-.14-3-.38-6-.64-8.91-.59-6.55-1-13.11-1.58-19.65C73.14,110.59,72,103.89,72,97.1l-1.5,1.5A21.57,21.57,0,0,0,75.43,98a1.54,1.54,0,0,0,1.1-1.45c.14-1.84.58-3.9-.08-5.68-1-2.58-4.35-1.36-6.45-1.74l1,1c-.26-1.21-.21-2.5-.43-3.74-.25-1.41-.49-2.81-.66-4.23s-.52-2.65-.77-4-.11-2.7-.28-4l-1.1,1.44a13.13,13.13,0,0,1,3.38-.26,1.53,1.53,0,0,0,1.5-1.5c0-.9-.23-1.76-.22-2.66a6.53,6.53,0,0,0-.15-2.25c-.47-1.41-1.8-1.42-3.06-1.49-3.25-.17-6.52.17-9.76.18L61,69.5c.89-4.22.71-8.58.76-12.87,0-1.41,0-2.81.1-4.21a8.66,8.66,0,0,0,.08-1.83,2.32,2.32,0,0,1,.06-.38,1.73,1.73,0,0,1-.61.45c-.22,0-.23,0-.05,0h.29a5.11,5.11,0,0,0,.94-.15,3.38,3.38,0,0,0,1.93-1.23,5.31,5.31,0,0,0,.41-4.85c-.88-1.72-3.14-1.68-4.81-1.8a4.37,4.37,0,0,1-.49-.12.65.65,0,0,1,.38.45s0-.5,0-.67a28.67,28.67,0,0,0,0-3.59,45.56,45.56,0,0,1,0-8.34l-1.1,1.45a3.14,3.14,0,0,0,2.33-1.24,4.33,4.33,0,0,0,.16-3.24,34.67,34.67,0,0,0-3-7.82,12.67,12.67,0,0,0-5.71-4.85A10.58,10.58,0,0,1,49.35,13,5.12,5.12,0,0,1,48,9.1l-1.1,1.45c3.15-1.3,3.91-4.68,2.27-7.56a5.75,5.75,0,0,0-8.48-1.86,5.69,5.69,0,0,0-2.55,4.28,5,5,0,0,0,.44,2.41,5,5,0,0,1,.75,2C39.41,12,36.2,13.07,34.69,14a20.32,20.32,0,0,0-5.28,4.25A11.67,11.67,0,0,0,27,24.54a13.59,13.59,0,0,1-.28,3.18A11.64,11.64,0,0,0,26,30.44a1.52,1.52,0,0,0,1.5,1.5c.24,0,1,.16,1.18,0s.1.09-.35-.45c-.63-.77-.25-.33-.34.06a20.47,20.47,0,0,0-.18,4.29c0,2.86.25,5.72,0,8.57l1.5-1.5c-1.72,0-4.05-.72-5.57.36-1.81,1.28-.89,4-.76,5.75a1.53,1.53,0,0,0,1.5,1.5c.33,0,1.69-.2,1.86,0a7,7,0,0,1-.06,1.92c0,1.76-.06,3.51,0,5.26.12,3.81-.22,7.6-.24,11.41l1.5-1.5c-2.64,0-5.28.32-7.92.35-1.89,0-4.48-.78-4.95,1.78a17.48,17.48,0,0,0,0,2.61,4.24,4.24,0,0,0,.44,2.74,3.22,3.22,0,0,0,2.43.83c1,.06,2,.12,3,.24l-1.06-.44.05.05L19,74.7c.33,4-1.54,7.6-2.38,11.45A13.65,13.65,0,0,0,16.29,89v.37c-.13.59.16.6.85,0-.07-.14-.9-.13-1-.15-1.36-.14-3.18-.4-4.28.63-.89.83-.7,2.1-.71,3.2s0,2.63.82,3.6c1,1.13,2.42.8,3.75.74a22.08,22.08,0,0,1,2.81.17l-1.45-1.9a118.73,118.73,0,0,0-2.25,16.36c-.16,2.94-.19,5.9-.36,8.84s-.64,5.9-1,8.86c-.71,6.07-1.61,12.13-1.88,18.24s-1.11,12.31-1.6,18.47-1.19,12.11-1.47,18.2a141.77,141.77,0,0,1-2.28,17.41C4.53,212,4,222.06,2.72,232c-.44,3.44-1.19,6.82-1.41,10.29s-.15,6.74-.3,10.11c-.32,6.9-1,13.75-1,20.67a1.52,1.52,0,0,0,1.5,1.5h86a1.5,1.5,0,0,0,0-3H1.5L3,273.1c0-6.12.42-12.23.86-18.34S4,242.76,5,236.81c1.8-10.18,2-20.59,3.6-30.81.85-5.58,2.08-11.1,2.6-16.72.27-2.91.33-5.83.49-8.75s.57-6,.86-9.06q.84-9.08,1.7-18.15c.29-3.1.31-6.21.53-9.31s.76-6.07,1.1-9.1c.74-6.56,1.55-13,1.78-19.63A116.35,116.35,0,0,1,20,96.5a1.53,1.53,0,0,0-1.45-1.9,22.08,22.08,0,0,0-2.81-.17,5.76,5.76,0,0,0-1.45.12h-.35c.34.33.44.32.28-.05a6.12,6.12,0,0,0,0-1.65,6.1,6.1,0,0,0,0-1.14l-.38.49a2.3,2.3,0,0,1,.74-.06,18.61,18.61,0,0,1,2.11.21c1.8.18,2.63-1.1,2.7-2.79.16-4.29,2.4-8.07,2.67-12.34.09-1.47.58-3.54-1.27-4-1.29-.34-2.8,0-4.06-.45l1.05,1a9.5,9.5,0,0,1-.1-2.67,3.92,3.92,0,0,0,0-.76c0-.22-.08-.17-.34.17-.41.18-.46.28-.14.29.35.25,1.45.13,1.81.13,2.88,0,5.74-.32,8.61-.34A1.52,1.52,0,0,0,29,69.1c0-2.48.18-4.95.26-7.42s-.07-4.66-.05-7c0-1.61.5-4-.21-5.46-.85-1.81-2.86-1.66-4.56-1.68l1.5,1.5c-.05-.72-.2-1.42-.27-2.13,0-.29,0-.67-.06-.95-.14-.6.28-.3-.26-.16,1.22-.32,2.68.14,3.92.13a1.53,1.53,0,0,0,1.5-1.5c.36-3.88-.12-7.78.12-11.67.07-1.07.31-2.41-.56-3.24s-1.89-.54-2.85-.58l1.5,1.5a13.43,13.43,0,0,1,.73-2.28A10,10,0,0,0,30,25.33,8.45,8.45,0,0,1,32,19.8c1.55-1.76,3.87-3,5.87-4.19,1.71-1,3.69-2.18,4.25-4.2a5.89,5.89,0,0,0,0-2.83,14.42,14.42,0,0,0-.89-2c-.59-1.56.65-2.94,2.07-3.42a2.69,2.69,0,0,1,3.36,1.65c.46,1,.58,2.4-.61,2.9A1.58,1.58,0,0,0,45,9.1a7.91,7.91,0,0,0,2.65,6.36c1.73,1.41,4,1.84,5.84,3.16,2.08,1.53,2.88,3.54,3.76,5.89.42,1.1.72,2.11,1,3.23A8,8,0,0,0,58.54,29l-.06.22c.53-.43.63-.6.31-.5a4.24,4.24,0,0,0-.76.17,1.53,1.53,0,0,0-1.1,1.44,45.56,45.56,0,0,0,0,8.34,28.67,28.67,0,0,1,0,3.59,3.69,3.69,0,0,0,.26,2c.69,1.3,2.49,1.38,3.78,1.49.28,0,1.06-.06,1.29.16-.21-.2-.08.55-.1.73-.07.74-.05,1-.68,1a2.45,2.45,0,0,0-2.42,1.56c-.63,1.93-.35,4.35-.38,6.34-.07,4.35.23,8.85-.68,13.13a1.53,1.53,0,0,0,1.45,1.9c2.52,0,5-.15,7.56-.19.56,0,1.12,0,1.67,0a8.26,8.26,0,0,0,1.21.07c.39,0,.77.28,0-.32s-.42-.05-.42.52c0,.33,0,.65,0,1,0,.74.22,1.45.23,2.18l1.5-1.5a15.81,15.81,0,0,0-4.18.37,1.51,1.51,0,0,0-1.1,1.45c.17,1.38.08,2.77.28,4.15s.64,2.9.82,4.39.38,2.68.62,4,.23,2.85.53,4.25a1.44,1.44,0,0,0,1,1,15.46,15.46,0,0,0,3.4.27,3.83,3.83,0,0,0,1.23-.09h.22l-.44-.34a1.58,1.58,0,0,1,.1.37c-.06,1.44-.08,2.88-.19,4.33l1.1-1.45a17.46,17.46,0,0,1-4.13.54A1.53,1.53,0,0,0,69,97.1c0,6,.89,11.92,1.53,17.87s.88,11.89,1.43,17.84.82,11.63,1.2,17.46c.36,5.57,2.14,10.93,2.56,16.5.39,5,.47,10.09,1.06,15.12.68,5.89,1,11.81,1.5,17.72,1.06,12,2.52,23.93,4.08,35.86C84,248,85.43,260.5,86,273.1,86.09,275,89.09,275,89,273.1Z"/></g></g></g></g></svg>